<?xml version="1.0" encoding="utf-8"?>
<!-- Generator: Adobe Illustrator 24.0.1, SVG Export Plug-In . SVG Version: 6.00 Build 0)  -->
<svg version="1.1" id="Layer_1" xmlns="http://www.w3.org/2000/svg" xmlns:xlink="http://www.w3.org/1999/xlink" x="0px" y="0px"
	 viewBox="0 0 1114.1 1666.3" style="enable-background:new 0 0 1114.1 1666.3;" xml:space="preserve">
<style type="text/css">
	.st0{opacity:7.000000e-02;}
	.st1{fill:none;stroke:#FFFFFF;stroke-width:0.75;stroke-miterlimit:10;}
	.st2{opacity:6.000000e-02;}
	.st3{opacity:5.000000e-02;}
	.st4{opacity:4.000000e-02;}
	.st5{opacity:3.000000e-02;}
	.st6{opacity:2.000000e-02;}
	.st7{opacity:1.000000e-02;}
	.st8{opacity:0.15;}
	.st9{opacity:0.12;}
	.st10{opacity:0.1;}
	.st11{opacity:0.2;}
	.st12{fill:#111111;stroke:#FFFFFF;stroke-width:0.5;stroke-miterlimit:10;}
	.st13{opacity:0.8;}
	.st14{fill:url(#SVGID_1_);}
	.st15{opacity:0.7;}
	.st16{fill:url(#SVGID_2_);}
	.st17{opacity:0.6;}
	.st18{fill:url(#SVGID_3_);}
	.st19{opacity:0.5;}
	.st20{fill:url(#SVGID_4_);}
	.st21{opacity:0.4;}
	.st22{fill:url(#SVGID_5_);}
	.st23{opacity:0.3;}
	.st24{fill:url(#SVGID_6_);}
	.st25{fill:url(#SVGID_7_);}
	.st26{opacity:8.000000e-02;}
	.st27{fill:url(#SVGID_8_);}
	.st28{fill:url(#SVGID_9_);}
	.st29{opacity:0.9;}
	.st30{fill:url(#SVGID_10_);}
	.st31{fill:url(#SVGID_11_);}
	.st32{fill:url(#SVGID_12_);}
</style>
<g>
	<g class="st0">
		<path class="st1" d="M183.5,137.2l-18.4,18.4H72.8v92H54.4v-92l18.4-18.4h83l9.2-9.2V72.8l-9.2-9.2h-83v73.6H54.4v-92h110.7
			l18.4,18.4V137.2z"/>
		<path class="st1" d="M312.7,174.1v-64.4l-46.1-46l-46.1,46v64.4H312.7l18.4,18.4v55.2h-18.4v-55.2h-92.2L202,174.1v-73.6
			l55.3-55.2h18.4l55.3,55.2v73.6H312.7z M220.4,192.5v55.2H202v-55.2H220.4z"/>
		<path class="st1" d="M423.3,155.6v92h-18.4v-92l-55.3-55.2V45.2H368v46l46.1,46l46.1-46v-46h18.4v55.2L423.3,155.6z"/>
		<path class="st1" d="M118.9,467.5l-46.1,55.2H54.4V320.2h18.4v174.8l36.9-46h18.4l36.9,46V320.2h18.4v202.4h-18.4L118.9,467.5z"/>
		<path class="st1" d="M257.3,504.3V338.6l18.4-18.4h55.3v18.4h-55.3v165.6l-18.4,18.4H202v-18.4H257.3z M257.3,320.2v18.4H202
			v-18.4H257.3z M331.1,504.3v18.4h-55.3v-18.4H331.1z"/>
		<path class="st1" d="M404.9,338.6h-55.3v-18.4h55.3V338.6z M478.7,338.6h-55.3v184h-18.4v-184l18.4-18.4h55.3V338.6z"/>
		<path class="st1" d="M607.8,412.2l18.4,18.4v92h-18.4v-92h-92.2l-18.4-18.4v-92h18.4v92H607.8z M515.6,430.6v92h-18.4v-92H515.6z
			 M607.8,412.2v-92h18.4v92H607.8z"/>
		<path class="st1" d="M183.5,687.2l-18.4,18.4H72.8v92H54.4v-92l18.4-18.4h83l9.2-9.2v-55.2l-9.2-9.2h-83v73.6H54.4v-92h110.7
			l18.4,18.4V687.2z"/>
		<path class="st1" d="M257.3,779.3V613.6l18.4-18.4h55.3v18.4h-55.3v165.6l-18.4,18.4H202v-18.4H257.3z M257.3,595.2v18.4H202
			v-18.4H257.3z M331.1,779.3v18.4h-55.3v-18.4H331.1z"/>
		<path class="st1" d="M478.7,797.7h-18.4v-36.8L368,659.6v138h-18.4V595.2H368V632l92.2,101.2v-138h18.4V797.7z"/>
		<path class="st1" d="M626.3,779.3l-18.4,18.4h-92.2l-18.4-18.4V613.6l18.4-18.4h92.2l18.4,18.4v46h-18.4v-36.8l-9.2-9.2h-73.8
			l-9.2,9.2v147.2l9.2,9.2h73.8l9.2-9.2v-36.8h18.4V779.3z"/>
		<path class="st1" d="M755.4,687.2l18.4,18.4v92h-18.4v-92h-92.2l-18.4-18.4v-92h18.4v92H755.4z M663.2,705.6v92h-18.4v-92H663.2z
			 M755.4,687.2v-92h18.4v92H755.4z"/>
	</g>
	<g class="st2">
		<path class="st1" d="M174.5,146.2l-18.4,18.4H63.8v92H45.4v-92l18.4-18.4h83l9.2-9.2V81.8l-9.2-9.2h-83v73.6H45.4v-92h110.7
			l18.4,18.4V146.2z"/>
		<path class="st1" d="M303.7,183.1v-64.4l-46.1-46l-46.1,46v64.4H303.7l18.4,18.4v55.2h-18.4v-55.2h-92.2L193,183.1v-73.6
			l55.3-55.2h18.4l55.3,55.2v73.6H303.7z M211.4,201.5v55.2H193v-55.2H211.4z"/>
		<path class="st1" d="M414.3,164.6v92h-18.4v-92l-55.3-55.2V54.2H359v46l46.1,46l46.1-46v-46h18.4v55.2L414.3,164.6z"/>
		<path class="st1" d="M109.9,476.5l-46.1,55.2H45.4V329.2h18.4v174.8l36.9-46h18.4l36.9,46V329.2h18.4v202.4h-18.4L109.9,476.5z"/>
		<path class="st1" d="M248.3,513.3V347.6l18.4-18.4h55.3v18.4h-55.3v165.6l-18.4,18.4H193v-18.4H248.3z M248.3,329.2v18.4H193
			v-18.4H248.3z M322.1,513.3v18.4h-55.3v-18.4H322.1z"/>
		<path class="st1" d="M395.9,347.6h-55.3v-18.4h55.3V347.6z M469.7,347.6h-55.3v184h-18.4v-184l18.4-18.4h55.3V347.6z"/>
		<path class="st1" d="M598.8,421.2l18.4,18.4v92h-18.4v-92h-92.2l-18.4-18.4v-92h18.4v92H598.8z M506.6,439.6v92h-18.4v-92H506.6z
			 M598.8,421.2v-92h18.4v92H598.8z"/>
		<path class="st1" d="M174.5,696.2l-18.4,18.4H63.8v92H45.4v-92l18.4-18.4h83l9.2-9.2v-55.2l-9.2-9.2h-83v73.6H45.4v-92h110.7
			l18.4,18.4V696.2z"/>
		<path class="st1" d="M248.3,788.3V622.6l18.4-18.4h55.3v18.4h-55.3v165.6l-18.4,18.4H193v-18.4H248.3z M248.3,604.2v18.4H193
			v-18.4H248.3z M322.1,788.3v18.4h-55.3v-18.4H322.1z"/>
		<path class="st1" d="M469.7,806.7h-18.4v-36.8L359,668.6v138h-18.4V604.2H359V641l92.2,101.2v-138h18.4V806.7z"/>
		<path class="st1" d="M617.3,788.3l-18.4,18.4h-92.2l-18.4-18.4V622.6l18.4-18.4h92.2l18.4,18.4v46h-18.4v-36.8l-9.2-9.2h-73.8
			l-9.2,9.2v147.2l9.2,9.2h73.8l9.2-9.2v-36.8h18.4V788.3z"/>
		<path class="st1" d="M746.4,696.2l18.4,18.4v92h-18.4v-92h-92.2l-18.4-18.4v-92h18.4v92H746.4z M654.2,714.6v92h-18.4v-92H654.2z
			 M746.4,696.2v-92h18.4v92H746.4z"/>
	</g>
	<g class="st3">
		<path class="st1" d="M165.5,155.2l-18.4,18.4H54.8v92H36.4v-92l18.4-18.4h83l9.2-9.2V90.8l-9.2-9.2h-83v73.6H36.4v-92h110.7
			l18.4,18.4V155.2z"/>
		<path class="st1" d="M294.7,192.1v-64.4l-46.1-46l-46.1,46v64.4H294.7l18.4,18.4v55.2h-18.4v-55.2h-92.2L184,192.1v-73.6
			l55.3-55.2h18.4l55.3,55.2v73.6H294.7z M202.4,210.5v55.2H184v-55.2H202.4z"/>
		<path class="st1" d="M405.3,173.6v92h-18.4v-92l-55.3-55.2V63.2H350v46l46.1,46l46.1-46v-46h18.4v55.2L405.3,173.6z"/>
		<path class="st1" d="M100.9,485.5l-46.1,55.2H36.4V338.2h18.4v174.8l36.9-46h18.4l36.9,46V338.2h18.4v202.4h-18.4L100.9,485.5z"/>
		<path class="st1" d="M239.3,522.3V356.6l18.4-18.4h55.3v18.4h-55.3v165.6l-18.4,18.4H184v-18.4H239.3z M239.3,338.2v18.4H184
			v-18.4H239.3z M313.1,522.3v18.4h-55.3v-18.4H313.1z"/>
		<path class="st1" d="M386.9,356.6h-55.3v-18.4h55.3V356.6z M460.7,356.6h-55.3v184h-18.4v-184l18.4-18.4h55.3V356.6z"/>
		<path class="st1" d="M589.8,430.2l18.4,18.4v92h-18.4v-92h-92.2l-18.4-18.4v-92h18.4v92H589.8z M497.6,448.6v92h-18.4v-92H497.6z
			 M589.8,430.2v-92h18.4v92H589.8z"/>
		<path class="st1" d="M165.5,705.2l-18.4,18.4H54.8v92H36.4v-92l18.4-18.4h83l9.2-9.2v-55.2l-9.2-9.2h-83v73.6H36.4v-92h110.7
			l18.4,18.4V705.2z"/>
		<path class="st1" d="M239.3,797.3V631.6l18.4-18.4h55.3v18.4h-55.3v165.6l-18.4,18.4H184v-18.4H239.3z M239.3,613.2v18.4H184
			v-18.4H239.3z M313.1,797.3v18.4h-55.3v-18.4H313.1z"/>
		<path class="st1" d="M460.7,815.7h-18.4v-36.8L350,677.6v138h-18.4V613.2H350V650l92.2,101.2v-138h18.4V815.7z"/>
		<path class="st1" d="M608.3,797.3l-18.4,18.4h-92.2l-18.4-18.4V631.6l18.4-18.4h92.2l18.4,18.4v46h-18.4v-36.8l-9.2-9.2h-73.8
			l-9.2,9.2v147.2l9.2,9.2h73.8l9.2-9.2v-36.8h18.4V797.3z"/>
		<path class="st1" d="M737.4,705.2l18.4,18.4v92h-18.4v-92h-92.2l-18.4-18.4v-92h18.4v92H737.4z M645.2,723.6v92h-18.4v-92H645.2z
			 M737.4,705.2v-92h18.4v92H737.4z"/>
	</g>
	<g class="st4">
		<path class="st1" d="M156.5,164.2l-18.4,18.4H45.8v92H27.4v-92l18.4-18.4h83l9.2-9.2V99.8l-9.2-9.2h-83v73.6H27.4v-92h110.7
			l18.4,18.4V164.2z"/>
		<path class="st1" d="M285.7,201.1v-64.4l-46.1-46l-46.1,46v64.4H285.7l18.4,18.4v55.2h-18.4v-55.2h-92.2L175,201.1v-73.6
			l55.3-55.2h18.4l55.3,55.2v73.6H285.7z M193.4,219.5v55.2H175v-55.2H193.4z"/>
		<path class="st1" d="M396.3,182.6v92h-18.4v-92l-55.3-55.2V72.2H341v46l46.1,46l46.1-46v-46h18.4v55.2L396.3,182.6z"/>
		<path class="st1" d="M91.9,494.5l-46.1,55.2H27.4V347.2h18.4v174.8l36.9-46h18.4l36.9,46V347.2h18.4v202.4h-18.4L91.9,494.5z"/>
		<path class="st1" d="M230.3,531.3V365.6l18.4-18.4h55.3v18.4h-55.3v165.6l-18.4,18.4H175v-18.4H230.3z M230.3,347.2v18.4H175
			v-18.4H230.3z M304.1,531.3v18.4h-55.3v-18.4H304.1z"/>
		<path class="st1" d="M377.9,365.6h-55.3v-18.4h55.3V365.6z M451.7,365.6h-55.3v184h-18.4v-184l18.4-18.4h55.3V365.6z"/>
		<path class="st1" d="M580.8,439.2l18.4,18.4v92h-18.4v-92h-92.2l-18.4-18.4v-92h18.4v92H580.8z M488.6,457.6v92h-18.4v-92H488.6z
			 M580.8,439.2v-92h18.4v92H580.8z"/>
		<path class="st1" d="M156.5,714.2l-18.4,18.4H45.8v92H27.4v-92l18.4-18.4h83l9.2-9.2v-55.2l-9.2-9.2h-83v73.6H27.4v-92h110.7
			l18.4,18.4V714.2z"/>
		<path class="st1" d="M230.3,806.3V640.6l18.4-18.4h55.3v18.4h-55.3v165.6l-18.4,18.4H175v-18.4H230.3z M230.3,622.2v18.4H175
			v-18.4H230.3z M304.1,806.3v18.4h-55.3v-18.4H304.1z"/>
		<path class="st1" d="M451.7,824.7h-18.4v-36.8L341,686.6v138h-18.4V622.2H341V659l92.2,101.2v-138h18.4V824.7z"/>
		<path class="st1" d="M599.3,806.3l-18.4,18.4h-92.2l-18.4-18.4V640.6l18.4-18.4h92.2l18.4,18.4v46h-18.4v-36.8l-9.2-9.2h-73.8
			l-9.2,9.2v147.2l9.2,9.2h73.8l9.2-9.2v-36.8h18.4V806.3z"/>
		<path class="st1" d="M728.4,714.2l18.4,18.4v92h-18.4v-92h-92.2l-18.4-18.4v-92h18.4v92H728.4z M636.2,732.6v92h-18.4v-92H636.2z
			 M728.4,714.2v-92h18.4v92H728.4z"/>
	</g>
	<g class="st5">
		<path class="st1" d="M147.5,173.2l-18.4,18.4H36.8v92H18.4v-92l18.4-18.4h83l9.2-9.2v-55.2l-9.2-9.2h-83v73.6H18.4v-92h110.7
			l18.4,18.4V173.2z"/>
		<path class="st1" d="M276.7,210.1v-64.4l-46.1-46l-46.1,46v64.4H276.7l18.4,18.4v55.2h-18.4v-55.2h-92.2L166,210.1v-73.6
			l55.3-55.2h18.4l55.3,55.2v73.6H276.7z M184.4,228.5v55.2H166v-55.2H184.4z"/>
		<path class="st1" d="M387.3,191.6v92h-18.4v-92l-55.3-55.2V81.2H332v46l46.1,46l46.1-46v-46h18.4v55.2L387.3,191.6z"/>
		<path class="st1" d="M82.9,503.5l-46.1,55.2H18.4V356.2h18.4v174.8l36.9-46h18.4l36.9,46V356.2h18.4v202.4h-18.4L82.9,503.5z"/>
		<path class="st1" d="M221.3,540.3V374.6l18.4-18.4h55.3v18.4h-55.3v165.6l-18.4,18.4H166v-18.4H221.3z M221.3,356.2v18.4H166
			v-18.4H221.3z M295.1,540.3v18.4h-55.3v-18.4H295.1z"/>
		<path class="st1" d="M368.9,374.6h-55.3v-18.4h55.3V374.6z M442.7,374.6h-55.3v184h-18.4v-184l18.4-18.4h55.3V374.6z"/>
		<path class="st1" d="M571.8,448.2l18.4,18.4v92h-18.4v-92h-92.2l-18.4-18.4v-92h18.4v92H571.8z M479.6,466.6v92h-18.4v-92H479.6z
			 M571.8,448.2v-92h18.4v92H571.8z"/>
		<path class="st1" d="M147.5,723.2l-18.4,18.4H36.8v92H18.4v-92l18.4-18.4h83l9.2-9.2v-55.2l-9.2-9.2h-83v73.6H18.4v-92h110.7
			l18.4,18.4V723.2z"/>
		<path class="st1" d="M221.3,815.3V649.6l18.4-18.4h55.3v18.4h-55.3v165.6l-18.4,18.4H166v-18.4H221.3z M221.3,631.2v18.4H166
			v-18.4H221.3z M295.1,815.3v18.4h-55.3v-18.4H295.1z"/>
		<path class="st1" d="M442.7,833.7h-18.4v-36.8L332,695.6v138h-18.4V631.2H332V668l92.2,101.2v-138h18.4V833.7z"/>
		<path class="st1" d="M590.3,815.3l-18.4,18.4h-92.2l-18.4-18.4V649.6l18.4-18.4h92.2l18.4,18.4v46h-18.4v-36.8l-9.2-9.2h-73.8
			l-9.2,9.2v147.2l9.2,9.2h73.8l9.2-9.2v-36.8h18.4V815.3z"/>
		<path class="st1" d="M719.4,723.2l18.4,18.4v92h-18.4v-92h-92.2l-18.4-18.4v-92h18.4v92H719.4z M627.2,741.6v92h-18.4v-92H627.2z
			 M719.4,723.2v-92h18.4v92H719.4z"/>
	</g>
	<g class="st6">
		<path class="st1" d="M138.5,182.2l-18.4,18.4H27.8v92H9.4v-92l18.4-18.4h83l9.2-9.2v-55.2l-9.2-9.2h-83v73.6H9.4v-92h110.7
			l18.4,18.4V182.2z"/>
		<path class="st1" d="M267.7,219.1v-64.4l-46.1-46l-46.1,46v64.4H267.7l18.4,18.4v55.2h-18.4v-55.2h-92.2L157,219.1v-73.6
			l55.3-55.2h18.4l55.3,55.2v73.6H267.7z M175.4,237.5v55.2H157v-55.2H175.4z"/>
		<path class="st1" d="M378.3,200.6v92h-18.4v-92l-55.3-55.2V90.2H323v46l46.1,46l46.1-46v-46h18.4v55.2L378.3,200.6z"/>
		<path class="st1" d="M73.9,512.5l-46.1,55.2H9.4V365.2h18.4v174.8l36.9-46h18.4l36.9,46V365.2h18.4v202.4h-18.4L73.9,512.5z"/>
		<path class="st1" d="M212.3,549.3V383.6l18.4-18.4h55.3v18.4h-55.3v165.6l-18.4,18.4H157v-18.4H212.3z M212.3,365.2v18.4H157
			v-18.4H212.3z M286.1,549.3v18.4h-55.3v-18.4H286.1z"/>
		<path class="st1" d="M359.9,383.6h-55.3v-18.4h55.3V383.6z M433.7,383.6h-55.3v184h-18.4v-184l18.4-18.4h55.3V383.6z"/>
		<path class="st1" d="M562.8,457.2l18.4,18.4v92h-18.4v-92h-92.2l-18.4-18.4v-92h18.4v92H562.8z M470.6,475.6v92h-18.4v-92H470.6z
			 M562.8,457.2v-92h18.4v92H562.8z"/>
		<path class="st1" d="M138.5,732.2l-18.4,18.4H27.8v92H9.4v-92l18.4-18.4h83l9.2-9.2v-55.2l-9.2-9.2h-83v73.6H9.4v-92h110.7
			l18.4,18.4V732.2z"/>
		<path class="st1" d="M212.3,824.3V658.6l18.4-18.4h55.3v18.4h-55.3v165.6l-18.4,18.4H157v-18.4H212.3z M212.3,640.2v18.4H157
			v-18.4H212.3z M286.1,824.3v18.4h-55.3v-18.4H286.1z"/>
		<path class="st1" d="M433.7,842.7h-18.4v-36.8L323,704.6v138h-18.4V640.2H323V677l92.2,101.2v-138h18.4V842.7z"/>
		<path class="st1" d="M581.3,824.3l-18.4,18.4h-92.2l-18.4-18.4V658.6l18.4-18.4h92.2l18.4,18.4v46h-18.4v-36.8l-9.2-9.2h-73.8
			l-9.2,9.2v147.2l9.2,9.2h73.8l9.2-9.2v-36.8h18.4V824.3z"/>
		<path class="st1" d="M710.4,732.2l18.4,18.4v92h-18.4v-92h-92.2l-18.4-18.4v-92h18.4v92H710.4z M618.2,750.6v92h-18.4v-92H618.2z
			 M710.4,732.2v-92h18.4v92H710.4z"/>
	</g>
	<g class="st7">
		<path class="st1" d="M129.5,191.2l-18.4,18.4H18.8v92H0.4v-92l18.4-18.4h83l9.2-9.2v-55.2l-9.2-9.2h-83v73.6H0.4v-92h110.7
			l18.4,18.4V191.2z"/>
		<path class="st1" d="M258.7,228.1v-64.4l-46.1-46l-46.1,46v64.4H258.7l18.4,18.4v55.2h-18.4v-55.2h-92.2L148,228.1v-73.6
			l55.3-55.2h18.4l55.3,55.2v73.6H258.7z M166.4,246.5v55.2H148v-55.2H166.4z"/>
		<path class="st1" d="M369.3,209.6v92h-18.4v-92l-55.3-55.2V99.2H314v46l46.1,46l46.1-46v-46h18.4v55.2L369.3,209.6z"/>
		<path class="st1" d="M64.9,521.5l-46.1,55.2H0.4V374.2h18.4v174.8l36.9-46h18.4l36.9,46V374.2h18.4v202.4h-18.4L64.9,521.5z"/>
		<path class="st1" d="M203.3,558.3V392.6l18.4-18.4h55.3v18.4h-55.3v165.6l-18.4,18.4H148v-18.4H203.3z M203.3,374.2v18.4H148
			v-18.4H203.3z M277.1,558.3v18.4h-55.3v-18.4H277.1z"/>
		<path class="st1" d="M350.9,392.6h-55.3v-18.4h55.3V392.6z M424.7,392.6h-55.3v184h-18.4v-184l18.4-18.4h55.3V392.6z"/>
		<path class="st1" d="M553.8,466.2l18.4,18.4v92h-18.4v-92h-92.2l-18.4-18.4v-92h18.4v92H553.8z M461.6,484.6v92h-18.4v-92H461.6z
			 M553.8,466.2v-92h18.4v92H553.8z"/>
		<path class="st1" d="M129.5,741.2l-18.4,18.4H18.8v92H0.4v-92l18.4-18.4h83l9.2-9.2v-55.2l-9.2-9.2h-83v73.6H0.4v-92h110.7
			l18.4,18.4V741.2z"/>
		<path class="st1" d="M203.3,833.3V667.6l18.4-18.4h55.3v18.4h-55.3v165.6l-18.4,18.4H148v-18.4H203.3z M203.3,649.2v18.4H148
			v-18.4H203.3z M277.1,833.3v18.4h-55.3v-18.4H277.1z"/>
		<path class="st1" d="M424.7,851.7h-18.4v-36.8L314,713.6v138h-18.4V649.2H314V686l92.2,101.2v-138h18.4V851.7z"/>
		<path class="st1" d="M572.3,833.3l-18.4,18.4h-92.2l-18.4-18.4V667.6l18.4-18.4h92.2l18.4,18.4v46h-18.4v-36.8l-9.2-9.2h-73.8
			l-9.2,9.2v147.2l9.2,9.2h73.8l9.2-9.2v-36.8h18.4V833.3z"/>
		<path class="st1" d="M701.4,741.2l18.4,18.4v92h-18.4v-92h-92.2l-18.4-18.4v-92h18.4v92H701.4z M609.2,759.6v92h-18.4v-92H609.2z
			 M701.4,741.2v-92h18.4v92H701.4z"/>
	</g>
	<g class="st8">
		<path class="st1" d="M210.5,110.2l-18.4,18.4H99.8v92H81.4v-92l18.4-18.4h83l9.2-9.2V45.8l-9.2-9.2h-83v73.6H81.4v-92h110.7
			l18.4,18.4V110.2z"/>
		<path class="st1" d="M339.7,147.1V82.6l-46.1-46l-46.1,46v64.4H339.7l18.4,18.4v55.2h-18.4v-55.2h-92.2L229,147.1V73.4l55.3-55.2
			h18.4l55.3,55.2v73.6H339.7z M247.4,165.5v55.2H229v-55.2H247.4z"/>
		<path class="st1" d="M450.3,128.6v92h-18.4v-92l-55.3-55.2V18.2H395v46l46.1,46l46.1-46v-46h18.4v55.2L450.3,128.6z"/>
		<path class="st1" d="M145.9,440.5l-46.1,55.2H81.4V293.2h18.4v174.8l36.9-46h18.4l36.9,46V293.2h18.4v202.4h-18.4L145.9,440.5z"/>
		<path class="st1" d="M284.3,477.3V311.6l18.4-18.4h55.3v18.4h-55.3v165.6l-18.4,18.4H229v-18.4H284.3z M284.3,293.2v18.4H229
			v-18.4H284.3z M358.1,477.3v18.4h-55.3v-18.4H358.1z"/>
		<path class="st1" d="M431.9,311.6h-55.3v-18.4h55.3V311.6z M505.7,311.6h-55.3v184h-18.4v-184l18.4-18.4h55.3V311.6z"/>
		<path class="st1" d="M634.8,385.2l18.4,18.4v92h-18.4v-92h-92.2l-18.4-18.4v-92h18.4v92H634.8z M542.6,403.6v92h-18.4v-92H542.6z
			 M634.8,385.2v-92h18.4v92H634.8z"/>
		<path class="st1" d="M210.5,660.2l-18.4,18.4H99.8v92H81.4v-92l18.4-18.4h83l9.2-9.2v-55.2l-9.2-9.2h-83v73.6H81.4v-92h110.7
			l18.4,18.4V660.2z"/>
		<path class="st1" d="M284.3,752.3V586.6l18.4-18.4h55.3v18.4h-55.3v165.6l-18.4,18.4H229v-18.4H284.3z M284.3,568.2v18.4H229
			v-18.4H284.3z M358.1,752.3v18.4h-55.3v-18.4H358.1z"/>
		<path class="st1" d="M505.7,770.7h-18.4v-36.8L395,632.6v138h-18.4V568.2H395V605l92.2,101.2v-138h18.4V770.7z"/>
		<path class="st1" d="M653.3,752.3l-18.4,18.4h-92.2l-18.4-18.4V586.6l18.4-18.4h92.2l18.4,18.4v46h-18.4v-36.8l-9.2-9.2h-73.8
			l-9.2,9.2v147.2l9.2,9.2h73.8l9.2-9.2v-36.8h18.4V752.3z"/>
		<path class="st1" d="M782.4,660.2l18.4,18.4v92h-18.4v-92h-92.2l-18.4-18.4v-92h18.4v92H782.4z M690.2,678.6v92h-18.4v-92H690.2z
			 M782.4,660.2v-92h18.4v92H782.4z"/>
	</g>
	<g class="st9">
		<path class="st1" d="M201.5,119.2l-18.4,18.4H90.8v92H72.4v-92l18.4-18.4h83l9.2-9.2V54.8l-9.2-9.2h-83v73.6H72.4v-92h110.7
			l18.4,18.4V119.2z"/>
		<path class="st1" d="M330.7,156.1V91.6l-46.1-46l-46.1,46v64.4H330.7l18.4,18.4v55.2h-18.4v-55.2h-92.2L220,156.1V82.4l55.3-55.2
			h18.4l55.3,55.2v73.6H330.7z M238.4,174.5v55.2H220v-55.2H238.4z"/>
		<path class="st1" d="M441.3,137.6v92h-18.4v-92l-55.3-55.2V27.2H386v46l46.1,46l46.1-46v-46h18.4v55.2L441.3,137.6z"/>
		<path class="st1" d="M136.9,449.5l-46.1,55.2H72.4V302.2h18.4v174.8l36.9-46h18.4l36.9,46V302.2h18.4v202.4h-18.4L136.9,449.5z"/>
		<path class="st1" d="M275.3,486.3V320.6l18.4-18.4h55.3v18.4h-55.3v165.6l-18.4,18.4H220v-18.4H275.3z M275.3,302.2v18.4H220
			v-18.4H275.3z M349.1,486.3v18.4h-55.3v-18.4H349.1z"/>
		<path class="st1" d="M422.9,320.6h-55.3v-18.4h55.3V320.6z M496.7,320.6h-55.3v184h-18.4v-184l18.4-18.4h55.3V320.6z"/>
		<path class="st1" d="M625.8,394.2l18.4,18.4v92h-18.4v-92h-92.2l-18.4-18.4v-92h18.4v92H625.8z M533.6,412.6v92h-18.4v-92H533.6z
			 M625.8,394.2v-92h18.4v92H625.8z"/>
		<path class="st1" d="M201.5,669.2l-18.4,18.4H90.8v92H72.4v-92l18.4-18.4h83l9.2-9.2v-55.2l-9.2-9.2h-83v73.6H72.4v-92h110.7
			l18.4,18.4V669.2z"/>
		<path class="st1" d="M275.3,761.3V595.6l18.4-18.4h55.3v18.4h-55.3v165.6l-18.4,18.4H220v-18.4H275.3z M275.3,577.2v18.4H220
			v-18.4H275.3z M349.1,761.3v18.4h-55.3v-18.4H349.1z"/>
		<path class="st1" d="M496.7,779.7h-18.4v-36.8L386,641.6v138h-18.4V577.2H386V614l92.2,101.2v-138h18.4V779.7z"/>
		<path class="st1" d="M644.3,761.3l-18.4,18.4h-92.2l-18.4-18.4V595.6l18.4-18.4h92.2l18.4,18.4v46h-18.4v-36.8l-9.2-9.2h-73.8
			l-9.2,9.2v147.2l9.2,9.2h73.8l9.2-9.2v-36.8h18.4V761.3z"/>
		<path class="st1" d="M773.4,669.2l18.4,18.4v92h-18.4v-92h-92.2l-18.4-18.4v-92h18.4v92H773.4z M681.2,687.6v92h-18.4v-92H681.2z
			 M773.4,669.2v-92h18.4v92H773.4z"/>
	</g>
	<g class="st10">
		<path class="st1" d="M192.5,128.2l-18.4,18.4H81.8v92H63.4v-92l18.4-18.4h83l9.2-9.2V63.8l-9.2-9.2h-83v73.6H63.4v-92h110.7
			l18.4,18.4V128.2z"/>
		<path class="st1" d="M321.7,165.1v-64.4l-46.1-46l-46.1,46v64.4H321.7l18.4,18.4v55.2h-18.4v-55.2h-92.2L211,165.1V91.4l55.3-55.2
			h18.4l55.3,55.2v73.6H321.7z M229.4,183.5v55.2H211v-55.2H229.4z"/>
		<path class="st1" d="M432.3,146.6v92h-18.4v-92l-55.3-55.2V36.2H377v46l46.1,46l46.1-46v-46h18.4v55.2L432.3,146.6z"/>
		<path class="st1" d="M127.9,458.5l-46.1,55.2H63.4V311.2h18.4v174.8l36.9-46h18.4l36.9,46V311.2h18.4v202.4h-18.4L127.9,458.5z"/>
		<path class="st1" d="M266.3,495.3V329.6l18.4-18.4h55.3v18.4h-55.3v165.6l-18.4,18.4H211v-18.4H266.3z M266.3,311.2v18.4H211
			v-18.4H266.3z M340.1,495.3v18.4h-55.3v-18.4H340.1z"/>
		<path class="st1" d="M413.9,329.6h-55.3v-18.4h55.3V329.6z M487.7,329.6h-55.3v184h-18.4v-184l18.4-18.4h55.3V329.6z"/>
		<path class="st1" d="M616.8,403.2l18.4,18.4v92h-18.4v-92h-92.2l-18.4-18.4v-92h18.4v92H616.8z M524.6,421.6v92h-18.4v-92H524.6z
			 M616.8,403.2v-92h18.4v92H616.8z"/>
		<path class="st1" d="M192.5,678.2l-18.4,18.4H81.8v92H63.4v-92l18.4-18.4h83l9.2-9.2v-55.2l-9.2-9.2h-83v73.6H63.4v-92h110.7
			l18.4,18.4V678.2z"/>
		<path class="st1" d="M266.3,770.3V604.6l18.4-18.4h55.3v18.4h-55.3v165.6l-18.4,18.4H211v-18.4H266.3z M266.3,586.2v18.4H211
			v-18.4H266.3z M340.1,770.3v18.4h-55.3v-18.4H340.1z"/>
		<path class="st1" d="M487.7,788.7h-18.4v-36.8L377,650.6v138h-18.4V586.2H377V623l92.2,101.2v-138h18.4V788.7z"/>
		<path class="st1" d="M635.3,770.3l-18.4,18.4h-92.2l-18.4-18.4V604.6l18.4-18.4h92.2l18.4,18.4v46h-18.4v-36.8l-9.2-9.2h-73.8
			l-9.2,9.2v147.2l9.2,9.2h73.8l9.2-9.2v-36.8h18.4V770.3z"/>
		<path class="st1" d="M764.4,678.2l18.4,18.4v92h-18.4v-92h-92.2l-18.4-18.4v-92h18.4v92H764.4z M672.2,696.6v92h-18.4v-92H672.2z
			 M764.4,678.2v-92h18.4v92H764.4z"/>
	</g>
	<g class="st11">
		<path class="st1" d="M219.5,101.2l-18.4,18.4h-92.2v92H90.4v-92l18.4-18.4h83l9.2-9.2V36.8l-9.2-9.2h-83v73.6H90.4v-92h110.7
			l18.4,18.4V101.2z"/>
		<path class="st1" d="M348.7,138.1V73.6l-46.1-46l-46.1,46v64.4H348.7l18.4,18.4v55.2h-18.4v-55.2h-92.2L238,138.1V64.4l55.3-55.2
			h18.4l55.3,55.2v73.6H348.7z M256.4,156.5v55.2H238v-55.2H256.4z"/>
		<path class="st1" d="M459.3,119.6v92h-18.4v-92l-55.3-55.2V9.2H404v46l46.1,46l46.1-46v-46h18.4v55.2L459.3,119.6z"/>
		<path class="st1" d="M154.9,431.5l-46.1,55.2H90.4V284.2h18.4v174.8l36.9-46h18.4l36.9,46V284.2h18.4v202.4h-18.4L154.9,431.5z"/>
		<path class="st1" d="M293.3,468.3V302.6l18.4-18.4h55.3v18.4h-55.3v165.6l-18.4,18.4H238v-18.4H293.3z M293.3,284.2v18.4H238
			v-18.4H293.3z M367.1,468.3v18.4h-55.3v-18.4H367.1z"/>
		<path class="st1" d="M440.9,302.6h-55.3v-18.4h55.3V302.6z M514.7,302.6h-55.3v184h-18.4v-184l18.4-18.4h55.3V302.6z"/>
		<path class="st1" d="M643.8,376.2l18.4,18.4v92h-18.4v-92h-92.2l-18.4-18.4v-92h18.4v92H643.8z M551.6,394.6v92h-18.4v-92H551.6z
			 M643.8,376.2v-92h18.4v92H643.8z"/>
		<path class="st1" d="M219.5,651.2l-18.4,18.4h-92.2v92H90.4v-92l18.4-18.4h83l9.2-9.2v-55.2l-9.2-9.2h-83v73.6H90.4v-92h110.7
			l18.4,18.4V651.2z"/>
		<path class="st1" d="M293.3,743.3V577.6l18.4-18.4h55.3v18.4h-55.3v165.6l-18.4,18.4H238v-18.4H293.3z M293.3,559.2v18.4H238
			v-18.4H293.3z M367.1,743.3v18.4h-55.3v-18.4H367.1z"/>
		<path class="st1" d="M514.7,761.7h-18.4v-36.8L404,623.6v138h-18.4V559.2H404V596l92.2,101.2v-138h18.4V761.7z"/>
		<path class="st1" d="M662.3,743.3l-18.4,18.4h-92.2l-18.4-18.4V577.6l18.4-18.4h92.2l18.4,18.4v46h-18.4v-36.8l-9.2-9.2h-73.8
			l-9.2,9.2v147.2l9.2,9.2h73.8l9.2-9.2v-36.8h18.4V743.3z"/>
		<path class="st1" d="M791.4,651.2l18.4,18.4v92h-18.4v-92h-92.2l-18.4-18.4v-92h18.4v92H791.4z M699.2,669.6v92h-18.4v-92H699.2z
			 M791.4,651.2v-92h18.4v92H791.4z"/>
	</g>
	<g>
		<path class="st12" d="M228.1,92.3l-18.4,18.4h-92.2v92H99v-92l18.4-18.4h83l9.2-9.2V27.9l-9.2-9.2h-83v73.6H99v-92h110.7
			l18.4,18.4V92.3z"/>
		<path class="st12" d="M357.2,129.1V64.7l-46.1-46l-46.1,46v64.4H357.2l18.4,18.4v55.2h-18.4v-55.2H265l-18.4-18.4V55.5l55.3-55.2
			h18.4l55.3,55.2v73.6H357.2z M265,147.5v55.2h-18.4v-55.2H265z"/>
		<path class="st12" d="M467.9,110.7v92h-18.4v-92l-55.3-55.2V0.2h18.4v46l46.1,46l46.1-46v-46h18.4v55.2L467.9,110.7z"/>
		<path class="st12" d="M163.5,422.5l-46.1,55.2H99V275.2h18.4v174.8l36.9-46h18.4l36.9,46V275.2h18.4v202.4h-18.4L163.5,422.5z"/>
		<path class="st12" d="M301.9,459.3V293.7l18.4-18.4h55.3v18.4h-55.3v165.6l-18.4,18.4h-55.3v-18.4H301.9z M301.9,275.2v18.4h-55.3
			v-18.4H301.9z M375.7,459.3v18.4h-55.3v-18.4H375.7z"/>
		<path class="st12" d="M449.5,293.7h-55.3v-18.4h55.3V293.7z M523.3,293.7h-55.3v184h-18.4v-184l18.4-18.4h55.3V293.7z"/>
		<path class="st12" d="M652.4,367.3l18.4,18.4v92h-18.4v-92h-92.2l-18.4-18.4v-92h18.4v92H652.4z M560.2,385.7v92h-18.4v-92H560.2z
			 M652.4,367.3v-92h18.4v92H652.4z"/>
		<path class="st12" d="M228.1,642.3l-18.4,18.4h-92.2v92H99v-92l18.4-18.4h83l9.2-9.2v-55.2l-9.2-9.2h-83v73.6H99v-92h110.7
			l18.4,18.4V642.3z"/>
		<path class="st12" d="M301.9,734.3V568.7l18.4-18.4h55.3v18.4h-55.3v165.6l-18.4,18.4h-55.3v-18.4H301.9z M301.9,550.2v18.4h-55.3
			v-18.4H301.9z M375.7,734.3v18.4h-55.3v-18.4H375.7z"/>
		<path class="st12" d="M523.3,752.7h-18.4v-36.8l-92.2-101.2v138h-18.4V550.2h18.4v36.8l92.2,101.2v-138h18.4V752.7z"/>
		<path class="st12" d="M670.9,734.3l-18.4,18.4h-92.2l-18.4-18.4V568.7l18.4-18.4h92.2l18.4,18.4v46h-18.4v-36.8l-9.2-9.2h-73.8
			l-9.2,9.2v147.2l9.2,9.2h73.8l9.2-9.2v-36.8h18.4V734.3z"/>
		<path class="st12" d="M800,642.3l18.4,18.4v92H800v-92h-92.2l-18.4-18.4v-92h18.4v92H800z M707.8,660.7v92h-18.4v-92H707.8z
			 M800,642.3v-92h18.4v92H800z"/>
	</g>
</g>
<g>
	<g class="st13">
		<g>
			<linearGradient id="SVGID_1_" gradientUnits="userSpaceOnUse" x1="588.6471" y1="1593.8861" x2="588.6471" y2="841.4833">
				<stop  offset="0" style="stop-color:#2E50F7"/>
				<stop  offset="1" style="stop-color:#FC2A00"/>
			</linearGradient>
			<path class="st14" d="M1095.2,842.2v16.9h-54.6h-0.8v0.8v183.3h-16.9V860.2l18-18H1095.2 M1021.4,842.2v16.9h-53.8v-16.9H1021.4
				 M929.6,842.2l18,18v73l-18,18h-64.3h-1.8l1.3,1.3l73.8,73.6l0.2,0.2h0.3h8.5v16.9h-17.4l-91.5-91.3l17.7-17.7h64.3h0.3l0.2-0.2
				l9.2-9.2l0.2-0.2v-0.3v-55.2v-0.3l-0.2-0.2l-9.2-9.2l-0.2-0.2h-0.3h-83H837v0.8v92v91.3H820V842.2H929.6 M782,842.2l18,18v165
				l-18,18h-91.6l-18-18v-165l18-18H782 M699,1026.2h0.3h73.8h0.3l0.2-0.2l9.2-9.2l0.2-0.2v-0.3V869.1v-0.3l-0.2-0.2l-9.2-9.2
				l-0.2-0.2h-0.3h-73.8H699l-0.2,0.2l-9.2,9.2l-0.2,0.2v0.3v147.2v0.3l0.2,0.2l9.2,9.2L699,1026.2 M634.5,842.2l18,18v73l-18,18
				h-91.9h-0.8v0.8v91.3h-16.9v-90.9l18-18h82.7h0.3l0.2-0.2l9.2-9.2l0.2-0.2v-0.3v-55.2v-0.3l-0.2-0.2l-9.2-9.2l-0.2-0.2h-0.3h-83
				h-0.8v0.8v72.9h-16.9v-90.5H634.5 M486.9,842.2l18,18v73l-18,18h-91.9h-0.8v0.8v91.3h-16.9v-90.9l18-18H478h0.3l0.2-0.2l9.2-9.2
				l0.2-0.2v-0.3v-55.2v-0.3l-0.2-0.2l-9.2-9.2l-0.2-0.2H478h-83h-0.8v0.8v72.9h-16.9v-90.5H486.9 M357.3,842.2v182.9l-18,18h-91.6
				l-18-18V842.2h16.9v174.1v0.3l0.2,0.2l9.2,9.2l0.2,0.2h0.3h73.8h0.3l0.2-0.2l9.2-9.2l0.2-0.2v-0.3V842.2H357.3 M191.7,842.2
				l18,18v35.7h-16.9v-26.9v-0.3l-0.2-0.2l-9.2-9.2l-0.2-0.2h-0.3H109h-0.3l-0.2,0.2l-9.2,9.2l-0.2,0.2v0.3v55.2v0.3l0.2,0.2
				l9.2,9.2l0.2,0.2h0.3h82.7l18,18v73l-18,18h-91.6l-18-18v-35.7H99v26.9v0.3l0.2,0.2l9.2,9.2l0.2,0.2h0.3h73.8h0.3l0.2-0.2
				l9.2-9.2l0.2-0.2v-0.3v-55.2v-0.3l-0.2-0.2l-9.2-9.2l-0.2-0.2h-0.3h-82.7l-18-18v-73l18-18H191.7 M947.6,1117.2v16.9h-54.6h-0.8
				v0.8v183.3h-16.9v-182.9l18-18H947.6 M873.9,1117.2v16.9H820v-16.9H873.9 M745.2,1117.2l54.9,54.8v72.5h-16.9v-63.7v-0.3
				l-0.2-0.2l-46.1-46l-0.5-0.5l-0.5,0.5l-46.1,46l-0.2,0.2v0.3v64.4v0.8h0.8H782l18,18v54.1h-16.9v-54.5v-0.8h-0.8h-91.9l-18-18
				v-73l54.9-54.8H745.2 M652.5,1117.2v16.9H542.5h-0.8v0.8v92v73.6v0.8h0.8h109.9v16.9H524.8v-200.9H652.5 M486.9,1117.2l18,18v73
				l-18,18h-64.3h-1.8l1.3,1.3l73.8,73.6l0.2,0.2h0.3h8.5v16.9h-17.4l-91.5-91.3l17.7-17.7H478h0.3l0.2-0.2l9.2-9.2l0.2-0.2v-0.3
				v-55.2v-0.3l-0.2-0.2l-9.2-9.2l-0.2-0.2H478h-83h-0.8v0.8v92v91.3h-16.9v-200.9H486.9 M339.3,1117.2l18,18v44.9h-16.9v-36.1v-0.3
				l-0.2-0.2l-9.2-9.2l-0.2-0.2h-0.3h-73.8h-0.3l-0.2,0.2l-9.2,9.2l-0.2,0.2v0.3v147.2v0.3l0.2,0.2l9.2,9.2l0.2,0.2h0.3h73.8h0.3
				l0.2-0.2l9.2-9.2l0.2-0.2v-0.3v-36.1h16.9v44.9l-18,18h-91.6l-18-18v-165l18-18H339.3 M1095.2,1209.2v16.9H967.6v-16.9H1095.2
				 M652.5,1209.2v16.9H544.3l16.9-16.9H652.5 M689.4,1264.4v53.7h-16.9v-53.7H689.4 M1077.2,1392.2l18,18v35.7h-16.9v-26.9v-0.3
				l-0.2-0.2l-9.2-9.2l-0.2-0.2h-0.3h-73.8h-0.3l-0.2,0.2l-9.2,9.2l-0.2,0.2v0.3v55.2v0.3l0.2,0.2l9.2,9.2l0.2,0.2h0.3h82.7l18,18
				v73l-18,18h-91.6l-18-18v-35.7h16.9v26.9v0.3l0.2,0.2l9.2,9.2l0.2,0.2h0.3h73.8h0.3l0.2-0.2l9.2-9.2l0.2-0.2v-0.3v-55.2v-0.3
				l-0.2-0.2l-9.2-9.2l-0.2-0.2h-0.3h-82.7l-18-18v-73l18-18H1077.2 M929.6,1392.2l18,18v73l-18,18h-64.3h-1.8l1.3,1.3l73.8,73.6
				l0.2,0.2h0.3h8.5v16.9h-17.4l-91.5-91.3l17.7-17.7h64.3h0.3l0.2-0.2l9.2-9.2l0.2-0.2v-0.3v-55.2v-0.3l-0.2-0.2l-9.2-9.2l-0.2-0.2
				h-0.3h-83H837v0.8v92v91.3H820v-200.9H929.6 M782,1392.2l18,18v165l-18,18h-91.6l-18-18v-165l18-18H782 M699,1576.2h0.3h73.8h0.3
				l0.2-0.2l9.2-9.2l0.2-0.2v-0.3v-147.2v-0.3l-0.2-0.2l-9.2-9.2l-0.2-0.2h-0.3h-73.8H699l-0.2,0.2l-9.2,9.2l-0.2,0.2v0.3v147.2v0.3
				l0.2,0.2l9.2,9.2L699,1576.2 M1096,841.5h-55.3l-18.4,18.4v184h18.4v-184h55.3V841.5L1096,841.5z M1022.2,841.5h-55.3v18.4h55.3
				V841.5L1022.2,841.5z M929.9,841.5H819.3v202.4h18.4v-92v-92h83l9.2,9.2v55.2l-9.2,9.2h-64.6l-18.4,18.4l92.2,92h18.4v-18.4h-9.2
				l-73.8-73.6h64.6l18.4-18.4v-73.6L929.9,841.5L929.9,841.5z M782.4,841.5h-92.2l-18.4,18.4v165.6l18.4,18.4h92.2l18.4-18.4V859.9
				L782.4,841.5L782.4,841.5z M699.3,1025.5l-9.2-9.2V869.1l9.2-9.2h73.8l9.2,9.2v147.2l-9.2,9.2H699.3L699.3,1025.5z M634.8,841.5
				H524.1v92h18.4v-73.6h83l9.2,9.2v55.2l-9.2,9.2h-83l-18.4,18.4v92h18.4v-92h92.2l18.4-18.4v-73.6L634.8,841.5L634.8,841.5z
				 M487.2,841.5H376.5v92h18.4v-73.6h83l9.2,9.2v55.2l-9.2,9.2h-83l-18.4,18.4v92h18.4v-92h92.2l18.4-18.4v-73.6L487.2,841.5
				L487.2,841.5z M358,841.5h-18.4v174.8l-9.2,9.2h-73.8l-9.2-9.2V841.5h-18.4v184l18.4,18.4h92.2l18.4-18.4V841.5L358,841.5z
				 M192,841.5H99.8l-18.4,18.4v73.6l18.4,18.4h83l9.2,9.2v55.2l-9.2,9.2H109l-9.2-9.2v-27.6H81.3v36.8l18.4,18.4H192l18.4-18.4
				v-73.6L192,933.5h-83l-9.2-9.2v-55.2l9.2-9.2h73.8l9.2,9.2v27.6h18.4v-36.8L192,841.5L192,841.5z M948.4,1116.5h-55.3l-18.4,18.4
				v184h18.4v-184h55.3V1116.5L948.4,1116.5z M874.6,1116.5h-55.3v18.4h55.3V1116.5L874.6,1116.5z M745.5,1116.5H727l-55.3,55.2
				v73.6l18.4,18.4h92.2v55.2h18.4v-55.2l-18.4-18.4h-92.2v-64.4l46.1-46l46.1,46v64.4h18.4v-73.6L745.5,1116.5L745.5,1116.5z
				 M653.2,1116.5H524.1v202.4h129.1v-18.4H542.5v-73.6v-92h110.7V1116.5L653.2,1116.5z M487.2,1116.5H376.5v202.4h18.4v-92v-92h83
				l9.2,9.2v55.2l-9.2,9.2h-64.6l-18.4,18.4l92.2,92h18.4v-18.4h-9.2l-73.8-73.6h64.6l18.4-18.4v-73.6L487.2,1116.5L487.2,1116.5z
				 M339.6,1116.5h-92.2l-18.4,18.4v165.6l18.4,18.4h92.2l18.4-18.4v-46h-18.4v36.8l-9.2,9.2h-73.8l-9.2-9.2v-147.2l9.2-9.2h73.8
				l9.2,9.2v36.8H358v-46L339.6,1116.5L339.6,1116.5z M1096,1208.5H966.8v18.4H1096V1208.5L1096,1208.5z M653.2,1208.5H561
				l-18.4,18.4h110.7V1208.5L653.2,1208.5z M690.1,1263.7h-18.4v55.2h18.4V1263.7L690.1,1263.7z M1077.5,1391.5h-92.2l-18.4,18.4
				v73.6l18.4,18.4h83l9.2,9.2v55.2l-9.2,9.2h-73.8l-9.2-9.2v-27.6h-18.4v36.8l18.4,18.4h92.2l18.4-18.4v-73.6l-18.4-18.4h-83
				l-9.2-9.2v-55.2l9.2-9.2h73.8l9.2,9.2v27.6h18.4v-36.8L1077.5,1391.5L1077.5,1391.5z M929.9,1391.5H819.3v202.4h18.4v-92v-92h83
				l9.2,9.2v55.2l-9.2,9.2h-64.6l-18.4,18.4l92.2,92h18.4v-18.4h-9.2l-73.8-73.6h64.6l18.4-18.4v-73.6L929.9,1391.5L929.9,1391.5z
				 M782.4,1391.5h-92.2l-18.4,18.4v165.6l18.4,18.4h92.2l18.4-18.4v-165.6L782.4,1391.5L782.4,1391.5z M699.3,1575.5l-9.2-9.2
				v-147.2l9.2-9.2h73.8l9.2,9.2v147.2l-9.2,9.2H699.3L699.3,1575.5z"/>
		</g>
	</g>
	<g class="st15">
		<g>
			<linearGradient id="SVGID_2_" gradientUnits="userSpaceOnUse" x1="579.6471" y1="1602.8861" x2="579.6471" y2="850.4833">
				<stop  offset="0" style="stop-color:#2E50F7"/>
				<stop  offset="1" style="stop-color:#FC2A00"/>
			</linearGradient>
			<path class="st16" d="M1086.2,851.2v16.9h-54.6h-0.8v0.8v183.3h-16.9V869.2l18-18H1086.2 M1012.4,851.2v16.9h-53.8v-16.9H1012.4
				 M920.6,851.2l18,18v73l-18,18h-64.3h-1.8l1.3,1.3l73.8,73.6l0.2,0.2h0.3h8.5v16.9h-17.4l-91.5-91.3l17.7-17.7h64.3h0.3l0.2-0.2
				l9.2-9.2l0.2-0.2v-0.3v-55.2v-0.3l-0.2-0.2l-9.2-9.2l-0.2-0.2h-0.3h-83H828v0.8v92v91.3H811V851.2H920.6 M773,851.2l18,18v165
				l-18,18h-91.6l-18-18v-165l18-18H773 M690,1035.2h0.3h73.8h0.3l0.2-0.2l9.2-9.2l0.2-0.2v-0.3V878.1v-0.3l-0.2-0.2l-9.2-9.2
				l-0.2-0.2h-0.3h-73.8H690l-0.2,0.2l-9.2,9.2l-0.2,0.2v0.3v147.2v0.3l0.2,0.2l9.2,9.2L690,1035.2 M625.5,851.2l18,18v73l-18,18
				h-91.9h-0.8v0.8v91.3h-16.9v-90.9l18-18h82.7h0.3l0.2-0.2l9.2-9.2l0.2-0.2v-0.3v-55.2v-0.3l-0.2-0.2l-9.2-9.2l-0.2-0.2h-0.3h-83
				h-0.8v0.8v72.9h-16.9v-90.5H625.5 M477.9,851.2l18,18v73l-18,18h-91.9h-0.8v0.8v91.3h-16.9v-90.9l18-18H469h0.3l0.2-0.2l9.2-9.2
				l0.2-0.2v-0.3v-55.2v-0.3l-0.2-0.2l-9.2-9.2l-0.2-0.2H469h-83h-0.8v0.8v72.9h-16.9v-90.5H477.9 M348.3,851.2v182.9l-18,18h-91.6
				l-18-18V851.2h16.9v174.1v0.3l0.2,0.2l9.2,9.2l0.2,0.2h0.3h73.8h0.3l0.2-0.2l9.2-9.2l0.2-0.2v-0.3V851.2H348.3 M182.7,851.2
				l18,18v35.7h-16.9v-26.9v-0.3l-0.2-0.2l-9.2-9.2l-0.2-0.2h-0.3H100h-0.3l-0.2,0.2l-9.2,9.2l-0.2,0.2v0.3v55.2v0.3l0.2,0.2
				l9.2,9.2l0.2,0.2h0.3h82.7l18,18v73l-18,18H91.1l-18-18v-35.7H90v26.9v0.3l0.2,0.2l9.2,9.2l0.2,0.2h0.3h73.8h0.3l0.2-0.2l9.2-9.2
				l0.2-0.2v-0.3v-55.2v-0.3l-0.2-0.2l-9.2-9.2l-0.2-0.2h-0.3H91.1l-18-18v-73l18-18H182.7 M938.6,1126.2v16.9h-54.6h-0.8v0.8v183.3
				h-16.9v-182.9l18-18H938.6 M864.9,1126.2v16.9H811v-16.9H864.9 M736.2,1126.2l54.9,54.8v72.5h-16.9v-63.7v-0.3l-0.2-0.2l-46.1-46
				l-0.5-0.5l-0.5,0.5l-46.1,46l-0.2,0.2v0.3v64.4v0.8h0.8H773l18,18v54.1h-16.9v-54.5v-0.8h-0.8h-91.9l-18-18v-73l54.9-54.8H736.2
				 M643.5,1126.2v16.9H533.5h-0.8v0.8v92v73.6v0.8h0.8h109.9v16.9H515.8v-200.9H643.5 M477.9,1126.2l18,18v73l-18,18h-64.3h-1.8
				l1.3,1.3l73.8,73.6l0.2,0.2h0.3h8.5v16.9h-17.4l-91.5-91.3l17.7-17.7H469h0.3l0.2-0.2l9.2-9.2l0.2-0.2v-0.3v-55.2v-0.3l-0.2-0.2
				l-9.2-9.2l-0.2-0.2H469h-83h-0.8v0.8v92v91.3h-16.9v-200.9H477.9 M330.3,1126.2l18,18v44.9h-16.9v-36.1v-0.3l-0.2-0.2l-9.2-9.2
				l-0.2-0.2h-0.3h-73.8h-0.3l-0.2,0.2l-9.2,9.2l-0.2,0.2v0.3v147.2v0.3l0.2,0.2l9.2,9.2l0.2,0.2h0.3h73.8h0.3l0.2-0.2l9.2-9.2
				l0.2-0.2v-0.3v-36.1h16.9v44.9l-18,18h-91.6l-18-18v-165l18-18H330.3 M1086.2,1218.2v16.9H958.6v-16.9H1086.2 M643.5,1218.2v16.9
				H535.3l16.9-16.9H643.5 M680.4,1273.4v53.7h-16.9v-53.7H680.4 M1068.2,1401.2l18,18v35.7h-16.9v-26.9v-0.3l-0.2-0.2l-9.2-9.2
				l-0.2-0.2h-0.3h-73.8h-0.3l-0.2,0.2l-9.2,9.2l-0.2,0.2v0.3v55.2v0.3l0.2,0.2l9.2,9.2l0.2,0.2h0.3h82.7l18,18v73l-18,18h-91.6
				l-18-18v-35.7h16.9v26.9v0.3l0.2,0.2l9.2,9.2l0.2,0.2h0.3h73.8h0.3l0.2-0.2l9.2-9.2l0.2-0.2v-0.3v-55.2v-0.3l-0.2-0.2l-9.2-9.2
				l-0.2-0.2h-0.3h-82.7l-18-18v-73l18-18H1068.2 M920.6,1401.2l18,18v73l-18,18h-64.3h-1.8l1.3,1.3l73.8,73.6l0.2,0.2h0.3h8.5v16.9
				h-17.4l-91.5-91.3l17.7-17.7h64.3h0.3l0.2-0.2l9.2-9.2l0.2-0.2v-0.3v-55.2v-0.3l-0.2-0.2l-9.2-9.2l-0.2-0.2h-0.3h-83H828v0.8v92
				v91.3H811v-200.9H920.6 M773,1401.2l18,18v165l-18,18h-91.6l-18-18v-165l18-18H773 M690,1585.2h0.3h73.8h0.3l0.2-0.2l9.2-9.2
				l0.2-0.2v-0.3v-147.2v-0.3l-0.2-0.2l-9.2-9.2l-0.2-0.2h-0.3h-73.8H690l-0.2,0.2l-9.2,9.2l-0.2,0.2v0.3v147.2v0.3l0.2,0.2l9.2,9.2
				L690,1585.2 M1087,850.5h-55.3l-18.4,18.4v184h18.4v-184h55.3V850.5L1087,850.5z M1013.2,850.5h-55.3v18.4h55.3V850.5
				L1013.2,850.5z M920.9,850.5H810.3v202.4h18.4v-92v-92h83l9.2,9.2v55.2l-9.2,9.2h-64.6l-18.4,18.4l92.2,92h18.4v-18.4h-9.2
				l-73.8-73.6h64.6l18.4-18.4v-73.6L920.9,850.5L920.9,850.5z M773.4,850.5h-92.2l-18.4,18.4v165.6l18.4,18.4h92.2l18.4-18.4V868.9
				L773.4,850.5L773.4,850.5z M690.3,1034.5l-9.2-9.2V878.1l9.2-9.2h73.8l9.2,9.2v147.2l-9.2,9.2H690.3L690.3,1034.5z M625.8,850.5
				H515.1v92h18.4v-73.6h83l9.2,9.2v55.2l-9.2,9.2h-83l-18.4,18.4v92h18.4v-92h92.2l18.4-18.4v-73.6L625.8,850.5L625.8,850.5z
				 M478.2,850.5H367.5v92h18.4v-73.6h83l9.2,9.2v55.2l-9.2,9.2h-83l-18.4,18.4v92h18.4v-92h92.2l18.4-18.4v-73.6L478.2,850.5
				L478.2,850.5z M349,850.5h-18.4v174.8l-9.2,9.2h-73.8l-9.2-9.2V850.5h-18.4v184l18.4,18.4h92.2l18.4-18.4V850.5L349,850.5z
				 M183,850.5H90.8l-18.4,18.4v73.6l18.4,18.4h83l9.2,9.2v55.2l-9.2,9.2H100l-9.2-9.2v-27.6H72.3v36.8l18.4,18.4H183l18.4-18.4
				v-73.6L183,942.5h-83l-9.2-9.2v-55.2l9.2-9.2h73.8l9.2,9.2v27.6h18.4v-36.8L183,850.5L183,850.5z M939.4,1125.5h-55.3l-18.4,18.4
				v184h18.4v-184h55.3V1125.5L939.4,1125.5z M865.6,1125.5h-55.3v18.4h55.3V1125.5L865.6,1125.5z M736.5,1125.5H718l-55.3,55.2
				v73.6l18.4,18.4h92.2v55.2h18.4v-55.2l-18.4-18.4h-92.2v-64.4l46.1-46l46.1,46v64.4h18.4v-73.6L736.5,1125.5L736.5,1125.5z
				 M644.2,1125.5H515.1v202.4h129.1v-18.4H533.5v-73.6v-92h110.7V1125.5L644.2,1125.5z M478.2,1125.5H367.5v202.4h18.4v-92v-92h83
				l9.2,9.2v55.2l-9.2,9.2h-64.6l-18.4,18.4l92.2,92h18.4v-18.4h-9.2l-73.8-73.6h64.6l18.4-18.4v-73.6L478.2,1125.5L478.2,1125.5z
				 M330.6,1125.5h-92.2l-18.4,18.4v165.6l18.4,18.4h92.2l18.4-18.4v-46h-18.4v36.8l-9.2,9.2h-73.8l-9.2-9.2v-147.2l9.2-9.2h73.8
				l9.2,9.2v36.8H349v-46L330.6,1125.5L330.6,1125.5z M1087,1217.5H957.8v18.4H1087V1217.5L1087,1217.5z M644.2,1217.5H552
				l-18.4,18.4h110.7V1217.5L644.2,1217.5z M681.1,1272.7h-18.4v55.2h18.4V1272.7L681.1,1272.7z M1068.5,1400.5h-92.2l-18.4,18.4
				v73.6l18.4,18.4h83l9.2,9.2v55.2l-9.2,9.2h-73.8l-9.2-9.2v-27.6h-18.4v36.8l18.4,18.4h92.2l18.4-18.4v-73.6l-18.4-18.4h-83
				l-9.2-9.2v-55.2l9.2-9.2h73.8l9.2,9.2v27.6h18.4v-36.8L1068.5,1400.5L1068.5,1400.5z M920.9,1400.5H810.3v202.4h18.4v-92v-92h83
				l9.2,9.2v55.2l-9.2,9.2h-64.6l-18.4,18.4l92.2,92h18.4v-18.4h-9.2l-73.8-73.6h64.6l18.4-18.4v-73.6L920.9,1400.5L920.9,1400.5z
				 M773.4,1400.5h-92.2l-18.4,18.4v165.6l18.4,18.4h92.2l18.4-18.4v-165.6L773.4,1400.5L773.4,1400.5z M690.3,1584.5l-9.2-9.2
				v-147.2l9.2-9.2h73.8l9.2,9.2v147.2l-9.2,9.2H690.3L690.3,1584.5z"/>
		</g>
	</g>
	<g class="st17">
		<g>
			<linearGradient id="SVGID_3_" gradientUnits="userSpaceOnUse" x1="570.6471" y1="1611.8861" x2="570.6471" y2="859.4833">
				<stop  offset="0" style="stop-color:#2E50F7"/>
				<stop  offset="1" style="stop-color:#FC2A00"/>
			</linearGradient>
			<path class="st18" d="M1077.2,860.2v16.9h-54.6h-0.8v0.8v183.3h-16.9V878.2l18-18H1077.2 M1003.4,860.2v16.9h-53.8v-16.9H1003.4
				 M911.6,860.2l18,18v73l-18,18h-64.3h-1.8l1.3,1.3l73.8,73.6l0.2,0.2h0.3h8.5v16.9h-17.4l-91.5-91.3l17.7-17.7h64.3h0.3l0.2-0.2
				l9.2-9.2l0.2-0.2v-0.3v-55.2v-0.3l-0.2-0.2l-9.2-9.2l-0.2-0.2h-0.3h-83H819v0.8v92v91.3H802V860.2H911.6 M764,860.2l18,18v165
				l-18,18h-91.6l-18-18v-165l18-18H764 M681,1044.2h0.3h73.8h0.3l0.2-0.2l9.2-9.2l0.2-0.2v-0.3V887.1v-0.3l-0.2-0.2l-9.2-9.2
				l-0.2-0.2h-0.3h-73.8H681l-0.2,0.2l-9.2,9.2l-0.2,0.2v0.3v147.2v0.3l0.2,0.2l9.2,9.2L681,1044.2 M616.5,860.2l18,18v73l-18,18
				h-91.9h-0.8v0.8v91.3h-16.9v-90.9l18-18h82.7h0.3l0.2-0.2l9.2-9.2l0.2-0.2v-0.3v-55.2v-0.3l-0.2-0.2l-9.2-9.2l-0.2-0.2h-0.3h-83
				h-0.8v0.8v72.9h-16.9v-90.5H616.5 M468.9,860.2l18,18v73l-18,18h-91.9h-0.8v0.8v91.3h-16.9v-90.9l18-18H460h0.3l0.2-0.2l9.2-9.2
				l0.2-0.2v-0.3v-55.2v-0.3l-0.2-0.2l-9.2-9.2l-0.2-0.2H460h-83h-0.8v0.8v72.9h-16.9v-90.5H468.9 M339.3,860.2v182.9l-18,18h-91.6
				l-18-18V860.2h16.9v174.1v0.3l0.2,0.2l9.2,9.2l0.2,0.2h0.3h73.8h0.3l0.2-0.2l9.2-9.2l0.2-0.2v-0.3V860.2H339.3 M173.7,860.2
				l18,18v35.7h-16.9v-26.9v-0.3l-0.2-0.2l-9.2-9.2l-0.2-0.2h-0.3H91h-0.3l-0.2,0.2l-9.2,9.2l-0.2,0.2v0.3v55.2v0.3l0.2,0.2l9.2,9.2
				l0.2,0.2H91h82.7l18,18v73l-18,18H82.1l-18-18v-35.7H81v26.9v0.3l0.2,0.2l9.2,9.2l0.2,0.2H91h73.8h0.3l0.2-0.2l9.2-9.2l0.2-0.2
				v-0.3v-55.2v-0.3l-0.2-0.2l-9.2-9.2l-0.2-0.2h-0.3H82.1l-18-18v-73l18-18H173.7 M929.6,1135.2v16.9h-54.6h-0.8v0.8v183.3h-16.9
				v-182.9l18-18H929.6 M855.9,1135.2v16.9H802v-16.9H855.9 M727.2,1135.2l54.9,54.8v72.5h-16.9v-63.7v-0.3l-0.2-0.2l-46.1-46
				l-0.5-0.5l-0.5,0.5l-46.1,46l-0.2,0.2v0.3v64.4v0.8h0.8H764l18,18v54.1h-16.9v-54.5v-0.8h-0.8h-91.9l-18-18v-73l54.9-54.8H727.2
				 M634.5,1135.2v16.9H524.5h-0.8v0.8v92v73.6v0.8h0.8h109.9v16.9H506.8v-200.9H634.5 M468.9,1135.2l18,18v73l-18,18h-64.3h-1.8
				l1.3,1.3l73.8,73.6l0.2,0.2h0.3h8.5v16.9h-17.4l-91.5-91.3l17.7-17.7H460h0.3l0.2-0.2l9.2-9.2l0.2-0.2v-0.3v-55.2v-0.3l-0.2-0.2
				l-9.2-9.2l-0.2-0.2H460h-83h-0.8v0.8v92v91.3h-16.9v-200.9H468.9 M321.3,1135.2l18,18v44.9h-16.9v-36.1v-0.3l-0.2-0.2l-9.2-9.2
				l-0.2-0.2h-0.3h-73.8h-0.3l-0.2,0.2l-9.2,9.2l-0.2,0.2v0.3v147.2v0.3l0.2,0.2l9.2,9.2l0.2,0.2h0.3h73.8h0.3l0.2-0.2l9.2-9.2
				l0.2-0.2v-0.3v-36.1h16.9v44.9l-18,18h-91.6l-18-18v-165l18-18H321.3 M1077.2,1227.2v16.9H949.6v-16.9H1077.2 M634.5,1227.2v16.9
				H526.3l16.9-16.9H634.5 M671.4,1282.4v53.7h-16.9v-53.7H671.4 M1059.2,1410.2l18,18v35.7h-16.9v-26.9v-0.3l-0.2-0.2l-9.2-9.2
				l-0.2-0.2h-0.3h-73.8h-0.3l-0.2,0.2l-9.2,9.2l-0.2,0.2v0.3v55.2v0.3l0.2,0.2l9.2,9.2l0.2,0.2h0.3h82.7l18,18v73l-18,18h-91.6
				l-18-18v-35.7h16.9v26.9v0.3l0.2,0.2l9.2,9.2l0.2,0.2h0.3h73.8h0.3l0.2-0.2l9.2-9.2l0.2-0.2v-0.3v-55.2v-0.3l-0.2-0.2l-9.2-9.2
				l-0.2-0.2h-0.3h-82.7l-18-18v-73l18-18H1059.2 M911.6,1410.2l18,18v73l-18,18h-64.3h-1.8l1.3,1.3l73.8,73.6l0.2,0.2h0.3h8.5v16.9
				h-17.4l-91.5-91.3l17.7-17.7h64.3h0.3l0.2-0.2l9.2-9.2l0.2-0.2v-0.3v-55.2v-0.3l-0.2-0.2l-9.2-9.2l-0.2-0.2h-0.3h-83H819v0.8v92
				v91.3H802v-200.9H911.6 M764,1410.2l18,18v165l-18,18h-91.6l-18-18v-165l18-18H764 M681,1594.2h0.3h73.8h0.3l0.2-0.2l9.2-9.2
				l0.2-0.2v-0.3v-147.2v-0.3l-0.2-0.2l-9.2-9.2l-0.2-0.2h-0.3h-73.8H681l-0.2,0.2l-9.2,9.2l-0.2,0.2v0.3v147.2v0.3l0.2,0.2l9.2,9.2
				L681,1594.2 M1078,859.5h-55.3l-18.4,18.4v184h18.4v-184h55.3V859.5L1078,859.5z M1004.2,859.5h-55.3v18.4h55.3V859.5
				L1004.2,859.5z M911.9,859.5H801.3v202.4h18.4v-92v-92h83l9.2,9.2v55.2l-9.2,9.2h-64.6l-18.4,18.4l92.2,92h18.4v-18.4h-9.2
				l-73.8-73.6h64.6l18.4-18.4v-73.6L911.9,859.5L911.9,859.5z M764.4,859.5h-92.2l-18.4,18.4v165.6l18.4,18.4h92.2l18.4-18.4V877.9
				L764.4,859.5L764.4,859.5z M681.3,1043.5l-9.2-9.2V887.1l9.2-9.2h73.8l9.2,9.2v147.2l-9.2,9.2H681.3L681.3,1043.5z M616.8,859.5
				H506.1v92h18.4v-73.6h83l9.2,9.2v55.2l-9.2,9.2h-83l-18.4,18.4v92h18.4v-92h92.2l18.4-18.4v-73.6L616.8,859.5L616.8,859.5z
				 M469.2,859.5H358.5v92h18.4v-73.6h83l9.2,9.2v55.2l-9.2,9.2h-83l-18.4,18.4v92h18.4v-92h92.2l18.4-18.4v-73.6L469.2,859.5
				L469.2,859.5z M340,859.5h-18.4v174.8l-9.2,9.2h-73.8l-9.2-9.2V859.5h-18.4v184l18.4,18.4h92.2l18.4-18.4V859.5L340,859.5z
				 M174,859.5H81.8l-18.4,18.4v73.6l18.4,18.4h83l9.2,9.2v55.2l-9.2,9.2H91l-9.2-9.2v-27.6H63.3v36.8l18.4,18.4H174l18.4-18.4
				v-73.6L174,951.5H91l-9.2-9.2v-55.2l9.2-9.2h73.8l9.2,9.2v27.6h18.4v-36.8L174,859.5L174,859.5z M930.4,1134.5h-55.3l-18.4,18.4
				v184h18.4v-184h55.3V1134.5L930.4,1134.5z M856.6,1134.5h-55.3v18.4h55.3V1134.5L856.6,1134.5z M727.5,1134.5H709l-55.3,55.2
				v73.6l18.4,18.4h92.2v55.2h18.4v-55.2l-18.4-18.4h-92.2v-64.4l46.1-46l46.1,46v64.4h18.4v-73.6L727.5,1134.5L727.5,1134.5z
				 M635.2,1134.5H506.1v202.4h129.1v-18.4H524.5v-73.6v-92h110.7V1134.5L635.2,1134.5z M469.2,1134.5H358.5v202.4h18.4v-92v-92h83
				l9.2,9.2v55.2l-9.2,9.2h-64.6l-18.4,18.4l92.2,92h18.4v-18.4h-9.2l-73.8-73.6h64.6l18.4-18.4v-73.6L469.2,1134.5L469.2,1134.5z
				 M321.6,1134.5h-92.2l-18.4,18.4v165.6l18.4,18.4h92.2l18.4-18.4v-46h-18.4v36.8l-9.2,9.2h-73.8l-9.2-9.2v-147.2l9.2-9.2h73.8
				l9.2,9.2v36.8H340v-46L321.6,1134.5L321.6,1134.5z M1078,1226.5H948.8v18.4H1078V1226.5L1078,1226.5z M635.2,1226.5H543
				l-18.4,18.4h110.7V1226.5L635.2,1226.5z M672.1,1281.7h-18.4v55.2h18.4V1281.7L672.1,1281.7z M1059.5,1409.5h-92.2l-18.4,18.4
				v73.6l18.4,18.4h83l9.2,9.2v55.2l-9.2,9.2h-73.8l-9.2-9.2v-27.6h-18.4v36.8l18.4,18.4h92.2l18.4-18.4v-73.6l-18.4-18.4h-83
				l-9.2-9.2v-55.2l9.2-9.2h73.8l9.2,9.2v27.6h18.4v-36.8L1059.5,1409.5L1059.5,1409.5z M911.9,1409.5H801.3v202.4h18.4v-92v-92h83
				l9.2,9.2v55.2l-9.2,9.2h-64.6l-18.4,18.4l92.2,92h18.4v-18.4h-9.2l-73.8-73.6h64.6l18.4-18.4v-73.6L911.9,1409.5L911.9,1409.5z
				 M764.4,1409.5h-92.2l-18.4,18.4v165.6l18.4,18.4h92.2l18.4-18.4v-165.6L764.4,1409.5L764.4,1409.5z M681.3,1593.5l-9.2-9.2
				v-147.2l9.2-9.2h73.8l9.2,9.2v147.2l-9.2,9.2H681.3L681.3,1593.5z"/>
		</g>
	</g>
	<g class="st19">
		<g>
			<linearGradient id="SVGID_4_" gradientUnits="userSpaceOnUse" x1="561.6471" y1="1620.8861" x2="561.6471" y2="868.4833">
				<stop  offset="0" style="stop-color:#2E50F7"/>
				<stop  offset="1" style="stop-color:#FC2A00"/>
			</linearGradient>
			<path class="st20" d="M1068.2,869.2v16.9h-54.6h-0.8v0.8v183.3h-16.9V887.2l18-18H1068.2 M994.4,869.2v16.9h-53.8v-16.9H994.4
				 M902.6,869.2l18,18v73l-18,18h-64.3h-1.8l1.3,1.3l73.8,73.6l0.2,0.2h0.3h8.5v16.9h-17.4l-91.5-91.3l17.7-17.7h64.3h0.3l0.2-0.2
				l9.2-9.2l0.2-0.2v-0.3v-55.2v-0.3l-0.2-0.2l-9.2-9.2l-0.2-0.2h-0.3h-83H810v0.8v92v91.3H793V869.2H902.6 M755,869.2l18,18v165
				l-18,18h-91.6l-18-18v-165l18-18H755 M672,1053.2h0.3h73.8h0.3l0.2-0.2l9.2-9.2l0.2-0.2v-0.3V896.1v-0.3l-0.2-0.2l-9.2-9.2
				l-0.2-0.2h-0.3h-73.8H672l-0.2,0.2l-9.2,9.2l-0.2,0.2v0.3v147.2v0.3l0.2,0.2l9.2,9.2L672,1053.2 M607.5,869.2l18,18v73l-18,18
				h-91.9h-0.8v0.8v91.3h-16.9v-90.9l18-18h82.7h0.3l0.2-0.2l9.2-9.2l0.2-0.2v-0.3v-55.2v-0.3l-0.2-0.2l-9.2-9.2l-0.2-0.2h-0.3h-83
				h-0.8v0.8v72.9h-16.9v-90.5H607.5 M459.9,869.2l18,18v73l-18,18h-91.9h-0.8v0.8v91.3h-16.9v-90.9l18-18H451h0.3l0.2-0.2l9.2-9.2
				l0.2-0.2v-0.3v-55.2v-0.3l-0.2-0.2l-9.2-9.2l-0.2-0.2H451h-83h-0.8v0.8v72.9h-16.9v-90.5H459.9 M330.3,869.2v182.9l-18,18h-91.6
				l-18-18V869.2h16.9v174.1v0.3l0.2,0.2l9.2,9.2l0.2,0.2h0.3h73.8h0.3l0.2-0.2l9.2-9.2l0.2-0.2v-0.3V869.2H330.3 M164.7,869.2
				l18,18v35.7h-16.9v-26.9v-0.3l-0.2-0.2l-9.2-9.2l-0.2-0.2h-0.3H82h-0.3l-0.2,0.2l-9.2,9.2l-0.2,0.2v0.3v55.2v0.3l0.2,0.2l9.2,9.2
				l0.2,0.2H82h82.7l18,18v73l-18,18H73.1l-18-18v-35.7H72v26.9v0.3l0.2,0.2l9.2,9.2l0.2,0.2H82h73.8h0.3l0.2-0.2l9.2-9.2l0.2-0.2
				v-0.3v-55.2v-0.3l-0.2-0.2l-9.2-9.2l-0.2-0.2h-0.3H73.1l-18-18v-73l18-18H164.7 M920.6,1144.2v16.9h-54.6h-0.8v0.8v183.3h-16.9
				v-182.9l18-18H920.6 M846.9,1144.2v16.9H793v-16.9H846.9 M718.2,1144.2l54.9,54.8v72.5h-16.9v-63.7v-0.3l-0.2-0.2l-46.1-46
				l-0.5-0.5l-0.5,0.5l-46.1,46l-0.2,0.2v0.3v64.4v0.8h0.8H755l18,18v54.1h-16.9v-54.5v-0.8h-0.8h-91.9l-18-18v-73l54.9-54.8H718.2
				 M625.5,1144.2v16.9H515.5h-0.8v0.8v92v73.6v0.8h0.8h109.9v16.9H497.8v-200.9H625.5 M459.9,1144.2l18,18v73l-18,18h-64.3h-1.8
				l1.3,1.3l73.8,73.6l0.2,0.2h0.3h8.5v16.9h-17.4l-91.5-91.3l17.7-17.7H451h0.3l0.2-0.2l9.2-9.2l0.2-0.2v-0.3v-55.2v-0.3l-0.2-0.2
				l-9.2-9.2l-0.2-0.2H451h-83h-0.8v0.8v92v91.3h-16.9v-200.9H459.9 M312.3,1144.2l18,18v44.9h-16.9v-36.1v-0.3l-0.2-0.2l-9.2-9.2
				l-0.2-0.2h-0.3h-73.8h-0.3l-0.2,0.2l-9.2,9.2l-0.2,0.2v0.3v147.2v0.3l0.2,0.2l9.2,9.2l0.2,0.2h0.3h73.8h0.3l0.2-0.2l9.2-9.2
				l0.2-0.2v-0.3v-36.1h16.9v44.9l-18,18h-91.6l-18-18v-165l18-18H312.3 M1068.2,1236.2v16.9H940.6v-16.9H1068.2 M625.5,1236.2v16.9
				H517.3l16.9-16.9H625.5 M662.4,1291.4v53.7h-16.9v-53.7H662.4 M1050.2,1419.2l18,18v35.7h-16.9v-26.9v-0.3l-0.2-0.2l-9.2-9.2
				l-0.2-0.2h-0.3h-73.8h-0.3l-0.2,0.2l-9.2,9.2l-0.2,0.2v0.3v55.2v0.3l0.2,0.2l9.2,9.2l0.2,0.2h0.3h82.7l18,18v73l-18,18h-91.6
				l-18-18v-35.7h16.9v26.9v0.3l0.2,0.2l9.2,9.2l0.2,0.2h0.3h73.8h0.3l0.2-0.2l9.2-9.2l0.2-0.2v-0.3v-55.2v-0.3l-0.2-0.2l-9.2-9.2
				l-0.2-0.2h-0.3h-82.7l-18-18v-73l18-18H1050.2 M902.6,1419.2l18,18v73l-18,18h-64.3h-1.8l1.3,1.3l73.8,73.6l0.2,0.2h0.3h8.5v16.9
				h-17.4l-91.5-91.3l17.7-17.7h64.3h0.3l0.2-0.2l9.2-9.2l0.2-0.2v-0.3v-55.2v-0.3l-0.2-0.2l-9.2-9.2l-0.2-0.2h-0.3h-83H810v0.8v92
				v91.3H793v-200.9H902.6 M755,1419.2l18,18v165l-18,18h-91.6l-18-18v-165l18-18H755 M672,1603.2h0.3h73.8h0.3l0.2-0.2l9.2-9.2
				l0.2-0.2v-0.3v-147.2v-0.3l-0.2-0.2l-9.2-9.2l-0.2-0.2h-0.3h-73.8H672l-0.2,0.2l-9.2,9.2l-0.2,0.2v0.3v147.2v0.3l0.2,0.2l9.2,9.2
				L672,1603.2 M1069,868.5h-55.3l-18.4,18.4v184h18.4v-184h55.3V868.5L1069,868.5z M995.2,868.5h-55.3v18.4h55.3V868.5L995.2,868.5
				z M902.9,868.5H792.3v202.4h18.4v-92v-92h83l9.2,9.2v55.2l-9.2,9.2h-64.6l-18.4,18.4l92.2,92h18.4v-18.4h-9.2l-73.8-73.6h64.6
				l18.4-18.4v-73.6L902.9,868.5L902.9,868.5z M755.4,868.5h-92.2l-18.4,18.4v165.6l18.4,18.4h92.2l18.4-18.4V886.9L755.4,868.5
				L755.4,868.5z M672.3,1052.5l-9.2-9.2V896.1l9.2-9.2h73.8l9.2,9.2v147.2l-9.2,9.2H672.3L672.3,1052.5z M607.8,868.5H497.1v92
				h18.4v-73.6h83l9.2,9.2v55.2l-9.2,9.2h-83l-18.4,18.4v92h18.4v-92h92.2l18.4-18.4v-73.6L607.8,868.5L607.8,868.5z M460.2,868.5
				H349.5v92h18.4v-73.6h83l9.2,9.2v55.2l-9.2,9.2h-83l-18.4,18.4v92h18.4v-92h92.2l18.4-18.4v-73.6L460.2,868.5L460.2,868.5z
				 M331,868.5h-18.4v174.8l-9.2,9.2h-73.8l-9.2-9.2V868.5h-18.4v184l18.4,18.4h92.2l18.4-18.4V868.5L331,868.5z M165,868.5H72.8
				l-18.4,18.4v73.6l18.4,18.4h83l9.2,9.2v55.2l-9.2,9.2H82l-9.2-9.2v-27.6H54.3v36.8l18.4,18.4H165l18.4-18.4v-73.6L165,960.5H82
				l-9.2-9.2v-55.2l9.2-9.2h73.8l9.2,9.2v27.6h18.4v-36.8L165,868.5L165,868.5z M921.4,1143.5h-55.3l-18.4,18.4v184h18.4v-184h55.3
				V1143.5L921.4,1143.5z M847.6,1143.5h-55.3v18.4h55.3V1143.5L847.6,1143.5z M718.5,1143.5H700l-55.3,55.2v73.6l18.4,18.4h92.2
				v55.2h18.4v-55.2l-18.4-18.4h-92.2v-64.4l46.1-46l46.1,46v64.4h18.4v-73.6L718.5,1143.5L718.5,1143.5z M626.2,1143.5H497.1v202.4
				h129.1v-18.4H515.5v-73.6v-92h110.7V1143.5L626.2,1143.5z M460.2,1143.5H349.5v202.4h18.4v-92v-92h83l9.2,9.2v55.2l-9.2,9.2
				h-64.6l-18.4,18.4l92.2,92h18.4v-18.4h-9.2l-73.8-73.6h64.6l18.4-18.4v-73.6L460.2,1143.5L460.2,1143.5z M312.6,1143.5h-92.2
				l-18.4,18.4v165.6l18.4,18.4h92.2l18.4-18.4v-46h-18.4v36.8l-9.2,9.2h-73.8l-9.2-9.2v-147.2l9.2-9.2h73.8l9.2,9.2v36.8H331v-46
				L312.6,1143.5L312.6,1143.5z M1069,1235.5H939.8v18.4H1069V1235.5L1069,1235.5z M626.2,1235.5H534l-18.4,18.4h110.7V1235.5
				L626.2,1235.5z M663.1,1290.7h-18.4v55.2h18.4V1290.7L663.1,1290.7z M1050.5,1418.5h-92.2l-18.4,18.4v73.6l18.4,18.4h83l9.2,9.2
				v55.2l-9.2,9.2h-73.8l-9.2-9.2v-27.6h-18.4v36.8l18.4,18.4h92.2l18.4-18.4v-73.6l-18.4-18.4h-83l-9.2-9.2v-55.2l9.2-9.2h73.8
				l9.2,9.2v27.6h18.4v-36.8L1050.5,1418.5L1050.5,1418.5z M902.9,1418.5H792.3v202.4h18.4v-92v-92h83l9.2,9.2v55.2l-9.2,9.2h-64.6
				l-18.4,18.4l92.2,92h18.4v-18.4h-9.2l-73.8-73.6h64.6l18.4-18.4v-73.6L902.9,1418.5L902.9,1418.5z M755.4,1418.5h-92.2
				l-18.4,18.4v165.6l18.4,18.4h92.2l18.4-18.4v-165.6L755.4,1418.5L755.4,1418.5z M672.3,1602.5l-9.2-9.2v-147.2l9.2-9.2h73.8
				l9.2,9.2v147.2l-9.2,9.2H672.3L672.3,1602.5z"/>
		</g>
	</g>
	<g class="st21">
		<g>
			<linearGradient id="SVGID_5_" gradientUnits="userSpaceOnUse" x1="552.6472" y1="1629.8861" x2="552.6472" y2="877.4833">
				<stop  offset="0" style="stop-color:#2E50F7"/>
				<stop  offset="1" style="stop-color:#FC2A00"/>
			</linearGradient>
			<path class="st22" d="M1059.2,878.2v16.9h-54.6h-0.8v0.8v183.3h-16.9V896.2l18-18H1059.2 M985.4,878.2v16.9h-53.8v-16.9H985.4
				 M893.6,878.2l18,18v73l-18,18h-64.3h-1.8l1.3,1.3l73.8,73.6l0.2,0.2h0.3h8.5v16.9h-17.4l-91.5-91.3l17.7-17.7h64.3h0.3l0.2-0.2
				l9.2-9.2l0.2-0.2v-0.3v-55.2v-0.3l-0.2-0.2l-9.2-9.2l-0.2-0.2h-0.3h-83H801v0.8v92v91.3H784V878.2H893.6 M746,878.2l18,18v165
				l-18,18h-91.6l-18-18v-165l18-18H746 M663,1062.2h0.3h73.8h0.3l0.2-0.2l9.2-9.2l0.2-0.2v-0.3V905.1v-0.3l-0.2-0.2l-9.2-9.2
				l-0.2-0.2h-0.3h-73.8H663l-0.2,0.2l-9.2,9.2l-0.2,0.2v0.3v147.2v0.3l0.2,0.2l9.2,9.2L663,1062.2 M598.5,878.2l18,18v73l-18,18
				h-91.9h-0.8v0.8v91.3h-16.9v-90.9l18-18h82.7h0.3l0.2-0.2l9.2-9.2l0.2-0.2v-0.3v-55.2v-0.3l-0.2-0.2l-9.2-9.2l-0.2-0.2h-0.3h-83
				h-0.8v0.8v72.9h-16.9v-90.5H598.5 M450.9,878.2l18,18v73l-18,18h-91.9h-0.8v0.8v91.3h-16.9v-90.9l18-18H442h0.3l0.2-0.2l9.2-9.2
				l0.2-0.2v-0.3v-55.2v-0.3l-0.2-0.2l-9.2-9.2l-0.2-0.2H442h-83h-0.8v0.8v72.9h-16.9v-90.5H450.9 M321.3,878.2v182.9l-18,18h-91.6
				l-18-18V878.2h16.9v174.1v0.3l0.2,0.2l9.2,9.2l0.2,0.2h0.3h73.8h0.3l0.2-0.2l9.2-9.2l0.2-0.2v-0.3V878.2H321.3 M155.7,878.2
				l18,18v35.7h-16.9v-26.9v-0.3l-0.2-0.2l-9.2-9.2l-0.2-0.2h-0.3H73h-0.3l-0.2,0.2l-9.2,9.2l-0.2,0.2v0.3v55.2v0.3l0.2,0.2l9.2,9.2
				l0.2,0.2H73h82.7l18,18v73l-18,18H64.1l-18-18v-35.7H63v26.9v0.3l0.2,0.2l9.2,9.2l0.2,0.2H73h73.8h0.3l0.2-0.2l9.2-9.2l0.2-0.2
				v-0.3v-55.2v-0.3l-0.2-0.2l-9.2-9.2l-0.2-0.2h-0.3H64.1l-18-18v-73l18-18H155.7 M911.6,1153.2v16.9h-54.6h-0.8v0.8v183.3h-16.9
				v-182.9l18-18H911.6 M837.9,1153.2v16.9H784v-16.9H837.9 M709.2,1153.2l54.9,54.8v72.5h-16.9v-63.7v-0.3l-0.2-0.2l-46.1-46
				l-0.5-0.5l-0.5,0.5l-46.1,46l-0.2,0.2v0.3v64.4v0.8h0.8H746l18,18v54.1h-16.9v-54.5v-0.8h-0.8h-91.9l-18-18v-73l54.9-54.8H709.2
				 M616.5,1153.2v16.9H506.5h-0.8v0.8v92v73.6v0.8h0.8h109.9v16.9H488.8v-200.9H616.5 M450.9,1153.2l18,18v73l-18,18h-64.3h-1.8
				l1.3,1.3l73.8,73.6l0.2,0.2h0.3h8.5v16.9h-17.4l-91.5-91.3l17.7-17.7H442h0.3l0.2-0.2l9.2-9.2l0.2-0.2v-0.3v-55.2v-0.3l-0.2-0.2
				l-9.2-9.2l-0.2-0.2H442h-83h-0.8v0.8v92v91.3h-16.9v-200.9H450.9 M303.3,1153.2l18,18v44.9h-16.9v-36.1v-0.3l-0.2-0.2l-9.2-9.2
				l-0.2-0.2h-0.3h-73.8h-0.3l-0.2,0.2l-9.2,9.2l-0.2,0.2v0.3v147.2v0.3l0.2,0.2l9.2,9.2l0.2,0.2h0.3h73.8h0.3l0.2-0.2l9.2-9.2
				l0.2-0.2v-0.3v-36.1h16.9v44.9l-18,18h-91.6l-18-18v-165l18-18H303.3 M1059.2,1245.2v16.9H931.6v-16.9H1059.2 M616.5,1245.2v16.9
				H508.3l16.9-16.9H616.5 M653.4,1300.4v53.7h-16.9v-53.7H653.4 M1041.2,1428.2l18,18v35.7h-16.9v-26.9v-0.3l-0.2-0.2l-9.2-9.2
				l-0.2-0.2h-0.3h-73.8h-0.3l-0.2,0.2l-9.2,9.2l-0.2,0.2v0.3v55.2v0.3l0.2,0.2l9.2,9.2l0.2,0.2h0.3h82.7l18,18v73l-18,18h-91.6
				l-18-18v-35.7h16.9v26.9v0.3l0.2,0.2l9.2,9.2l0.2,0.2h0.3h73.8h0.3l0.2-0.2l9.2-9.2l0.2-0.2v-0.3v-55.2v-0.3l-0.2-0.2l-9.2-9.2
				l-0.2-0.2h-0.3h-82.7l-18-18v-73l18-18H1041.2 M893.6,1428.2l18,18v73l-18,18h-64.3h-1.8l1.3,1.3l73.8,73.6l0.2,0.2h0.3h8.5v16.9
				h-17.4l-91.5-91.3l17.7-17.7h64.3h0.3l0.2-0.2l9.2-9.2l0.2-0.2v-0.3v-55.2v-0.3l-0.2-0.2l-9.2-9.2l-0.2-0.2h-0.3h-83H801v0.8v92
				v91.3H784v-200.9H893.6 M746,1428.2l18,18v165l-18,18h-91.6l-18-18v-165l18-18H746 M663,1612.2h0.3h73.8h0.3l0.2-0.2l9.2-9.2
				l0.2-0.2v-0.3v-147.2v-0.3l-0.2-0.2l-9.2-9.2l-0.2-0.2h-0.3h-73.8H663l-0.2,0.2l-9.2,9.2l-0.2,0.2v0.3v147.2v0.3l0.2,0.2l9.2,9.2
				L663,1612.2 M1060,877.5h-55.3l-18.4,18.4v184h18.4v-184h55.3V877.5L1060,877.5z M986.2,877.5h-55.3v18.4h55.3V877.5L986.2,877.5
				z M893.9,877.5H783.3v202.4h18.4v-92v-92h83l9.2,9.2v55.2l-9.2,9.2h-64.6l-18.4,18.4l92.2,92h18.4v-18.4h-9.2l-73.8-73.6h64.6
				l18.4-18.4v-73.6L893.9,877.5L893.9,877.5z M746.4,877.5h-92.2l-18.4,18.4v165.6l18.4,18.4h92.2l18.4-18.4V895.9L746.4,877.5
				L746.4,877.5z M663.3,1061.5l-9.2-9.2V905.1l9.2-9.2h73.8l9.2,9.2v147.2l-9.2,9.2H663.3L663.3,1061.5z M598.8,877.5H488.1v92
				h18.4v-73.6h83l9.2,9.2v55.2l-9.2,9.2h-83l-18.4,18.4v92h18.4v-92h92.2l18.4-18.4v-73.6L598.8,877.5L598.8,877.5z M451.2,877.5
				H340.5v92h18.4v-73.6h83l9.2,9.2v55.2l-9.2,9.2h-83l-18.4,18.4v92h18.4v-92h92.2l18.4-18.4v-73.6L451.2,877.5L451.2,877.5z
				 M322,877.5h-18.4v174.8l-9.2,9.2h-73.8l-9.2-9.2V877.5h-18.4v184l18.4,18.4h92.2l18.4-18.4V877.5L322,877.5z M156,877.5H63.8
				l-18.4,18.4v73.6l18.4,18.4h83l9.2,9.2v55.2l-9.2,9.2H73l-9.2-9.2v-27.6H45.3v36.8l18.4,18.4H156l18.4-18.4v-73.6L156,969.5H73
				l-9.2-9.2v-55.2l9.2-9.2h73.8l9.2,9.2v27.6h18.4v-36.8L156,877.5L156,877.5z M912.4,1152.5h-55.3l-18.4,18.4v184h18.4v-184h55.3
				V1152.5L912.4,1152.5z M838.6,1152.5h-55.3v18.4h55.3V1152.5L838.6,1152.5z M709.5,1152.5H691l-55.3,55.2v73.6l18.4,18.4h92.2
				v55.2h18.4v-55.2l-18.4-18.4h-92.2v-64.4l46.1-46l46.1,46v64.4h18.4v-73.6L709.5,1152.5L709.5,1152.5z M617.2,1152.5H488.1v202.4
				h129.1v-18.4H506.5v-73.6v-92h110.7V1152.5L617.2,1152.5z M451.2,1152.5H340.5v202.4h18.4v-92v-92h83l9.2,9.2v55.2l-9.2,9.2
				h-64.6l-18.4,18.4l92.2,92h18.4v-18.4h-9.2l-73.8-73.6h64.6l18.4-18.4v-73.6L451.2,1152.5L451.2,1152.5z M303.6,1152.5h-92.2
				l-18.4,18.4v165.6l18.4,18.4h92.2l18.4-18.4v-46h-18.4v36.8l-9.2,9.2h-73.8l-9.2-9.2v-147.2l9.2-9.2h73.8l9.2,9.2v36.8H322v-46
				L303.6,1152.5L303.6,1152.5z M1060,1244.5H930.8v18.4H1060V1244.5L1060,1244.5z M617.2,1244.5H525l-18.4,18.4h110.7V1244.5
				L617.2,1244.5z M654.1,1299.7h-18.4v55.2h18.4V1299.7L654.1,1299.7z M1041.5,1427.5h-92.2l-18.4,18.4v73.6l18.4,18.4h83l9.2,9.2
				v55.2l-9.2,9.2h-73.8l-9.2-9.2v-27.6h-18.4v36.8l18.4,18.4h92.2l18.4-18.4v-73.6l-18.4-18.4h-83l-9.2-9.2v-55.2l9.2-9.2h73.8
				l9.2,9.2v27.6h18.4v-36.8L1041.5,1427.5L1041.5,1427.5z M893.9,1427.5H783.3v202.4h18.4v-92v-92h83l9.2,9.2v55.2l-9.2,9.2h-64.6
				l-18.4,18.4l92.2,92h18.4v-18.4h-9.2l-73.8-73.6h64.6l18.4-18.4v-73.6L893.9,1427.5L893.9,1427.5z M746.4,1427.5h-92.2
				l-18.4,18.4v165.6l18.4,18.4h92.2l18.4-18.4v-165.6L746.4,1427.5L746.4,1427.5z M663.3,1611.5l-9.2-9.2v-147.2l9.2-9.2h73.8
				l9.2,9.2v147.2l-9.2,9.2H663.3L663.3,1611.5z"/>
		</g>
	</g>
	<g class="st23">
		<g>
			<linearGradient id="SVGID_6_" gradientUnits="userSpaceOnUse" x1="543.6472" y1="1638.8861" x2="543.6472" y2="886.4833">
				<stop  offset="0" style="stop-color:#2E50F7"/>
				<stop  offset="1" style="stop-color:#FC2A00"/>
			</linearGradient>
			<path class="st24" d="M1050.2,887.2v16.9h-54.6h-0.8v0.8v183.3h-16.9V905.2l18-18H1050.2 M976.4,887.2v16.9h-53.8v-16.9H976.4
				 M884.6,887.2l18,18v73l-18,18h-64.3h-1.8l1.3,1.3l73.8,73.6l0.2,0.2h0.3h8.5v16.9h-17.4l-91.5-91.3l17.7-17.7h64.3h0.3l0.2-0.2
				l9.2-9.2l0.2-0.2v-0.3v-55.2v-0.3l-0.2-0.2l-9.2-9.2l-0.2-0.2h-0.3h-83H792v0.8v92v91.3H775V887.2H884.6 M737,887.2l18,18v165
				l-18,18h-91.6l-18-18v-165l18-18H737 M654,1071.2h0.3h73.8h0.3l0.2-0.2l9.2-9.2l0.2-0.2v-0.3V914.1v-0.3l-0.2-0.2l-9.2-9.2
				l-0.2-0.2h-0.3h-73.8H654l-0.2,0.2l-9.2,9.2l-0.2,0.2v0.3v147.2v0.3l0.2,0.2l9.2,9.2L654,1071.2 M589.5,887.2l18,18v73l-18,18
				h-91.9h-0.8v0.8v91.3h-16.9v-90.9l18-18h82.7h0.3l0.2-0.2l9.2-9.2l0.2-0.2v-0.3v-55.2v-0.3l-0.2-0.2l-9.2-9.2l-0.2-0.2h-0.3h-83
				h-0.8v0.8v72.9h-16.9v-90.5H589.5 M441.9,887.2l18,18v73l-18,18h-91.9h-0.8v0.8v91.3h-16.9v-90.9l18-18H433h0.3l0.2-0.2l9.2-9.2
				l0.2-0.2v-0.3v-55.2v-0.3l-0.2-0.2l-9.2-9.2l-0.2-0.2H433h-83h-0.8v0.8v72.9h-16.9v-90.5H441.9 M312.3,887.2v182.9l-18,18h-91.6
				l-18-18V887.2h16.9v174.1v0.3l0.2,0.2l9.2,9.2l0.2,0.2h0.3h73.8h0.3l0.2-0.2l9.2-9.2l0.2-0.2v-0.3V887.2H312.3 M146.7,887.2
				l18,18v35.7h-16.9v-26.9v-0.3l-0.2-0.2l-9.2-9.2l-0.2-0.2h-0.3H64h-0.3l-0.2,0.2l-9.2,9.2l-0.2,0.2v0.3v55.2v0.3l0.2,0.2l9.2,9.2
				l0.2,0.2H64h82.7l18,18v73l-18,18H55.1l-18-18v-35.7H54v26.9v0.3l0.2,0.2l9.2,9.2l0.2,0.2H64h73.8h0.3l0.2-0.2l9.2-9.2l0.2-0.2
				v-0.3v-55.2v-0.3l-0.2-0.2l-9.2-9.2l-0.2-0.2h-0.3H55.1l-18-18v-73l18-18H146.7 M902.6,1162.2v16.9h-54.6h-0.8v0.8v183.3h-16.9
				v-182.9l18-18H902.6 M828.9,1162.2v16.9H775v-16.9H828.9 M700.2,1162.2l54.9,54.8v72.5h-16.9v-63.7v-0.3l-0.2-0.2l-46.1-46
				l-0.5-0.5l-0.5,0.5l-46.1,46l-0.2,0.2v0.3v64.4v0.8h0.8H737l18,18v54.1h-16.9v-54.5v-0.8h-0.8h-91.9l-18-18v-73l54.9-54.8H700.2
				 M607.5,1162.2v16.9H497.5h-0.8v0.8v92v73.6v0.8h0.8h109.9v16.9H479.8v-200.9H607.5 M441.9,1162.2l18,18v73l-18,18h-64.3h-1.8
				l1.3,1.3l73.8,73.6l0.2,0.2h0.3h8.5v16.9h-17.4l-91.5-91.3l17.7-17.7H433h0.3l0.2-0.2l9.2-9.2l0.2-0.2v-0.3v-55.2v-0.3l-0.2-0.2
				l-9.2-9.2l-0.2-0.2H433h-83h-0.8v0.8v92v91.3h-16.9v-200.9H441.9 M294.3,1162.2l18,18v44.9h-16.9v-36.1v-0.3l-0.2-0.2l-9.2-9.2
				l-0.2-0.2h-0.3h-73.8h-0.3l-0.2,0.2l-9.2,9.2l-0.2,0.2v0.3v147.2v0.3l0.2,0.2l9.2,9.2l0.2,0.2h0.3h73.8h0.3l0.2-0.2l9.2-9.2
				l0.2-0.2v-0.3v-36.1h16.9v44.9l-18,18h-91.6l-18-18v-165l18-18H294.3 M1050.2,1254.2v16.9H922.6v-16.9H1050.2 M607.5,1254.2v16.9
				H499.3l16.9-16.9H607.5 M644.4,1309.4v53.7h-16.9v-53.7H644.4 M1032.2,1437.2l18,18v35.7h-16.9v-26.9v-0.3l-0.2-0.2l-9.2-9.2
				l-0.2-0.2h-0.3h-73.8h-0.3l-0.2,0.2l-9.2,9.2l-0.2,0.2v0.3v55.2v0.3l0.2,0.2l9.2,9.2l0.2,0.2h0.3h82.7l18,18v73l-18,18h-91.6
				l-18-18v-35.7h16.9v26.9v0.3l0.2,0.2l9.2,9.2l0.2,0.2h0.3h73.8h0.3l0.2-0.2l9.2-9.2l0.2-0.2v-0.3v-55.2v-0.3l-0.2-0.2l-9.2-9.2
				l-0.2-0.2h-0.3h-82.7l-18-18v-73l18-18H1032.2 M884.6,1437.2l18,18v73l-18,18h-64.3h-1.8l1.3,1.3l73.8,73.6l0.2,0.2h0.3h8.5v16.9
				h-17.4l-91.5-91.3l17.7-17.7h64.3h0.3l0.2-0.2l9.2-9.2l0.2-0.2v-0.3v-55.2v-0.3l-0.2-0.2l-9.2-9.2l-0.2-0.2h-0.3h-83H792v0.8v92
				v91.3H775v-200.9H884.6 M737,1437.2l18,18v165l-18,18h-91.6l-18-18v-165l18-18H737 M654,1621.2h0.3h73.8h0.3l0.2-0.2l9.2-9.2
				l0.2-0.2v-0.3v-147.2v-0.3l-0.2-0.2l-9.2-9.2l-0.2-0.2h-0.3h-73.8H654l-0.2,0.2l-9.2,9.2l-0.2,0.2v0.3v147.2v0.3l0.2,0.2l9.2,9.2
				L654,1621.2 M1051,886.5h-55.3l-18.4,18.4v184h18.4v-184h55.3V886.5L1051,886.5z M977.2,886.5h-55.3v18.4h55.3V886.5L977.2,886.5
				z M884.9,886.5H774.3v202.4h18.4v-92v-92h83l9.2,9.2v55.2l-9.2,9.2h-64.6l-18.4,18.4l92.2,92h18.4v-18.4h-9.2l-73.8-73.6h64.6
				l18.4-18.4v-73.6L884.9,886.5L884.9,886.5z M737.4,886.5h-92.2l-18.4,18.4v165.6l18.4,18.4h92.2l18.4-18.4V904.9L737.4,886.5
				L737.4,886.5z M654.3,1070.5l-9.2-9.2V914.1l9.2-9.2h73.8l9.2,9.2v147.2l-9.2,9.2H654.3L654.3,1070.5z M589.8,886.5H479.1v92
				h18.4v-73.6h83l9.2,9.2v55.2l-9.2,9.2h-83l-18.4,18.4v92h18.4v-92h92.2l18.4-18.4v-73.6L589.8,886.5L589.8,886.5z M442.2,886.5
				H331.5v92h18.4v-73.6h83l9.2,9.2v55.2l-9.2,9.2h-83l-18.4,18.4v92h18.4v-92h92.2l18.4-18.4v-73.6L442.2,886.5L442.2,886.5z
				 M313,886.5h-18.4v174.8l-9.2,9.2h-73.8l-9.2-9.2V886.5h-18.4v184l18.4,18.4h92.2l18.4-18.4V886.5L313,886.5z M147,886.5H54.8
				l-18.4,18.4v73.6l18.4,18.4h83l9.2,9.2v55.2l-9.2,9.2H64l-9.2-9.2v-27.6H36.3v36.8l18.4,18.4H147l18.4-18.4v-73.6L147,978.5H64
				l-9.2-9.2v-55.2l9.2-9.2h73.8l9.2,9.2v27.6h18.4v-36.8L147,886.5L147,886.5z M903.4,1161.5h-55.3l-18.4,18.4v184h18.4v-184h55.3
				V1161.5L903.4,1161.5z M829.6,1161.5h-55.3v18.4h55.3V1161.5L829.6,1161.5z M700.5,1161.5H682l-55.3,55.2v73.6l18.4,18.4h92.2
				v55.2h18.4v-55.2l-18.4-18.4h-92.2v-64.4l46.1-46l46.1,46v64.4h18.4v-73.6L700.5,1161.5L700.5,1161.5z M608.2,1161.5H479.1v202.4
				h129.1v-18.4H497.5v-73.6v-92h110.7V1161.5L608.2,1161.5z M442.2,1161.5H331.5v202.4h18.4v-92v-92h83l9.2,9.2v55.2l-9.2,9.2
				h-64.6l-18.4,18.4l92.2,92h18.4v-18.4h-9.2l-73.8-73.6h64.6l18.4-18.4v-73.6L442.2,1161.5L442.2,1161.5z M294.6,1161.5h-92.2
				l-18.4,18.4v165.6l18.4,18.4h92.2l18.4-18.4v-46h-18.4v36.8l-9.2,9.2h-73.8l-9.2-9.2v-147.2l9.2-9.2h73.8l9.2,9.2v36.8H313v-46
				L294.6,1161.5L294.6,1161.5z M1051,1253.5H921.8v18.4H1051V1253.5L1051,1253.5z M608.2,1253.5H516l-18.4,18.4h110.7V1253.5
				L608.2,1253.5z M645.1,1308.7h-18.4v55.2h18.4V1308.7L645.1,1308.7z M1032.5,1436.5h-92.2l-18.4,18.4v73.6l18.4,18.4h83l9.2,9.2
				v55.2l-9.2,9.2h-73.8l-9.2-9.2v-27.6h-18.4v36.8l18.4,18.4h92.2l18.4-18.4v-73.6l-18.4-18.4h-83l-9.2-9.2v-55.2l9.2-9.2h73.8
				l9.2,9.2v27.6h18.4v-36.8L1032.5,1436.5L1032.5,1436.5z M884.9,1436.5H774.3v202.4h18.4v-92v-92h83l9.2,9.2v55.2l-9.2,9.2h-64.6
				l-18.4,18.4l92.2,92h18.4v-18.4h-9.2l-73.8-73.6h64.6l18.4-18.4v-73.6L884.9,1436.5L884.9,1436.5z M737.4,1436.5h-92.2
				l-18.4,18.4v165.6l18.4,18.4h92.2l18.4-18.4v-165.6L737.4,1436.5L737.4,1436.5z M654.3,1620.5l-9.2-9.2v-147.2l9.2-9.2h73.8
				l9.2,9.2v147.2l-9.2,9.2H654.3L654.3,1620.5z"/>
		</g>
	</g>
	<g class="st10">
		<g>
			<linearGradient id="SVGID_7_" gradientUnits="userSpaceOnUse" x1="534.6472" y1="1647.8861" x2="534.6472" y2="895.4833">
				<stop  offset="0" style="stop-color:#2E50F7"/>
				<stop  offset="1" style="stop-color:#FC2A00"/>
			</linearGradient>
			<path class="st25" d="M1041.2,896.2v16.9h-54.6h-0.8v0.8v183.3h-16.9V914.2l18-18H1041.2 M967.4,896.2v16.9h-53.8v-16.9H967.4
				 M875.6,896.2l18,18v73l-18,18h-64.3h-1.8l1.3,1.3l73.8,73.6l0.2,0.2h0.3h8.5v16.9h-17.4l-91.5-91.3l17.7-17.7h64.3h0.3l0.2-0.2
				l9.2-9.2l0.2-0.2v-0.3v-55.2v-0.3l-0.2-0.2l-9.2-9.2l-0.2-0.2h-0.3h-83H783v0.8v92v91.3H766V896.2H875.6 M728,896.2l18,18v165
				l-18,18h-91.6l-18-18v-165l18-18H728 M645,1080.2h0.3h73.8h0.3l0.2-0.2l9.2-9.2l0.2-0.2v-0.3V923.1v-0.3l-0.2-0.2l-9.2-9.2
				l-0.2-0.2h-0.3h-73.8H645l-0.2,0.2l-9.2,9.2l-0.2,0.2v0.3v147.2v0.3l0.2,0.2l9.2,9.2L645,1080.2 M580.5,896.2l18,18v73l-18,18
				h-91.9h-0.8v0.8v91.3h-16.9v-90.9l18-18h82.7h0.3l0.2-0.2l9.2-9.2l0.2-0.2v-0.3v-55.2v-0.3l-0.2-0.2l-9.2-9.2l-0.2-0.2h-0.3h-83
				h-0.8v0.8v72.9h-16.9v-90.5H580.5 M432.9,896.2l18,18v73l-18,18h-91.9h-0.8v0.8v91.3h-16.9v-90.9l18-18H424h0.3l0.2-0.2l9.2-9.2
				l0.2-0.2v-0.3v-55.2v-0.3l-0.2-0.2l-9.2-9.2l-0.2-0.2H424h-83h-0.8v0.8v72.9h-16.9v-90.5H432.9 M303.3,896.2v182.9l-18,18h-91.6
				l-18-18V896.2h16.9v174.1v0.3l0.2,0.2l9.2,9.2l0.2,0.2h0.3h73.8h0.3l0.2-0.2l9.2-9.2l0.2-0.2v-0.3V896.2H303.3 M137.7,896.2
				l18,18v35.7h-16.9v-26.9v-0.3l-0.2-0.2l-9.2-9.2l-0.2-0.2h-0.3H55h-0.3l-0.2,0.2l-9.2,9.2l-0.2,0.2v0.3v55.2v0.3l0.2,0.2l9.2,9.2
				l0.2,0.2H55h82.7l18,18v73l-18,18H46.1l-18-18v-35.7H45v26.9v0.3l0.2,0.2l9.2,9.2l0.2,0.2H55h73.8h0.3l0.2-0.2l9.2-9.2l0.2-0.2
				v-0.3v-55.2v-0.3l-0.2-0.2l-9.2-9.2l-0.2-0.2h-0.3H46.1l-18-18v-73l18-18H137.7 M893.6,1171.2v16.9h-54.6h-0.8v0.8v183.3h-16.9
				v-182.9l18-18H893.6 M819.9,1171.2v16.9H766v-16.9H819.9 M691.2,1171.2l54.9,54.8v72.5h-16.9v-63.7v-0.3l-0.2-0.2l-46.1-46
				l-0.5-0.5l-0.5,0.5l-46.1,46l-0.2,0.2v0.3v64.4v0.8h0.8H728l18,18v54.1h-16.9v-54.5v-0.8h-0.8h-91.9l-18-18v-73l54.9-54.8H691.2
				 M598.5,1171.2v16.9H488.5h-0.8v0.8v92v73.6v0.8h0.8h109.9v16.9H470.8v-200.9H598.5 M432.9,1171.2l18,18v73l-18,18h-64.3h-1.8
				l1.3,1.3l73.8,73.6l0.2,0.2h0.3h8.5v16.9h-17.4l-91.5-91.3l17.7-17.7H424h0.3l0.2-0.2l9.2-9.2l0.2-0.2v-0.3v-55.2v-0.3l-0.2-0.2
				l-9.2-9.2l-0.2-0.2H424h-83h-0.8v0.8v92v91.3h-16.9v-200.9H432.9 M285.3,1171.2l18,18v44.9h-16.9v-36.1v-0.3l-0.2-0.2l-9.2-9.2
				l-0.2-0.2h-0.3h-73.8h-0.3l-0.2,0.2l-9.2,9.2l-0.2,0.2v0.3v147.2v0.3l0.2,0.2l9.2,9.2l0.2,0.2h0.3h73.8h0.3l0.2-0.2l9.2-9.2
				l0.2-0.2v-0.3v-36.1h16.9v44.9l-18,18h-91.6l-18-18v-165l18-18H285.3 M1041.2,1263.2v16.9H913.6v-16.9H1041.2 M598.5,1263.2v16.9
				H490.3l16.9-16.9H598.5 M635.4,1318.4v53.7h-16.9v-53.7H635.4 M1023.2,1446.2l18,18v35.7h-16.9v-26.9v-0.3l-0.2-0.2l-9.2-9.2
				l-0.2-0.2h-0.3h-73.8h-0.3l-0.2,0.2l-9.2,9.2l-0.2,0.2v0.3v55.2v0.3l0.2,0.2l9.2,9.2l0.2,0.2h0.3h82.7l18,18v73l-18,18h-91.6
				l-18-18v-35.7h16.9v26.9v0.3l0.2,0.2l9.2,9.2l0.2,0.2h0.3h73.8h0.3l0.2-0.2l9.2-9.2l0.2-0.2v-0.3v-55.2v-0.3l-0.2-0.2l-9.2-9.2
				l-0.2-0.2h-0.3h-82.7l-18-18v-73l18-18H1023.2 M875.6,1446.2l18,18v73l-18,18h-64.3h-1.8l1.3,1.3l73.8,73.6l0.2,0.2h0.3h8.5v16.9
				h-17.4l-91.5-91.3l17.7-17.7h64.3h0.3l0.2-0.2l9.2-9.2l0.2-0.2v-0.3v-55.2v-0.3l-0.2-0.2l-9.2-9.2l-0.2-0.2h-0.3h-83H783v0.8v92
				v91.3H766v-200.9H875.6 M728,1446.2l18,18v165l-18,18h-91.6l-18-18v-165l18-18H728 M645,1630.2h0.3h73.8h0.3l0.2-0.2l9.2-9.2
				l0.2-0.2v-0.3v-147.2v-0.3l-0.2-0.2l-9.2-9.2l-0.2-0.2h-0.3h-73.8H645l-0.2,0.2l-9.2,9.2l-0.2,0.2v0.3v147.2v0.3l0.2,0.2l9.2,9.2
				L645,1630.2 M1042,895.5h-55.3l-18.4,18.4v184h18.4v-184h55.3V895.5L1042,895.5z M968.2,895.5h-55.3v18.4h55.3V895.5L968.2,895.5
				z M875.9,895.5H765.3v202.4h18.4v-92v-92h83l9.2,9.2v55.2l-9.2,9.2h-64.6l-18.4,18.4l92.2,92h18.4v-18.4h-9.2l-73.8-73.6h64.6
				l18.4-18.4v-73.6L875.9,895.5L875.9,895.5z M728.4,895.5h-92.2l-18.4,18.4v165.6l18.4,18.4h92.2l18.4-18.4V913.9L728.4,895.5
				L728.4,895.5z M645.3,1079.5l-9.2-9.2V923.1l9.2-9.2h73.8l9.2,9.2v147.2l-9.2,9.2H645.3L645.3,1079.5z M580.8,895.5H470.1v92
				h18.4v-73.6h83l9.2,9.2v55.2l-9.2,9.2h-83l-18.4,18.4v92h18.4v-92h92.2l18.4-18.4v-73.6L580.8,895.5L580.8,895.5z M433.2,895.5
				H322.5v92h18.4v-73.6h83l9.2,9.2v55.2l-9.2,9.2h-83l-18.4,18.4v92h18.4v-92h92.2l18.4-18.4v-73.6L433.2,895.5L433.2,895.5z
				 M304,895.5h-18.4v174.8l-9.2,9.2h-73.8l-9.2-9.2V895.5h-18.4v184l18.4,18.4h92.2l18.4-18.4V895.5L304,895.5z M138,895.5H45.8
				l-18.4,18.4v73.6l18.4,18.4h83l9.2,9.2v55.2l-9.2,9.2H55l-9.2-9.2v-27.6H27.3v36.8l18.4,18.4H138l18.4-18.4v-73.6L138,987.5H55
				l-9.2-9.2v-55.2l9.2-9.2h73.8l9.2,9.2v27.6h18.4v-36.8L138,895.5L138,895.5z M894.4,1170.5h-55.3l-18.4,18.4v184h18.4v-184h55.3
				V1170.5L894.4,1170.5z M820.6,1170.5h-55.3v18.4h55.3V1170.5L820.6,1170.5z M691.5,1170.5H673l-55.3,55.2v73.6l18.4,18.4h92.2
				v55.2h18.4v-55.2l-18.4-18.4h-92.2v-64.4l46.1-46l46.1,46v64.4h18.4v-73.6L691.5,1170.5L691.5,1170.5z M599.2,1170.5H470.1v202.4
				h129.1v-18.4H488.5v-73.6v-92h110.7V1170.5L599.2,1170.5z M433.2,1170.5H322.5v202.4h18.4v-92v-92h83l9.2,9.2v55.2l-9.2,9.2
				h-64.6l-18.4,18.4l92.2,92h18.4v-18.4h-9.2l-73.8-73.6h64.6l18.4-18.4v-73.6L433.2,1170.5L433.2,1170.5z M285.6,1170.5h-92.2
				l-18.4,18.4v165.6l18.4,18.4h92.2l18.4-18.4v-46h-18.4v36.8l-9.2,9.2h-73.8l-9.2-9.2v-147.2l9.2-9.2h73.8l9.2,9.2v36.8H304v-46
				L285.6,1170.5L285.6,1170.5z M1042,1262.5H912.8v18.4H1042V1262.5L1042,1262.5z M599.2,1262.5H507l-18.4,18.4h110.7V1262.5
				L599.2,1262.5z M636.1,1317.7h-18.4v55.2h18.4V1317.7L636.1,1317.7z M1023.5,1445.5h-92.2l-18.4,18.4v73.6l18.4,18.4h83l9.2,9.2
				v55.2l-9.2,9.2h-73.8l-9.2-9.2v-27.6h-18.4v36.8l18.4,18.4h92.2l18.4-18.4v-73.6l-18.4-18.4h-83l-9.2-9.2v-55.2l9.2-9.2h73.8
				l9.2,9.2v27.6h18.4v-36.8L1023.5,1445.5L1023.5,1445.5z M875.9,1445.5H765.3v202.4h18.4v-92v-92h83l9.2,9.2v55.2l-9.2,9.2h-64.6
				l-18.4,18.4l92.2,92h18.4v-18.4h-9.2l-73.8-73.6h64.6l18.4-18.4v-73.6L875.9,1445.5L875.9,1445.5z M728.4,1445.5h-92.2
				l-18.4,18.4v165.6l18.4,18.4h92.2l18.4-18.4v-165.6L728.4,1445.5L728.4,1445.5z M645.3,1629.5l-9.2-9.2v-147.2l9.2-9.2h73.8
				l9.2,9.2v147.2l-9.2,9.2H645.3L645.3,1629.5z"/>
		</g>
	</g>
	<g class="st26">
		<g>
			<linearGradient id="SVGID_8_" gradientUnits="userSpaceOnUse" x1="525.6472" y1="1656.8861" x2="525.6472" y2="904.4833">
				<stop  offset="0" style="stop-color:#2E50F7"/>
				<stop  offset="1" style="stop-color:#FC2A00"/>
			</linearGradient>
			<path class="st27" d="M1032.2,905.2v16.9h-54.6h-0.8v0.8v183.3h-16.9V923.2l18-18H1032.2 M958.4,905.2v16.9h-53.8v-16.9H958.4
				 M866.6,905.2l18,18v73l-18,18h-64.3h-1.8l1.3,1.3l73.8,73.6l0.2,0.2h0.3h8.5v16.9h-17.4l-91.5-91.3l17.7-17.7h64.3h0.3l0.2-0.2
				l9.2-9.2l0.2-0.2v-0.3v-55.2v-0.3l-0.2-0.2l-9.2-9.2l-0.2-0.2h-0.3h-83H774v0.8v92v91.3H757V905.2H866.6 M719,905.2l18,18v165
				l-18,18h-91.6l-18-18v-165l18-18H719 M636,1089.2h0.3h73.8h0.3l0.2-0.2l9.2-9.2l0.2-0.2v-0.3V932.1v-0.3l-0.2-0.2l-9.2-9.2
				l-0.2-0.2h-0.3h-73.8H636l-0.2,0.2l-9.2,9.2l-0.2,0.2v0.3v147.2v0.3l0.2,0.2l9.2,9.2L636,1089.2 M571.5,905.2l18,18v73l-18,18
				h-91.9h-0.8v0.8v91.3h-16.9v-90.9l18-18h82.7h0.3l0.2-0.2l9.2-9.2l0.2-0.2v-0.3v-55.2v-0.3l-0.2-0.2l-9.2-9.2l-0.2-0.2h-0.3h-83
				h-0.8v0.8v72.9h-16.9v-90.5H571.5 M423.9,905.2l18,18v73l-18,18h-91.9h-0.8v0.8v91.3h-16.9v-90.9l18-18H415h0.3l0.2-0.2l9.2-9.2
				l0.2-0.2v-0.3v-55.2v-0.3l-0.2-0.2l-9.2-9.2l-0.2-0.2H415h-83h-0.8v0.8v72.9h-16.9v-90.5H423.9 M294.3,905.2v182.9l-18,18h-91.6
				l-18-18V905.2h16.9v174.1v0.3l0.2,0.2l9.2,9.2l0.2,0.2h0.3h73.8h0.3l0.2-0.2l9.2-9.2l0.2-0.2v-0.3V905.2H294.3 M128.7,905.2
				l18,18v35.7h-16.9v-26.9v-0.3l-0.2-0.2l-9.2-9.2l-0.2-0.2h-0.3H46h-0.3l-0.2,0.2l-9.2,9.2l-0.2,0.2v0.3v55.2v0.3l0.2,0.2l9.2,9.2
				l0.2,0.2H46h82.7l18,18v73l-18,18H37.1l-18-18v-35.7H36v26.9v0.3l0.2,0.2l9.2,9.2l0.2,0.2H46h73.8h0.3l0.2-0.2l9.2-9.2l0.2-0.2
				v-0.3v-55.2v-0.3l-0.2-0.2l-9.2-9.2l-0.2-0.2h-0.3H37.1l-18-18v-73l18-18H128.7 M884.6,1180.2v16.9h-54.6h-0.8v0.8v183.3h-16.9
				v-182.9l18-18H884.6 M810.9,1180.2v16.9H757v-16.9H810.9 M682.2,1180.2l54.9,54.8v72.5h-16.9v-63.7v-0.3l-0.2-0.2l-46.1-46
				l-0.5-0.5l-0.5,0.5l-46.1,46l-0.2,0.2v0.3v64.4v0.8h0.8H719l18,18v54.1h-16.9v-54.5v-0.8h-0.8h-91.9l-18-18v-73l54.9-54.8H682.2
				 M589.5,1180.2v16.9H479.5h-0.8v0.8v92v73.6v0.8h0.8h109.9v16.9H461.8v-200.9H589.5 M423.9,1180.2l18,18v73l-18,18h-64.3h-1.8
				l1.3,1.3l73.8,73.6l0.2,0.2h0.3h8.5v16.9h-17.4l-91.5-91.3l17.7-17.7H415h0.3l0.2-0.2l9.2-9.2l0.2-0.2v-0.3v-55.2v-0.3l-0.2-0.2
				l-9.2-9.2l-0.2-0.2H415h-83h-0.8v0.8v92v91.3h-16.9v-200.9H423.9 M276.3,1180.2l18,18v44.9h-16.9v-36.1v-0.3l-0.2-0.2l-9.2-9.2
				l-0.2-0.2h-0.3h-73.8h-0.3l-0.2,0.2l-9.2,9.2l-0.2,0.2v0.3v147.2v0.3l0.2,0.2l9.2,9.2l0.2,0.2h0.3h73.8h0.3l0.2-0.2l9.2-9.2
				l0.2-0.2v-0.3v-36.1h16.9v44.9l-18,18h-91.6l-18-18v-165l18-18H276.3 M1032.2,1272.2v16.9H904.6v-16.9H1032.2 M589.5,1272.2v16.9
				H481.3l16.9-16.9H589.5 M626.4,1327.4v53.7h-16.9v-53.7H626.4 M1014.2,1455.2l18,18v35.7h-16.9v-26.9v-0.3l-0.2-0.2l-9.2-9.2
				l-0.2-0.2h-0.3h-73.8h-0.3l-0.2,0.2l-9.2,9.2l-0.2,0.2v0.3v55.2v0.3l0.2,0.2l9.2,9.2l0.2,0.2h0.3h82.7l18,18v73l-18,18h-91.6
				l-18-18v-35.7h16.9v26.9v0.3l0.2,0.2l9.2,9.2l0.2,0.2h0.3h73.8h0.3l0.2-0.2l9.2-9.2l0.2-0.2v-0.3v-55.2v-0.3l-0.2-0.2l-9.2-9.2
				l-0.2-0.2h-0.3h-82.7l-18-18v-73l18-18H1014.2 M866.6,1455.2l18,18v73l-18,18h-64.3h-1.8l1.3,1.3l73.8,73.6l0.2,0.2h0.3h8.5v16.9
				h-17.4l-91.5-91.3l17.7-17.7h64.3h0.3l0.2-0.2l9.2-9.2l0.2-0.2v-0.3v-55.2v-0.3l-0.2-0.2l-9.2-9.2l-0.2-0.2h-0.3h-83H774v0.8v92
				v91.3H757v-200.9H866.6 M719,1455.2l18,18v165l-18,18h-91.6l-18-18v-165l18-18H719 M636,1639.2h0.3h73.8h0.3l0.2-0.2l9.2-9.2
				l0.2-0.2v-0.3v-147.2v-0.3l-0.2-0.2l-9.2-9.2l-0.2-0.2h-0.3h-73.8H636l-0.2,0.2l-9.2,9.2l-0.2,0.2v0.3v147.2v0.3l0.2,0.2l9.2,9.2
				L636,1639.2 M1033,904.5h-55.3l-18.4,18.4v184h18.4v-184h55.3V904.5L1033,904.5z M959.2,904.5h-55.3v18.4h55.3V904.5L959.2,904.5
				z M866.9,904.5H756.3v202.4h18.4v-92v-92h83l9.2,9.2v55.2l-9.2,9.2h-64.6l-18.4,18.4l92.2,92h18.4v-18.4h-9.2l-73.8-73.6h64.6
				l18.4-18.4v-73.6L866.9,904.5L866.9,904.5z M719.4,904.5h-92.2l-18.4,18.4v165.6l18.4,18.4h92.2l18.4-18.4V922.9L719.4,904.5
				L719.4,904.5z M636.3,1088.5l-9.2-9.2V932.1l9.2-9.2h73.8l9.2,9.2v147.2l-9.2,9.2H636.3L636.3,1088.5z M571.8,904.5H461.1v92
				h18.4v-73.6h83l9.2,9.2v55.2l-9.2,9.2h-83l-18.4,18.4v92h18.4v-92h92.2l18.4-18.4v-73.6L571.8,904.5L571.8,904.5z M424.2,904.5
				H313.5v92h18.4v-73.6h83l9.2,9.2v55.2l-9.2,9.2h-83l-18.4,18.4v92h18.4v-92h92.2l18.4-18.4v-73.6L424.2,904.5L424.2,904.5z
				 M295,904.5h-18.4v174.8l-9.2,9.2h-73.8l-9.2-9.2V904.5h-18.4v184l18.4,18.4h92.2l18.4-18.4V904.5L295,904.5z M129,904.5H36.8
				l-18.4,18.4v73.6l18.4,18.4h83l9.2,9.2v55.2l-9.2,9.2H46l-9.2-9.2v-27.6H18.3v36.8l18.4,18.4H129l18.4-18.4v-73.6L129,996.5H46
				l-9.2-9.2v-55.2l9.2-9.2h73.8l9.2,9.2v27.6h18.4v-36.8L129,904.5L129,904.5z M885.4,1179.5h-55.3l-18.4,18.4v184h18.4v-184h55.3
				V1179.5L885.4,1179.5z M811.6,1179.5h-55.3v18.4h55.3V1179.5L811.6,1179.5z M682.5,1179.5H664l-55.3,55.2v73.6l18.4,18.4h92.2
				v55.2h18.4v-55.2l-18.4-18.4h-92.2v-64.4l46.1-46l46.1,46v64.4h18.4v-73.6L682.5,1179.5L682.5,1179.5z M590.2,1179.5H461.1v202.4
				h129.1v-18.4H479.5v-73.6v-92h110.7V1179.5L590.2,1179.5z M424.2,1179.5H313.5v202.4h18.4v-92v-92h83l9.2,9.2v55.2l-9.2,9.2
				h-64.6l-18.4,18.4l92.2,92h18.4v-18.4h-9.2l-73.8-73.6h64.6l18.4-18.4v-73.6L424.2,1179.5L424.2,1179.5z M276.6,1179.5h-92.2
				l-18.4,18.4v165.6l18.4,18.4h92.2l18.4-18.4v-46h-18.4v36.8l-9.2,9.2h-73.8l-9.2-9.2v-147.2l9.2-9.2h73.8l9.2,9.2v36.8H295v-46
				L276.6,1179.5L276.6,1179.5z M1033,1271.5H903.8v18.4H1033V1271.5L1033,1271.5z M590.2,1271.5H498l-18.4,18.4h110.7V1271.5
				L590.2,1271.5z M627.1,1326.7h-18.4v55.2h18.4V1326.7L627.1,1326.7z M1014.5,1454.5h-92.2l-18.4,18.4v73.6l18.4,18.4h83l9.2,9.2
				v55.2l-9.2,9.2h-73.8l-9.2-9.2v-27.6h-18.4v36.8l18.4,18.4h92.2l18.4-18.4v-73.6l-18.4-18.4h-83l-9.2-9.2v-55.2l9.2-9.2h73.8
				l9.2,9.2v27.6h18.4v-36.8L1014.5,1454.5L1014.5,1454.5z M866.9,1454.5H756.3v202.4h18.4v-92v-92h83l9.2,9.2v55.2l-9.2,9.2h-64.6
				l-18.4,18.4l92.2,92h18.4v-18.4h-9.2l-73.8-73.6h64.6l18.4-18.4v-73.6L866.9,1454.5L866.9,1454.5z M719.4,1454.5h-92.2
				l-18.4,18.4v165.6l18.4,18.4h92.2l18.4-18.4v-165.6L719.4,1454.5L719.4,1454.5z M636.3,1638.5l-9.2-9.2v-147.2l9.2-9.2h73.8
				l9.2,9.2v147.2l-9.2,9.2H636.3L636.3,1638.5z"/>
		</g>
	</g>
	<g class="st3">
		<g>
			<linearGradient id="SVGID_9_" gradientUnits="userSpaceOnUse" x1="516.6472" y1="1665.8861" x2="516.6472" y2="913.4833">
				<stop  offset="0" style="stop-color:#2E50F7"/>
				<stop  offset="1" style="stop-color:#FC2A00"/>
			</linearGradient>
			<path class="st28" d="M1023.2,914.2v16.9h-54.6h-0.8v0.8v183.3h-16.9V932.2l18-18H1023.2 M949.4,914.2v16.9h-53.8v-16.9H949.4
				 M857.6,914.2l18,18v73l-18,18h-64.3h-1.8l1.3,1.3l73.8,73.6l0.2,0.2h0.3h8.5v16.9h-17.4l-91.5-91.3l17.7-17.7h64.3h0.3l0.2-0.2
				l9.2-9.2l0.2-0.2v-0.3v-55.2v-0.3l-0.2-0.2l-9.2-9.2l-0.2-0.2h-0.3h-83H765v0.8v92v91.3H748V914.2H857.6 M710,914.2l18,18v165
				l-18,18h-91.6l-18-18v-165l18-18H710 M627,1098.2h0.3h73.8h0.3l0.2-0.2l9.2-9.2l0.2-0.2v-0.3V941.1v-0.3l-0.2-0.2l-9.2-9.2
				l-0.2-0.2h-0.3h-73.8H627l-0.2,0.2l-9.2,9.2l-0.2,0.2v0.3v147.2v0.3l0.2,0.2l9.2,9.2L627,1098.2 M562.5,914.2l18,18v73l-18,18
				h-91.9h-0.8v0.8v91.3h-16.9v-90.9l18-18h82.7h0.3l0.2-0.2l9.2-9.2l0.2-0.2v-0.3v-55.2v-0.3l-0.2-0.2l-9.2-9.2l-0.2-0.2h-0.3h-83
				h-0.8v0.8v72.9h-16.9v-90.5H562.5 M414.9,914.2l18,18v73l-18,18h-91.9h-0.8v0.8v91.3h-16.9v-90.9l18-18H406h0.3l0.2-0.2l9.2-9.2
				l0.2-0.2v-0.3v-55.2v-0.3l-0.2-0.2l-9.2-9.2l-0.2-0.2H406h-83h-0.8v0.8v72.9h-16.9v-90.5H414.9 M285.3,914.2v182.9l-18,18h-91.6
				l-18-18V914.2h16.9v174.1v0.3l0.2,0.2l9.2,9.2l0.2,0.2h0.3h73.8h0.3l0.2-0.2l9.2-9.2l0.2-0.2v-0.3V914.2H285.3 M119.7,914.2
				l18,18v35.7h-16.9v-26.9v-0.3l-0.2-0.2l-9.2-9.2l-0.2-0.2h-0.3H37h-0.3l-0.2,0.2l-9.2,9.2l-0.2,0.2v0.3v55.2v0.3l0.2,0.2l9.2,9.2
				l0.2,0.2H37h82.7l18,18v73l-18,18H28.1l-18-18v-35.7H27v26.9v0.3l0.2,0.2l9.2,9.2l0.2,0.2H37h73.8h0.3l0.2-0.2l9.2-9.2l0.2-0.2
				v-0.3v-55.2v-0.3l-0.2-0.2l-9.2-9.2l-0.2-0.2h-0.3H28.1l-18-18v-73l18-18H119.7 M875.6,1189.2v16.9h-54.6h-0.8v0.8v183.3h-16.9
				v-182.9l18-18H875.6 M801.9,1189.2v16.9H748v-16.9H801.9 M673.2,1189.2l54.9,54.8v72.5h-16.9v-63.7v-0.3l-0.2-0.2l-46.1-46
				l-0.5-0.5l-0.5,0.5l-46.1,46l-0.2,0.2v0.3v64.4v0.8h0.8H710l18,18v54.1h-16.9v-54.5v-0.8h-0.8h-91.9l-18-18v-73l54.9-54.8H673.2
				 M580.5,1189.2v16.9H470.5h-0.8v0.8v92v73.6v0.8h0.8h109.9v16.9H452.8v-200.9H580.5 M414.9,1189.2l18,18v73l-18,18h-64.3h-1.8
				l1.3,1.3l73.8,73.6l0.2,0.2h0.3h8.5v16.9h-17.4l-91.5-91.3l17.7-17.7H406h0.3l0.2-0.2l9.2-9.2l0.2-0.2v-0.3v-55.2v-0.3l-0.2-0.2
				l-9.2-9.2l-0.2-0.2H406h-83h-0.8v0.8v92v91.3h-16.9v-200.9H414.9 M267.3,1189.2l18,18v44.9h-16.9v-36.1v-0.3l-0.2-0.2l-9.2-9.2
				l-0.2-0.2h-0.3h-73.8h-0.3l-0.2,0.2l-9.2,9.2l-0.2,0.2v0.3v147.2v0.3l0.2,0.2l9.2,9.2l0.2,0.2h0.3h73.8h0.3l0.2-0.2l9.2-9.2
				l0.2-0.2v-0.3v-36.1h16.9v44.9l-18,18h-91.6l-18-18v-165l18-18H267.3 M1023.2,1281.2v16.9H895.6v-16.9H1023.2 M580.5,1281.2v16.9
				H472.3l16.9-16.9H580.5 M617.4,1336.4v53.7h-16.9v-53.7H617.4 M1005.2,1464.2l18,18v35.7h-16.9v-26.9v-0.3l-0.2-0.2l-9.2-9.2
				l-0.2-0.2h-0.3h-73.8h-0.3l-0.2,0.2l-9.2,9.2l-0.2,0.2v0.3v55.2v0.3l0.2,0.2l9.2,9.2l0.2,0.2h0.3h82.7l18,18v73l-18,18h-91.6
				l-18-18v-35.7h16.9v26.9v0.3l0.2,0.2l9.2,9.2l0.2,0.2h0.3h73.8h0.3l0.2-0.2l9.2-9.2l0.2-0.2v-0.3v-55.2v-0.3l-0.2-0.2l-9.2-9.2
				l-0.2-0.2h-0.3h-82.7l-18-18v-73l18-18H1005.2 M857.6,1464.2l18,18v73l-18,18h-64.3h-1.8l1.3,1.3l73.8,73.6l0.2,0.2h0.3h8.5v16.9
				h-17.4l-91.5-91.3l17.7-17.7h64.3h0.3l0.2-0.2l9.2-9.2l0.2-0.2v-0.3v-55.2v-0.3l-0.2-0.2l-9.2-9.2l-0.2-0.2h-0.3h-83H765v0.8v92
				v91.3H748v-200.9H857.6 M710,1464.2l18,18v165l-18,18h-91.6l-18-18v-165l18-18H710 M627,1648.2h0.3h73.8h0.3l0.2-0.2l9.2-9.2
				l0.2-0.2v-0.3v-147.2v-0.3l-0.2-0.2l-9.2-9.2l-0.2-0.2h-0.3h-73.8H627l-0.2,0.2l-9.2,9.2l-0.2,0.2v0.3v147.2v0.3l0.2,0.2l9.2,9.2
				L627,1648.2 M1024,913.5h-55.3l-18.4,18.4v184h18.4v-184h55.3V913.5L1024,913.5z M950.2,913.5h-55.3v18.4h55.3V913.5L950.2,913.5
				z M857.9,913.5H747.3v202.4h18.4v-92v-92h83l9.2,9.2v55.2l-9.2,9.2h-64.6l-18.4,18.4l92.2,92h18.4v-18.4h-9.2l-73.8-73.6h64.6
				l18.4-18.4v-73.6L857.9,913.5L857.9,913.5z M710.4,913.5h-92.2l-18.4,18.4v165.6l18.4,18.4h92.2l18.4-18.4V931.9L710.4,913.5
				L710.4,913.5z M627.3,1097.5l-9.2-9.2V941.1l9.2-9.2h73.8l9.2,9.2v147.2l-9.2,9.2H627.3L627.3,1097.5z M562.8,913.5H452.1v92
				h18.4v-73.6h83l9.2,9.2v55.2l-9.2,9.2h-83l-18.4,18.4v92h18.4v-92h92.2l18.4-18.4v-73.6L562.8,913.5L562.8,913.5z M415.2,913.5
				H304.5v92h18.4v-73.6h83l9.2,9.2v55.2l-9.2,9.2h-83l-18.4,18.4v92h18.4v-92h92.2l18.4-18.4v-73.6L415.2,913.5L415.2,913.5z
				 M286,913.5h-18.4v174.8l-9.2,9.2h-73.8l-9.2-9.2V913.5h-18.4v184l18.4,18.4h92.2l18.4-18.4V913.5L286,913.5z M120,913.5H27.8
				L9.3,931.9v73.6l18.4,18.4h83l9.2,9.2v55.2l-9.2,9.2H37l-9.2-9.2v-27.6H9.3v36.8l18.4,18.4H120l18.4-18.4v-73.6l-18.4-18.4H37
				l-9.2-9.2v-55.2l9.2-9.2h73.8l9.2,9.2v27.6h18.4v-36.8L120,913.5L120,913.5z M876.4,1188.5h-55.3l-18.4,18.4v184h18.4v-184h55.3
				V1188.5L876.4,1188.5z M802.6,1188.5h-55.3v18.4h55.3V1188.5L802.6,1188.5z M673.5,1188.5H655l-55.3,55.2v73.6l18.4,18.4h92.2
				v55.2h18.4v-55.2l-18.4-18.4h-92.2v-64.4l46.1-46l46.1,46v64.4h18.4v-73.6L673.5,1188.5L673.5,1188.5z M581.2,1188.5H452.1v202.4
				h129.1v-18.4H470.5v-73.6v-92h110.7V1188.5L581.2,1188.5z M415.2,1188.5H304.5v202.4h18.4v-92v-92h83l9.2,9.2v55.2l-9.2,9.2
				h-64.6l-18.4,18.4l92.2,92h18.4v-18.4h-9.2l-73.8-73.6h64.6l18.4-18.4v-73.6L415.2,1188.5L415.2,1188.5z M267.6,1188.5h-92.2
				l-18.4,18.4v165.6l18.4,18.4h92.2l18.4-18.4v-46h-18.4v36.8l-9.2,9.2h-73.8l-9.2-9.2v-147.2l9.2-9.2h73.8l9.2,9.2v36.8H286v-46
				L267.6,1188.5L267.6,1188.5z M1024,1280.5H894.8v18.4H1024V1280.5L1024,1280.5z M581.2,1280.5H489l-18.4,18.4h110.7V1280.5
				L581.2,1280.5z M618.1,1335.7h-18.4v55.2h18.4V1335.7L618.1,1335.7z M1005.5,1463.5h-92.2l-18.4,18.4v73.6l18.4,18.4h83l9.2,9.2
				v55.2l-9.2,9.2h-73.8l-9.2-9.2v-27.6h-18.4v36.8l18.4,18.4h92.2l18.4-18.4v-73.6l-18.4-18.4h-83l-9.2-9.2v-55.2l9.2-9.2h73.8
				l9.2,9.2v27.6h18.4v-36.8L1005.5,1463.5L1005.5,1463.5z M857.9,1463.5H747.3v202.4h18.4v-92v-92h83l9.2,9.2v55.2l-9.2,9.2h-64.6
				l-18.4,18.4l92.2,92h18.4v-18.4h-9.2l-73.8-73.6h64.6l18.4-18.4v-73.6L857.9,1463.5L857.9,1463.5z M710.4,1463.5h-92.2
				l-18.4,18.4v165.6l18.4,18.4h92.2l18.4-18.4v-165.6L710.4,1463.5L710.4,1463.5z M627.3,1647.5l-9.2-9.2v-147.2l9.2-9.2h73.8
				l9.2,9.2v147.2l-9.2,9.2H627.3L627.3,1647.5z"/>
		</g>
	</g>
	<g class="st29">
		<g>
			<linearGradient id="SVGID_10_" gradientUnits="userSpaceOnUse" x1="597.6471" y1="1584.8861" x2="597.6471" y2="832.4833">
				<stop  offset="0" style="stop-color:#2E50F7"/>
				<stop  offset="1" style="stop-color:#FC2A00"/>
			</linearGradient>
			<path class="st30" d="M1104.2,833.2v16.9h-54.6h-0.8v0.8v183.3h-16.9V851.2l18-18H1104.2 M1030.4,833.2v16.9h-53.8v-16.9H1030.4
				 M938.6,833.2l18,18v73l-18,18h-64.3h-1.8l1.3,1.3l73.8,73.6l0.2,0.2h0.3h8.5v16.9h-17.4l-91.5-91.3l17.7-17.7h64.3h0.3l0.2-0.2
				l9.2-9.2l0.2-0.2v-0.3v-55.2v-0.3l-0.2-0.2l-9.2-9.2l-0.2-0.2h-0.3h-83H846v0.8v92v91.3H829V833.2H938.6 M791,833.2l18,18v165
				l-18,18h-91.6l-18-18v-165l18-18H791 M708,1017.2h0.3h73.8h0.3l0.2-0.2l9.2-9.2l0.2-0.2v-0.3V860.1v-0.3l-0.2-0.2l-9.2-9.2
				l-0.2-0.2h-0.3h-73.8H708l-0.2,0.2l-9.2,9.2l-0.2,0.2v0.3v147.2v0.3l0.2,0.2l9.2,9.2L708,1017.2 M643.5,833.2l18,18v73l-18,18
				h-91.9h-0.8v0.8v91.3h-16.9v-90.9l18-18h82.7h0.3l0.2-0.2l9.2-9.2l0.2-0.2v-0.3v-55.2v-0.3l-0.2-0.2l-9.2-9.2l-0.2-0.2h-0.3h-83
				h-0.8v0.8v72.9h-16.9v-90.5H643.5 M495.9,833.2l18,18v73l-18,18h-91.9h-0.8v0.8v91.3h-16.9v-90.9l18-18H487h0.3l0.2-0.2l9.2-9.2
				l0.2-0.2v-0.3v-55.2v-0.3l-0.2-0.2l-9.2-9.2l-0.2-0.2H487h-83h-0.8v0.8v72.9h-16.9v-90.5H495.9 M366.3,833.2v182.9l-18,18h-91.6
				l-18-18V833.2h16.9v174.1v0.3l0.2,0.2l9.2,9.2l0.2,0.2h0.3h73.8h0.3l0.2-0.2l9.2-9.2l0.2-0.2v-0.3V833.2H366.3 M200.7,833.2
				l18,18v35.7h-16.9v-26.9v-0.3l-0.2-0.2l-9.2-9.2l-0.2-0.2h-0.3H118h-0.3l-0.2,0.2l-9.2,9.2l-0.2,0.2v0.3v55.2v0.3l0.2,0.2
				l9.2,9.2l0.2,0.2h0.3h82.7l18,18v73l-18,18h-91.6l-18-18v-35.7H108v26.9v0.3l0.2,0.2l9.2,9.2l0.2,0.2h0.3h73.8h0.3l0.2-0.2
				l9.2-9.2l0.2-0.2v-0.3v-55.2v-0.3l-0.2-0.2l-9.2-9.2l-0.2-0.2h-0.3h-82.7l-18-18v-73l18-18H200.7 M956.6,1108.2v16.9h-54.6h-0.8
				v0.8v183.3h-16.9v-182.9l18-18H956.6 M882.9,1108.2v16.9H829v-16.9H882.9 M754.2,1108.2l54.9,54.8v72.5h-16.9v-63.7v-0.3
				l-0.2-0.2l-46.1-46l-0.5-0.5l-0.5,0.5l-46.1,46l-0.2,0.2v0.3v64.4v0.8h0.8H791l18,18v54.1h-16.9v-54.5v-0.8h-0.8h-91.9l-18-18
				v-73l54.9-54.8H754.2 M661.5,1108.2v16.9H551.5h-0.8v0.8v92v73.6v0.8h0.8h109.9v16.9H533.8v-200.9H661.5 M495.9,1108.2l18,18v73
				l-18,18h-64.3h-1.8l1.3,1.3l73.8,73.6l0.2,0.2h0.3h8.5v16.9h-17.4l-91.5-91.3l17.7-17.7H487h0.3l0.2-0.2l9.2-9.2l0.2-0.2v-0.3
				v-55.2v-0.3l-0.2-0.2l-9.2-9.2l-0.2-0.2H487h-83h-0.8v0.8v92v91.3h-16.9v-200.9H495.9 M348.3,1108.2l18,18v44.9h-16.9v-36.1v-0.3
				l-0.2-0.2l-9.2-9.2l-0.2-0.2h-0.3h-73.8h-0.3l-0.2,0.2l-9.2,9.2l-0.2,0.2v0.3v147.2v0.3l0.2,0.2l9.2,9.2l0.2,0.2h0.3h73.8h0.3
				l0.2-0.2l9.2-9.2l0.2-0.2v-0.3v-36.1h16.9v44.9l-18,18h-91.6l-18-18v-165l18-18H348.3 M1104.2,1200.2v16.9H976.6v-16.9H1104.2
				 M661.5,1200.2v16.9H553.3l16.9-16.9H661.5 M698.4,1255.4v53.7h-16.9v-53.7H698.4 M1086.2,1383.2l18,18v35.7h-16.9v-26.9v-0.3
				l-0.2-0.2l-9.2-9.2l-0.2-0.2h-0.3h-73.8h-0.3l-0.2,0.2l-9.2,9.2l-0.2,0.2v0.3v55.2v0.3l0.2,0.2l9.2,9.2l0.2,0.2h0.3h82.7l18,18
				v73l-18,18h-91.6l-18-18v-35.7h16.9v26.9v0.3l0.2,0.2l9.2,9.2l0.2,0.2h0.3h73.8h0.3l0.2-0.2l9.2-9.2l0.2-0.2v-0.3v-55.2v-0.3
				l-0.2-0.2l-9.2-9.2l-0.2-0.2h-0.3h-82.7l-18-18v-73l18-18H1086.2 M938.6,1383.2l18,18v73l-18,18h-64.3h-1.8l1.3,1.3l73.8,73.6
				l0.2,0.2h0.3h8.5v16.9h-17.4l-91.5-91.3l17.7-17.7h64.3h0.3l0.2-0.2l9.2-9.2l0.2-0.2v-0.3v-55.2v-0.3l-0.2-0.2l-9.2-9.2l-0.2-0.2
				h-0.3h-83H846v0.8v92v91.3H829v-200.9H938.6 M791,1383.2l18,18v165l-18,18h-91.6l-18-18v-165l18-18H791 M708,1567.2h0.3h73.8h0.3
				l0.2-0.2l9.2-9.2l0.2-0.2v-0.3v-147.2v-0.3l-0.2-0.2l-9.2-9.2l-0.2-0.2h-0.3h-73.8H708l-0.2,0.2l-9.2,9.2l-0.2,0.2v0.3v147.2v0.3
				l0.2,0.2l9.2,9.2L708,1567.2 M1105,832.5h-55.3l-18.4,18.4v184h18.4v-184h55.3V832.5L1105,832.5z M1031.2,832.5h-55.3v18.4h55.3
				V832.5L1031.2,832.5z M938.9,832.5H828.3v202.4h18.4v-92v-92h83l9.2,9.2v55.2l-9.2,9.2h-64.6l-18.4,18.4l92.2,92h18.4v-18.4h-9.2
				l-73.8-73.6h64.6l18.4-18.4v-73.6L938.9,832.5L938.9,832.5z M791.4,832.5h-92.2l-18.4,18.4v165.6l18.4,18.4h92.2l18.4-18.4V850.9
				L791.4,832.5L791.4,832.5z M708.3,1016.5l-9.2-9.2V860.1l9.2-9.2h73.8l9.2,9.2v147.2l-9.2,9.2H708.3L708.3,1016.5z M643.8,832.5
				H533.1v92h18.4v-73.6h83l9.2,9.2v55.2l-9.2,9.2h-83l-18.4,18.4v92h18.4v-92h92.2l18.4-18.4v-73.6L643.8,832.5L643.8,832.5z
				 M496.2,832.5H385.5v92h18.4v-73.6h83l9.2,9.2v55.2l-9.2,9.2h-83l-18.4,18.4v92h18.4v-92h92.2l18.4-18.4v-73.6L496.2,832.5
				L496.2,832.5z M367,832.5h-18.4v174.8l-9.2,9.2h-73.8l-9.2-9.2V832.5h-18.4v184l18.4,18.4h92.2l18.4-18.4V832.5L367,832.5z
				 M201,832.5h-92.2l-18.4,18.4v73.6l18.4,18.4h83l9.2,9.2v55.2l-9.2,9.2H118l-9.2-9.2v-27.6H90.3v36.8l18.4,18.4H201l18.4-18.4
				v-73.6L201,924.5h-83l-9.2-9.2v-55.2l9.2-9.2h73.8l9.2,9.2v27.6h18.4v-36.8L201,832.5L201,832.5z M957.4,1107.5h-55.3l-18.4,18.4
				v184h18.4v-184h55.3V1107.5L957.4,1107.5z M883.6,1107.5h-55.3v18.4h55.3V1107.5L883.6,1107.5z M754.5,1107.5H736l-55.3,55.2
				v73.6l18.4,18.4h92.2v55.2h18.4v-55.2l-18.4-18.4h-92.2v-64.4l46.1-46l46.1,46v64.4h18.4v-73.6L754.5,1107.5L754.5,1107.5z
				 M662.2,1107.5H533.1v202.4h129.1v-18.4H551.5v-73.6v-92h110.7V1107.5L662.2,1107.5z M496.2,1107.5H385.5v202.4h18.4v-92v-92h83
				l9.2,9.2v55.2l-9.2,9.2h-64.6l-18.4,18.4l92.2,92h18.4v-18.4h-9.2l-73.8-73.6h64.6l18.4-18.4v-73.6L496.2,1107.5L496.2,1107.5z
				 M348.6,1107.5h-92.2l-18.4,18.4v165.6l18.4,18.4h92.2l18.4-18.4v-46h-18.4v36.8l-9.2,9.2h-73.8l-9.2-9.2v-147.2l9.2-9.2h73.8
				l9.2,9.2v36.8H367v-46L348.6,1107.5L348.6,1107.5z M1105,1199.5H975.8v18.4H1105V1199.5L1105,1199.5z M662.2,1199.5H570
				l-18.4,18.4h110.7V1199.5L662.2,1199.5z M699.1,1254.7h-18.4v55.2h18.4V1254.7L699.1,1254.7z M1086.5,1382.5h-92.2l-18.4,18.4
				v73.6l18.4,18.4h83l9.2,9.2v55.2l-9.2,9.2h-73.8l-9.2-9.2v-27.6h-18.4v36.8l18.4,18.4h92.2l18.4-18.4v-73.6l-18.4-18.4h-83
				l-9.2-9.2v-55.2l9.2-9.2h73.8l9.2,9.2v27.6h18.4v-36.8L1086.5,1382.5L1086.5,1382.5z M938.9,1382.5H828.3v202.4h18.4v-92v-92h83
				l9.2,9.2v55.2l-9.2,9.2h-64.6l-18.4,18.4l92.2,92h18.4v-18.4h-9.2l-73.8-73.6h64.6l18.4-18.4v-73.6L938.9,1382.5L938.9,1382.5z
				 M791.4,1382.5h-92.2l-18.4,18.4v165.6l18.4,18.4h92.2l18.4-18.4v-165.6L791.4,1382.5L791.4,1382.5z M708.3,1566.5l-9.2-9.2
				v-147.2l9.2-9.2h73.8l9.2,9.2v147.2l-9.2,9.2H708.3L708.3,1566.5z"/>
		</g>
	</g>
	<g>
		<linearGradient id="SVGID_11_" gradientUnits="userSpaceOnUse" x1="606.3294" y1="1576.2383" x2="606.3294" y2="823.8354">
			<stop  offset="0" style="stop-color:#2E50F7"/>
			<stop  offset="1" style="stop-color:#FC2A00"/>
		</linearGradient>
		<path class="st31" d="M228.1,934.2v73.6l-18.4,18.4h-92.2L99,1007.8V971h18.4v27.6l9.2,9.2h73.8l9.2-9.2v-55.2l-9.2-9.2h-83
			L99,915.8v-73.6l18.4-18.4h92.2l18.4,18.4V879h-18.4v-27.6l-9.2-9.2h-73.8l-9.2,9.2v55.2l9.2,9.2h83L228.1,934.2z M375.7,1007.8
			l-18.4,18.4H265l-18.4-18.4v-184H265v174.8l9.2,9.2H348l9.2-9.2V823.8h18.4V1007.8z M523.3,915.8l-18.4,18.4h-92.2v92h-18.4v-92
			l18.4-18.4h83l9.2-9.2v-55.2l-9.2-9.2h-83v73.6h-18.4v-92h110.7l18.4,18.4V915.8z M670.9,915.8l-18.4,18.4h-92.2v92h-18.4v-92
			l18.4-18.4h83l9.2-9.2v-55.2l-9.2-9.2h-83v73.6h-18.4v-92h110.7l18.4,18.4V915.8z M818.5,1007.8l-18.4,18.4h-92.2l-18.4-18.4
			V842.2l18.4-18.4H800l18.4,18.4V1007.8z M707.8,851.4v147.2l9.2,9.2h73.8l9.2-9.2V851.4l-9.2-9.2H717L707.8,851.4z M883.1,934.2
			l73.8,73.6h9.2v18.4h-18.4l-92.2-92l18.4-18.4h64.6l9.2-9.2v-55.2l-9.2-9.2h-83v184h-18.4V823.8h110.7l18.4,18.4v73.6l-18.4,18.4
			H883.1z M1039.9,842.2h-55.3v-18.4h55.3V842.2z M1113.7,842.2h-55.3v184h-18.4v-184l18.4-18.4h55.3V842.2z M375.7,1282.8
			l-18.4,18.4H265l-18.4-18.4v-165.6l18.4-18.4h92.2l18.4,18.4v46h-18.4v-36.8l-9.2-9.2h-73.8l-9.2,9.2v147.2l9.2,9.2H348l9.2-9.2
			v-36.8h18.4V1282.8z M440.3,1209.2l73.8,73.6h9.2v18.4h-18.4l-92.2-92l18.4-18.4h64.6l9.2-9.2v-55.2l-9.2-9.2h-83v184h-18.4
			v-202.4h110.7l18.4,18.4v73.6l-18.4,18.4H440.3z M670.9,1282.8v18.4H541.8v-202.4h129.1v18.4H560.2v165.6H670.9z M560.2,1209.2
			l18.4-18.4h92.2v18.4H560.2z M800,1227.6v-64.4l-46.1-46l-46.1,46v64.4H800l18.4,18.4v55.2H800V1246h-92.2l-18.4-18.4V1154
			l55.3-55.2h18.4l55.3,55.2v73.6H800z M707.8,1246v55.2h-18.4V1246H707.8z M892.3,1117.2h-55.3v-18.4h55.3V1117.2z M966.1,1117.2
			h-55.3v184h-18.4v-184l18.4-18.4h55.3V1117.2z M1113.7,1209.2H984.5v-18.4h129.1V1209.2z M818.5,1557.8l-18.4,18.4h-92.2
			l-18.4-18.4v-165.6l18.4-18.4H800l18.4,18.4V1557.8z M707.8,1401.4v147.2l9.2,9.2h73.8l9.2-9.2v-147.2l-9.2-9.2H717L707.8,1401.4z
			 M883.1,1484.2l73.8,73.6h9.2v18.4h-18.4l-92.2-92l18.4-18.4h64.6l9.2-9.2v-55.2l-9.2-9.2h-83v184h-18.4v-202.4h110.7l18.4,18.4
			v73.6l-18.4,18.4H883.1z M1113.7,1484.2v73.6l-18.4,18.4H1003l-18.4-18.4V1521h18.4v27.6l9.2,9.2h73.8l9.2-9.2v-55.2l-9.2-9.2h-83
			l-18.4-18.4v-73.6l18.4-18.4h92.2l18.4,18.4v36.8h-18.4v-27.6l-9.2-9.2h-73.8l-9.2,9.2v55.2l9.2,9.2h83L1113.7,1484.2z"/>
	</g>
	<g>
		<g>
			<linearGradient id="SVGID_12_" gradientUnits="userSpaceOnUse" x1="606.2138" y1="1576.3351" x2="606.2138" y2="823.9323">
				<stop  offset="0" style="stop-color:#718BF0"/>
				<stop  offset="1" style="stop-color:#F76F5E"/>
			</linearGradient>
			<path class="st32" d="M1112.6,824.9v16.4h-54.3h-1v1v183h-16.4V842.7l17.9-17.8H1112.6 M1038.8,824.9v16.4h-53.3v-16.4H1038.8
				 M947.1,824.9l17.9,17.8v72.8l-17.9,17.8h-64.2h-2.4l1.7,1.7l73.8,73.6l0.3,0.3h0.4h8.2v16.4h-17l-91.2-91l17.4-17.4h64.2h0.4
				l0.3-0.3l9.2-9.2l0.3-0.3v-0.4v-55.2v-0.4l-0.3-0.3l-9.2-9.2l-0.3-0.3h-0.4h-83h-1v1v92v91h-16.4V824.9H947.1 M799.5,824.9
				l17.9,17.8v164.8l-17.9,17.8h-91.4l-17.9-17.8V842.7l17.9-17.8H799.5 M716.5,1008.9h0.4h73.8h0.4l0.3-0.3l9.2-9.2l0.3-0.3v-0.4
				V851.5v-0.4l-0.3-0.3l-9.2-9.2l-0.3-0.3h-0.4h-73.8h-0.4l-0.3,0.3l-9.2,9.2l-0.3,0.3v0.4v147.2v0.4l0.3,0.3l9.2,9.2L716.5,1008.9
				 M651.9,824.9l17.9,17.8v72.8l-17.9,17.8h-91.8h-1v1v91h-16.4v-90.6l17.9-17.8h82.6h0.4l0.3-0.3l9.2-9.2l0.3-0.3v-0.4v-55.2v-0.4
				l-0.3-0.3l-9.2-9.2l-0.3-0.3h-0.4h-83h-1v1v72.6h-16.4v-90H651.9 M504.3,824.9l17.9,17.8v72.8l-17.9,17.8h-91.8h-1v1v91h-16.4
				v-90.6l17.9-17.8h82.6h0.4l0.3-0.3l9.2-9.2l0.3-0.3v-0.4v-55.2v-0.4l-0.3-0.3l-9.2-9.2l-0.3-0.3h-0.4h-83h-1v1v72.6h-16.4v-90
				H504.3 M374.6,824.9v182.6l-17.9,17.8h-91.4l-17.9-17.8V824.9h16.4v173.8v0.4l0.3,0.3l9.2,9.2l0.3,0.3h0.4h73.8h0.4l0.3-0.3
				l9.2-9.2l0.3-0.3v-0.4V824.9H374.6 M209.2,824.9l17.9,17.8v35.4h-16.4v-26.6v-0.4l-0.3-0.3l-9.2-9.2l-0.3-0.3h-0.4h-73.8h-0.4
				l-0.3,0.3l-9.2,9.2l-0.3,0.3v0.4v55.2v0.4l0.3,0.3l9.2,9.2l0.3,0.3h0.4h82.6l17.9,17.8v72.8l-17.9,17.8h-91.4l-17.9-17.8v-35.4
				h16.4v26.6v0.4l0.3,0.3l9.2,9.2l0.3,0.3h0.4h73.8h0.4l0.3-0.3l9.2-9.2l0.3-0.3v-0.4v-55.2v-0.4l-0.3-0.3l-9.2-9.2l-0.3-0.3h-0.4
				h-82.6l-17.9-17.8v-72.8l17.9-17.8H209.2 M965,1099.9v16.4h-54.3h-1v1v183h-16.4v-182.6l17.9-17.8H965 M891.2,1099.9v16.4h-53.3
				v-16.4H891.2 M762.6,1099.9l54.8,54.6v72.2h-16.4v-63.4v-0.4l-0.3-0.3l-46.1-46l-0.7-0.7l-0.7,0.7l-46.1,46l-0.3,0.3v0.4v64.4v1
				h1h91.8l17.9,17.8v53.8h-16.4v-54.2v-1h-1h-91.8l-17.9-17.8v-72.8l54.8-54.6H762.6 M669.8,1099.9v16.4H560.1h-1v1v92v73.6v1h1
				h109.7v16.4H542.6v-200.4H669.8 M504.3,1099.9l17.9,17.8v72.8l-17.9,17.8h-64.2h-2.4l1.7,1.7l73.8,73.6l0.3,0.3h0.4h8.2v16.4h-17
				l-91.2-91l17.4-17.4h64.2h0.4l0.3-0.3l9.2-9.2l0.3-0.3v-0.4v-55.2v-0.4l-0.3-0.3l-9.2-9.2l-0.3-0.3h-0.4h-83h-1v1v92v91h-16.4
				v-200.4H504.3 M356.7,1099.9l17.9,17.8v44.6h-16.4v-35.8v-0.4l-0.3-0.3l-9.2-9.2l-0.3-0.3h-0.4h-73.8h-0.4l-0.3,0.3l-9.2,9.2
				l-0.3,0.3v0.4v147.2v0.4l0.3,0.3l9.2,9.2l0.3,0.3h0.4h73.8h0.4l0.3-0.3l9.2-9.2l0.3-0.3v-0.4v-35.8h16.4v44.6l-17.9,17.8h-91.4
				l-17.9-17.8v-164.8l17.9-17.8H356.7 M1112.6,1191.9v16.4H985.4v-16.4H1112.6 M669.8,1191.9v16.4H562.5l16.4-16.4H669.8
				 M706.7,1247.1v53.2h-16.4v-53.2H706.7 M1094.7,1374.9l17.9,17.8v35.4h-16.4v-26.6v-0.4l-0.3-0.3l-9.2-9.2l-0.3-0.3h-0.4h-73.8
				h-0.4l-0.3,0.3l-9.2,9.2l-0.3,0.3v0.4v55.2v0.4l0.3,0.3l9.2,9.2l0.3,0.3h0.4h82.6l17.9,17.8v72.8l-17.9,17.8h-91.4l-17.9-17.8
				v-35.4h16.4v26.6v0.4l0.3,0.3l9.2,9.2l0.3,0.3h0.4h73.8h0.4l0.3-0.3l9.2-9.2l0.3-0.3v-0.4v-55.2v-0.4l-0.3-0.3l-9.2-9.2l-0.3-0.3
				h-0.4h-82.6l-17.9-17.8v-72.8l17.9-17.8H1094.7 M947.1,1374.9l17.9,17.8v72.8l-17.9,17.8h-64.2h-2.4l1.7,1.7l73.8,73.6l0.3,0.3
				h0.4h8.2v16.4h-17l-91.2-91l17.4-17.4h64.2h0.4l0.3-0.3l9.2-9.2l0.3-0.3v-0.4v-55.2v-0.4l-0.3-0.3l-9.2-9.2l-0.3-0.3h-0.4h-83h-1
				v1v92v91h-16.4v-200.4H947.1 M799.5,1374.9l17.9,17.8v164.8l-17.9,17.8h-91.4l-17.9-17.8v-164.8l17.9-17.8H799.5 M716.5,1558.9
				h0.4h73.8h0.4l0.3-0.3l9.2-9.2l0.3-0.3v-0.4v-147.2v-0.4l-0.3-0.3l-9.2-9.2l-0.3-0.3h-0.4h-73.8h-0.4l-0.3,0.3l-9.2,9.2l-0.3,0.3
				v0.4v147.2v0.4l0.3,0.3l9.2,9.2L716.5,1558.9 M1113.6,823.9h-55.3l-18.4,18.4v184h18.4v-184h55.3V823.9L1113.6,823.9z
				 M1039.8,823.9h-55.3v18.4h55.3V823.9L1039.8,823.9z M947.5,823.9H836.8v202.4h18.4v-92v-92h83l9.2,9.2v55.2l-9.2,9.2h-64.6
				l-18.4,18.4l92.2,92H966v-18.4h-9.2l-73.8-73.6h64.6l18.4-18.4v-73.6L947.5,823.9L947.5,823.9z M799.9,823.9h-92.2l-18.4,18.4
				v165.6l18.4,18.4h92.2l18.4-18.4V842.3L799.9,823.9L799.9,823.9z M716.9,1007.9l-9.2-9.2V851.5l9.2-9.2h73.8l9.2,9.2v147.2
				l-9.2,9.2H716.9L716.9,1007.9z M652.3,823.9H541.6v92h18.4v-73.6h83l9.2,9.2v55.2l-9.2,9.2h-83l-18.4,18.4v92h18.4v-92h92.2
				l18.4-18.4v-73.6L652.3,823.9L652.3,823.9z M504.7,823.9H394.1v92h18.4v-73.6h83l9.2,9.2v55.2l-9.2,9.2h-83l-18.4,18.4v92h18.4
				v-92h92.2l18.4-18.4v-73.6L504.7,823.9L504.7,823.9z M375.6,823.9h-18.4v174.8l-9.2,9.2h-73.8l-9.2-9.2V823.9h-18.4v184
				l18.4,18.4h92.2l18.4-18.4V823.9L375.6,823.9z M209.6,823.9h-92.2l-18.4,18.4v73.6l18.4,18.4h83l9.2,9.2v55.2l-9.2,9.2h-73.8
				l-9.2-9.2v-27.6H98.9v36.8l18.4,18.4h92.2l18.4-18.4v-73.6l-18.4-18.4h-83l-9.2-9.2v-55.2l9.2-9.2h73.8l9.2,9.2v27.6H228v-36.8
				L209.6,823.9L209.6,823.9z M966,1098.9h-55.3l-18.4,18.4v184h18.4v-184H966V1098.9L966,1098.9z M892.2,1098.9h-55.3v18.4h55.3
				V1098.9L892.2,1098.9z M763,1098.9h-18.4l-55.3,55.2v73.6l18.4,18.4h92.2v55.2h18.4v-55.2l-18.4-18.4h-92.2v-64.4l46.1-46
				l46.1,46v64.4h18.4v-73.6L763,1098.9L763,1098.9z M670.8,1098.9H541.6v202.4h129.1v-18.4H560.1v-73.6v-92h110.7V1098.9
				L670.8,1098.9z M504.7,1098.9H394.1v202.4h18.4v-92v-92h83l9.2,9.2v55.2l-9.2,9.2H431l-18.4,18.4l92.2,92h18.4v-18.4H514
				l-73.8-73.6h64.6l18.4-18.4v-73.6L504.7,1098.9L504.7,1098.9z M357.2,1098.9h-92.2l-18.4,18.4v165.6l18.4,18.4h92.2l18.4-18.4
				v-46h-18.4v36.8l-9.2,9.2h-73.8l-9.2-9.2v-147.2l9.2-9.2h73.8l9.2,9.2v36.8h18.4v-46L357.2,1098.9L357.2,1098.9z M1113.6,1190.9
				H984.4v18.4h129.1V1190.9L1113.6,1190.9z M670.8,1190.9h-92.2l-18.4,18.4h110.7V1190.9L670.8,1190.9z M707.7,1246.1h-18.4v55.2
				h18.4V1246.1L707.7,1246.1z M1095.1,1373.9h-92.2l-18.4,18.4v73.6l18.4,18.4h83l9.2,9.2v55.2l-9.2,9.2h-73.8l-9.2-9.2v-27.6
				h-18.4v36.8l18.4,18.4h92.2l18.4-18.4v-73.6l-18.4-18.4h-83l-9.2-9.2v-55.2l9.2-9.2h73.8l9.2,9.2v27.6h18.4v-36.8L1095.1,1373.9
				L1095.1,1373.9z M947.5,1373.9H836.8v202.4h18.4v-92v-92h83l9.2,9.2v55.2l-9.2,9.2h-64.6l-18.4,18.4l92.2,92H966v-18.4h-9.2
				l-73.8-73.6h64.6l18.4-18.4v-73.6L947.5,1373.9L947.5,1373.9z M799.9,1373.9h-92.2l-18.4,18.4v165.6l18.4,18.4h92.2l18.4-18.4
				v-165.6L799.9,1373.9L799.9,1373.9z M716.9,1557.9l-9.2-9.2v-147.2l9.2-9.2h73.8l9.2,9.2v147.2l-9.2,9.2H716.9L716.9,1557.9z"/>
		</g>
	</g>
</g>
</svg>
