<?xml version="1.0" encoding="utf-8"?>
<!-- Generator: Adobe Illustrator 24.0.1, SVG Export Plug-In . SVG Version: 6.00 Build 0)  -->
<svg version="1.1" id="Layer_1" xmlns="http://www.w3.org/2000/svg" xmlns:xlink="http://www.w3.org/1999/xlink" x="0px" y="0px"
	 viewBox="0 0 3010.9 2443.1" style="enable-background:new 0 0 3010.9 2443.1;" xml:space="preserve">
<style type="text/css">
	
		.st0{opacity:5.000000e-02;fill-rule:evenodd;clip-rule:evenodd;fill:#1B1B1B;stroke:url(#_11_1_);stroke-width:2;stroke-linejoin:round;enable-background:new    ;}
	
		.st1{opacity:8.000000e-02;fill-rule:evenodd;clip-rule:evenodd;fill:#1B1B1B;stroke:url(#_10_1_);stroke-width:2;stroke-linejoin:round;enable-background:new    ;}
	
		.st2{opacity:0.1;fill-rule:evenodd;clip-rule:evenodd;fill:#1B1B1B;stroke:url(#_9_1_);stroke-width:2;stroke-linejoin:round;enable-background:new    ;}
	
		.st3{opacity:0.2;fill-rule:evenodd;clip-rule:evenodd;fill:#1B1B1B;stroke:url(#_8_1_);stroke-width:2;stroke-linejoin:round;enable-background:new    ;}
	
		.st4{opacity:0.3;fill-rule:evenodd;clip-rule:evenodd;fill:#1B1B1B;stroke:url(#_7_1_);stroke-width:2;stroke-linejoin:round;enable-background:new    ;}
	
		.st5{opacity:0.4;fill-rule:evenodd;clip-rule:evenodd;fill:#1B1B1B;stroke:url(#_6_1_);stroke-width:2;stroke-linejoin:round;enable-background:new    ;}
	
		.st6{opacity:0.5;fill-rule:evenodd;clip-rule:evenodd;fill:#1B1B1B;stroke:url(#_5_1_);stroke-width:2;stroke-linejoin:round;enable-background:new    ;}
	
		.st7{opacity:0.6;fill-rule:evenodd;clip-rule:evenodd;fill:#1B1B1B;stroke:url(#_4_1_);stroke-width:2;stroke-linejoin:round;enable-background:new    ;}
	
		.st8{opacity:0.7;fill-rule:evenodd;clip-rule:evenodd;fill:#1B1B1B;stroke:url(#_3_1_);stroke-width:2;stroke-linejoin:round;enable-background:new    ;}
	
		.st9{opacity:0.8;fill-rule:evenodd;clip-rule:evenodd;fill:#1B1B1B;stroke:url(#_2_1_);stroke-width:2;stroke-linejoin:round;enable-background:new    ;}
	
		.st10{opacity:0.9;fill-rule:evenodd;clip-rule:evenodd;fill:#1B1B1B;stroke:url(#_1_1_);stroke-width:2;stroke-linejoin:round;enable-background:new    ;}
	.st11{fill-rule:evenodd;clip-rule:evenodd;fill:url(#support_creators_2_);}
	.st12{fill:none;stroke:url(#support_creators_3_);stroke-width:2;stroke-linejoin:round;}
	
		.st13{opacity:2.000000e-02;fill-rule:evenodd;clip-rule:evenodd;fill:#252525;stroke:#FFFFFF;stroke-width:2;stroke-linejoin:round;enable-background:new    ;}
	
		.st14{opacity:5.000000e-02;fill-rule:evenodd;clip-rule:evenodd;fill:#252525;stroke:#FFFFFF;stroke-width:2;stroke-linejoin:round;enable-background:new    ;}
	
		.st15{opacity:0.1;fill-rule:evenodd;clip-rule:evenodd;fill:#252525;stroke:#FFFFFF;stroke-width:2;stroke-linejoin:round;enable-background:new    ;}
	
		.st16{opacity:0.15;fill-rule:evenodd;clip-rule:evenodd;fill:#252525;stroke:#FFFFFF;stroke-width:2;stroke-linejoin:round;enable-background:new    ;}
	
		.st17{opacity:0.2;fill-rule:evenodd;clip-rule:evenodd;fill:#252525;stroke:#FFFFFF;stroke-width:2;stroke-linejoin:round;enable-background:new    ;}
	
		.st18{opacity:0.25;fill-rule:evenodd;clip-rule:evenodd;fill:#252525;stroke:#FFFFFF;stroke-width:2;stroke-linejoin:round;enable-background:new    ;}
	
		.st19{opacity:0.3;fill-rule:evenodd;clip-rule:evenodd;fill:#252525;stroke:#FFFFFF;stroke-width:2;stroke-linejoin:round;enable-background:new    ;}
	.st20{fill-rule:evenodd;clip-rule:evenodd;fill:#252525;stroke:#FFFFFF;stroke-width:2;stroke-linejoin:round;}
</style>
<g>
	
		<linearGradient id="_11_1_" gradientUnits="userSpaceOnUse" x1="2603.2822" y1="-10765.7012" x2="2603.2822" y2="-9686.6006" gradientTransform="matrix(1 0 0 -1 -1004 -8322.5996)">
		<stop  offset="0" style="stop-color:#6C63FF"/>
		<stop  offset="1" style="stop-color:#F7301B"/>
	</linearGradient>
	<path id="_11" class="st0" d="M691,1568.9l-20.7-20.6v-123.5l20.7-20.6h165.1l20.7,20.6v61.6h41.3v-82.2l-41.3-41.2H670.3
		l-41.3,41.2v164.7l41.3,41.3h185.8l20.7,20.6v123.4l-20.7,20.7H691l-20.7-20.7v-61.8H629v82.5l41.3,41.2h206.5l41.3-41.2v-164.7
		l-41.3-41.3H691L691,1568.9z M1207.1,1363v391.2l-20.7,20.7h-165.2l-20.7-20.7V1363h-41.3v411.9l41.3,41.2h206.5l41.4-41.2V1363
		H1207.1z M1537.4,1363h-247.8v205.9h41.4v-164.7h185.8l20.7,20.6v123.5l-20.7,20.6h-185.8l-41.4,41.3v205.9h41.4v-205.9h206.5
		l41.4-41.3v-164.7L1537.4,1363z M1867.7,1363h-247.9v205.9h41.4v-164.7H1847l20.7,20.6v123.5l-20.7,20.6h-185.8l-41.4,41.3v205.9
		h41.4v-205.9h206.5l41.3-41.3v-164.7L1867.7,1363z M2198,1363h-206.5l-41.4,41.2v370.7l41.4,41.2H2198l41.4-41.2v-370.7L2198,1363z
		 M2177.3,1404.2l20.7,20.6v329.4l-20.7,20.7h-165.1l-20.7-20.7v-329.4l20.7-20.6H2177.3z M2569.6,1568.9v-164.7l-41.4-41.2h-247.9
		v453.1h41.4v-411.9h185.8l20.7,20.6v123.5l-20.7,20.6h-144.5l-41.4,41.3l206.5,205.9h41.4v-41.2h-20.7l-165.1-164.7h144.5
		L2569.6,1568.9z M2610.7,1363v41.2h123.8V1363H2610.7z M2775.9,1363l-41.4,41.2v411.9h41.4v-411.9h124.1V1363H2775.9z M546.5,2298
		v82.2l-20.7,20.7H360.7l-20.7-20.7v-329.4l20.7-20.6h165.1l20.7,20.6v82.3h41.3v-102.9l-41.3-41.2H340l-41.3,41.2v370.7l41.3,41.2
		h206.5l41.3-41.2V2298L546.5,2298L546.5,2298z M918.2,2194.9v-164.7l-41.3-41.2H629v453.1h41.3v-411.9h185.8l20.7,20.6v123.5
		l-20.7,20.6H711.7l-41.3,41.3l206.5,205.9h41.3v-41.2h-20.7l-165.1-164.7h144.5L918.2,2194.9z M1000.6,2030.2h247.8V1989H959.3
		v453.1h289.2v-41.2h-247.8V2030.2L1000.6,2030.2z M1248.4,2194.9H1042l-41.4,41.3h247.8V2194.9z M1578.7,2112.4L1454.7,1989h-41.4
		l-123.8,123.4v165l41.4,41h206.5v123.7h41.4v-123.7l-41.4-41h-206.5v-144.3l103.1-102.9l103.4,102.9v144.3h41.4L1578.7,2112.4
		L1578.7,2112.4z M1289.5,2442.1h41.4v-123.7h-41.4V2442.1z M1619.8,1989v41.2h123.8V1989H1619.8z M1785,1989l-41.4,41.2v411.9h41.4
		v-411.9h124V1989H1785z M2198,1989h-206.5l-41.4,41.2v370.7l41.4,41.2H2198l41.4-41.2v-370.7L2198,1989z M2177.3,2030.2l20.7,20.6
		v329.4l-20.7,20.7h-165.1l-20.7-20.7v-329.4l20.7-20.6H2177.3z M2569.6,2194.9v-164.7l-41.4-41.2h-247.9v453.1h41.4v-411.9h185.8
		l20.7,20.6v123.5l-20.7,20.6h-144.5l-41.4,41.3l206.5,205.9h41.4v-41.2h-20.7l-165.1-164.7h144.5L2569.6,2194.9z M2672.7,2194.9
		l-20.7-20.6v-123.5l20.7-20.6h165.1l20.7,20.6v61.6h41.4v-82.2l-41.4-41.2h-206.5l-41.4,41.2v164.7l41.4,41.3h185.8l20.7,20.6
		v123.4l-20.7,20.7h-165.1l-20.7-20.7v-61.8h-41.4v82.5l41.4,41.2h206.5l41.4-41.2v-164.7l-41.4-41.3H2672.7z"/>
	
		<linearGradient id="_10_1_" gradientUnits="userSpaceOnUse" x1="2613.2822" y1="-10755.7012" x2="2613.2822" y2="-9676.6006" gradientTransform="matrix(1 0 0 -1 -1004 -8322.5996)">
		<stop  offset="0" style="stop-color:#6C63FF"/>
		<stop  offset="1" style="stop-color:#F7301B"/>
	</linearGradient>
	<path id="_10" class="st1" d="M701,1558.9l-20.7-20.6v-123.5l20.7-20.6h165.1l20.7,20.6v61.6h41.3v-82.2l-41.3-41.2H680.3
		l-41.3,41.2v164.7l41.3,41.3h185.8l20.7,20.6v123.4l-20.7,20.7H701l-20.7-20.7v-61.8H639v82.5l41.3,41.2h206.5l41.3-41.2v-164.7
		l-41.3-41.3H701L701,1558.9z M1217.1,1353v391.2l-20.7,20.7h-165.2l-20.7-20.7V1353h-41.3v411.9l41.3,41.2h206.5l41.4-41.2V1353
		H1217.1z M1547.4,1353h-247.8v205.9h41.4v-164.7h185.8l20.7,20.6v123.5l-20.7,20.6h-185.8l-41.4,41.3v205.9h41.4v-205.9h206.5
		l41.4-41.3v-164.7L1547.4,1353z M1877.7,1353h-247.9v205.9h41.4v-164.7H1857l20.7,20.6v123.5l-20.7,20.6h-185.8l-41.4,41.3v205.9
		h41.4v-205.9h206.5l41.3-41.3v-164.7L1877.7,1353z M2208,1353h-206.5l-41.4,41.2v370.7l41.4,41.2H2208l41.4-41.2v-370.7L2208,1353z
		 M2187.3,1394.2l20.7,20.6v329.4l-20.7,20.7h-165.1l-20.7-20.7v-329.4l20.7-20.6H2187.3z M2579.6,1558.9v-164.7l-41.4-41.2h-247.9
		v453.1h41.4v-411.9h185.8l20.7,20.6v123.5l-20.7,20.6h-144.5l-41.4,41.3l206.5,205.9h41.4v-41.2h-20.7l-165.1-164.7h144.5
		L2579.6,1558.9z M2620.7,1353v41.2h123.8V1353H2620.7z M2785.9,1353l-41.4,41.2v411.9h41.4v-411.9h124.1V1353H2785.9z M556.5,2288
		v82.2l-20.7,20.7H370.7l-20.7-20.7v-329.4l20.7-20.6h165.1l20.7,20.6v82.3h41.3v-102.9l-41.3-41.2H350l-41.3,41.2v370.7l41.3,41.2
		h206.5l41.3-41.2V2288L556.5,2288L556.5,2288z M928.2,2184.9v-164.7l-41.3-41.2H639v453.1h41.3v-411.9h185.8l20.7,20.6v123.5
		l-20.7,20.6H721.7l-41.3,41.3l206.5,205.9h41.3v-41.2h-20.7l-165.1-164.7h144.5L928.2,2184.9z M1010.6,2020.2h247.8V1979H969.3
		v453.1h289.2v-41.2h-247.8V2020.2L1010.6,2020.2z M1258.4,2184.9H1052l-41.4,41.3h247.8V2184.9z M1588.7,2102.4L1464.7,1979h-41.4
		l-123.8,123.4v165l41.4,41h206.5v123.7h41.4v-123.7l-41.4-41h-206.5v-144.3l103.1-102.9l103.4,102.9v144.3h41.4L1588.7,2102.4
		L1588.7,2102.4z M1299.5,2432.1h41.4v-123.7h-41.4V2432.1z M1629.8,1979v41.2h123.8V1979H1629.8z M1795,1979l-41.4,41.2v411.9h41.4
		v-411.9h124V1979H1795z M2208,1979h-206.5l-41.4,41.2v370.7l41.4,41.2H2208l41.4-41.2v-370.7L2208,1979z M2187.3,2020.2l20.7,20.6
		v329.4l-20.7,20.7h-165.1l-20.7-20.7v-329.4l20.7-20.6H2187.3z M2579.6,2184.9v-164.7l-41.4-41.2h-247.9v453.1h41.4v-411.9h185.8
		l20.7,20.6v123.5l-20.7,20.6h-144.5l-41.4,41.3l206.5,205.9h41.4v-41.2h-20.7l-165.1-164.7h144.5L2579.6,2184.9z M2682.7,2184.9
		l-20.7-20.6v-123.5l20.7-20.6h165.1l20.7,20.6v61.6h41.4v-82.2l-41.4-41.2h-206.5l-41.4,41.2v164.7l41.4,41.3h185.8l20.7,20.6
		v123.4l-20.7,20.7h-165.1l-20.7-20.7v-61.8h-41.4v82.5l41.4,41.2h206.5l41.4-41.2v-164.7l-41.4-41.3H2682.7z"/>
	
		<linearGradient id="_9_1_" gradientUnits="userSpaceOnUse" x1="2623.2822" y1="-10745.7012" x2="2623.2822" y2="-9666.6006" gradientTransform="matrix(1 0 0 -1 -1004 -8322.5996)">
		<stop  offset="0" style="stop-color:#6C63FF"/>
		<stop  offset="1" style="stop-color:#F7301B"/>
	</linearGradient>
	<path id="_9" class="st2" d="M711,1548.9l-20.7-20.6v-123.5l20.7-20.6h165.1l20.7,20.6v61.6h41.3v-82.2l-41.3-41.2H690.3
		l-41.3,41.2v164.7l41.3,41.3h185.8l20.7,20.6v123.4l-20.7,20.7H711l-20.7-20.7v-61.8H649v82.5l41.3,41.2h206.5l41.3-41.2v-164.7
		l-41.3-41.3H711L711,1548.9z M1227.1,1343v391.2l-20.7,20.7h-165.2l-20.7-20.7V1343h-41.3v411.9l41.3,41.2h206.5l41.4-41.2V1343
		H1227.1z M1557.4,1343h-247.8v205.9h41.4v-164.7h185.8l20.7,20.6v123.5l-20.7,20.6h-185.8l-41.4,41.3v205.9h41.4v-205.9h206.5
		l41.4-41.3v-164.7L1557.4,1343z M1887.7,1343h-247.9v205.9h41.4v-164.7H1867l20.7,20.6v123.5l-20.7,20.6h-185.8l-41.4,41.3v205.9
		h41.4v-205.9h206.5l41.3-41.3v-164.7L1887.7,1343z M2218,1343h-206.5l-41.4,41.2v370.7l41.4,41.2H2218l41.4-41.2v-370.7L2218,1343z
		 M2197.3,1384.2l20.7,20.6v329.4l-20.7,20.7h-165.1l-20.7-20.7v-329.4l20.7-20.6H2197.3z M2589.6,1548.9v-164.7l-41.4-41.2h-247.9
		v453.1h41.4v-411.9h185.8l20.7,20.6v123.5l-20.7,20.6h-144.5l-41.4,41.3l206.5,205.9h41.4v-41.2h-20.7l-165.1-164.7h144.5
		L2589.6,1548.9z M2630.7,1343v41.2h123.8V1343H2630.7z M2795.9,1343l-41.4,41.2v411.9h41.4v-411.9h124.1V1343H2795.9z M566.5,2278
		v82.2l-20.7,20.7H380.7l-20.7-20.7v-329.4l20.7-20.6h165.1l20.7,20.6v82.3h41.3v-102.9l-41.3-41.2H360l-41.3,41.2v370.7l41.3,41.2
		h206.5l41.3-41.2V2278L566.5,2278L566.5,2278z M938.2,2174.9v-164.7l-41.3-41.2H649v453.1h41.3v-411.9h185.8l20.7,20.6v123.5
		l-20.7,20.6H731.7l-41.3,41.3l206.5,205.9h41.3v-41.2h-20.7l-165.1-164.7h144.5L938.2,2174.9z M1020.6,2010.2h247.8V1969H979.3
		v453.1h289.2v-41.2h-247.8V2010.2L1020.6,2010.2z M1268.4,2174.9H1062l-41.4,41.3h247.8V2174.9z M1598.7,2092.4L1474.7,1969h-41.4
		l-123.8,123.4v165l41.4,41h206.5v123.7h41.4v-123.7l-41.4-41h-206.5v-144.3l103.1-102.9l103.4,102.9v144.3h41.4L1598.7,2092.4
		L1598.7,2092.4z M1309.5,2422.1h41.4v-123.7h-41.4V2422.1z M1639.8,1969v41.2h123.8V1969H1639.8z M1805,1969l-41.4,41.2v411.9h41.4
		v-411.9h124V1969H1805z M2218,1969h-206.5l-41.4,41.2v370.7l41.4,41.2H2218l41.4-41.2v-370.7L2218,1969z M2197.3,2010.2l20.7,20.6
		v329.4l-20.7,20.7h-165.1l-20.7-20.7v-329.4l20.7-20.6H2197.3z M2589.6,2174.9v-164.7l-41.4-41.2h-247.9v453.1h41.4v-411.9h185.8
		l20.7,20.6v123.5l-20.7,20.6h-144.5l-41.4,41.3l206.5,205.9h41.4v-41.2h-20.7l-165.1-164.7h144.5L2589.6,2174.9z M2692.7,2174.9
		l-20.7-20.6v-123.5l20.7-20.6h165.1l20.7,20.6v61.6h41.4v-82.2l-41.4-41.2h-206.5l-41.4,41.2v164.7l41.4,41.3h185.8l20.7,20.6
		v123.4l-20.7,20.7h-165.1l-20.7-20.7v-61.8h-41.4v82.5l41.4,41.2h206.5l41.4-41.2v-164.7l-41.4-41.3H2692.7z"/>
	
		<linearGradient id="_8_1_" gradientUnits="userSpaceOnUse" x1="2633.2822" y1="-10735.7012" x2="2633.2822" y2="-9656.6006" gradientTransform="matrix(1 0 0 -1 -1004 -8322.5996)">
		<stop  offset="0" style="stop-color:#6C63FF"/>
		<stop  offset="1" style="stop-color:#F7301B"/>
	</linearGradient>
	<path id="_8" class="st3" d="M721,1538.9l-20.7-20.6v-123.5l20.7-20.6h165.1l20.7,20.6v61.6h41.3v-82.2l-41.3-41.2H700.3
		l-41.3,41.2v164.7l41.3,41.3h185.8l20.7,20.6v123.4l-20.7,20.7H721l-20.7-20.7v-61.8H659v82.5l41.3,41.2h206.5l41.3-41.2v-164.7
		l-41.3-41.3H721L721,1538.9z M1237.1,1333v391.2l-20.7,20.7h-165.2l-20.7-20.7V1333h-41.4v411.9l41.4,41.2h206.5l41.4-41.2V1333
		H1237.1z M1567.4,1333h-247.8v205.9h41.4v-164.7h185.8l20.7,20.6v123.5l-20.7,20.6h-185.8l-41.4,41.3v205.9h41.4v-205.9h206.5
		l41.4-41.3v-164.7L1567.4,1333z M1897.7,1333h-247.9v205.9h41.4v-164.7H1877l20.7,20.6v123.5l-20.7,20.6h-185.8l-41.4,41.3v205.9
		h41.4v-205.9h206.5l41.3-41.3v-164.7L1897.7,1333z M2228,1333h-206.5l-41.4,41.2v370.7l41.4,41.2H2228l41.4-41.2v-370.7L2228,1333z
		 M2207.3,1374.2l20.7,20.6v329.4l-20.7,20.7h-165.1l-20.7-20.7v-329.4l20.7-20.6H2207.3z M2599.6,1538.9v-164.7l-41.4-41.2h-247.9
		v453.1h41.4v-411.9h185.8l20.7,20.6v123.5l-20.7,20.6h-144.5l-41.4,41.3l206.5,205.9h41.4v-41.2h-20.7l-165.1-164.7h144.5
		L2599.6,1538.9z M2640.7,1333v41.2h123.8V1333H2640.7z M2805.9,1333l-41.4,41.2v411.9h41.4v-411.9h124.1V1333H2805.9z M576.5,2268
		v82.2l-20.7,20.7H390.7l-20.7-20.7v-329.4l20.7-20.6h165.1l20.7,20.6v82.3h41.3v-102.9l-41.3-41.2H370l-41.3,41.2v370.7l41.3,41.2
		h206.5l41.3-41.2V2268L576.5,2268L576.5,2268z M948.2,2164.9v-164.7l-41.3-41.2H659v453.1h41.3v-411.9h185.8l20.7,20.6v123.5
		l-20.7,20.6H741.7l-41.3,41.3l206.5,205.9h41.3v-41.2h-20.7l-165.1-164.7h144.5L948.2,2164.9z M1030.6,2000.2h247.8V1959H989.3
		v453.1h289.2v-41.2h-247.8V2000.2L1030.6,2000.2z M1278.4,2164.9H1072l-41.4,41.3h247.8V2164.9z M1608.7,2082.4L1484.7,1959h-41.4
		l-123.8,123.4v165l41.4,41h206.5v123.7h41.4v-123.7l-41.4-41h-206.5v-144.3l103.1-102.9l103.4,102.9v144.3h41.4L1608.7,2082.4
		L1608.7,2082.4z M1319.5,2412.1h41.4v-123.7h-41.4V2412.1z M1649.8,1959v41.2h123.8V1959H1649.8z M1815,1959l-41.4,41.2v411.9h41.4
		v-411.9h124V1959H1815z M2228,1959h-206.5l-41.4,41.2v370.7l41.4,41.2H2228l41.4-41.2v-370.7L2228,1959z M2207.3,2000.2l20.7,20.6
		v329.4l-20.7,20.7h-165.1l-20.7-20.7v-329.4l20.7-20.6H2207.3z M2599.6,2164.9v-164.7l-41.4-41.2h-247.9v453.1h41.4v-411.9h185.8
		l20.7,20.6v123.5l-20.7,20.6h-144.5l-41.4,41.3l206.5,205.9h41.4v-41.2h-20.7l-165.1-164.7h144.5L2599.6,2164.9z M2702.7,2164.9
		l-20.7-20.6v-123.5l20.7-20.6h165.1l20.7,20.6v61.6h41.4v-82.2l-41.4-41.2h-206.5l-41.4,41.2v164.7l41.4,41.3h185.8l20.7,20.6
		v123.4l-20.7,20.7h-165.1l-20.7-20.7v-61.8h-41.4v82.5l41.4,41.2h206.5l41.4-41.2v-164.7l-41.4-41.3H2702.7z"/>
	
		<linearGradient id="_7_1_" gradientUnits="userSpaceOnUse" x1="2643.2822" y1="-10725.7012" x2="2643.2822" y2="-9646.6006" gradientTransform="matrix(1 0 0 -1 -1004 -8322.5996)">
		<stop  offset="0" style="stop-color:#6C63FF"/>
		<stop  offset="1" style="stop-color:#F7301B"/>
	</linearGradient>
	<path id="_7" class="st4" d="M731,1528.9l-20.7-20.6v-123.5l20.7-20.6h165.1l20.7,20.6v61.6h41.3v-82.2l-41.3-41.2H710.3
		l-41.3,41.2v164.7l41.3,41.3h185.8l20.7,20.6v123.4l-20.7,20.7H731l-20.7-20.7v-61.8H669v82.5l41.3,41.2h206.5l41.3-41.2v-164.7
		l-41.3-41.3H731L731,1528.9z M1247.1,1323v391.2l-20.7,20.7h-165.2l-20.7-20.7V1323h-41.4v411.9l41.4,41.2h206.5l41.4-41.2V1323
		H1247.1z M1577.4,1323h-247.8v205.9h41.4v-164.7h185.8l20.7,20.6v123.5l-20.7,20.6h-185.8l-41.4,41.3v205.9h41.4v-205.9h206.5
		l41.4-41.3v-164.7L1577.4,1323z M1907.7,1323h-247.9v205.9h41.4v-164.7H1887l20.7,20.6v123.5l-20.7,20.6h-185.8l-41.4,41.3v205.9
		h41.4v-205.9h206.5l41.3-41.3v-164.7L1907.7,1323z M2238,1323h-206.5l-41.4,41.2v370.7l41.4,41.2H2238l41.4-41.2v-370.7L2238,1323z
		 M2217.3,1364.2l20.7,20.6v329.4l-20.7,20.7h-165.1l-20.7-20.7v-329.4l20.7-20.6H2217.3z M2609.6,1528.9v-164.7l-41.4-41.2h-247.9
		v453.1h41.4v-411.9h185.8l20.7,20.6v123.5l-20.7,20.6h-144.5l-41.4,41.3l206.5,205.9h41.4v-41.2h-20.7l-165.1-164.7h144.5
		L2609.6,1528.9z M2650.7,1323v41.2h123.8V1323H2650.7z M2815.9,1323l-41.4,41.2v411.9h41.4v-411.9h124.1V1323H2815.9z M586.5,2258
		v82.2l-20.7,20.7H400.7l-20.7-20.7v-329.4l20.7-20.6h165.1l20.7,20.6v82.3h41.3v-102.9l-41.3-41.2H380l-41.3,41.2v370.7l41.3,41.2
		h206.5l41.3-41.2V2258L586.5,2258L586.5,2258z M958.2,2154.9v-164.7l-41.3-41.2H669v453.1h41.3v-411.9h185.8l20.7,20.6v123.5
		l-20.7,20.6H751.7l-41.3,41.3l206.5,205.9h41.3v-41.2h-20.7l-165.1-164.7h144.5L958.2,2154.9z M1040.6,1990.2h247.8V1949H999.3
		v453.1h289.2v-41.2h-247.8V1990.2L1040.6,1990.2z M1288.4,2154.9H1082l-41.4,41.3h247.8V2154.9z M1618.7,2072.4L1494.7,1949h-41.4
		l-123.8,123.4v165l41.4,41h206.5v123.7h41.4v-123.7l-41.4-41h-206.5v-144.3l103.1-102.9l103.4,102.9v144.3h41.4L1618.7,2072.4
		L1618.7,2072.4z M1329.5,2402.1h41.4v-123.7h-41.4V2402.1z M1659.8,1949v41.2h123.8V1949H1659.8z M1825,1949l-41.4,41.2v411.9h41.4
		v-411.9h124V1949H1825z M2238,1949h-206.5l-41.4,41.2v370.7l41.4,41.2H2238l41.4-41.2v-370.7L2238,1949z M2217.3,1990.2l20.7,20.6
		v329.4l-20.7,20.7h-165.1l-20.7-20.7v-329.4l20.7-20.6H2217.3z M2609.6,2154.9v-164.7l-41.4-41.2h-247.9v453.1h41.4v-411.9h185.8
		l20.7,20.6v123.5l-20.7,20.6h-144.5l-41.4,41.3l206.5,205.9h41.4v-41.2h-20.7l-165.1-164.7h144.5L2609.6,2154.9z M2712.7,2154.9
		l-20.7-20.6v-123.5l20.7-20.6h165.1l20.7,20.6v61.6h41.4v-82.2l-41.4-41.2h-206.5l-41.4,41.2v164.7l41.4,41.3h185.8l20.7,20.6
		v123.4l-20.7,20.7h-165.1l-20.7-20.7v-61.8h-41.4v82.5l41.4,41.2h206.5l41.4-41.2v-164.7l-41.4-41.3H2712.7z"/>
	
		<linearGradient id="_6_1_" gradientUnits="userSpaceOnUse" x1="2653.2822" y1="-10715.7012" x2="2653.2822" y2="-9636.6006" gradientTransform="matrix(1 0 0 -1 -1004 -8322.5996)">
		<stop  offset="0" style="stop-color:#6C63FF"/>
		<stop  offset="1" style="stop-color:#F7301B"/>
	</linearGradient>
	<path id="_6" class="st5" d="M741,1518.9l-20.7-20.6v-123.5l20.7-20.6h165.1l20.7,20.6v61.6h41.3v-82.2l-41.3-41.2H720.3
		l-41.3,41.2v164.7l41.3,41.3h185.8l20.7,20.6v123.4l-20.7,20.7H741l-20.7-20.7v-61.8H679v82.5l41.3,41.2h206.5l41.3-41.2v-164.7
		l-41.3-41.3H741L741,1518.9z M1257.1,1313v391.2l-20.7,20.7h-165.2l-20.7-20.7V1313h-41.4v411.9l41.4,41.2h206.5l41.4-41.2V1313
		H1257.1z M1587.4,1313h-247.8v205.9h41.4v-164.7h185.8l20.7,20.6v123.5l-20.7,20.6h-185.8l-41.4,41.3v205.9h41.4v-205.9h206.5
		l41.4-41.3v-164.7L1587.4,1313z M1917.7,1313h-247.9v205.9h41.4v-164.7H1897l20.7,20.6v123.5l-20.7,20.6h-185.8l-41.4,41.3v205.9
		h41.4v-205.9h206.5l41.3-41.3v-164.7L1917.7,1313z M2248,1313h-206.5l-41.4,41.2v370.7l41.4,41.2H2248l41.4-41.2v-370.7L2248,1313z
		 M2227.3,1354.2l20.7,20.6v329.4l-20.7,20.7h-165.1l-20.7-20.7v-329.4l20.7-20.6H2227.3z M2619.6,1518.9v-164.7l-41.4-41.2h-247.9
		v453.1h41.4v-411.9h185.8l20.7,20.6v123.5l-20.7,20.6h-144.5l-41.4,41.3l206.5,205.9h41.4v-41.2h-20.7l-165.1-164.7h144.5
		L2619.6,1518.9z M2660.7,1313v41.2h123.8V1313H2660.7z M2825.9,1313l-41.4,41.2v411.9h41.4v-411.9h124.1V1313H2825.9z M596.5,2248
		v82.2l-20.7,20.7H410.7l-20.7-20.7v-329.4l20.7-20.6h165.1l20.7,20.6v82.3h41.3v-102.9l-41.3-41.2H390l-41.3,41.2v370.7l41.3,41.2
		h206.5l41.3-41.2V2248L596.5,2248L596.5,2248z M968.2,2144.9v-164.7l-41.3-41.2H679v453.1h41.3v-411.9h185.8l20.7,20.6v123.5
		l-20.7,20.6H761.7l-41.3,41.3l206.5,205.9h41.3v-41.2h-20.7l-165.1-164.7h144.5L968.2,2144.9z M1050.6,1980.2h247.8V1939h-289.2
		v453.1h289.2v-41.2h-247.8V1980.2L1050.6,1980.2z M1298.4,2144.9H1092l-41.4,41.3h247.8V2144.9z M1628.7,2062.4L1504.7,1939h-41.4
		l-123.8,123.4v165l41.4,41h206.5v123.7h41.4v-123.7l-41.4-41h-206.5v-144.3l103.1-102.9l103.4,102.9v144.3h41.4L1628.7,2062.4
		L1628.7,2062.4z M1339.5,2392.1h41.4v-123.7h-41.4V2392.1z M1669.8,1939v41.2h123.8V1939H1669.8z M1835,1939l-41.4,41.2v411.9h41.4
		v-411.9h124V1939H1835z M2248,1939h-206.5l-41.4,41.2v370.7l41.4,41.2H2248l41.4-41.2v-370.7L2248,1939z M2227.3,1980.2l20.7,20.6
		v329.4l-20.7,20.7h-165.1l-20.7-20.7v-329.4l20.7-20.6H2227.3z M2619.6,2144.9v-164.7l-41.4-41.2h-247.9v453.1h41.4v-411.9h185.8
		l20.7,20.6v123.5l-20.7,20.6h-144.5l-41.4,41.3l206.5,205.9h41.4v-41.2h-20.7l-165.1-164.7h144.5L2619.6,2144.9z M2722.7,2144.9
		l-20.7-20.6v-123.5l20.7-20.6h165.1l20.7,20.6v61.6h41.4v-82.2l-41.4-41.2h-206.5l-41.4,41.2v164.7l41.4,41.3h185.8l20.7,20.6
		v123.4l-20.7,20.7h-165.1l-20.7-20.7v-61.8h-41.4v82.5l41.4,41.2h206.5l41.4-41.2v-164.7l-41.4-41.3H2722.7z"/>
	
		<linearGradient id="_5_1_" gradientUnits="userSpaceOnUse" x1="2663.2822" y1="-10705.7012" x2="2663.2822" y2="-9626.6006" gradientTransform="matrix(1 0 0 -1 -1004 -8322.5996)">
		<stop  offset="0" style="stop-color:#6C63FF"/>
		<stop  offset="1" style="stop-color:#F7301B"/>
	</linearGradient>
	<path id="_5" class="st6" d="M751,1508.9l-20.7-20.6v-123.5l20.7-20.6h165.1l20.7,20.6v61.6h41.3v-82.2l-41.3-41.2H730.3
		l-41.3,41.2v164.7l41.3,41.3h185.8l20.7,20.6v123.4l-20.7,20.7H751l-20.7-20.7v-61.8H689v82.5l41.3,41.2h206.5l41.3-41.2v-164.7
		l-41.3-41.3H751L751,1508.9z M1267.1,1303v391.2l-20.7,20.7h-165.2l-20.7-20.7V1303h-41.4v411.9l41.4,41.2h206.5l41.4-41.2V1303
		H1267.1z M1597.4,1303h-247.8v205.9h41.4v-164.7h185.8l20.7,20.6v123.5l-20.7,20.6h-185.8l-41.4,41.3v205.9h41.4v-205.9h206.5
		l41.4-41.3v-164.7L1597.4,1303z M1927.7,1303h-247.9v205.9h41.4v-164.7H1907l20.7,20.6v123.5l-20.7,20.6h-185.8l-41.4,41.3v205.9
		h41.4v-205.9h206.5l41.3-41.3v-164.7L1927.7,1303z M2258,1303h-206.5l-41.4,41.2v370.7l41.4,41.2H2258l41.4-41.2v-370.7L2258,1303z
		 M2237.3,1344.2l20.7,20.6v329.4l-20.7,20.7h-165.1l-20.7-20.7v-329.4l20.7-20.6H2237.3z M2629.6,1508.9v-164.7l-41.4-41.2h-247.9
		v453.1h41.4v-411.9h185.8l20.7,20.6v123.5l-20.7,20.6h-144.5l-41.4,41.3l206.5,205.9h41.4v-41.2h-20.7l-165.1-164.7h144.5
		L2629.6,1508.9z M2670.7,1303v41.2h123.8V1303H2670.7z M2835.9,1303l-41.4,41.2v411.9h41.4v-411.9h124.1V1303H2835.9z M606.5,2238
		v82.2l-20.7,20.7H420.7l-20.7-20.7v-329.4l20.7-20.6h165.1l20.7,20.6v82.3h41.3v-102.9l-41.3-41.2H400l-41.3,41.2v370.7l41.3,41.2
		h206.5l41.3-41.2V2238L606.5,2238L606.5,2238z M978.2,2134.9v-164.7l-41.3-41.2H689v453.1h41.3v-411.9h185.8l20.7,20.6v123.5
		l-20.7,20.6H771.7l-41.3,41.3l206.5,205.9h41.3v-41.2h-20.7l-165.1-164.7h144.5L978.2,2134.9z M1060.6,1970.2h247.8V1929h-289.2
		v453.1h289.2v-41.2h-247.8V1970.2L1060.6,1970.2z M1308.4,2134.9H1102l-41.4,41.3h247.8V2134.9z M1638.7,2052.4L1514.7,1929h-41.4
		l-123.8,123.4v165l41.4,41h206.5v123.7h41.4v-123.7l-41.4-41h-206.5v-144.3l103.1-102.9l103.4,102.9v144.3h41.4L1638.7,2052.4
		L1638.7,2052.4z M1349.5,2382.1h41.4v-123.7h-41.4V2382.1z M1679.8,1929v41.2h123.8V1929H1679.8z M1845,1929l-41.4,41.2v411.9h41.4
		v-411.9h124V1929H1845z M2258,1929h-206.5l-41.4,41.2v370.7l41.4,41.2H2258l41.4-41.2v-370.7L2258,1929z M2237.3,1970.2l20.7,20.6
		v329.4l-20.7,20.7h-165.1l-20.7-20.7v-329.4l20.7-20.6H2237.3z M2629.6,2134.9v-164.7l-41.4-41.2h-247.9v453.1h41.4v-411.9h185.8
		l20.7,20.6v123.5l-20.7,20.6h-144.5l-41.4,41.3l206.5,205.9h41.4v-41.2h-20.7l-165.1-164.7h144.5L2629.6,2134.9z M2732.7,2134.9
		l-20.7-20.6v-123.5l20.7-20.6h165.1l20.7,20.6v61.6h41.4v-82.2l-41.4-41.2h-206.5l-41.4,41.2v164.7l41.4,41.3h185.8l20.7,20.6
		v123.4l-20.7,20.7h-165.1l-20.7-20.7v-61.8h-41.4v82.5l41.4,41.2h206.5l41.4-41.2v-164.7l-41.4-41.3H2732.7z"/>
	
		<linearGradient id="_4_1_" gradientUnits="userSpaceOnUse" x1="2673.2822" y1="-10695.7012" x2="2673.2822" y2="-9616.6006" gradientTransform="matrix(1 0 0 -1 -1004 -8322.5996)">
		<stop  offset="0" style="stop-color:#6C63FF"/>
		<stop  offset="1" style="stop-color:#F7301B"/>
	</linearGradient>
	<path id="_4" class="st7" d="M761,1498.9l-20.7-20.6v-123.5l20.7-20.6h165.1l20.7,20.6v61.6h41.3v-82.2l-41.3-41.2H740.3
		l-41.3,41.2v164.7l41.3,41.3h185.8l20.7,20.6v123.4l-20.7,20.7H761l-20.7-20.7v-61.8H699v82.5l41.3,41.2h206.5l41.3-41.2v-164.7
		l-41.3-41.3H761L761,1498.9z M1277.1,1293v391.2l-20.7,20.7h-165.2l-20.7-20.7V1293h-41.4v411.9l41.4,41.2h206.5l41.4-41.2V1293
		H1277.1z M1607.4,1293h-247.8v205.9h41.4v-164.7h185.8l20.7,20.6v123.5l-20.7,20.6h-185.8l-41.4,41.3v205.9h41.4v-205.9h206.5
		l41.4-41.3v-164.7L1607.4,1293z M1937.7,1293h-247.9v205.9h41.4v-164.7H1917l20.7,20.6v123.5l-20.7,20.6h-185.8l-41.4,41.3v205.9
		h41.4v-205.9h206.5l41.3-41.3v-164.7L1937.7,1293z M2268,1293h-206.5l-41.4,41.2v370.7l41.4,41.2H2268l41.4-41.2v-370.7L2268,1293z
		 M2247.3,1334.2l20.7,20.6v329.4l-20.7,20.7h-165.1l-20.7-20.7v-329.4l20.7-20.6H2247.3z M2639.6,1498.9v-164.7l-41.4-41.2h-247.9
		v453.1h41.4v-411.9h185.8l20.7,20.6v123.5l-20.7,20.6h-144.5l-41.4,41.3l206.5,205.9h41.4v-41.2h-20.7l-165.1-164.7h144.5
		L2639.6,1498.9z M2680.7,1293v41.2h123.8V1293H2680.7z M2845.9,1293l-41.4,41.2v411.9h41.4v-411.9h124.1V1293H2845.9z M616.5,2228
		v82.2l-20.7,20.7H430.7l-20.7-20.7v-329.4l20.7-20.6h165.1l20.7,20.6v82.3h41.3v-102.9l-41.3-41.2H410l-41.3,41.2v370.7l41.3,41.2
		h206.5l41.3-41.2V2228L616.5,2228L616.5,2228z M988.2,2124.9v-164.7l-41.3-41.2H699v453.1h41.3v-411.9h185.8l20.7,20.6v123.5
		l-20.7,20.6H781.7l-41.3,41.3l206.5,205.9h41.3v-41.2h-20.7l-165.1-164.7h144.5L988.2,2124.9z M1070.6,1960.2h247.8V1919h-289.2
		v453.1h289.2v-41.2h-247.8V1960.2L1070.6,1960.2z M1318.4,2124.9H1112l-41.4,41.3h247.8V2124.9z M1648.7,2042.4L1524.7,1919h-41.4
		l-123.8,123.4v165l41.4,41h206.5v123.7h41.4v-123.7l-41.4-41h-206.5v-144.3l103.1-102.9l103.4,102.9v144.3h41.4L1648.7,2042.4
		L1648.7,2042.4z M1359.5,2372.1h41.4v-123.7h-41.4V2372.1z M1689.8,1919v41.2h123.8V1919H1689.8z M1855,1919l-41.4,41.2v411.9h41.4
		v-411.9h124V1919H1855z M2268,1919h-206.5l-41.4,41.2v370.7l41.4,41.2H2268l41.4-41.2v-370.7L2268,1919z M2247.3,1960.2l20.7,20.6
		v329.4l-20.7,20.7h-165.1l-20.7-20.7v-329.4l20.7-20.6H2247.3z M2639.6,2124.9v-164.7l-41.4-41.2h-247.9v453.1h41.4v-411.9h185.8
		l20.7,20.6v123.5l-20.7,20.6h-144.5l-41.4,41.3l206.5,205.9h41.4v-41.2h-20.7l-165.1-164.7h144.5L2639.6,2124.9z M2742.7,2124.9
		l-20.7-20.6v-123.5l20.7-20.6h165.1l20.7,20.6v61.6h41.4v-82.2l-41.4-41.2h-206.5l-41.4,41.2v164.7l41.4,41.3h185.8l20.7,20.6
		v123.4l-20.7,20.7h-165.1l-20.7-20.7v-61.8h-41.4v82.5l41.4,41.2h206.5l41.4-41.2v-164.7l-41.4-41.3H2742.7z"/>
	
		<linearGradient id="_3_1_" gradientUnits="userSpaceOnUse" x1="2683.2822" y1="-10685.7012" x2="2683.2822" y2="-9606.6006" gradientTransform="matrix(1 0 0 -1 -1004 -8322.5996)">
		<stop  offset="0" style="stop-color:#6C63FF"/>
		<stop  offset="1" style="stop-color:#F7301B"/>
	</linearGradient>
	<path id="_3" class="st8" d="M771,1488.9l-20.7-20.6v-123.5l20.7-20.6h165.1l20.7,20.6v61.6h41.3v-82.2l-41.3-41.2H750.3
		l-41.3,41.2v164.7l41.3,41.3h185.8l20.7,20.6v123.4l-20.7,20.7H771l-20.7-20.7v-61.8H709v82.5l41.3,41.2h206.5l41.3-41.2v-164.7
		l-41.3-41.3H771L771,1488.9z M1287.1,1283v391.2l-20.7,20.7h-165.2l-20.7-20.7V1283h-41.4v411.9l41.4,41.2h206.5l41.4-41.2V1283
		H1287.1z M1617.4,1283h-247.8v205.9h41.4v-164.7h185.8l20.7,20.6v123.5l-20.7,20.6h-185.8l-41.4,41.3v205.9h41.4v-205.9h206.5
		l41.4-41.3v-164.7L1617.4,1283z M1947.7,1283h-247.9v205.9h41.4v-164.7H1927l20.7,20.6v123.5l-20.7,20.6h-185.8l-41.4,41.3v205.9
		h41.4v-205.9h206.5l41.3-41.3v-164.7L1947.7,1283z M2278,1283h-206.5l-41.4,41.2v370.7l41.4,41.2H2278l41.4-41.2v-370.7L2278,1283z
		 M2257.3,1324.2l20.7,20.6v329.4l-20.7,20.7h-165.1l-20.7-20.7v-329.4l20.7-20.6H2257.3z M2649.6,1488.9v-164.7l-41.4-41.2h-247.9
		v453.1h41.4v-411.9h185.8l20.7,20.6v123.5l-20.7,20.6h-144.5l-41.4,41.3l206.5,205.9h41.4v-41.2h-20.7l-165.1-164.7h144.5
		L2649.6,1488.9z M2690.7,1283v41.2h123.8V1283H2690.7z M2855.9,1283l-41.4,41.2v411.9h41.4v-411.9h124.1V1283H2855.9z M626.5,2218
		v82.2l-20.7,20.7H440.7l-20.7-20.7v-329.4l20.7-20.6h165.1l20.7,20.6v82.3h41.3v-102.9l-41.3-41.2H420l-41.3,41.2v370.7l41.3,41.2
		h206.5l41.3-41.2V2218L626.5,2218L626.5,2218z M998.2,2114.9v-164.7l-41.3-41.2H709v453.1h41.3v-411.9h185.8l20.7,20.6v123.5
		l-20.7,20.6H791.7l-41.3,41.3l206.5,205.9h41.3v-41.2h-20.7l-165.1-164.7h144.5L998.2,2114.9z M1080.6,1950.2h247.8V1909h-289.2
		v453.1h289.2v-41.2h-247.8V1950.2L1080.6,1950.2z M1328.4,2114.9H1122l-41.4,41.3h247.8V2114.9z M1658.7,2032.4L1534.7,1909h-41.4
		l-123.8,123.4v165l41.4,41h206.5v123.7h41.4v-123.7l-41.4-41h-206.5v-144.3l103.1-102.9l103.4,102.9v144.3h41.4L1658.7,2032.4
		L1658.7,2032.4z M1369.5,2362.1h41.4v-123.7h-41.4V2362.1z M1699.8,1909v41.2h123.8V1909H1699.8z M1865,1909l-41.4,41.2v411.9h41.4
		v-411.9h124V1909H1865z M2278,1909h-206.5l-41.4,41.2v370.7l41.4,41.2H2278l41.4-41.2v-370.7L2278,1909z M2257.3,1950.2l20.7,20.6
		v329.4l-20.7,20.7h-165.1l-20.7-20.7v-329.4l20.7-20.6H2257.3z M2649.6,2114.9v-164.7l-41.4-41.2h-247.9v453.1h41.4v-411.9h185.8
		l20.7,20.6v123.5l-20.7,20.6h-144.5l-41.4,41.3l206.5,205.9h41.4v-41.2h-20.7l-165.1-164.7h144.5L2649.6,2114.9z M2752.7,2114.9
		l-20.7-20.6v-123.5l20.7-20.6h165.1l20.7,20.6v61.6h41.4v-82.2l-41.4-41.2h-206.5l-41.4,41.2v164.7l41.4,41.3h185.8l20.7,20.6
		v123.4l-20.7,20.7h-165.1l-20.7-20.7v-61.8h-41.4v82.5l41.4,41.2h206.5l41.4-41.2v-164.7l-41.4-41.3H2752.7z"/>
	
		<linearGradient id="_2_1_" gradientUnits="userSpaceOnUse" x1="2693.2822" y1="-10675.7012" x2="2693.2822" y2="-9596.6006" gradientTransform="matrix(1 0 0 -1 -1004 -8322.5996)">
		<stop  offset="0" style="stop-color:#6C63FF"/>
		<stop  offset="1" style="stop-color:#F7301B"/>
	</linearGradient>
	<path id="_2" class="st9" d="M781,1478.9l-20.7-20.6v-123.5l20.7-20.6h165.1l20.7,20.6v61.6h41.3v-82.2l-41.3-41.2H760.3
		l-41.3,41.2v164.7l41.3,41.3h185.8l20.7,20.6v123.4l-20.7,20.7H781l-20.7-20.7v-61.8H719v82.5l41.3,41.2h206.5l41.3-41.2v-164.7
		l-41.3-41.3H781L781,1478.9z M1297.1,1273v391.2l-20.7,20.7h-165.2l-20.7-20.7V1273h-41.4v411.9l41.4,41.2h206.5l41.4-41.2V1273
		H1297.1z M1627.4,1273h-247.8v205.9h41.4v-164.7h185.8l20.7,20.6v123.5l-20.7,20.6h-185.8l-41.4,41.3v205.9h41.4v-205.9h206.5
		l41.4-41.3v-164.7L1627.4,1273z M1957.7,1273h-247.9v205.9h41.4v-164.7H1937l20.7,20.6v123.5l-20.7,20.6h-185.8l-41.4,41.3v205.9
		h41.4v-205.9h206.5l41.3-41.3v-164.7L1957.7,1273z M2288,1273h-206.5l-41.4,41.2v370.7l41.4,41.2H2288l41.4-41.2v-370.7L2288,1273z
		 M2267.3,1314.2l20.7,20.6v329.4l-20.7,20.7h-165.1l-20.7-20.7v-329.4l20.7-20.6H2267.3z M2659.6,1478.9v-164.7l-41.4-41.2h-247.9
		v453.1h41.4v-411.9h185.8l20.7,20.6v123.5l-20.7,20.6h-144.5l-41.4,41.3l206.5,205.9h41.4v-41.2h-20.7l-165.1-164.7h144.5
		L2659.6,1478.9z M2700.7,1273v41.2h123.8V1273H2700.7z M2865.9,1273l-41.4,41.2v411.9h41.4v-411.9h124.1V1273H2865.9z M636.5,2208
		v82.2l-20.7,20.7H450.7l-20.7-20.7v-329.4l20.7-20.6h165.1l20.7,20.6v82.3h41.3v-102.9l-41.3-41.2H430l-41.3,41.2v370.7l41.3,41.2
		h206.5l41.3-41.2V2208L636.5,2208L636.5,2208z M1008.2,2104.9v-164.7l-41.3-41.2H719v453.1h41.3v-411.9h185.8l20.7,20.6v123.5
		l-20.7,20.6H801.7l-41.3,41.3l206.5,205.9h41.3v-41.2h-20.7l-165.1-164.7h144.5L1008.2,2104.9z M1090.6,1940.2h247.8V1899h-289.2
		v453.1h289.2v-41.2h-247.8V1940.2L1090.6,1940.2z M1338.4,2104.9H1132l-41.4,41.3h247.8V2104.9z M1668.7,2022.4L1544.7,1899h-41.4
		l-123.8,123.4v165l41.4,41h206.5v123.7h41.4v-123.7l-41.4-41h-206.5v-144.3l103.1-102.9l103.4,102.9v144.3h41.4L1668.7,2022.4
		L1668.7,2022.4z M1379.5,2352.1h41.4v-123.7h-41.4V2352.1z M1709.8,1899v41.2h123.8V1899H1709.8z M1875,1899l-41.4,41.2v411.9h41.4
		v-411.9h124V1899H1875z M2288,1899h-206.5l-41.4,41.2v370.7l41.4,41.2H2288l41.4-41.2v-370.7L2288,1899z M2267.3,1940.2l20.7,20.6
		v329.4l-20.7,20.7h-165.1l-20.7-20.7v-329.4l20.7-20.6H2267.3z M2659.6,2104.9v-164.7l-41.4-41.2h-247.9v453.1h41.4v-411.9h185.8
		l20.7,20.6v123.5l-20.7,20.6h-144.5l-41.4,41.3l206.5,205.9h41.4v-41.2h-20.7l-165.1-164.7h144.5L2659.6,2104.9z M2762.7,2104.9
		l-20.7-20.6v-123.5l20.7-20.6h165.1l20.7,20.6v61.6h41.4v-82.2l-41.4-41.2h-206.5l-41.4,41.2v164.7l41.4,41.3h185.8l20.7,20.6
		v123.4l-20.7,20.7h-165.1l-20.7-20.7v-61.8h-41.4v82.5l41.4,41.2h206.5l41.4-41.2v-164.7l-41.4-41.3H2762.7z"/>
	
		<linearGradient id="_1_1_" gradientUnits="userSpaceOnUse" x1="2703.2822" y1="-10665.7012" x2="2703.2822" y2="-9586.6006" gradientTransform="matrix(1 0 0 -1 -1004 -8322.5996)">
		<stop  offset="0" style="stop-color:#6C63FF"/>
		<stop  offset="1" style="stop-color:#F7301B"/>
	</linearGradient>
	<path id="_1" class="st10" d="M791,1468.9l-20.7-20.6v-123.5l20.7-20.6h165.1l20.7,20.6v61.6h41.3v-82.2l-41.3-41.2H770.3
		l-41.3,41.2v164.7l41.3,41.3h185.8l20.7,20.6v123.4l-20.7,20.7H791l-20.7-20.7v-61.8H729v82.5l41.3,41.2h206.5l41.3-41.2v-164.7
		l-41.3-41.3H791L791,1468.9z M1307.1,1263v391.2l-20.7,20.7h-165.2l-20.7-20.7V1263h-41.4v411.9l41.4,41.2h206.5l41.4-41.2V1263
		H1307.1z M1637.4,1263h-247.8v205.9h41.4v-164.7h185.8l20.7,20.6v123.5l-20.7,20.6h-185.8l-41.4,41.3v205.9h41.4v-205.9h206.5
		l41.4-41.3v-164.7L1637.4,1263z M1967.7,1263h-247.9v205.9h41.4v-164.7H1947l20.7,20.6v123.5l-20.7,20.6h-185.8l-41.4,41.3v205.9
		h41.4v-205.9h206.5l41.3-41.3v-164.7L1967.7,1263z M2298,1263h-206.5l-41.4,41.2v370.7l41.4,41.2H2298l41.4-41.2v-370.7L2298,1263z
		 M2277.3,1304.2l20.7,20.6v329.4l-20.7,20.7h-165.1l-20.7-20.7v-329.4l20.7-20.6H2277.3z M2669.6,1468.9v-164.7l-41.4-41.2h-247.9
		v453.1h41.4v-411.9h185.8l20.7,20.6v123.5l-20.7,20.6h-144.5l-41.4,41.3l206.5,205.9h41.4v-41.2h-20.7l-165.1-164.7h144.5
		L2669.6,1468.9z M2710.7,1263v41.2h123.8V1263H2710.7z M2875.9,1263l-41.4,41.2v411.9h41.4v-411.9h124.1V1263H2875.9z M646.5,2198
		v82.2l-20.7,20.7H460.7l-20.7-20.7v-329.4l20.7-20.6h165.1l20.7,20.6v82.3h41.3v-102.9l-41.3-41.2H440l-41.3,41.2v370.7l41.3,41.2
		h206.5l41.3-41.2V2198L646.5,2198L646.5,2198z M1018.2,2094.9v-164.7l-41.3-41.2H729v453.1h41.3v-411.9h185.8l20.7,20.6v123.5
		l-20.7,20.6H811.7l-41.3,41.3l206.5,205.9h41.3v-41.2h-20.7l-165.1-164.7h144.5L1018.2,2094.9z M1100.6,1930.2h247.8V1889h-289.2
		v453.1h289.2v-41.2h-247.8V1930.2L1100.6,1930.2z M1348.4,2094.9H1142l-41.4,41.3h247.8V2094.9z M1678.7,2012.4L1554.7,1889h-41.4
		l-123.8,123.4v165l41.4,41h206.5v123.7h41.4v-123.7l-41.4-41h-206.5v-144.3l103.1-102.9l103.4,102.9v144.3h41.4L1678.7,2012.4
		L1678.7,2012.4z M1389.5,2342.1h41.4v-123.7h-41.4V2342.1z M1719.8,1889v41.2h123.8V1889H1719.8z M1885,1889l-41.4,41.2v411.9h41.4
		v-411.9h124V1889H1885z M2298,1889h-206.5l-41.4,41.2v370.7l41.4,41.2H2298l41.4-41.2v-370.7L2298,1889z M2277.3,1930.2l20.7,20.6
		v329.4l-20.7,20.7h-165.1l-20.7-20.7v-329.4l20.7-20.6H2277.3z M2669.6,2094.9v-164.7l-41.4-41.2h-247.9v453.1h41.4v-411.9h185.8
		l20.7,20.6v123.5l-20.7,20.6h-144.5l-41.4,41.3l206.5,205.9h41.4v-41.2h-20.7l-165.1-164.7h144.5L2669.6,2094.9z M2772.7,2094.9
		l-20.7-20.6v-123.5l20.7-20.6h165.1l20.7,20.6v61.6h41.4v-82.2l-41.4-41.2h-206.5l-41.4,41.2v164.7l41.4,41.3h185.8l20.7,20.6
		v123.4l-20.7,20.7h-165.1l-20.7-20.7v-61.8h-41.4v82.5l41.4,41.2h206.5l41.4-41.2v-164.7l-41.4-41.3H2772.7z"/>
	<g>
		
			<linearGradient id="support_creators_2_" gradientUnits="userSpaceOnUse" x1="1709.2823" y1="2332.1016" x2="1709.2823" y2="1253">
			<stop  offset="0" style="stop-color:#2E50F7"/>
			<stop  offset="1" style="stop-color:#FC2A00"/>
		</linearGradient>
		<path id="support_creators" class="st11" d="M801,1458.9l-20.7-20.6v-123.5l20.7-20.6h165.1l20.7,20.6v61.6h41.4v-82.2l-41.4-41.2
			H780.3l-41.3,41.2v164.7l41.3,41.3h185.8l20.7,20.6v123.4l-20.7,20.7H801l-20.7-20.7v-61.8H739v82.5l41.3,41.2h206.5l41.3-41.2
			v-164.7l-41.3-41.3H801L801,1458.9z M1317.1,1253v391.2l-20.7,20.7h-165.2l-20.7-20.7V1253h-41.4v411.9l41.4,41.2h206.5l41.4-41.2
			V1253H1317.1z M1647.4,1253h-247.8v205.9h41.4v-164.7h185.8l20.7,20.6v123.5l-20.7,20.6h-185.8l-41.4,41.3v205.9h41.4v-205.9
			h206.5l41.4-41.3v-164.7L1647.4,1253z M1977.7,1253h-247.9v205.9h41.4v-164.7H1957l20.7,20.6v123.5l-20.7,20.6h-185.8l-41.4,41.3
			v205.9h41.4v-205.9h206.5l41.3-41.3v-164.7L1977.7,1253z M2308,1253h-206.5l-41.4,41.2v370.7l41.4,41.2H2308l41.4-41.2v-370.7
			L2308,1253z M2287.3,1294.2l20.7,20.6v329.4l-20.7,20.7h-165.1l-20.7-20.7v-329.4l20.7-20.6H2287.3z M2679.6,1458.9v-164.7
			l-41.4-41.2h-247.9v453.1h41.4v-411.9h185.8l20.7,20.6v123.5l-20.7,20.6h-144.5l-41.4,41.3l206.5,205.9h41.4v-41.2h-20.7
			l-165.1-164.7h144.5L2679.6,1458.9z M2720.7,1253v41.2h123.8V1253H2720.7z M2885.9,1253l-41.4,41.2v411.9h41.4v-411.9h124.1V1253
			H2885.9z M656.5,2188v82.2l-20.7,20.7H470.7l-20.7-20.7v-329.4l20.7-20.6h165.1l20.7,20.6v82.3h41.3v-102.9l-41.3-41.2H450
			l-41.3,41.2v370.7l41.3,41.2h206.5l41.3-41.2V2188L656.5,2188L656.5,2188z M1028.2,2084.9v-164.7l-41.3-41.2H739v453.1h41.3
			v-411.9h185.8l20.7,20.6v123.5l-20.7,20.6H821.7l-41.3,41.3l206.5,205.9h41.4v-41.2h-20.7l-165.1-164.7h144.5L1028.2,2084.9z
			 M1110.6,1920.2h247.8V1879h-289.2v453.1h289.2v-41.2h-247.8V1920.2L1110.6,1920.2z M1358.4,2084.9H1152l-41.4,41.3h247.8V2084.9z
			 M1688.7,2002.4L1564.7,1879h-41.4l-123.8,123.4v165l41.4,41h206.5v123.7h41.4v-123.7l-41.4-41h-206.5v-144.3l103.1-102.9
			l103.4,102.9v144.3h41.4L1688.7,2002.4L1688.7,2002.4z M1399.5,2332.1h41.4v-123.7h-41.4V2332.1z M1729.8,1879v41.2h123.8V1879
			H1729.8z M1895,1879l-41.4,41.2v411.9h41.4v-411.9h124V1879H1895z M2308,1879h-206.5l-41.4,41.2v370.7l41.4,41.2H2308l41.4-41.2
			v-370.7L2308,1879z M2287.3,1920.2l20.7,20.6v329.4l-20.7,20.7h-165.1l-20.7-20.7v-329.4l20.7-20.6H2287.3z M2679.6,2084.9v-164.7
			l-41.4-41.2h-247.9v453.1h41.4v-411.9h185.8l20.7,20.6v123.5l-20.7,20.6h-144.5l-41.4,41.3l206.5,205.9h41.4v-41.2h-20.7
			l-165.1-164.7h144.5L2679.6,2084.9z M2782.7,2084.9l-20.7-20.6v-123.5l20.7-20.6h165.1l20.7,20.6v61.6h41.4v-82.2l-41.4-41.2
			h-206.5l-41.4,41.2v164.7l41.4,41.3h185.8l20.7,20.6v123.4l-20.7,20.7h-165.1l-20.7-20.7v-61.8h-41.4v82.5l41.4,41.2h206.5
			l41.4-41.2v-164.7l-41.4-41.3H2782.7z"/>
	</g>
	<g>
		
			<linearGradient id="support_creators_3_" gradientUnits="userSpaceOnUse" x1="2713.2822" y1="-9574.5996" x2="2713.2822" y2="-10653.7002" gradientTransform="matrix(1 0 0 -1 -1004 -8322.5996)">
			<stop  offset="0" style="stop-color:#F2776A"/>
			<stop  offset="1" style="stop-color:#7692ED"/>
		</linearGradient>
		<path id="support_creators_1_" class="st12" d="M801,1458.9l-20.7-20.6v-123.5l20.7-20.6h165.1l20.7,20.6v61.6h41.4v-82.2
			l-41.4-41.2H780.3l-41.3,41.2v164.7l41.3,41.3h185.8l20.7,20.6v123.4l-20.7,20.7H801l-20.7-20.7v-61.8H739v82.5l41.3,41.2h206.5
			l41.3-41.2v-164.7l-41.3-41.3H801L801,1458.9z M1317.1,1253v391.2l-20.7,20.7h-165.2l-20.7-20.7V1253h-41.4v411.9l41.4,41.2h206.5
			l41.4-41.2V1253H1317.1z M1647.4,1253h-247.8v205.9h41.4v-164.7h185.8l20.7,20.6v123.5l-20.7,20.6h-185.8l-41.4,41.3v205.9h41.4
			v-205.9h206.5l41.4-41.3v-164.7L1647.4,1253z M1977.7,1253h-247.9v205.9h41.4v-164.7H1957l20.7,20.6v123.5l-20.7,20.6h-185.8
			l-41.4,41.3v205.9h41.4v-205.9h206.5l41.3-41.3v-164.7L1977.7,1253z M2308,1253h-206.5l-41.4,41.2v370.7l41.4,41.2H2308l41.4-41.2
			v-370.7L2308,1253z M2287.3,1294.2l20.7,20.6v329.4l-20.7,20.7h-165.1l-20.7-20.7v-329.4l20.7-20.6H2287.3z M2679.6,1458.9v-164.7
			l-41.4-41.2h-247.9v453.1h41.4v-411.9h185.8l20.7,20.6v123.5l-20.7,20.6h-144.5l-41.4,41.3l206.5,205.9h41.4v-41.2h-20.7
			l-165.1-164.7h144.5L2679.6,1458.9z M2720.7,1253v41.2h123.8V1253H2720.7z M2885.9,1253l-41.4,41.2v411.9h41.4v-411.9h124.1V1253
			H2885.9z M656.5,2188v82.2l-20.7,20.7H470.7l-20.7-20.7v-329.4l20.7-20.6h165.1l20.7,20.6v82.3h41.3v-102.9l-41.3-41.2H450
			l-41.3,41.2v370.7l41.3,41.2h206.5l41.3-41.2V2188L656.5,2188L656.5,2188z M1028.2,2084.9v-164.7l-41.3-41.2H739v453.1h41.3
			v-411.9h185.8l20.7,20.6v123.5l-20.7,20.6H821.7l-41.3,41.3l206.5,205.9h41.4v-41.2h-20.7l-165.1-164.7h144.5L1028.2,2084.9z
			 M1110.6,1920.2h247.8V1879h-289.2v453.1h289.2v-41.2h-247.8V1920.2L1110.6,1920.2z M1358.4,2084.9H1152l-41.4,41.3h247.8V2084.9z
			 M1688.7,2002.4L1564.7,1879h-41.4l-123.8,123.4v165l41.4,41h206.5v123.7h41.4v-123.7l-41.4-41h-206.5v-144.3l103.1-102.9
			l103.4,102.9v144.3h41.4L1688.7,2002.4L1688.7,2002.4z M1399.5,2332.1h41.4v-123.7h-41.4V2332.1z M1729.8,1879v41.2h123.8V1879
			H1729.8z M1895,1879l-41.4,41.2v411.9h41.4v-411.9h124V1879H1895z M2308,1879h-206.5l-41.4,41.2v370.7l41.4,41.2H2308l41.4-41.2
			v-370.7L2308,1879z M2287.3,1920.2l20.7,20.6v329.4l-20.7,20.7h-165.1l-20.7-20.7v-329.4l20.7-20.6H2287.3z M2679.6,2084.9v-164.7
			l-41.4-41.2h-247.9v453.1h41.4v-411.9h185.8l20.7,20.6v123.5l-20.7,20.6h-144.5l-41.4,41.3l206.5,205.9h41.4v-41.2h-20.7
			l-165.1-164.7h144.5L2679.6,2084.9z M2782.7,2084.9l-20.7-20.6v-123.5l20.7-20.6h165.1l20.7,20.6v61.6h41.4v-82.2l-41.4-41.2
			h-206.5l-41.4,41.2v164.7l41.4,41.3h185.8l20.7,20.6v123.4l-20.7,20.7h-165.1l-20.7-20.7v-61.8h-41.4v82.5l41.4,41.2h206.5
			l41.4-41.2v-164.7l-41.4-41.3H2782.7z"/>
	</g>
</g>
<g id="Pinch">
	<path id="_11-2" class="st13" d="M248.8,737H1v205.9h41.3V778.2h185.8l20.7,20.6v123.5l-20.7,20.6H42.3L1,984.2v205.9h41.3V984.2
		h206.5l41.3-41.3V778.2L248.8,737z M331.3,1190.1h123.8l41.3-41.2V778.2h124V737h-124l-41.3,41.2v370.7H331.3V1190.1z M331.3,778.2
		h123.8V737H331.3V778.2z M496.4,1190.1h124v-41.2h-124V1190.1z M909.4,737v309L702.9,819.2V737h-41.3v453.1h41.3v-309l206.5,226.5
		v82.5h41.3V737H909.4z M1239.7,1046v82.2l-20.7,20.7h-165.1l-20.7-20.7V798.8l20.7-20.6H1219l20.7,20.6v82.3h41.4V778.2l-41.4-41.2
		h-206.5l-41.4,41.2v370.7l41.4,41.2h206.5l41.4-41.2V1046L1239.7,1046L1239.7,1046z M1363.5,737h-41.3v205.9l41.3,41.3H1570v205.9
		h41.4V984.2l-41.4-41.3h-206.5V737z M1611.4,737H1570v205.9h41.4V737z M1322.2,1190.1h41.3V984.2h-41.3V1190.1z"/>
	<path id="_10-2" class="st14" d="M258.8,727H11v205.9h41.3V768.2h185.8l20.7,20.6v123.5l-20.7,20.6H52.3L11,974.2v205.9h41.3V974.2
		h206.5l41.3-41.3V768.2L258.8,727z M341.3,1180.1h123.8l41.3-41.2V768.2h124V727h-124l-41.3,41.2v370.7H341.3V1180.1z M341.3,768.2
		h123.8V727H341.3V768.2z M506.4,1180.1h124v-41.2h-124V1180.1z M919.4,727v309L712.9,809.2V727h-41.3v453.1h41.3v-309l206.5,226.5
		v82.5h41.3V727H919.4z M1249.7,1036v82.2l-20.7,20.7h-165.1l-20.7-20.7V788.8l20.7-20.6H1229l20.7,20.6v82.3h41.4V768.2l-41.4-41.2
		h-206.5l-41.4,41.2v370.7l41.4,41.2h206.5l41.4-41.2V1036L1249.7,1036L1249.7,1036z M1373.5,727h-41.3v205.9l41.3,41.3H1580v205.9
		h41.4V974.2l-41.4-41.3h-206.5V727z M1621.4,727H1580v205.9h41.4V727z M1332.2,1180.1h41.3V974.2h-41.3V1180.1z"/>
	<path id="_9-2" class="st15" d="M268.8,717H21v205.9h41.3V758.2h185.8l20.7,20.6v123.5l-20.7,20.6H62.3L21,964.2v205.9h41.3V964.2
		h206.5l41.3-41.3V758.2L268.8,717z M351.3,1170.1h123.8l41.3-41.2V758.2h124V717h-124l-41.3,41.2v370.7H351.3V1170.1z M351.3,758.2
		h123.8V717H351.3V758.2z M516.4,1170.1h124v-41.2h-124V1170.1z M929.4,717v309L722.9,799.2V717h-41.3v453.1h41.3v-309l206.5,226.5
		v82.5h41.3V717H929.4z M1259.7,1026v82.2l-20.7,20.7h-165.1l-20.7-20.7V778.8l20.7-20.6H1239l20.7,20.6v82.3h41.4V758.2l-41.4-41.2
		h-206.5l-41.4,41.2v370.7l41.4,41.2h206.5l41.4-41.2V1026L1259.7,1026L1259.7,1026z M1383.5,717h-41.3v205.9l41.3,41.3H1590v205.9
		h41.4V964.2l-41.4-41.3h-206.5V717z M1631.4,717H1590v205.9h41.4V717z M1342.2,1170.1h41.3V964.2h-41.3V1170.1z"/>
	<path id="_8-2" class="st15" d="M278.8,707H31v205.9h41.3V748.2h185.8l20.7,20.6v123.5l-20.7,20.6H72.3L31,954.2v205.9h41.3V954.2
		h206.5l41.3-41.3V748.2L278.8,707z M361.3,1160.1h123.8l41.3-41.2V748.2h124V707h-124l-41.3,41.2v370.7H361.3V1160.1z M361.3,748.2
		h123.8V707H361.3V748.2z M526.4,1160.1h124v-41.2h-124V1160.1z M939.4,707v309L732.9,789.2V707h-41.3v453.1h41.3v-309l206.5,226.5
		v82.5h41.3V707H939.4z M1269.7,1016v82.2l-20.7,20.7h-165.1l-20.7-20.7V768.8l20.7-20.6H1249l20.7,20.6v82.3h41.4V748.2l-41.4-41.2
		h-206.5l-41.4,41.2v370.7l41.4,41.2h206.5l41.4-41.2V1016L1269.7,1016L1269.7,1016z M1393.5,707h-41.3v205.9l41.3,41.3H1600v205.9
		h41.4V954.2l-41.4-41.3h-206.5V707z M1641.4,707H1600v205.9h41.4V707z M1352.2,1160.1h41.3V954.2h-41.3V1160.1z"/>
	<path id="_7-2" class="st15" d="M288.8,697H41v205.9h41.3V738.2h185.8l20.7,20.6v123.5l-20.7,20.6H82.3L41,944.2v205.9h41.3V944.2
		h206.5l41.3-41.3V738.2L288.8,697z M371.3,1150.1h123.8l41.3-41.2V738.2h124V697h-124l-41.3,41.2v370.7H371.3V1150.1z M371.3,738.2
		h123.8V697H371.3V738.2z M536.4,1150.1h124v-41.2h-124V1150.1z M949.4,697v309L742.9,779.2V697h-41.3v453.1h41.3v-309l206.5,226.5
		v82.5h41.3V697H949.4z M1279.7,1006v82.2l-20.7,20.7h-165.1l-20.7-20.7V758.8l20.7-20.6H1259l20.7,20.6v82.3h41.4V738.2l-41.4-41.2
		h-206.5l-41.4,41.2v370.7l41.4,41.2h206.5l41.4-41.2V1006L1279.7,1006L1279.7,1006z M1403.5,697h-41.3v205.9l41.3,41.3H1610v205.9
		h41.4V944.2l-41.4-41.3h-206.5V697z M1651.4,697H1610v205.9h41.4V697z M1362.2,1150.1h41.3V944.2h-41.3V1150.1z"/>
	<path id="_6-2" class="st15" d="M298.8,687H51v205.9h41.3V728.2h185.8l20.7,20.6v123.5l-20.7,20.6H92.3L51,934.2v205.9h41.3V934.2
		h206.5l41.3-41.3V728.2L298.8,687z M381.3,1140.1h123.8l41.3-41.2V728.2h124V687h-124l-41.3,41.2v370.7H381.3V1140.1z M381.3,728.2
		h123.8V687H381.3V728.2z M546.4,1140.1h124v-41.2h-124V1140.1z M959.4,687v309L752.9,769.2V687h-41.3v453.1h41.3v-309l206.5,226.5
		v82.5h41.3V687H959.4z M1289.7,996v82.2l-20.7,20.7h-165.1l-20.7-20.7V748.8l20.7-20.6H1269l20.7,20.6v82.3h41.4V728.2l-41.4-41.2
		h-206.5l-41.4,41.2v370.7l41.4,41.2h206.5l41.4-41.2V996L1289.7,996L1289.7,996z M1413.5,687h-41.3v205.9l41.3,41.3H1620v205.9
		h41.4V934.2l-41.4-41.3h-206.5V687z M1661.4,687H1620v205.9h41.4V687z M1372.2,1140.1h41.3V934.2h-41.3V1140.1z"/>
	<path id="_5-2" class="st15" d="M308.8,677H61v205.9h41.3V718.2h185.8l20.7,20.6v123.5l-20.7,20.6H102.3L61,924.2v205.9h41.3V924.2
		h206.5l41.3-41.3V718.2L308.8,677z M391.3,1130.1h123.8l41.3-41.2V718.2h124V677h-124l-41.3,41.2v370.7H391.3V1130.1z M391.3,718.2
		h123.8V677H391.3V718.2z M556.4,1130.1h124v-41.2h-124V1130.1z M969.4,677v309L762.9,759.2V677h-41.3v453.1h41.3v-309l206.5,226.5
		v82.5h41.3V677H969.4z M1299.7,986v82.2l-20.7,20.7h-165.1l-20.7-20.7V738.8l20.7-20.6H1279l20.7,20.6v82.3h41.4V718.2l-41.4-41.2
		h-206.5l-41.4,41.2v370.7l41.4,41.2h206.5l41.4-41.2V986L1299.7,986L1299.7,986z M1423.5,677h-41.3v205.9l41.3,41.3H1630v205.9
		h41.4V924.2l-41.4-41.3h-206.5V677z M1671.4,677H1630v205.9h41.4V677z M1382.2,1130.1h41.3V924.2h-41.3V1130.1z"/>
	<path id="_4-2" class="st16" d="M318.8,667H71v205.9h41.3V708.2h185.8l20.7,20.6v123.5l-20.7,20.6H112.3L71,914.2v205.9h41.3V914.2
		h206.5l41.3-41.3V708.2L318.8,667z M401.3,1120.1h123.8l41.3-41.2V708.2h124V667h-124l-41.3,41.2v370.7H401.3V1120.1z M401.3,708.2
		h123.8V667H401.3V708.2z M566.4,1120.1h124v-41.2h-124V1120.1z M979.4,667v309L772.9,749.2V667h-41.3v453.1h41.3v-309l206.5,226.5
		v82.5h41.3V667H979.4z M1309.7,976v82.2l-20.7,20.7h-165.1l-20.7-20.7V728.8l20.7-20.6H1289l20.7,20.6v82.3h41.4V708.2l-41.4-41.2
		h-206.5l-41.4,41.2v370.7l41.4,41.2h206.5l41.4-41.2V976L1309.7,976L1309.7,976z M1433.5,667h-41.3v205.9l41.3,41.3H1640v205.9
		h41.4V914.2l-41.4-41.3h-206.5V667z M1681.4,667H1640v205.9h41.4V667z M1392.2,1120.1h41.3V914.2h-41.3V1120.1z"/>
	<path id="_3-2" class="st17" d="M328.8,657H81v205.9h41.4V698.2h185.8l20.7,20.6v123.5l-20.7,20.6H122.4L81,904.2v205.9h41.4V904.2
		h206.5l41.3-41.3V698.2L328.8,657z M411.3,1110.1h123.8l41.3-41.2V698.2h124V657h-124l-41.3,41.2v370.7H411.3V1110.1z M411.3,698.2
		h123.8V657H411.3V698.2z M576.4,1110.1h124v-41.2h-124V1110.1z M989.4,657v309L782.9,739.2V657h-41.3v453.1h41.3v-309l206.5,226.5
		v82.5h41.4V657H989.4z M1319.7,966v82.2l-20.7,20.7h-165.1l-20.7-20.7V718.8l20.7-20.6H1299l20.7,20.6v82.3h41.4V698.2l-41.4-41.2
		h-206.5l-41.4,41.2v370.7l41.4,41.2h206.5l41.4-41.2V966L1319.7,966L1319.7,966z M1443.5,657h-41.3v205.9l41.3,41.3H1650v205.9
		h41.4V904.2l-41.4-41.3h-206.5V657z M1691.4,657H1650v205.9h41.4V657z M1402.2,1110.1h41.3V904.2h-41.3V1110.1z"/>
	<path id="_2-2" class="st18" d="M338.8,647H91v205.9h41.4V688.2h185.8l20.7,20.6v123.5l-20.7,20.6H132.4L91,894.2v205.9h41.4V894.2
		h206.5l41.3-41.3V688.2L338.8,647z M421.3,1100.1h123.8l41.3-41.2V688.2h124V647h-124l-41.3,41.2v370.7H421.3V1100.1z M421.3,688.2
		h123.8V647H421.3V688.2z M586.4,1100.1h124v-41.2h-124V1100.1z M999.4,647v309L792.9,729.2V647h-41.3v453.1h41.3v-309l206.5,226.5
		v82.5h41.4V647H999.4z M1329.7,956v82.2l-20.7,20.7h-165.1l-20.7-20.7V708.8l20.7-20.6H1309l20.7,20.6v82.3h41.4V688.2l-41.4-41.2
		h-206.5l-41.4,41.2v370.7l41.4,41.2h206.5l41.4-41.2V956L1329.7,956L1329.7,956z M1453.5,647h-41.3v205.9l41.3,41.3H1660v205.9
		h41.4V894.2l-41.4-41.3h-206.5V647z M1701.4,647H1660v205.9h41.4V647z M1412.2,1100.1h41.3V894.2h-41.3V1100.1z"/>
	<path id="_1-2" class="st19" d="M348.8,637H101v205.9h41.4V678.2h185.8l20.7,20.6v123.5l-20.7,20.6H142.4L101,884.2v205.9h41.4
		V884.2h206.5l41.3-41.3V678.2L348.8,637z M431.3,1090.1h123.8l41.3-41.2V678.2h124V637h-124l-41.3,41.2v370.7H431.3V1090.1z
		 M431.3,678.2h123.8V637H431.3V678.2z M596.4,1090.1h124v-41.2h-124V1090.1z M1009.4,637v309L802.9,719.2V637h-41.3v453.1h41.3
		v-309l206.5,226.5v82.5h41.4V637H1009.4z M1339.7,946v82.2l-20.7,20.7h-165.1l-20.7-20.7V698.8l20.7-20.6H1319l20.7,20.6v82.3h41.4
		V678.2l-41.4-41.2h-206.5l-41.4,41.2v370.7l41.4,41.2h206.5l41.4-41.2V946L1339.7,946L1339.7,946z M1463.5,637h-41.3v205.9
		l41.3,41.3H1670v205.9h41.4V884.2l-41.4-41.3h-206.5V637z M1711.4,637H1670v205.9h41.4V637z M1422.2,1090.1h41.3V884.2h-41.3
		V1090.1z"/>
	<path id="pinch-2" class="st20" d="M358.8,627H111v205.9h41.4V668.2h185.8l20.7,20.6v123.5l-20.7,20.6H152.4L111,874.2v205.9h41.4
		V874.2h206.5l41.3-41.3V668.2L358.8,627z M441.3,1080.1h123.8l41.3-41.2V668.2h124V627h-124l-41.3,41.2v370.7H441.3V1080.1z
		 M441.3,668.2h123.8V627H441.3V668.2z M606.4,1080.1h124v-41.2h-124V1080.1z M1019.4,627v309L812.9,709.2V627h-41.3v453.1h41.3
		v-309l206.5,226.5v82.5h41.4V627H1019.4z M1349.7,936v82.2l-20.7,20.7h-165.1l-20.7-20.7V688.8l20.7-20.6H1329l20.7,20.6v82.3h41.4
		V668.2l-41.4-41.2h-206.5l-41.4,41.2v370.7l41.4,41.2h206.5l41.4-41.2V936L1349.7,936L1349.7,936z M1473.5,627h-41.3v205.9
		l41.3,41.3H1680v205.9h41.4V874.2l-41.4-41.3h-206.5V627z M1721.4,627H1680v205.9h41.4V627z M1432.2,1080.1h41.3V874.2h-41.3
		V1080.1z"/>
</g>
<g id="pay_with">
	<path id="_11-3" class="st13" d="M248.8,111H1v205.9h41.3V152.2h185.8l20.7,20.6v123.5l-20.7,20.6H42.3L1,358.2v205.9h41.3V358.2
		h206.5l41.3-41.3V152.2L248.8,111z M620.5,234.4L496.4,111h-41.3L331.3,234.4v165l41.3,41h206.5v123.7h41.3V440.4l-41.3-41H372.6
		V255.1l103.1-102.9l103.4,102.9v144.3h41.3L620.5,234.4L620.5,234.4z M331.3,564.1h41.3V440.4h-41.3V564.1z M950.8,111h-41.3v102.8
		L806.1,316.9L702.9,213.8V111h-41.3v123.4l123.8,123.8v205.9h41.3V358.2l124.1-123.8L950.8,111L950.8,111z M1611.4,564.1V111H1570
		v391.2l-82.7-102.8H1446l-82.4,102.8V111h-41.3v453.1h41.3l103.1-123.7L1570,564.1H1611.4z M1652.5,564.1h123.8l41.4-41.2V152.2
		h124.1V111h-124.1l-41.4,41.2v370.7h-123.8V564.1z M1652.5,152.2h123.8V111h-123.8V152.2z M1817.6,564.1h124.1v-41.2h-124.1V564.1z
		 M1982.8,111v41.2h123.8V111H1982.8z M2147.9,111l-41.4,41.2v411.9h41.4V152.2h124V111H2147.9z M2354.4,111H2313v205.9l41.4,41.3
		h206.5v205.9h41.4V358.2l-41.4-41.3h-206.5V111z M2602.2,111h-41.4v205.9h41.4V111z M2313,564.1h41.4V358.2H2313V564.1z"/>
	<path id="_10-3" class="st14" d="M258.8,101H11v205.9h41.3V142.2h185.8l20.7,20.6v123.5l-20.7,20.6H52.3L11,348.2v205.9h41.3V348.2
		h206.5l41.3-41.3V142.2L258.8,101z M630.5,224.4L506.4,101h-41.3L341.3,224.4v165l41.3,41h206.5v123.7h41.3V430.4l-41.3-41H382.6
		V245.1l103.1-102.9l103.4,102.9v144.3h41.3L630.5,224.4L630.5,224.4z M341.3,554.1h41.3V430.4h-41.3V554.1z M960.8,101h-41.3v102.8
		L816.1,306.9L712.9,203.8V101h-41.3v123.4l123.8,123.8v205.9h41.3V348.2l124.1-123.8L960.8,101L960.8,101z M1621.4,554.1V101H1580
		v391.2l-82.7-102.8H1456l-82.4,102.8V101h-41.3v453.1h41.3l103.1-123.7L1580,554.1H1621.4z M1662.5,554.1h123.8l41.4-41.2V142.2
		h124.1V101h-124.1l-41.4,41.2v370.7h-123.8V554.1z M1662.5,142.2h123.8V101h-123.8V142.2z M1827.6,554.1h124.1v-41.2h-124.1V554.1z
		 M1992.8,101v41.2h123.8V101H1992.8z M2157.9,101l-41.4,41.2v411.9h41.4V142.2h124V101H2157.9z M2364.4,101H2323v205.9l41.4,41.3
		h206.5v205.9h41.4V348.2l-41.4-41.3h-206.5V101z M2612.2,101h-41.4v205.9h41.4V101z M2323,554.1h41.4V348.2H2323V554.1z"/>
	<path id="_9-3" class="st15" d="M268.8,91H21v205.9h41.3V132.2h185.8l20.7,20.6v123.5l-20.7,20.6H62.3L21,338.2v205.9h41.3V338.2
		h206.5l41.3-41.3V132.2L268.8,91z M640.5,214.4L516.4,91h-41.3L351.3,214.4v165l41.3,41h206.5v123.7h41.3V420.4l-41.3-41H392.6
		V235.1l103.1-102.9l103.4,102.9v144.3h41.3L640.5,214.4L640.5,214.4z M351.3,544.1h41.3V420.4h-41.3V544.1z M970.8,91h-41.3v102.8
		L826.1,296.9L722.9,193.8V91h-41.3v123.4l123.8,123.8v205.9h41.3V338.2l124.1-123.8L970.8,91L970.8,91z M1631.4,544.1V91H1590
		v391.2l-82.7-102.8H1466l-82.4,102.8V91h-41.3v453.1h41.3l103.1-123.7L1590,544.1H1631.4z M1672.5,544.1h123.8l41.4-41.2V132.2
		h124.1V91h-124.1l-41.4,41.2v370.7h-123.8V544.1z M1672.5,132.2h123.8V91h-123.8V132.2z M1837.6,544.1h124.1v-41.2h-124.1V544.1z
		 M2002.8,91v41.2h123.8V91H2002.8z M2167.9,91l-41.4,41.2v411.9h41.4V132.2h124V91H2167.9z M2374.4,91H2333v205.9l41.4,41.3h206.5
		v205.9h41.4V338.2l-41.4-41.3h-206.5V91z M2622.2,91h-41.4v205.9h41.4V91z M2333,544.1h41.4V338.2H2333V544.1z"/>
	<path id="_8-3" class="st15" d="M278.8,81H31v205.9h41.3V122.2h185.8l20.7,20.6v123.5l-20.7,20.6H72.3L31,328.2v205.9h41.3V328.2
		h206.5l41.3-41.3V122.2L278.8,81z M650.5,204.4L526.4,81h-41.3L361.3,204.4v165l41.3,41h206.5v123.7h41.3V410.4l-41.3-41H402.6
		V225.1l103.1-102.9l103.4,102.9v144.3h41.3L650.5,204.4L650.5,204.4z M361.3,534.1h41.3V410.4h-41.3V534.1z M980.8,81h-41.3v102.8
		L836.1,286.9L732.9,183.8V81h-41.3v123.4l123.8,123.8v205.9h41.3V328.2l124.1-123.8L980.8,81L980.8,81z M1641.4,534.1V81H1600
		v391.2l-82.7-102.8H1476l-82.4,102.8V81h-41.3v453.1h41.3l103.1-123.7L1600,534.1H1641.4z M1682.5,534.1h123.8l41.4-41.2V122.2
		h124.1V81h-124.1l-41.4,41.2v370.7h-123.8V534.1z M1682.5,122.2h123.8V81h-123.8V122.2z M1847.6,534.1h124.1v-41.2h-124.1V534.1z
		 M2012.8,81v41.2h123.8V81H2012.8z M2177.9,81l-41.4,41.2v411.9h41.4V122.2h124V81H2177.9z M2384.4,81H2343v205.9l41.4,41.3h206.5
		v205.9h41.4V328.2l-41.4-41.3h-206.5V81z M2632.2,81h-41.4v205.9h41.4V81z M2343,534.1h41.4V328.2H2343V534.1z"/>
	<path id="_7-3" class="st15" d="M288.8,71H41v205.9h41.3V112.2h185.8l20.7,20.6v123.5l-20.7,20.6H82.3L41,318.2v205.9h41.3V318.2
		h206.5l41.3-41.3V112.2L288.8,71z M660.5,194.4L536.4,71h-41.3L371.3,194.4v165l41.3,41h206.5v123.7h41.3V400.4l-41.3-41H412.6
		V215.1l103.1-102.9l103.4,102.9v144.3h41.3L660.5,194.4L660.5,194.4z M371.3,524.1h41.3V400.4h-41.3V524.1z M990.8,71h-41.3v102.8
		L846.1,276.9L742.9,173.8V71h-41.3v123.4l123.8,123.8v205.9h41.3V318.2l124.1-123.8L990.8,71L990.8,71z M1651.4,524.1V71H1610
		v391.2l-82.7-102.8H1486l-82.4,102.8V71h-41.3v453.1h41.3l103.1-123.7L1610,524.1H1651.4z M1692.5,524.1h123.8l41.4-41.2V112.2
		h124.1V71h-124.1l-41.4,41.2v370.7h-123.8V524.1z M1692.5,112.2h123.8V71h-123.8V112.2z M1857.6,524.1h124.1v-41.2h-124.1V524.1z
		 M2022.8,71v41.2h123.8V71H2022.8z M2187.9,71l-41.4,41.2v411.9h41.4V112.2h124V71H2187.9z M2394.4,71H2353v205.9l41.4,41.3h206.5
		v205.9h41.4V318.2l-41.4-41.3h-206.5V71z M2642.2,71h-41.4v205.9h41.4V71z M2353,524.1h41.4V318.2H2353V524.1z"/>
	<path id="_6-3" class="st15" d="M298.8,61H51v205.9h41.3V102.2h185.8l20.7,20.6v123.5l-20.7,20.6H92.3L51,308.2v205.9h41.3V308.2
		h206.5l41.3-41.3V102.2L298.8,61z M670.5,184.4L546.4,61h-41.3L381.3,184.4v165l41.3,41h206.5v123.7h41.3V390.4l-41.3-41H422.6
		V205.1l103.1-102.9l103.4,102.9v144.3h41.3L670.5,184.4L670.5,184.4z M381.3,514.1h41.3V390.4h-41.3V514.1z M1000.8,61h-41.3v102.8
		L856.1,266.9L752.9,163.8V61h-41.3v123.4l123.8,123.8v205.9h41.3V308.2l124.1-123.8L1000.8,61L1000.8,61z M1661.4,514.1V61H1620
		v391.2l-82.7-102.8H1496l-82.4,102.8V61h-41.3v453.1h41.3l103.1-123.7L1620,514.1H1661.4z M1702.5,514.1h123.8l41.4-41.2V102.2
		h124.1V61h-124.1l-41.4,41.2v370.7h-123.8V514.1z M1702.5,102.2h123.8V61h-123.8V102.2z M1867.6,514.1h124.1v-41.2h-124.1V514.1z
		 M2032.8,61v41.2h123.8V61H2032.8z M2197.9,61l-41.4,41.2v411.9h41.4V102.2h124V61H2197.9z M2404.4,61H2363v205.9l41.4,41.3h206.5
		v205.9h41.4V308.2l-41.4-41.3h-206.5V61z M2652.2,61h-41.4v205.9h41.4V61z M2363,514.1h41.4V308.2H2363V514.1z"/>
	<path id="_5-3" class="st15" d="M308.8,51H61v205.9h41.3V92.2h185.8l20.7,20.6v123.5l-20.7,20.6H102.3L61,298.2v205.9h41.3V298.2
		h206.5l41.3-41.3V92.2L308.8,51z M680.5,174.4L556.4,51h-41.3L391.3,174.4v165l41.3,41h206.5v123.7h41.3V380.4l-41.3-41H432.6
		V195.1L535.8,92.2l103.4,102.9v144.3h41.3L680.5,174.4L680.5,174.4z M391.3,504.1h41.3V380.4h-41.3V504.1z M1010.8,51h-41.3v102.8
		L866.1,256.9L762.9,153.8V51h-41.3v123.4l123.8,123.8v205.9h41.3V298.2l124.1-123.8L1010.8,51L1010.8,51z M1671.4,504.1V51H1630
		v391.2l-82.7-102.8H1506l-82.4,102.8V51h-41.3v453.1h41.3l103.1-123.7L1630,504.1H1671.4z M1712.5,504.1h123.8l41.4-41.2V92.2
		h124.1V51h-124.1l-41.4,41.2v370.7h-123.8V504.1z M1712.5,92.2h123.8V51h-123.8V92.2z M1877.6,504.1h124.1v-41.2h-124.1V504.1z
		 M2042.8,51v41.2h123.8V51H2042.8z M2207.9,51l-41.4,41.2v411.9h41.4V92.2h124V51H2207.9z M2414.4,51H2373v205.9l41.4,41.3h206.5
		v205.9h41.4V298.2l-41.4-41.3h-206.5V51z M2662.2,51h-41.4v205.9h41.4V51z M2373,504.1h41.4V298.2H2373V504.1z"/>
	<path id="_4-3" class="st16" d="M318.8,41H71v205.9h41.3V82.2h185.8l20.7,20.6v123.5l-20.7,20.6H112.3L71,288.2v205.9h41.3V288.2
		h206.5l41.3-41.3V82.2L318.8,41z M690.5,164.4L566.4,41h-41.3L401.3,164.4v165l41.3,41h206.5v123.7h41.3V370.4l-41.3-41H442.6
		V185.1L545.8,82.2l103.4,102.9v144.3h41.3L690.5,164.4L690.5,164.4z M401.3,494.1h41.3V370.4h-41.3V494.1z M1020.8,41h-41.3v102.8
		L876.1,246.9L772.9,143.8V41h-41.3v123.4l123.8,123.8v205.9h41.3V288.2l124.1-123.8L1020.8,41L1020.8,41z M1681.4,494.1V41H1640
		v391.2l-82.7-102.8H1516l-82.4,102.8V41h-41.3v453.1h41.3l103.1-123.7L1640,494.1H1681.4z M1722.5,494.1h123.8l41.4-41.2V82.2
		h124.1V41h-124.1l-41.4,41.2v370.7h-123.8V494.1z M1722.5,82.2h123.8V41h-123.8V82.2z M1887.6,494.1h124.1v-41.2h-124.1V494.1z
		 M2052.8,41v41.2h123.8V41H2052.8z M2217.9,41l-41.4,41.2v411.9h41.4V82.2h124V41H2217.9z M2424.4,41H2383v205.9l41.4,41.3h206.5
		v205.9h41.4V288.2l-41.4-41.3h-206.5V41z M2672.2,41h-41.4v205.9h41.4V41z M2383,494.1h41.4V288.2H2383V494.1z"/>
	<path id="_3-3" class="st17" d="M328.8,31H81v205.9h41.4V72.2h185.8l20.7,20.6v123.5l-20.7,20.6H122.4L81,278.2v205.9h41.4V278.2
		h206.5l41.3-41.3V72.2L328.8,31z M700.5,154.4L576.4,31h-41.3L411.3,154.4v165l41.3,41h206.5v123.7h41.3V360.4l-41.3-41H452.6
		V175.1L555.8,72.2l103.4,102.9v144.3h41.3L700.5,154.4L700.5,154.4z M411.3,484.1h41.3V360.4h-41.3V484.1z M1030.8,31h-41.4v102.8
		L886.1,236.9L782.9,133.8V31h-41.3v123.4l123.8,123.8v205.9h41.3V278.2l124-123.8V31L1030.8,31z M1691.4,484.1V31H1650v391.2
		l-82.7-102.8H1526l-82.4,102.8V31h-41.3v453.1h41.3l103.1-123.7L1650,484.1H1691.4z M1732.5,484.1h123.8l41.4-41.2V72.2h124.1V31
		h-124.1l-41.4,41.2v370.7h-123.8V484.1z M1732.5,72.2h123.8V31h-123.8V72.2z M1897.6,484.1h124.1v-41.2h-124.1V484.1z M2062.8,31
		v41.2h123.8V31H2062.8z M2227.9,31l-41.4,41.2v411.9h41.4V72.2h124V31H2227.9z M2434.4,31H2393v205.9l41.4,41.3h206.5v205.9h41.4
		V278.2l-41.4-41.3h-206.5V31z M2682.2,31h-41.4v205.9h41.4V31z M2393,484.1h41.4V278.2H2393V484.1z"/>
	<path id="_2-3" class="st18" d="M338.8,21H91v205.9h41.4V62.2h185.8l20.7,20.6v123.5l-20.7,20.6H132.4L91,268.2v205.9h41.4V268.2
		h206.5l41.3-41.3V62.2L338.8,21z M710.5,144.4L586.4,21h-41.3L421.3,144.4v165l41.3,41h206.5v123.7h41.3V350.4l-41.3-41H462.6
		V165.1L565.8,62.2l103.4,102.9v144.3h41.3L710.5,144.4L710.5,144.4z M421.3,474.1h41.3V350.4h-41.3V474.1z M1040.8,21h-41.4v102.8
		L896.1,226.9L792.9,123.8V21h-41.3v123.4l123.8,123.8v205.9h41.3V268.2l124-123.8V21L1040.8,21z M1701.4,474.1V21H1660v391.2
		l-82.7-102.8H1536l-82.4,102.8V21h-41.3v453.1h41.3l103.1-123.7L1660,474.1H1701.4z M1742.5,474.1h123.8l41.4-41.2V62.2h124.1V21
		h-124.1l-41.4,41.2v370.7h-123.8V474.1z M1742.5,62.2h123.8V21h-123.8V62.2z M1907.6,474.1h124.1v-41.2h-124.1V474.1z M2072.8,21
		v41.2h123.8V21H2072.8z M2237.9,21l-41.4,41.2v411.9h41.4V62.2h124V21H2237.9z M2444.4,21H2403v205.9l41.4,41.3h206.5v205.9h41.4
		V268.2l-41.4-41.3h-206.5V21z M2692.2,21h-41.4v205.9h41.4V21z M2403,474.1h41.4V268.2H2403V474.1z"/>
	<path id="_1-3" class="st19" d="M348.8,11H101v205.9h41.4V52.2h185.8l20.7,20.6v123.5l-20.7,20.6H142.4L101,258.2v205.9h41.4V258.2
		h206.5l41.3-41.3V52.2L348.8,11z M720.5,134.4L596.4,11h-41.3L431.3,134.4v165l41.3,41h206.5v123.7h41.3V340.4l-41.3-41H472.6
		V155.1L575.8,52.2l103.4,102.9v144.3h41.3L720.5,134.4L720.5,134.4z M431.3,464.1h41.3V340.4h-41.3V464.1z M1050.8,11h-41.4v102.8
		L906.1,216.9L802.9,113.8V11h-41.3v123.4l123.8,123.8v205.9h41.3V258.2l124-123.8V11L1050.8,11z M1711.4,464.1V11H1670v391.2
		l-82.7-102.8H1546l-82.4,102.8V11h-41.3v453.1h41.3l103.1-123.7L1670,464.1H1711.4z M1752.5,464.1h123.8l41.4-41.2V52.2h124.1V11
		h-124.1l-41.4,41.2v370.7h-123.8V464.1z M1752.5,52.2h123.8V11h-123.8V52.2z M1917.6,464.1h124.1v-41.2h-124.1V464.1z M2082.8,11
		v41.2h123.8V11H2082.8z M2247.9,11l-41.4,41.2v411.9h41.4V52.2h124V11H2247.9z M2454.4,11H2413v205.9l41.4,41.3h206.5v205.9h41.4
		V258.2l-41.4-41.3h-206.5V11z M2702.2,11h-41.4v205.9h41.4V11z M2413,464.1h41.4V258.2H2413V464.1z"/>
	<path id="pay_with-2" class="st20" d="M358.8,1H111v205.9h41.4V42.2h185.8l20.7,20.6v123.5l-20.7,20.6H152.4L111,248.2v205.9h41.4
		V248.2h206.5l41.3-41.3V42.2L358.8,1z M730.5,124.4L606.4,1h-41.3L441.3,124.4v165l41.3,41h206.5v123.7h41.3V330.4l-41.3-41H482.6
		V145.1L585.8,42.2l103.4,102.9v144.3h41.3L730.5,124.4L730.5,124.4z M441.3,454.1h41.3V330.4h-41.3V454.1z M1060.8,1h-41.4v102.8
		L916.1,206.9L812.9,103.8V1h-41.3v123.4l123.8,123.8v205.9h41.3V248.2l124-123.8V1L1060.8,1z M1721.4,454.1V1H1680v391.2
		l-82.7-102.8H1556l-82.4,102.8V1h-41.3v453.1h41.3l103.1-123.7L1680,454.1H1721.4z M1762.5,454.1h123.8l41.4-41.2V42.2h124.1V1
		h-124.1l-41.4,41.2v370.7h-123.8V454.1z M1762.5,42.2h123.8V1h-123.8V42.2z M1927.6,454.1h124.1v-41.2h-124.1V454.1z M2092.8,1
		v41.2h123.8V1H2092.8z M2257.9,1l-41.4,41.2v411.9h41.4V42.2h124V1H2257.9z M2464.4,1H2423v205.9l41.4,41.3h206.5v205.9h41.4V248.2
		l-41.4-41.3h-206.5V1z M2712.2,1h-41.4v205.9h41.4V1z M2423,454.1h41.4V248.2H2423V454.1z"/>
</g>
</svg>
