<?xml version="1.0" encoding="utf-8"?>
<!-- Generator: Adobe Illustrator 24.0.1, SVG Export Plug-In . SVG Version: 6.00 Build 0)  -->
<svg version="1.1" id="Layer_1" xmlns="http://www.w3.org/2000/svg" xmlns:xlink="http://www.w3.org/1999/xlink" x="0px" y="0px"
	 viewBox="0 0 1127.3 1129.4" style="enable-background:new 0 0 1127.3 1129.4;" xml:space="preserve">
<style type="text/css">
	.st0{opacity:0.12;}
	.st1{fill:none;stroke:#FFFFFF;stroke-width:0.75;stroke-miterlimit:10;}
	.st2{opacity:0.2;}
	.st3{opacity:0.15;}
	.st4{opacity:0.1;}
	.st5{opacity:7.000000e-02;}
	.st6{opacity:6.000000e-02;}
	.st7{opacity:5.000000e-02;}
	.st8{opacity:4.000000e-02;}
	.st9{opacity:3.000000e-02;}
	.st10{opacity:2.000000e-02;}
	.st11{opacity:1.000000e-02;}
	.st12{fill:#111111;stroke:#FFFFFF;stroke-width:0.5;stroke-miterlimit:10;}
	.st13{fill:url(#SVGID_1_);}
	.st14{opacity:8.000000e-02;}
	.st15{fill:url(#SVGID_2_);}
	.st16{fill:url(#SVGID_3_);}
	.st17{fill:url(#SVGID_4_);}
	.st18{opacity:0.3;}
	.st19{fill:url(#SVGID_5_);}
	.st20{opacity:0.5;}
	.st21{fill:url(#SVGID_6_);}
	.st22{opacity:0.4;}
	.st23{fill:url(#SVGID_7_);}
	.st24{opacity:0.6;}
	.st25{fill:url(#SVGID_8_);}
	.st26{opacity:0.7;}
	.st27{fill:url(#SVGID_9_);}
	.st28{opacity:0.8;}
	.st29{fill:url(#SVGID_10_);}
	.st30{opacity:0.9;}
	.st31{fill:url(#SVGID_11_);}
	.st32{fill:url(#SVGID_12_);}
	.st33{fill:url(#SVGID_13_);}
</style>
<g>
	<g class="st0">
		<path class="st1" d="M139.4,174.3l-46.1,55.2H74.9V27h18.4v174.8l36.9-46h18.4l36.9,46V27H204v202.4h-18.4L139.4,174.3z"/>
		<path class="st1" d="M351.6,211.1v18.4H222.5V27h129.1v18.4H240.9v165.6H351.6z M240.9,137.5l18.4-18.4h92.2v18.4H240.9z"/>
		<path class="st1" d="M499.2,229.5H370.1V27h18.4v184h110.7V229.5z"/>
		<path class="st1" d="M646.8,211.1l-18.4,18.4h-92.2l-18.4-18.4V45.4L536.1,27h92.2l18.4,18.4v46h-18.4V54.6l-9.2-9.2h-73.8
			l-9.2,9.2v147.2l9.2,9.2h73.8l9.2-9.2v-36.8h18.4V211.1z"/>
		<path class="st1" d="M794.4,211.1l-18.4,18.4h-92.2l-18.4-18.4V45.4L683.7,27h92.2l18.4,18.4V211.1z M683.7,54.6v147.2l9.2,9.2
			h73.8l9.2-9.2V54.6l-9.2-9.2h-73.8L683.7,54.6z"/>
		<path class="st1" d="M923.5,229.5V54.6l-36.9,46h-18.4l-36.9-46v174.8h-18.4V27h18.4l46.1,55.2L923.5,27H942v202.4H923.5z"/>
		<path class="st1" d="M1089.6,211.1v18.4H960.4V27h129.1v18.4H978.9v165.6H1089.6z M978.9,137.5l18.4-18.4h92.2v18.4H978.9z"/>
		<path class="st1" d="M130.2,321.2H74.9v-18.4h55.3V321.2z M204,321.2h-55.3v184h-18.4v-184l18.4-18.4H204V321.2z"/>
		<path class="st1" d="M351.6,486.8l-18.4,18.4h-92.2l-18.4-18.4V321.2l18.4-18.4h92.2l18.4,18.4V486.8z M240.9,330.4v147.2l9.2,9.2
			h73.8l9.2-9.2V330.4l-9.2-9.2h-73.8L240.9,330.4z"/>
		<path class="st1" d="M573,321.2h-55.3v-18.4H573V321.2z M646.8,321.2h-55.3v184H573v-184l18.4-18.4h55.3V321.2z"/>
		<path class="st1" d="M775.9,394.8l18.4,18.4v92h-18.4v-92h-92.2l-18.4-18.4v-92h18.4v92H775.9z M683.7,413.2v92h-18.4v-92H683.7z
			 M775.9,394.8v-92h18.4v92H775.9z"/>
		<path class="st1" d="M942,486.8v18.4H812.8V302.8H942v18.4H831.3v165.6H942z M831.3,413.2l18.4-18.4H942v18.4H831.3z"/>
	</g>
	<g class="st2">
		<path class="st1" d="M157.7,156.1l-46.1,55.2H93.1V8.9h18.4v174.8l36.9-46h18.4l36.9,46V8.9h18.4v202.4h-18.4L157.7,156.1z"/>
		<path class="st1" d="M369.8,192.9v18.4H240.7V8.9h129.1v18.4H259.2v165.6H369.8z M259.2,119.3l18.4-18.4h92.2v18.4H259.2z"/>
		<path class="st1" d="M517.4,211.3H388.3V8.9h18.4v184h110.7V211.3z"/>
		<path class="st1" d="M665,192.9l-18.4,18.4h-92.2l-18.4-18.4V27.3l18.4-18.4h92.2L665,27.3v46h-18.4V36.5l-9.2-9.2h-73.8l-9.2,9.2
			v147.2l9.2,9.2h73.8l9.2-9.2v-36.8H665V192.9z"/>
		<path class="st1" d="M812.6,192.9l-18.4,18.4h-92.2l-18.4-18.4V27.3l18.4-18.4h92.2l18.4,18.4V192.9z M701.9,36.5v147.2l9.2,9.2
			h73.8l9.2-9.2V36.5l-9.2-9.2h-73.8L701.9,36.5z"/>
		<path class="st1" d="M941.8,211.3V36.5l-36.9,46h-18.4l-36.9-46v174.8h-18.4V8.9h18.4l46.1,55.2l46.1-55.2h18.4v202.4H941.8z"/>
		<path class="st1" d="M1107.8,192.9v18.4H978.7V8.9h129.1v18.4H997.1v165.6H1107.8z M997.1,119.3l18.4-18.4h92.2v18.4H997.1z"/>
		<path class="st1" d="M148.5,303H93.1v-18.4h55.3V303z M222.3,303h-55.3v184h-18.4V303l18.4-18.4h55.3V303z"/>
		<path class="st1" d="M369.8,468.6L351.4,487h-92.2l-18.4-18.4V303l18.4-18.4h92.2l18.4,18.4V468.6z M259.2,312.2v147.2l9.2,9.2
			h73.8l9.2-9.2V312.2l-9.2-9.2h-73.8L259.2,312.2z"/>
		<path class="st1" d="M591.2,303h-55.3v-18.4h55.3V303z M665,303h-55.3v184h-18.4V303l18.4-18.4H665V303z"/>
		<path class="st1" d="M794.2,376.6l18.4,18.4v92h-18.4v-92h-92.2l-18.4-18.4v-92h18.4v92H794.2z M701.9,395v92h-18.4v-92H701.9z
			 M794.2,376.6v-92h18.4v92H794.2z"/>
		<path class="st1" d="M960.2,468.6V487H831.1V284.6h129.1V303H849.5v165.6H960.2z M849.5,395l18.4-18.4h92.2V395H849.5z"/>
	</g>
	<g class="st3">
		<path class="st1" d="M148.8,164.9l-46.1,55.2H84.2V17.7h18.4v174.8l36.9-46H158l36.9,46V17.7h18.4v202.4h-18.4L148.8,164.9z"/>
		<path class="st1" d="M360.9,201.7v18.4H231.8V17.7h129.1v18.4H250.2v165.6H360.9z M250.2,128.1l18.4-18.4h92.2v18.4H250.2z"/>
		<path class="st1" d="M508.5,220.1H379.4V17.7h18.4v184h110.7V220.1z"/>
		<path class="st1" d="M656.1,201.7l-18.4,18.4h-92.2L527,201.7V36.1l18.4-18.4h92.2l18.4,18.4v46h-18.4V45.3l-9.2-9.2h-73.8
			l-9.2,9.2v147.2l9.2,9.2h73.8l9.2-9.2v-36.8h18.4V201.7z"/>
		<path class="st1" d="M803.7,201.7l-18.4,18.4H693l-18.4-18.4V36.1L693,17.7h92.2l18.4,18.4V201.7z M693,45.3v147.2l9.2,9.2H776
			l9.2-9.2V45.3l-9.2-9.2h-73.8L693,45.3z"/>
		<path class="st1" d="M932.8,220.1V45.3l-36.9,46h-18.4l-36.9-46v174.8h-18.4V17.7h18.4l46.1,55.2l46.1-55.2h18.4v202.4H932.8z"/>
		<path class="st1" d="M1098.9,201.7v18.4H969.7V17.7h129.1v18.4H988.2v165.6H1098.9z M988.2,128.1l18.4-18.4h92.2v18.4H988.2z"/>
		<path class="st1" d="M139.5,311.8H84.2v-18.4h55.3V311.8z M213.3,311.8H158v184h-18.4v-184l18.4-18.4h55.3V311.8z"/>
		<path class="st1" d="M360.9,477.4l-18.4,18.4h-92.2l-18.4-18.4V311.8l18.4-18.4h92.2l18.4,18.4V477.4z M250.2,321v147.2l9.2,9.2
			h73.8l9.2-9.2V321l-9.2-9.2h-73.8L250.2,321z"/>
		<path class="st1" d="M582.3,311.8H527v-18.4h55.3V311.8z M656.1,311.8h-55.3v184h-18.4v-184l18.4-18.4h55.3V311.8z"/>
		<path class="st1" d="M785.3,385.4l18.4,18.4v92h-18.4v-92H693l-18.4-18.4v-92H693v92H785.3z M693,403.8v92h-18.4v-92H693z
			 M785.3,385.4v-92h18.4v92H785.3z"/>
		<path class="st1" d="M951.3,477.4v18.4H822.2V293.4h129.1v18.4H840.6v165.6H951.3z M840.6,403.8l18.4-18.4h92.2v18.4H840.6z"/>
	</g>
	<g class="st4">
		<path class="st1" d="M130.1,183.6l-46.1,55.2H65.5V36.4h18.4v174.8l36.9-46h18.4l36.9,46V36.4h18.4v202.4h-18.4L130.1,183.6z"/>
		<path class="st1" d="M342.2,220.4v18.4H213.1V36.4h129.1v18.4H231.5v165.6H342.2z M231.5,146.8l18.4-18.4h92.2v18.4H231.5z"/>
		<path class="st1" d="M489.8,238.8H360.7V36.4h18.4v184h110.7V238.8z"/>
		<path class="st1" d="M637.4,220.4L619,238.8h-92.2l-18.4-18.4V54.8l18.4-18.4H619l18.4,18.4v46H619V64l-9.2-9.2h-73.8l-9.2,9.2
			v147.2l9.2,9.2h73.8l9.2-9.2v-36.8h18.4V220.4z"/>
		<path class="st1" d="M785,220.4l-18.4,18.4h-92.2l-18.4-18.4V54.8l18.4-18.4h92.2L785,54.8V220.4z M674.3,64v147.2l9.2,9.2h73.8
			l9.2-9.2V64l-9.2-9.2h-73.8L674.3,64z"/>
		<path class="st1" d="M914.1,238.8V64l-36.9,46h-18.4l-36.9-46v174.8h-18.4V36.4h18.4L868,91.6l46.1-55.2h18.4v202.4H914.1z"/>
		<path class="st1" d="M1080.2,220.4v18.4H951V36.4h129.1v18.4H969.5v165.6H1080.2z M969.5,146.8l18.4-18.4h92.2v18.4H969.5z"/>
		<path class="st1" d="M120.8,330.5H65.5v-18.4h55.3V330.5z M194.6,330.5h-55.3v184h-18.4v-184l18.4-18.4h55.3V330.5z"/>
		<path class="st1" d="M342.2,496.1l-18.4,18.4h-92.2l-18.4-18.4V330.5l18.4-18.4h92.2l18.4,18.4V496.1z M231.5,339.7v147.2l9.2,9.2
			h73.8l9.2-9.2V339.7l-9.2-9.2h-73.8L231.5,339.7z"/>
		<path class="st1" d="M563.6,330.5h-55.3v-18.4h55.3V330.5z M637.4,330.5h-55.3v184h-18.4v-184l18.4-18.4h55.3V330.5z"/>
		<path class="st1" d="M766.5,404.1l18.4,18.4v92h-18.4v-92h-92.2l-18.4-18.4v-92h18.4v92H766.5z M674.3,422.5v92h-18.4v-92H674.3z
			 M766.5,404.1v-92H785v92H766.5z"/>
		<path class="st1" d="M932.6,496.1v18.4H803.4V312.1h129.1v18.4H821.9v165.6H932.6z M821.9,422.5l18.4-18.4h92.2v18.4H821.9z"/>
	</g>
	<g class="st5">
		<path class="st1" d="M120.7,193.1l-46.1,55.2H56.2V45.9h18.4v174.8l36.9-46H130l36.9,46V45.9h18.4v202.4h-18.4L120.7,193.1z"/>
		<path class="st1" d="M332.9,229.9v18.4H203.8V45.9h129.1v18.4H222.2v165.6H332.9z M222.2,156.3l18.4-18.4h92.2v18.4H222.2z"/>
		<path class="st1" d="M480.5,248.3H351.3V45.9h18.4v184h110.7V248.3z"/>
		<path class="st1" d="M628.1,229.9l-18.4,18.4h-92.2l-18.4-18.4V64.3l18.4-18.4h92.2l18.4,18.4v46h-18.4V73.5l-9.2-9.2h-73.8
			l-9.2,9.2v147.2l9.2,9.2h73.8l9.2-9.2v-36.8h18.4V229.9z"/>
		<path class="st1" d="M775.7,229.9l-18.4,18.4H665l-18.4-18.4V64.3L665,45.9h92.2l18.4,18.4V229.9z M665,73.5v147.2l9.2,9.2H748
			l9.2-9.2V73.5l-9.2-9.2h-73.8L665,73.5z"/>
		<path class="st1" d="M904.8,248.3V73.5l-36.9,46h-18.4l-36.9-46v174.8h-18.4V45.9h18.4l46.1,55.2l46.1-55.2h18.4v202.4H904.8z"/>
		<path class="st1" d="M1070.8,229.9v18.4H941.7V45.9h129.1v18.4H960.2v165.6H1070.8z M960.2,156.3l18.4-18.4h92.2v18.4H960.2z"/>
		<path class="st1" d="M111.5,340H56.2v-18.4h55.3V340z M185.3,340H130v184h-18.4V340l18.4-18.4h55.3V340z"/>
		<path class="st1" d="M332.9,505.6L314.4,524h-92.2l-18.4-18.4V340l18.4-18.4h92.2l18.4,18.4V505.6z M222.2,349.2v147.2l9.2,9.2
			h73.8l9.2-9.2V349.2l-9.2-9.2h-73.8L222.2,349.2z"/>
		<path class="st1" d="M554.3,340h-55.3v-18.4h55.3V340z M628.1,340h-55.3v184h-18.4V340l18.4-18.4h55.3V340z"/>
		<path class="st1" d="M757.2,413.6l18.4,18.4v92h-18.4v-92H665l-18.4-18.4v-92H665v92H757.2z M665,432v92h-18.4v-92H665z
			 M757.2,413.6v-92h18.4v92H757.2z"/>
		<path class="st1" d="M923.3,505.6V524H794.1V321.6h129.1V340H812.6v165.6H923.3z M812.6,432l18.4-18.4h92.2V432H812.6z"/>
	</g>
	<g class="st6">
		<path class="st1" d="M111.3,201.7l-46.1,55.2H46.7V54.5h18.4v174.8l36.9-46h18.4l36.9,46V54.5h18.4v202.4h-18.4L111.3,201.7z"/>
		<path class="st1" d="M323.5,238.5v18.4H194.3V54.5h129.1v18.4H212.8v165.6H323.5z M212.8,164.9l18.4-18.4h92.2v18.4H212.8z"/>
		<path class="st1" d="M471.1,256.9H341.9V54.5h18.4v184h110.7V256.9z"/>
		<path class="st1" d="M618.6,238.5l-18.4,18.4H508l-18.4-18.4V72.9L508,54.5h92.2l18.4,18.4v46h-18.4V82.1l-9.2-9.2h-73.8l-9.2,9.2
			v147.2l9.2,9.2H591l9.2-9.2v-36.8h18.4V238.5z"/>
		<path class="st1" d="M766.2,238.5l-18.4,18.4h-92.2l-18.4-18.4V72.9l18.4-18.4h92.2l18.4,18.4V238.5z M655.5,82.1v147.2l9.2,9.2
			h73.8l9.2-9.2V82.1l-9.2-9.2h-73.8L655.5,82.1z"/>
		<path class="st1" d="M895.4,256.9V82.1l-36.9,46H840l-36.9-46v174.8h-18.4V54.5h18.4l46.1,55.2l46.1-55.2h18.4v202.4H895.4z"/>
		<path class="st1" d="M1061.4,238.5v18.4H932.3V54.5h129.1v18.4H950.7v165.6H1061.4z M950.7,164.9l18.4-18.4h92.2v18.4H950.7z"/>
		<path class="st1" d="M102.1,348.6H46.7v-18.4h55.3V348.6z M175.9,348.6h-55.3v184h-18.4v-184l18.4-18.4h55.3V348.6z"/>
		<path class="st1" d="M323.5,514.2L305,532.6h-92.2l-18.4-18.4V348.6l18.4-18.4H305l18.4,18.4V514.2z M212.8,357.8V505l9.2,9.2
			h73.8l9.2-9.2V357.8l-9.2-9.2H222L212.8,357.8z"/>
		<path class="st1" d="M544.8,348.6h-55.3v-18.4h55.3V348.6z M618.6,348.6h-55.3v184h-18.4v-184l18.4-18.4h55.3V348.6z"/>
		<path class="st1" d="M747.8,422.2l18.4,18.4v92h-18.4v-92h-92.2l-18.4-18.4v-92h18.4v92H747.8z M655.5,440.6v92h-18.4v-92H655.5z
			 M747.8,422.2v-92h18.4v92H747.8z"/>
		<path class="st1" d="M913.8,514.2v18.4H784.7V330.2h129.1v18.4H803.1v165.6H913.8z M803.1,440.6l18.4-18.4h92.2v18.4H803.1z"/>
	</g>
	<g class="st7">
		<path class="st1" d="M102.8,211.1l-46.1,55.2H38.2V63.9h18.4v174.8l36.9-46H112l36.9,46V63.9h18.4v202.4h-18.4L102.8,211.1z"/>
		<path class="st1" d="M314.9,247.9v18.4H185.8V63.9h129.1v18.4H204.2v165.6H314.9z M204.2,174.3l18.4-18.4h92.2v18.4H204.2z"/>
		<path class="st1" d="M462.5,266.3H333.4V63.9h18.4v184h110.7V266.3z"/>
		<path class="st1" d="M610.1,247.9l-18.4,18.4h-92.2L481,247.9V82.3l18.4-18.4h92.2l18.4,18.4v46h-18.4V91.5l-9.2-9.2h-73.8
			l-9.2,9.2v147.2l9.2,9.2h73.8l9.2-9.2v-36.8h18.4V247.9z"/>
		<path class="st1" d="M757.7,247.9l-18.4,18.4H647l-18.4-18.4V82.3L647,63.9h92.2l18.4,18.4V247.9z M647,91.5v147.2l9.2,9.2H730
			l9.2-9.2V91.5l-9.2-9.2h-73.8L647,91.5z"/>
		<path class="st1" d="M886.8,266.3V91.5l-36.9,46h-18.4l-36.9-46v174.8h-18.4V63.9h18.4l46.1,55.2l46.1-55.2h18.4v202.4H886.8z"/>
		<path class="st1" d="M1052.9,247.9v18.4H923.7V63.9h129.1v18.4H942.2v165.6H1052.9z M942.2,174.3l18.4-18.4h92.2v18.4H942.2z"/>
		<path class="st1" d="M93.5,358H38.2v-18.4h55.3V358z M167.3,358H112v184H93.5V358l18.4-18.4h55.3V358z"/>
		<path class="st1" d="M314.9,523.6L296.5,542h-92.2l-18.4-18.4V358l18.4-18.4h92.2l18.4,18.4V523.6z M204.2,367.2v147.2l9.2,9.2
			h73.8l9.2-9.2V367.2l-9.2-9.2h-73.8L204.2,367.2z"/>
		<path class="st1" d="M536.3,358H481v-18.4h55.3V358z M610.1,358h-55.3v184h-18.4V358l18.4-18.4h55.3V358z"/>
		<path class="st1" d="M739.2,431.6l18.4,18.4v92h-18.4v-92H647l-18.4-18.4v-92H647v92H739.2z M647,450v92h-18.4v-92H647z
			 M739.2,431.6v-92h18.4v92H739.2z"/>
		<path class="st1" d="M905.3,523.6V542H776.1V339.6h129.1V358H794.6v165.6H905.3z M794.6,450l18.4-18.4h92.2V450H794.6z"/>
	</g>
	<g class="st8">
		<path class="st1" d="M94.1,220.3L48,275.5H29.6V73.1H48v174.8l36.9-46h18.4l36.9,46V73.1h18.4v202.4h-18.4L94.1,220.3z"/>
		<path class="st1" d="M306.3,257.1v18.4H177.2V73.1h129.1v18.4H195.6v165.6H306.3z M195.6,183.5l18.4-18.4h92.2v18.4H195.6z"/>
		<path class="st1" d="M453.9,275.5H324.8V73.1h18.4v184h110.7V275.5z"/>
		<path class="st1" d="M601.5,257.1L583,275.5h-92.2l-18.4-18.4V91.5l18.4-18.4H583l18.4,18.4v46H583v-36.8l-9.2-9.2H500l-9.2,9.2
			v147.2l9.2,9.2h73.8l9.2-9.2v-36.8h18.4V257.1z"/>
		<path class="st1" d="M749.1,257.1l-18.4,18.4h-92.2l-18.4-18.4V91.5l18.4-18.4h92.2l18.4,18.4V257.1z M638.4,100.7v147.2l9.2,9.2
			h73.8l9.2-9.2V100.7l-9.2-9.2h-73.8L638.4,100.7z"/>
		<path class="st1" d="M878.2,275.5V100.7l-36.9,46h-18.4l-36.9-46v174.8h-18.4V73.1H786l46.1,55.2l46.1-55.2h18.4v202.4H878.2z"/>
		<path class="st1" d="M1044.3,257.1v18.4H915.1V73.1h129.1v18.4H933.6v165.6H1044.3z M933.6,183.5l18.4-18.4h92.2v18.4H933.6z"/>
		<path class="st1" d="M84.9,367.2H29.6v-18.4h55.3V367.2z M158.7,367.2h-55.3v184H84.9v-184l18.4-18.4h55.3V367.2z"/>
		<path class="st1" d="M306.3,532.8l-18.4,18.4h-92.2l-18.4-18.4V367.2l18.4-18.4h92.2l18.4,18.4V532.8z M195.6,376.4v147.2l9.2,9.2
			h73.8l9.2-9.2V376.4l-9.2-9.2h-73.8L195.6,376.4z"/>
		<path class="st1" d="M527.7,367.2h-55.3v-18.4h55.3V367.2z M601.5,367.2h-55.3v184h-18.4v-184l18.4-18.4h55.3V367.2z"/>
		<path class="st1" d="M730.6,440.8l18.4,18.4v92h-18.4v-92h-92.2l-18.4-18.4v-92h18.4v92H730.6z M638.4,459.2v92h-18.4v-92H638.4z
			 M730.6,440.8v-92h18.4v92H730.6z"/>
		<path class="st1" d="M896.7,532.8v18.4H767.5V348.8h129.1v18.4H786v165.6H896.7z M786,459.2l18.4-18.4h92.2v18.4H786z"/>
	</g>
	<g class="st9">
		<path class="st1" d="M84.9,229.7l-46.1,55.2H20.4V82.5h18.4v174.8l36.9-46h18.4l36.9,46V82.5h18.4v202.4h-18.4L84.9,229.7z"/>
		<path class="st1" d="M297.1,266.5v18.4H168V82.5h129.1v18.4H186.4v165.6H297.1z M186.4,192.9l18.4-18.4h92.2v18.4H186.4z"/>
		<path class="st1" d="M444.7,284.9H315.6V82.5H334v184h110.7V284.9z"/>
		<path class="st1" d="M592.3,266.5l-18.4,18.4h-92.2l-18.4-18.4V100.9l18.4-18.4h92.2l18.4,18.4v46h-18.4v-36.8l-9.2-9.2h-73.8
			l-9.2,9.2v147.2l9.2,9.2h73.8l9.2-9.2v-36.8h18.4V266.5z"/>
		<path class="st1" d="M739.9,266.5l-18.4,18.4h-92.2l-18.4-18.4V100.9l18.4-18.4h92.2l18.4,18.4V266.5z M629.2,110.1v147.2l9.2,9.2
			h73.8l9.2-9.2V110.1l-9.2-9.2h-73.8L629.2,110.1z"/>
		<path class="st1" d="M869,284.9V110.1l-36.9,46h-18.4l-36.9-46v174.8h-18.4V82.5h18.4l46.1,55.2L869,82.5h18.4v202.4H869z"/>
		<path class="st1" d="M1035.1,266.5v18.4H905.9V82.5h129.1v18.4H924.4v165.6H1035.1z M924.4,192.9l18.4-18.4h92.2v18.4H924.4z"/>
		<path class="st1" d="M75.7,376.6H20.4v-18.4h55.3V376.6z M149.5,376.6H94.2v184H75.7v-184l18.4-18.4h55.3V376.6z"/>
		<path class="st1" d="M297.1,542.2l-18.4,18.4h-92.2L168,542.2V376.6l18.4-18.4h92.2l18.4,18.4V542.2z M186.4,385.8V533l9.2,9.2
			h73.8l9.2-9.2V385.8l-9.2-9.2h-73.8L186.4,385.8z"/>
		<path class="st1" d="M518.5,376.6h-55.3v-18.4h55.3V376.6z M592.3,376.6h-55.3v184h-18.4v-184l18.4-18.4h55.3V376.6z"/>
		<path class="st1" d="M721.4,450.2l18.4,18.4v92h-18.4v-92h-92.2l-18.4-18.4v-92h18.4v92H721.4z M629.2,468.6v92h-18.4v-92H629.2z
			 M721.4,450.2v-92h18.4v92H721.4z"/>
		<path class="st1" d="M887.5,542.2v18.4H758.3V358.2h129.1v18.4H776.8v165.6H887.5z M776.8,468.6l18.4-18.4h92.2v18.4H776.8z"/>
	</g>
	<g class="st10">
		<path class="st1" d="M74.9,239.7l-46.1,55.2H10.4V92.5h18.4v174.8l36.9-46h18.4l36.9,46V92.5h18.4v202.4h-18.4L74.9,239.7z"/>
		<path class="st1" d="M287.1,276.5v18.4H158V92.5h129.1v18.4H176.4v165.6H287.1z M176.4,202.9l18.4-18.4h92.2v18.4H176.4z"/>
		<path class="st1" d="M434.7,294.9H305.6V92.5H324v184h110.7V294.9z"/>
		<path class="st1" d="M582.3,276.5l-18.4,18.4h-92.2l-18.4-18.4V110.9l18.4-18.4h92.2l18.4,18.4v46h-18.4v-36.8l-9.2-9.2h-73.8
			l-9.2,9.2v147.2l9.2,9.2h73.8l9.2-9.2v-36.8h18.4V276.5z"/>
		<path class="st1" d="M729.9,276.5l-18.4,18.4h-92.2l-18.4-18.4V110.9l18.4-18.4h92.2l18.4,18.4V276.5z M619.2,120.1v147.2l9.2,9.2
			h73.8l9.2-9.2V120.1l-9.2-9.2h-73.8L619.2,120.1z"/>
		<path class="st1" d="M859,294.9V120.1l-36.9,46h-18.4l-36.9-46v174.8h-18.4V92.5h18.4l46.1,55.2L859,92.5h18.4v202.4H859z"/>
		<path class="st1" d="M1025.1,276.5v18.4H895.9V92.5h129.1v18.4H914.4v165.6H1025.1z M914.4,202.9l18.4-18.4h92.2v18.4H914.4z"/>
		<path class="st1" d="M65.7,386.6H10.4v-18.4h55.3V386.6z M139.5,386.6H84.2v184H65.7v-184l18.4-18.4h55.3V386.6z"/>
		<path class="st1" d="M287.1,552.2l-18.4,18.4h-92.2L158,552.2V386.6l18.4-18.4h92.2l18.4,18.4V552.2z M176.4,395.8V543l9.2,9.2
			h73.8l9.2-9.2V395.8l-9.2-9.2h-73.8L176.4,395.8z"/>
		<path class="st1" d="M508.5,386.6h-55.3v-18.4h55.3V386.6z M582.3,386.6h-55.3v184h-18.4v-184l18.4-18.4h55.3V386.6z"/>
		<path class="st1" d="M711.4,460.2l18.4,18.4v92h-18.4v-92h-92.2l-18.4-18.4v-92h18.4v92H711.4z M619.2,478.6v92h-18.4v-92H619.2z
			 M711.4,460.2v-92h18.4v92H711.4z"/>
		<path class="st1" d="M877.5,552.2v18.4H748.3V368.2h129.1v18.4H766.8v165.6H877.5z M766.8,478.6l18.4-18.4h92.2v18.4H766.8z"/>
	</g>
	<g class="st11">
		<path class="st1" d="M64.9,249.7l-46.1,55.2H0.4V102.5h18.4v174.8l36.9-46h18.4l36.9,46V102.5h18.4v202.4h-18.4L64.9,249.7z"/>
		<path class="st1" d="M277.1,286.5v18.4H148V102.5h129.1v18.4H166.4v165.6H277.1z M166.4,212.9l18.4-18.4h92.2v18.4H166.4z"/>
		<path class="st1" d="M424.7,304.9H295.6V102.5H314v184h110.7V304.9z"/>
		<path class="st1" d="M572.3,286.5l-18.4,18.4h-92.2l-18.4-18.4V120.9l18.4-18.4h92.2l18.4,18.4v46h-18.4v-36.8l-9.2-9.2h-73.8
			l-9.2,9.2v147.2l9.2,9.2h73.8l9.2-9.2v-36.8h18.4V286.5z"/>
		<path class="st1" d="M719.9,286.5l-18.4,18.4h-92.2l-18.4-18.4V120.9l18.4-18.4h92.2l18.4,18.4V286.5z M609.2,130.1v147.2l9.2,9.2
			h73.8l9.2-9.2V130.1l-9.2-9.2h-73.8L609.2,130.1z"/>
		<path class="st1" d="M849,304.9V130.1l-36.9,46h-18.4l-36.9-46v174.8h-18.4V102.5h18.4l46.1,55.2l46.1-55.2h18.4v202.4H849z"/>
		<path class="st1" d="M1015.1,286.5v18.4H885.9V102.5h129.1v18.4H904.4v165.6H1015.1z M904.4,212.9l18.4-18.4h92.2v18.4H904.4z"/>
		<path class="st1" d="M55.7,396.6H0.4v-18.4h55.3V396.6z M129.5,396.6H74.2v184H55.7v-184l18.4-18.4h55.3V396.6z"/>
		<path class="st1" d="M277.1,562.2l-18.4,18.4h-92.2L148,562.2V396.6l18.4-18.4h92.2l18.4,18.4V562.2z M166.4,405.8V553l9.2,9.2
			h73.8l9.2-9.2V405.8l-9.2-9.2h-73.8L166.4,405.8z"/>
		<path class="st1" d="M498.5,396.6h-55.3v-18.4h55.3V396.6z M572.3,396.6h-55.3v184h-18.4v-184l18.4-18.4h55.3V396.6z"/>
		<path class="st1" d="M701.4,470.2l18.4,18.4v92h-18.4v-92h-92.2l-18.4-18.4v-92h18.4v92H701.4z M609.2,488.6v92h-18.4v-92H609.2z
			 M701.4,470.2v-92h18.4v92H701.4z"/>
		<path class="st1" d="M867.5,562.2v18.4H738.3V378.2h129.1v18.4H756.8v165.6H867.5z M756.8,488.6l18.4-18.4h92.2v18.4H756.8z"/>
	</g>
	<g>
		<path class="st12" d="M166.9,147.5l-46.1,55.2h-18.4V0.2h18.4v174.8l36.9-46h18.4l36.9,46V0.2h18.4v202.4H213L166.9,147.5z"/>
		<path class="st12" d="M379.1,184.3v18.4H249.9V0.2h129.1v18.4H268.4v165.6H379.1z M268.4,110.7l18.4-18.4h92.2v18.4H268.4z"/>
		<path class="st12" d="M526.7,202.7H397.5V0.2H416v184h110.7V202.7z"/>
		<path class="st12" d="M674.3,184.3l-18.4,18.4h-92.2l-18.4-18.4V18.7l18.4-18.4h92.2l18.4,18.4v46h-18.4V27.9l-9.2-9.2h-73.8
			l-9.2,9.2v147.2l9.2,9.2h73.8l9.2-9.2v-36.8h18.4V184.3z"/>
		<path class="st12" d="M821.8,184.3l-18.4,18.4h-92.2l-18.4-18.4V18.7l18.4-18.4h92.2l18.4,18.4V184.3z M711.2,27.9v147.2l9.2,9.2
			h73.8l9.2-9.2V27.9l-9.2-9.2h-73.8L711.2,27.9z"/>
		<path class="st12" d="M951,202.7V27.9l-36.9,46h-18.4l-36.9-46v174.8h-18.4V0.2h18.4l46.1,55.2L951,0.2h18.4v202.4H951z"/>
		<path class="st12" d="M1117,184.3v18.4H987.9V0.2H1117v18.4h-110.7v165.6H1117z M1006.3,110.7l18.4-18.4h92.2v18.4H1006.3z"/>
		<path class="st12" d="M157.7,294.4h-55.3V276h55.3V294.4z M231.5,294.4h-55.3v184h-18.4v-184l18.4-18.4h55.3V294.4z"/>
		<path class="st12" d="M379.1,460l-18.4,18.4h-92.2L249.9,460V294.4l18.4-18.4h92.2l18.4,18.4V460z M268.4,303.6v147.2l9.2,9.2
			h73.8l9.2-9.2V303.6l-9.2-9.2h-73.8L268.4,303.6z"/>
		<path class="st12" d="M600.5,294.4h-55.3V276h55.3V294.4z M674.3,294.4h-55.3v184h-18.4v-184l18.4-18.4h55.3V294.4z"/>
		<path class="st12" d="M803.4,368l18.4,18.4v92h-18.4v-92h-92.2L692.7,368v-92h18.4v92H803.4z M711.2,386.4v92h-18.4v-92H711.2z
			 M803.4,368v-92h18.4v92H803.4z"/>
		<path class="st12" d="M969.4,460v18.4H840.3V276h129.1v18.4H858.7V460H969.4z M858.7,386.4l18.4-18.4h92.2v18.4H858.7z"/>
	</g>
</g>
<g>
	<g class="st7">
		<linearGradient id="SVGID_1_" gradientUnits="userSpaceOnUse" x1="590.5699" y1="1129.0726" x2="590.5699" y2="651.6698">
			<stop  offset="0" style="stop-color:#2E50F7"/>
			<stop  offset="1" style="stop-color:#FC2A00"/>
		</linearGradient>
		<path class="st13" d="M1005.4,652.4l18,18v35.7h-16.9v-26.9V679l-0.2-0.2l-9.2-9.2l-0.2-0.2h-0.3h-73.8h-0.3l-0.2,0.2l-9.2,9.2
			l-0.2,0.2v0.3v55.2v0.3l0.2,0.2l9.2,9.2l0.2,0.2h0.3h82.7l18,18v73l-18,18h-91.6l-18-18v-35.7h16.9v26.9v0.3l0.2,0.2l9.2,9.2
			l0.2,0.2h0.3h73.8h0.3l0.2-0.2l9.2-9.2l0.2-0.2v-0.3v-55.2V771l-0.2-0.2l-9.2-9.2l-0.2-0.2h-0.3h-82.7l-18-18v-73l18-18H1005.4
			 M857.8,652.4l18,18v73l-18,18h-64.3h-1.8l1.3,1.3l73.8,73.6l0.2,0.2h0.3h8.5v16.9h-17.4l-91.5-91.3l17.7-17.7h64.3h0.3l0.2-0.2
			l9.2-9.2l0.2-0.2v-0.3v-55.2V679l-0.2-0.2l-9.2-9.2l-0.2-0.2h-0.3h-83h-0.8v0.8v92v91.3h-16.9V652.4H857.8 M728.2,652.4v16.9
			H618.2h-0.8v0.8v92v73.6v0.8h0.8h109.9v16.9H600.5V652.4H728.2 M580.6,652.4v200.9h-16.9V679.3v-2.1l-1.3,1.7l-36.7,45.7h-17.7
			l-36.7-45.7l-1.3-1.7v2.1v174.1H453V652.4h17.3l45.9,54.9l0.6,0.7l0.6-0.7l45.9-54.9H580.6 M378.1,652.4l54.9,54.8v72.5h-16.9
			v-63.7v-0.3l-0.2-0.2l-46.1-46l-0.5-0.5l-0.5,0.5l-46.1,46l-0.2,0.2v0.3v64.4v0.8h0.8H415l18,18v54.1h-16.9v-54.5v-0.8h-0.8h-91.9
			l-18-18v-73l54.9-54.8H378.1 M267.4,652.4l18,18v35.7h-16.9v-26.9V679l-0.2-0.2l-9.2-9.2l-0.2-0.2h-0.3h-73.8h-0.3l-0.2,0.2
			l-9.2,9.2l-0.2,0.2v0.3v147.2v0.3l0.2,0.2l9.2,9.2l0.2,0.2h0.3h73.8h0.3l0.2-0.2l9.2-9.2l0.2-0.2v-0.3v-64.4v-0.8h-0.8h-54.6
			v-16.9h54.3l18,18v73l-18,18h-91.6l-18-18v-165l18-18H267.4 M728.2,744.4v16.9H620.1l16.9-16.9H728.2 M322.3,799.6v53.7h-16.9
			v-53.7H322.3 M1023.4,927.4v16.9h-73h-0.8v0.8v73.3l-18,18h-18.1h-0.8v0.8v91.3h-16.9V927.4h16.9v91.3v0.8h0.8h18.4h0.8v-0.8
			v-73.3l18-18H1023.4 M875.8,927.4v200.9h-16.9v-36.1v-0.3l-0.2-0.2l-92.2-101.2l-1.3-1.4v1.9v137.3h-16.9V927.4h16.9v36.1v0.3
			l0.2,0.2l92.2,101.2l1.3,1.4v-1.9V927.4H875.8 M673.3,927.4l54.9,54.8v72.5h-16.9v-63.7v-0.3l-0.2-0.2l-46.1-46l-0.5-0.5l-0.5,0.5
			l-46.1,46l-0.2,0.2v0.3v64.4v0.8h0.8h91.9l18,18v54.1h-16.9v-54.5v-0.8h-0.8h-91.9l-18-18v-73l54.9-54.8H673.3 M562.6,927.4l18,18
			v54.6l-16.9,16.9v-62.6V954l-0.2-0.2l-9.2-9.2l-0.2-0.2h-0.3h-83h-0.8v0.8v92v73.6v0.8h0.8h83h0.3l0.2-0.2l9.2-9.2l0.2-0.2v-0.3
			v-64.4v-0.8h-0.8h-90.4l16.9-16.9h73.2l18,18v73l-18,18H453V927.4H562.6 M1005.4,1019.4l18,18v90.9h-16.9v-91.3v-0.8h-0.8h-54.6
			v-16.9H1005.4 M617.5,1074.6v53.7h-16.9v-53.7H617.5 M1005.7,651.7h-92.2L895,670.1v73.6l18.4,18.4h83l9.2,9.2v55.2l-9.2,9.2
			h-73.8l-9.2-9.2v-27.6H895v36.8l18.4,18.4h92.2l18.4-18.4v-73.6l-18.4-18.4h-83l-9.2-9.2v-55.2l9.2-9.2h73.8l9.2,9.2v27.6h18.4
			v-36.8L1005.7,651.7L1005.7,651.7z M858.1,651.7H747.4v202.4h18.4v-92v-92h83l9.2,9.2v55.2l-9.2,9.2h-64.6l-18.4,18.4l92.2,92
			h18.4v-18.4h-9.2l-73.8-73.6h64.6l18.4-18.4v-73.6L858.1,651.7L858.1,651.7z M728.9,651.7H599.8v202.4h129.1v-18.4H618.2v-73.6
			v-92h110.7V651.7L728.9,651.7z M581.3,651.7h-18.4l-46.1,55.2l-46.1-55.2h-18.4v202.4h18.4V679.3l36.9,46H526l36.9-46v174.8h18.4
			V651.7L581.3,651.7z M378.4,651.7H360l-55.3,55.2v73.6l18.4,18.4h92.2v55.2h18.4v-55.2l-18.4-18.4h-92.2v-64.4l46.1-46l46.1,46
			v64.4h18.4v-73.6L378.4,651.7L378.4,651.7z M267.7,651.7h-92.2L157,670.1v165.6l18.4,18.4h92.2l18.4-18.4v-73.6l-18.4-18.4h-55.3
			v18.4h55.3v64.4l-9.2,9.2h-73.8l-9.2-9.2V679.3l9.2-9.2h73.8l9.2,9.2v27.6h18.4v-36.8L267.7,651.7L267.7,651.7z M728.9,743.7
			h-92.2l-18.4,18.4h110.7V743.7L728.9,743.7z M323.1,798.9h-18.4v55.2h18.4V798.9L323.1,798.9z M1024.1,926.7h-73.8l-18.4,18.4
			v73.6h-18.4v-92H895v202.4h18.4v-92h18.4l18.4-18.4v-73.6h73.8V926.7L1024.1,926.7z M876.5,926.7h-18.4v138l-92.2-101.2v-36.8
			h-18.4v202.4h18.4v-138l92.2,101.2v36.8h18.4V926.7L876.5,926.7z M673.6,926.7h-18.4l-55.3,55.2v73.6l18.4,18.4h92.2v55.2h18.4
			v-55.2l-18.4-18.4h-92.2v-64.4l46.1-46l46.1,46v64.4h18.4v-73.6L673.6,926.7L673.6,926.7z M562.9,926.7H452.2v202.4h110.7
			l18.4-18.4v-73.6l-18.4-18.4h-73.8l-18.4,18.4h92.2v64.4l-9.2,9.2h-83V945.1h83l9.2,9.2v64.4l18.4-18.4v-55.2L562.9,926.7
			L562.9,926.7z M1005.7,1018.7h-55.3v18.4h55.3v92h18.4v-92L1005.7,1018.7L1005.7,1018.7z M618.2,1073.9h-18.4v55.2h18.4V1073.9
			L618.2,1073.9z"/>
	</g>
	<g class="st14">
		<linearGradient id="SVGID_2_" gradientUnits="userSpaceOnUse" x1="600.5699" y1="1119.0726" x2="600.5699" y2="641.6698">
			<stop  offset="0" style="stop-color:#2E50F7"/>
			<stop  offset="1" style="stop-color:#FC2A00"/>
		</linearGradient>
		<path class="st15" d="M1015.4,642.4l18,18v35.7h-16.9v-26.9V669l-0.2-0.2l-9.2-9.2l-0.2-0.2h-0.3h-73.8h-0.3l-0.2,0.2l-9.2,9.2
			l-0.2,0.2v0.3v55.2v0.3l0.2,0.2l9.2,9.2l0.2,0.2h0.3h82.7l18,18v73l-18,18h-91.6l-18-18v-35.7h16.9v26.9v0.3l0.2,0.2l9.2,9.2
			l0.2,0.2h0.3h73.8h0.3l0.2-0.2l9.2-9.2l0.2-0.2v-0.3v-55.2V761l-0.2-0.2l-9.2-9.2l-0.2-0.2h-0.3h-82.7l-18-18v-73l18-18H1015.4
			 M867.8,642.4l18,18v73l-18,18h-64.3h-1.8l1.3,1.3l73.8,73.6l0.2,0.2h0.3h8.5v16.9h-17.4l-91.5-91.3l17.7-17.7h64.3h0.3l0.2-0.2
			l9.2-9.2l0.2-0.2v-0.3v-55.2V669l-0.2-0.2l-9.2-9.2l-0.2-0.2h-0.3h-83h-0.8v0.8v92v91.3h-16.9V642.4H867.8 M738.2,642.4v16.9
			H628.2h-0.8v0.8v92v73.6v0.8h0.8h109.9v16.9H610.5V642.4H738.2 M590.6,642.4v200.9h-16.9V669.3v-2.1l-1.3,1.7l-36.7,45.7h-17.7
			l-36.7-45.7l-1.3-1.7v2.1v174.1H463V642.4h17.3l45.9,54.9l0.6,0.7l0.6-0.7l45.9-54.9H590.6 M388.1,642.4l54.9,54.8v72.5h-16.9
			v-63.7v-0.3l-0.2-0.2l-46.1-46l-0.5-0.5l-0.5,0.5l-46.1,46l-0.2,0.2v0.3v64.4v0.8h0.8H425l18,18v54.1h-16.9v-54.5v-0.8h-0.8h-91.9
			l-18-18v-73l54.9-54.8H388.1 M277.4,642.4l18,18v35.7h-16.9v-26.9V669l-0.2-0.2l-9.2-9.2l-0.2-0.2h-0.3h-73.8h-0.3l-0.2,0.2
			l-9.2,9.2l-0.2,0.2v0.3v147.2v0.3l0.2,0.2l9.2,9.2l0.2,0.2h0.3h73.8h0.3l0.2-0.2l9.2-9.2l0.2-0.2v-0.3v-64.4v-0.8h-0.8h-54.6
			v-16.9h54.3l18,18v73l-18,18h-91.6l-18-18v-165l18-18H277.4 M738.2,734.4v16.9H630.1l16.9-16.9H738.2 M332.3,789.6v53.7h-16.9
			v-53.7H332.3 M1033.4,917.4v16.9h-73h-0.8v0.8v73.3l-18,18h-18.1h-0.8v0.8v91.3h-16.9V917.4h16.9v91.3v0.8h0.8h18.4h0.8v-0.8
			v-73.3l18-18H1033.4 M885.8,917.4v200.9h-16.9v-36.1v-0.3l-0.2-0.2l-92.2-101.2l-1.3-1.4v1.9v137.3h-16.9V917.4h16.9v36.1v0.3
			l0.2,0.2l92.2,101.2l1.3,1.4v-1.9V917.4H885.8 M683.3,917.4l54.9,54.8v72.5h-16.9v-63.7v-0.3l-0.2-0.2l-46.1-46l-0.5-0.5l-0.5,0.5
			l-46.1,46l-0.2,0.2v0.3v64.4v0.8h0.8h91.9l18,18v54.1h-16.9v-54.5v-0.8h-0.8h-91.9l-18-18v-73l54.9-54.8H683.3 M572.6,917.4l18,18
			V990l-16.9,16.9v-62.6V944l-0.2-0.2l-9.2-9.2l-0.2-0.2h-0.3h-83h-0.8v0.8v92v73.6v0.8h0.8h83h0.3l0.2-0.2l9.2-9.2l0.2-0.2v-0.3
			v-64.4v-0.8h-0.8h-90.4l16.9-16.9h73.2l18,18v73l-18,18H463V917.4H572.6 M1015.4,1009.4l18,18v90.9h-16.9v-91.3v-0.8h-0.8h-54.6
			v-16.9H1015.4 M627.5,1064.6v53.7h-16.9v-53.7H627.5 M1015.7,641.7h-92.2L905,660.1v73.6l18.4,18.4h83l9.2,9.2v55.2l-9.2,9.2
			h-73.8l-9.2-9.2v-27.6H905v36.8l18.4,18.4h92.2l18.4-18.4v-73.6l-18.4-18.4h-83l-9.2-9.2v-55.2l9.2-9.2h73.8l9.2,9.2v27.6h18.4
			v-36.8L1015.7,641.7L1015.7,641.7z M868.1,641.7H757.4v202.4h18.4v-92v-92h83l9.2,9.2v55.2l-9.2,9.2h-64.6l-18.4,18.4l92.2,92
			h18.4v-18.4h-9.2l-73.8-73.6h64.6l18.4-18.4v-73.6L868.1,641.7L868.1,641.7z M738.9,641.7H609.8v202.4h129.1v-18.4H628.2v-73.6
			v-92h110.7V641.7L738.9,641.7z M591.3,641.7h-18.4l-46.1,55.2l-46.1-55.2h-18.4v202.4h18.4V669.3l36.9,46H536l36.9-46v174.8h18.4
			V641.7L591.3,641.7z M388.4,641.7H370l-55.3,55.2v73.6l18.4,18.4h92.2v55.2h18.4v-55.2l-18.4-18.4h-92.2v-64.4l46.1-46l46.1,46
			v64.4h18.4v-73.6L388.4,641.7L388.4,641.7z M277.7,641.7h-92.2L167,660.1v165.6l18.4,18.4h92.2l18.4-18.4v-73.6l-18.4-18.4h-55.3
			v18.4h55.3v64.4l-9.2,9.2h-73.8l-9.2-9.2V669.3l9.2-9.2h73.8l9.2,9.2v27.6h18.4v-36.8L277.7,641.7L277.7,641.7z M738.9,733.7
			h-92.2l-18.4,18.4h110.7V733.7L738.9,733.7z M333.1,788.9h-18.4v55.2h18.4V788.9L333.1,788.9z M1034.1,916.7h-73.8l-18.4,18.4
			v73.6h-18.4v-92H905v202.4h18.4v-92h18.4l18.4-18.4v-73.6h73.8V916.7L1034.1,916.7z M886.5,916.7h-18.4v138l-92.2-101.2v-36.8
			h-18.4v202.4h18.4v-138l92.2,101.2v36.8h18.4V916.7L886.5,916.7z M683.6,916.7h-18.4l-55.3,55.2v73.6l18.4,18.4h92.2v55.2h18.4
			v-55.2l-18.4-18.4h-92.2v-64.4l46.1-46l46.1,46v64.4h18.4v-73.6L683.6,916.7L683.6,916.7z M572.9,916.7H462.2v202.4h110.7
			l18.4-18.4v-73.6l-18.4-18.4h-73.8l-18.4,18.4h92.2v64.4l-9.2,9.2h-83V935.1h83l9.2,9.2v64.4l18.4-18.4v-55.2L572.9,916.7
			L572.9,916.7z M1015.7,1008.7h-55.3v18.4h55.3v92h18.4v-92L1015.7,1008.7L1015.7,1008.7z M628.2,1063.9h-18.4v55.2h18.4V1063.9
			L628.2,1063.9z"/>
	</g>
	<g class="st4">
		<linearGradient id="SVGID_3_" gradientUnits="userSpaceOnUse" x1="610.5699" y1="1109.0726" x2="610.5699" y2="631.6698">
			<stop  offset="0" style="stop-color:#2E50F7"/>
			<stop  offset="1" style="stop-color:#FC2A00"/>
		</linearGradient>
		<path class="st16" d="M1025.4,632.4l18,18v35.7h-16.9v-26.9V659l-0.2-0.2l-9.2-9.2l-0.2-0.2h-0.3h-73.8h-0.3l-0.2,0.2l-9.2,9.2
			l-0.2,0.2v0.3v55.2v0.3l0.2,0.2l9.2,9.2l0.2,0.2h0.3h82.7l18,18v73l-18,18h-91.6l-18-18v-35.7h16.9v26.9v0.3l0.2,0.2l9.2,9.2
			l0.2,0.2h0.3h73.8h0.3l0.2-0.2l9.2-9.2l0.2-0.2v-0.3v-55.2V751l-0.2-0.2l-9.2-9.2l-0.2-0.2h-0.3h-82.7l-18-18v-73l18-18H1025.4
			 M877.8,632.4l18,18v73l-18,18h-64.3h-1.8l1.3,1.3l73.8,73.6l0.2,0.2h0.3h8.5v16.9h-17.4l-91.5-91.3l17.7-17.7h64.3h0.3l0.2-0.2
			l9.2-9.2l0.2-0.2v-0.3v-55.2V659l-0.2-0.2l-9.2-9.2l-0.2-0.2h-0.3h-83h-0.8v0.8v92v91.3h-16.9V632.4H877.8 M748.2,632.4v16.9
			H638.2h-0.8v0.8v92v73.6v0.8h0.8h109.9v16.9H620.5V632.4H748.2 M600.6,632.4v200.9h-16.9V659.3v-2.1l-1.3,1.7l-36.7,45.7h-17.7
			l-36.7-45.7l-1.3-1.7v2.1v174.1H473V632.4h17.3l45.9,54.9l0.6,0.7l0.6-0.7l45.9-54.9H600.6 M398.1,632.4l54.9,54.8v72.5h-16.9
			v-63.7v-0.3l-0.2-0.2l-46.1-46l-0.5-0.5l-0.5,0.5l-46.1,46l-0.2,0.2v0.3v64.4v0.8h0.8H435l18,18v54.1h-16.9v-54.5v-0.8h-0.8h-91.9
			l-18-18v-73l54.9-54.8H398.1 M287.4,632.4l18,18v35.7h-16.9v-26.9V659l-0.2-0.2l-9.2-9.2l-0.2-0.2h-0.3h-73.8h-0.3l-0.2,0.2
			l-9.2,9.2l-0.2,0.2v0.3v147.2v0.3l0.2,0.2l9.2,9.2l0.2,0.2h0.3h73.8h0.3l0.2-0.2l9.2-9.2l0.2-0.2v-0.3v-64.4v-0.8h-0.8h-54.6
			v-16.9h54.3l18,18v73l-18,18h-91.6l-18-18v-165l18-18H287.4 M748.2,724.4v16.9H640.1l16.9-16.9H748.2 M342.3,779.6v53.7h-16.9
			v-53.7H342.3 M1043.4,907.4v16.9h-73h-0.8v0.8v73.3l-18,18h-18.1h-0.8v0.8v91.3h-16.9V907.4h16.9v91.3v0.8h0.8h18.4h0.8v-0.8
			v-73.3l18-18H1043.4 M895.8,907.4v200.9h-16.9v-36.1v-0.3l-0.2-0.2l-92.2-101.2l-1.3-1.4v1.9v137.3h-16.9V907.4h16.9v36.1v0.3
			l0.2,0.2l92.2,101.2l1.3,1.4v-1.9V907.4H895.8 M693.3,907.4l54.9,54.8v72.5h-16.9v-63.7v-0.3l-0.2-0.2l-46.1-46l-0.5-0.5l-0.5,0.5
			l-46.1,46l-0.2,0.2v0.3v64.4v0.8h0.8h91.9l18,18v54.1h-16.9v-54.5v-0.8h-0.8h-91.9l-18-18v-73l54.9-54.8H693.3 M582.6,907.4l18,18
			V980l-16.9,16.9v-62.6V934l-0.2-0.2l-9.2-9.2l-0.2-0.2h-0.3h-83h-0.8v0.8v92v73.6v0.8h0.8h83h0.3l0.2-0.2l9.2-9.2l0.2-0.2v-0.3
			v-64.4v-0.8h-0.8h-90.4l16.9-16.9h73.2l18,18v73l-18,18H473V907.4H582.6 M1025.4,999.4l18,18v90.9h-16.9v-91.3v-0.8h-0.8h-54.6
			v-16.9H1025.4 M637.5,1054.6v53.7h-16.9v-53.7H637.5 M1025.7,631.7h-92.2L915,650.1v73.6l18.4,18.4h83l9.2,9.2v55.2l-9.2,9.2
			h-73.8l-9.2-9.2v-27.6H915v36.8l18.4,18.4h92.2l18.4-18.4v-73.6l-18.4-18.4h-83l-9.2-9.2v-55.2l9.2-9.2h73.8l9.2,9.2v27.6h18.4
			v-36.8L1025.7,631.7L1025.7,631.7z M878.1,631.7H767.4v202.4h18.4v-92v-92h83l9.2,9.2v55.2l-9.2,9.2h-64.6l-18.4,18.4l92.2,92
			h18.4v-18.4h-9.2l-73.8-73.6h64.6l18.4-18.4v-73.6L878.1,631.7L878.1,631.7z M748.9,631.7H619.8v202.4h129.1v-18.4H638.2v-73.6
			v-92h110.7V631.7L748.9,631.7z M601.3,631.7h-18.4l-46.1,55.2l-46.1-55.2h-18.4v202.4h18.4V659.3l36.9,46H546l36.9-46v174.8h18.4
			V631.7L601.3,631.7z M398.4,631.7H380l-55.3,55.2v73.6l18.4,18.4h92.2v55.2h18.4v-55.2l-18.4-18.4h-92.2v-64.4l46.1-46l46.1,46
			v64.4h18.4v-73.6L398.4,631.7L398.4,631.7z M287.7,631.7h-92.2L177,650.1v165.6l18.4,18.4h92.2l18.4-18.4v-73.6l-18.4-18.4h-55.3
			v18.4h55.3v64.4l-9.2,9.2h-73.8l-9.2-9.2V659.3l9.2-9.2h73.8l9.2,9.2v27.6h18.4v-36.8L287.7,631.7L287.7,631.7z M748.9,723.7
			h-92.2l-18.4,18.4h110.7V723.7L748.9,723.7z M343.1,778.9h-18.4v55.2h18.4V778.9L343.1,778.9z M1044.1,906.7h-73.8l-18.4,18.4
			v73.6h-18.4v-92H915v202.4h18.4v-92h18.4l18.4-18.4v-73.6h73.8V906.7L1044.1,906.7z M896.5,906.7h-18.4v138l-92.2-101.2v-36.8
			h-18.4v202.4h18.4v-138l92.2,101.2v36.8h18.4V906.7L896.5,906.7z M693.6,906.7h-18.4l-55.3,55.2v73.6l18.4,18.4h92.2v55.2h18.4
			v-55.2l-18.4-18.4h-92.2v-64.4l46.1-46l46.1,46v64.4h18.4v-73.6L693.6,906.7L693.6,906.7z M582.9,906.7H472.2v202.4h110.7
			l18.4-18.4v-73.6l-18.4-18.4h-73.8l-18.4,18.4h92.2v64.4l-9.2,9.2h-83V925.1h83l9.2,9.2v64.4l18.4-18.4v-55.2L582.9,906.7
			L582.9,906.7z M1025.7,998.7h-55.3v18.4h55.3v92h18.4v-92L1025.7,998.7L1025.7,998.7z M638.2,1053.9h-18.4v55.2h18.4V1053.9
			L638.2,1053.9z"/>
	</g>
	<g class="st2">
		<linearGradient id="SVGID_4_" gradientUnits="userSpaceOnUse" x1="619.5699" y1="1100.0726" x2="619.5699" y2="622.6698">
			<stop  offset="0" style="stop-color:#2E50F7"/>
			<stop  offset="1" style="stop-color:#FC2A00"/>
		</linearGradient>
		<path class="st17" d="M1034.4,623.4l18,18v35.7h-16.9v-26.9V650l-0.2-0.2l-9.2-9.2l-0.2-0.2h-0.3h-73.8h-0.3l-0.2,0.2l-9.2,9.2
			l-0.2,0.2v0.3v55.2v0.3l0.2,0.2l9.2,9.2l0.2,0.2h0.3h82.7l18,18v73l-18,18h-91.6l-18-18v-35.7h16.9v26.9v0.3l0.2,0.2l9.2,9.2
			l0.2,0.2h0.3h73.8h0.3l0.2-0.2l9.2-9.2l0.2-0.2v-0.3v-55.2V742l-0.2-0.2l-9.2-9.2l-0.2-0.2h-0.3h-82.7l-18-18v-73l18-18H1034.4
			 M886.8,623.4l18,18v73l-18,18h-64.3h-1.8l1.3,1.3l73.8,73.6l0.2,0.2h0.3h8.5v16.9h-17.4l-91.5-91.3l17.7-17.7h64.3h0.3l0.2-0.2
			l9.2-9.2l0.2-0.2v-0.3v-55.2V650l-0.2-0.2l-9.2-9.2l-0.2-0.2h-0.3h-83h-0.8v0.8v92v91.3h-16.9V623.4H886.8 M757.2,623.4v16.9
			H647.2h-0.8v0.8v92v73.6v0.8h0.8h109.9v16.9H629.5V623.4H757.2 M609.6,623.4v200.9h-16.9V650.3v-2.1l-1.3,1.7l-36.7,45.7h-17.7
			l-36.7-45.7l-1.3-1.7v2.1v174.1H482V623.4h17.3l45.9,54.9l0.6,0.7l0.6-0.7l45.9-54.9H609.6 M407.1,623.4l54.9,54.8v72.5h-16.9
			v-63.7v-0.3l-0.2-0.2l-46.1-46l-0.5-0.5l-0.5,0.5l-46.1,46l-0.2,0.2v0.3v64.4v0.8h0.8H444l18,18v54.1h-16.9v-54.5v-0.8h-0.8h-91.9
			l-18-18v-73l54.9-54.8H407.1 M296.4,623.4l18,18v35.7h-16.9v-26.9V650l-0.2-0.2l-9.2-9.2l-0.2-0.2h-0.3h-73.8h-0.3l-0.2,0.2
			l-9.2,9.2l-0.2,0.2v0.3v147.2v0.3l0.2,0.2l9.2,9.2l0.2,0.2h0.3h73.8h0.3l0.2-0.2l9.2-9.2l0.2-0.2v-0.3v-64.4v-0.8h-0.8h-54.6
			v-16.9h54.3l18,18v73l-18,18h-91.6l-18-18v-165l18-18H296.4 M757.2,715.4v16.9H649.1l16.9-16.9H757.2 M351.3,770.6v53.7h-16.9
			v-53.7H351.3 M1052.4,898.4v16.9h-73h-0.8v0.8v73.3l-18,18h-18.1h-0.8v0.8v91.3h-16.9V898.4h16.9v91.3v0.8h0.8h18.4h0.8v-0.8
			v-73.3l18-18H1052.4 M904.8,898.4v200.9h-16.9v-36.1v-0.3l-0.2-0.2l-92.2-101.2l-1.3-1.4v1.9v137.3h-16.9V898.4h16.9v36.1v0.3
			l0.2,0.2l92.2,101.2l1.3,1.4v-1.9V898.4H904.8 M702.3,898.4l54.9,54.8v72.5h-16.9v-63.7v-0.3l-0.2-0.2l-46.1-46l-0.5-0.5l-0.5,0.5
			l-46.1,46l-0.2,0.2v0.3v64.4v0.8h0.8h91.9l18,18v54.1h-16.9v-54.5v-0.8h-0.8h-91.9l-18-18v-73l54.9-54.8H702.3 M591.6,898.4l18,18
			V971l-16.9,16.9v-62.6V925l-0.2-0.2l-9.2-9.2l-0.2-0.2h-0.3h-83h-0.8v0.8v92v73.6v0.8h0.8h83h0.3l0.2-0.2l9.2-9.2l0.2-0.2v-0.3
			v-64.4v-0.8h-0.8h-90.4l16.9-16.9h73.2l18,18v73l-18,18H482V898.4H591.6 M1034.4,990.4l18,18v90.9h-16.9v-91.3v-0.8h-0.8h-54.6
			v-16.9H1034.4 M646.5,1045.6v53.7h-16.9v-53.7H646.5 M1034.7,622.7h-92.2L924,641.1v73.6l18.4,18.4h83l9.2,9.2v55.2l-9.2,9.2
			h-73.8l-9.2-9.2v-27.6H924v36.8l18.4,18.4h92.2l18.4-18.4v-73.6l-18.4-18.4h-83l-9.2-9.2v-55.2l9.2-9.2h73.8l9.2,9.2v27.6h18.4
			v-36.8L1034.7,622.7L1034.7,622.7z M887.1,622.7H776.4v202.4h18.4v-92v-92h83l9.2,9.2v55.2l-9.2,9.2h-64.6l-18.4,18.4l92.2,92
			h18.4v-18.4h-9.2l-73.8-73.6h64.6l18.4-18.4v-73.6L887.1,622.7L887.1,622.7z M757.9,622.7H628.8v202.4h129.1v-18.4H647.2v-73.6
			v-92h110.7V622.7L757.9,622.7z M610.3,622.7h-18.4l-46.1,55.2l-46.1-55.2h-18.4v202.4h18.4V650.3l36.9,46H555l36.9-46v174.8h18.4
			V622.7L610.3,622.7z M407.4,622.7H389l-55.3,55.2v73.6l18.4,18.4h92.2v55.2h18.4v-55.2l-18.4-18.4h-92.2v-64.4l46.1-46l46.1,46
			v64.4h18.4v-73.6L407.4,622.7L407.4,622.7z M296.7,622.7h-92.2L186,641.1v165.6l18.4,18.4h92.2l18.4-18.4v-73.6l-18.4-18.4h-55.3
			v18.4h55.3v64.4l-9.2,9.2h-73.8l-9.2-9.2V650.3l9.2-9.2h73.8l9.2,9.2v27.6h18.4v-36.8L296.7,622.7L296.7,622.7z M757.9,714.7
			h-92.2l-18.4,18.4h110.7V714.7L757.9,714.7z M352.1,769.9h-18.4v55.2h18.4V769.9L352.1,769.9z M1053.1,897.7h-73.8l-18.4,18.4
			v73.6h-18.4v-92H924v202.4h18.4v-92h18.4l18.4-18.4v-73.6h73.8V897.7L1053.1,897.7z M905.5,897.7h-18.4v138l-92.2-101.2v-36.8
			h-18.4v202.4h18.4v-138l92.2,101.2v36.8h18.4V897.7L905.5,897.7z M702.6,897.7h-18.4l-55.3,55.2v73.6l18.4,18.4h92.2v55.2h18.4
			v-55.2l-18.4-18.4h-92.2v-64.4l46.1-46l46.1,46v64.4h18.4v-73.6L702.6,897.7L702.6,897.7z M591.9,897.7H481.2v202.4h110.7
			l18.4-18.4v-73.6l-18.4-18.4h-73.8l-18.4,18.4h92.2v64.4l-9.2,9.2h-83V916.1h83l9.2,9.2v64.4l18.4-18.4v-55.2L591.9,897.7
			L591.9,897.7z M1034.7,989.7h-55.3v18.4h55.3v92h18.4v-92L1034.7,989.7L1034.7,989.7z M647.2,1044.9h-18.4v55.2h18.4V1044.9
			L647.2,1044.9z"/>
	</g>
	<g class="st18">
		<linearGradient id="SVGID_5_" gradientUnits="userSpaceOnUse" x1="628.5699" y1="1091.0726" x2="628.5699" y2="613.6698">
			<stop  offset="0" style="stop-color:#2E50F7"/>
			<stop  offset="1" style="stop-color:#FC2A00"/>
		</linearGradient>
		<path class="st19" d="M1043.4,614.4l18,18v35.7h-16.9v-26.9V641l-0.2-0.2l-9.2-9.2l-0.2-0.2h-0.3h-73.8h-0.3l-0.2,0.2l-9.2,9.2
			l-0.2,0.2v0.3v55.2v0.3l0.2,0.2l9.2,9.2l0.2,0.2h0.3h82.7l18,18v73l-18,18h-91.6l-18-18v-35.7h16.9v26.9v0.3l0.2,0.2l9.2,9.2
			l0.2,0.2h0.3h73.8h0.3l0.2-0.2l9.2-9.2l0.2-0.2v-0.3v-55.2V733l-0.2-0.2l-9.2-9.2l-0.2-0.2h-0.3h-82.7l-18-18v-73l18-18H1043.4
			 M895.8,614.4l18,18v73l-18,18h-64.3h-1.8l1.3,1.3l73.8,73.6l0.2,0.2h0.3h8.5v16.9h-17.4l-91.5-91.3l17.7-17.7h64.3h0.3l0.2-0.2
			l9.2-9.2l0.2-0.2v-0.3v-55.2V641l-0.2-0.2l-9.2-9.2l-0.2-0.2h-0.3h-83h-0.8v0.8v92v91.3h-16.9V614.4H895.8 M766.2,614.4v16.9
			H656.2h-0.8v0.8v92v73.6v0.8h0.8h109.9v16.9H638.5V614.4H766.2 M618.6,614.4v200.9h-16.9V641.3v-2.1l-1.3,1.7l-36.7,45.7h-17.7
			l-36.7-45.7l-1.3-1.7v2.1v174.1H491V614.4h17.3l45.9,54.9l0.6,0.7l0.6-0.7l45.9-54.9H618.6 M416.1,614.4l54.9,54.8v72.5h-16.9
			v-63.7v-0.3l-0.2-0.2l-46.1-46l-0.5-0.5l-0.5,0.5l-46.1,46l-0.2,0.2v0.3v64.4v0.8h0.8H453l18,18v54.1h-16.9v-54.5v-0.8h-0.8h-91.9
			l-18-18v-73l54.9-54.8H416.1 M305.4,614.4l18,18v35.7h-16.9v-26.9V641l-0.2-0.2l-9.2-9.2l-0.2-0.2h-0.3h-73.8h-0.3l-0.2,0.2
			l-9.2,9.2l-0.2,0.2v0.3v147.2v0.3l0.2,0.2l9.2,9.2l0.2,0.2h0.3h73.8h0.3l0.2-0.2l9.2-9.2l0.2-0.2v-0.3v-64.4v-0.8h-0.8h-54.6
			v-16.9h54.3l18,18v73l-18,18h-91.6l-18-18v-165l18-18H305.4 M766.2,706.4v16.9H658.1l16.9-16.9H766.2 M360.3,761.6v53.7h-16.9
			v-53.7H360.3 M1061.4,889.4v16.9h-73h-0.8v0.8v73.3l-18,18h-18.1h-0.8v0.8v91.3h-16.9V889.4h16.9v91.3v0.8h0.8h18.4h0.8v-0.8
			v-73.3l18-18H1061.4 M913.8,889.4v200.9h-16.9v-36.1v-0.3l-0.2-0.2l-92.2-101.2l-1.3-1.4v1.9v137.3h-16.9V889.4h16.9v36.1v0.3
			l0.2,0.2l92.2,101.2l1.3,1.4v-1.9V889.4H913.8 M711.3,889.4l54.9,54.8v72.5h-16.9v-63.7v-0.3l-0.2-0.2l-46.1-46l-0.5-0.5l-0.5,0.5
			l-46.1,46l-0.2,0.2v0.3v64.4v0.8h0.8h91.9l18,18v54.1h-16.9v-54.5v-0.8h-0.8h-91.9l-18-18v-73l54.9-54.8H711.3 M600.6,889.4l18,18
			V962l-16.9,16.9v-62.6V916l-0.2-0.2l-9.2-9.2l-0.2-0.2h-0.3h-83h-0.8v0.8v92v73.6v0.8h0.8h83h0.3l0.2-0.2l9.2-9.2l0.2-0.2v-0.3
			v-64.4v-0.8h-0.8h-90.4l16.9-16.9h73.2l18,18v73l-18,18H491V889.4H600.6 M1043.4,981.4l18,18v90.9h-16.9v-91.3v-0.8h-0.8h-54.6
			v-16.9H1043.4 M655.5,1036.6v53.7h-16.9v-53.7H655.5 M1043.7,613.7h-92.2L933,632.1v73.6l18.4,18.4h83l9.2,9.2v55.2l-9.2,9.2
			h-73.8l-9.2-9.2v-27.6H933v36.8l18.4,18.4h92.2l18.4-18.4v-73.6l-18.4-18.4h-83l-9.2-9.2v-55.2l9.2-9.2h73.8l9.2,9.2v27.6h18.4
			v-36.8L1043.7,613.7L1043.7,613.7z M896.1,613.7H785.4v202.4h18.4v-92v-92h83l9.2,9.2v55.2l-9.2,9.2h-64.6l-18.4,18.4l92.2,92
			h18.4v-18.4h-9.2l-73.8-73.6h64.6l18.4-18.4v-73.6L896.1,613.7L896.1,613.7z M766.9,613.7H637.8v202.4h129.1v-18.4H656.2v-73.6
			v-92h110.7V613.7L766.9,613.7z M619.3,613.7h-18.4l-46.1,55.2l-46.1-55.2h-18.4v202.4h18.4V641.3l36.9,46H564l36.9-46v174.8h18.4
			V613.7L619.3,613.7z M416.4,613.7H398l-55.3,55.2v73.6l18.4,18.4h92.2v55.2h18.4v-55.2l-18.4-18.4h-92.2v-64.4l46.1-46l46.1,46
			v64.4h18.4v-73.6L416.4,613.7L416.4,613.7z M305.7,613.7h-92.2L195,632.1v165.6l18.4,18.4h92.2l18.4-18.4v-73.6l-18.4-18.4h-55.3
			v18.4h55.3v64.4l-9.2,9.2h-73.8l-9.2-9.2V641.3l9.2-9.2h73.8l9.2,9.2v27.6h18.4v-36.8L305.7,613.7L305.7,613.7z M766.9,705.7
			h-92.2l-18.4,18.4h110.7V705.7L766.9,705.7z M361.1,760.9h-18.4v55.2h18.4V760.9L361.1,760.9z M1062.1,888.7h-73.8l-18.4,18.4
			v73.6h-18.4v-92H933v202.4h18.4v-92h18.4l18.4-18.4v-73.6h73.8V888.7L1062.1,888.7z M914.5,888.7h-18.4v138l-92.2-101.2v-36.8
			h-18.4v202.4h18.4v-138l92.2,101.2v36.8h18.4V888.7L914.5,888.7z M711.6,888.7h-18.4l-55.3,55.2v73.6l18.4,18.4h92.2v55.2h18.4
			v-55.2l-18.4-18.4h-92.2v-64.4l46.1-46l46.1,46v64.4h18.4v-73.6L711.6,888.7L711.6,888.7z M600.9,888.7H490.2v202.4h110.7
			l18.4-18.4v-73.6l-18.4-18.4h-73.8l-18.4,18.4h92.2v64.4l-9.2,9.2h-83V907.1h83l9.2,9.2v64.4l18.4-18.4v-55.2L600.9,888.7
			L600.9,888.7z M1043.7,980.7h-55.3v18.4h55.3v92h18.4v-92L1043.7,980.7L1043.7,980.7z M656.2,1035.9h-18.4v55.2h18.4V1035.9
			L656.2,1035.9z"/>
	</g>
	<g class="st20">
		<linearGradient id="SVGID_6_" gradientUnits="userSpaceOnUse" x1="646.1691" y1="1073.1858" x2="646.1691" y2="595.783">
			<stop  offset="0" style="stop-color:#2E50F7"/>
			<stop  offset="1" style="stop-color:#FC2A00"/>
		</linearGradient>
		<path class="st21" d="M1061,596.5l18,18v35.7H1062v-26.9v-0.3l-0.2-0.2l-9.2-9.2l-0.2-0.2h-0.3h-73.8h-0.3l-0.2,0.2l-9.2,9.2
			l-0.2,0.2v0.3v55.2v0.3l0.2,0.2l9.2,9.2l0.2,0.2h0.3h82.7l18,18v73l-18,18h-91.6l-18-18v-35.7h16.9v26.9v0.3l0.2,0.2l9.2,9.2
			l0.2,0.2h0.3h73.8h0.3l0.2-0.2l9.2-9.2l0.2-0.2v-0.3v-55.2v-0.3l-0.2-0.2l-9.2-9.2l-0.2-0.2h-0.3h-82.7l-18-18v-73l18-18H1061
			 M913.4,596.5l18,18v73l-18,18h-64.3h-1.8l1.3,1.3l73.8,73.6l0.2,0.2h0.3h8.5v16.9H914l-91.5-91.3l17.7-17.7h64.3h0.3l0.2-0.2
			l9.2-9.2l0.2-0.2v-0.3v-55.2v-0.3l-0.2-0.2l-9.2-9.2l-0.2-0.2h-0.3h-83h-0.8v0.8v92v91.3h-16.9V596.5H913.4 M783.8,596.5v16.9
			H673.8h-0.8v0.8v92v73.6v0.8h0.8h109.9v16.9H656.1V596.5H783.8 M636.2,596.5v200.9h-16.9V623.4v-2.1l-1.3,1.7l-36.7,45.7h-17.7
			l-36.7-45.7l-1.3-1.7v2.1v174.1h-16.9V596.5h17.3l45.9,54.9l0.6,0.7l0.6-0.7l45.9-54.9H636.2 M433.7,596.5l54.9,54.8v72.5h-16.9
			v-63.7v-0.3l-0.2-0.2l-46.1-46l-0.5-0.5l-0.5,0.5l-46.1,46l-0.2,0.2v0.3v64.4v0.8h0.8h91.9l18,18v54.1h-16.9V743v-0.8h-0.8H379
			l-18-18v-73l54.9-54.8H433.7 M323,596.5l18,18v35.7h-16.9v-26.9v-0.3l-0.2-0.2l-9.2-9.2l-0.2-0.2h-0.3h-73.8H240l-0.2,0.2
			l-9.2,9.2l-0.2,0.2v0.3v147.2v0.3l0.2,0.2l9.2,9.2l0.2,0.2h0.3h73.8h0.3l0.2-0.2l9.2-9.2l0.2-0.2v-0.3v-64.4v-0.8h-0.8h-54.6
			v-16.9H323l18,18v73l-18,18h-91.6l-18-18v-165l18-18H323 M783.8,688.5v16.9H675.7l16.9-16.9H783.8 M377.9,743.7v53.7H361v-53.7
			H377.9 M1079,871.5v16.9h-73h-0.8v0.8v73.3l-18,18H969h-0.8v0.8v91.3h-16.9V871.5h16.9v91.3v0.8h0.8h18.4h0.8v-0.8v-73.3l18-18
			H1079 M931.4,871.5v200.9h-16.9v-36.1v-0.3l-0.2-0.2L822,934.7l-1.3-1.4v1.9v137.3h-16.9V871.5h16.9v36.1v0.3l0.2,0.2l92.2,101.2
			l1.3,1.4v-1.9V871.5H931.4 M728.9,871.5l54.9,54.8v72.5h-16.9v-63.7v-0.3l-0.2-0.2l-46.1-46l-0.5-0.5l-0.5,0.5l-46.1,46l-0.2,0.2
			v0.3v64.4v0.8h0.8h91.9l18,18v54.1h-16.9V1018v-0.8h-0.8h-91.9l-18-18v-73l54.9-54.8H728.9 M618.2,871.5l18,18v54.6L619.2,961
			v-62.6v-0.3l-0.2-0.2l-9.2-9.2l-0.2-0.2h-0.3h-83h-0.8v0.8v92v73.6v0.8h0.8h83h0.3l0.2-0.2l9.2-9.2l0.2-0.2v-0.3v-64.4v-0.8h-0.8
			h-90.4l16.9-16.9h73.2l18,18v73l-18,18H508.6V871.5H618.2 M1061,963.5l18,18v90.9H1062v-91.3v-0.8h-0.8h-54.6v-16.9H1061
			 M673.1,1018.7v53.7h-16.9v-53.7H673.1 M1061.3,595.8H969l-18.4,18.4v73.6l18.4,18.4h83l9.2,9.2v55.2l-9.2,9.2h-73.8l-9.2-9.2V743
			h-18.4v36.8l18.4,18.4h92.2l18.4-18.4v-73.6l-18.4-18.4h-83l-9.2-9.2v-55.2l9.2-9.2h73.8l9.2,9.2V651h18.4v-36.8L1061.3,595.8
			L1061.3,595.8z M913.7,595.8H803v202.4h18.4v-92v-92h83l9.2,9.2v55.2l-9.2,9.2h-64.6l-18.4,18.4l92.2,92h18.4v-18.4h-9.2
			l-73.8-73.6h64.6l18.4-18.4v-73.6L913.7,595.8L913.7,595.8z M784.5,595.8H655.4v202.4h129.1v-18.4H673.8v-73.6v-92h110.7V595.8
			L784.5,595.8z M636.9,595.8h-18.4L572.4,651l-46.1-55.2h-18.4v202.4h18.4V623.4l36.9,46h18.4l36.9-46v174.8h18.4V595.8
			L636.9,595.8z M434,595.8h-18.4L360.2,651v73.6l18.4,18.4h92.2v55.2h18.4V743l-18.4-18.4h-92.2v-64.4l46.1-46l46.1,46v64.4h18.4
			V651L434,595.8L434,595.8z M323.3,595.8h-92.2l-18.4,18.4v165.6l18.4,18.4h92.2l18.4-18.4v-73.6l-18.4-18.4H268v18.4h55.3v64.4
			l-9.2,9.2h-73.8l-9.2-9.2V623.4l9.2-9.2h73.8l9.2,9.2V651h18.4v-36.8L323.3,595.8L323.3,595.8z M784.5,687.8h-92.2l-18.4,18.4
			h110.7V687.8L784.5,687.8z M378.7,743h-18.4v55.2h18.4V743L378.7,743z M1079.7,870.8h-73.8l-18.4,18.4v73.6H969v-92h-18.4v202.4
			H969v-92h18.4l18.4-18.4v-73.6h73.8V870.8L1079.7,870.8z M932.1,870.8h-18.4v138l-92.2-101.2v-36.8H803v202.4h18.4v-138
			l92.2,101.2v36.8h18.4V870.8L932.1,870.8z M729.2,870.8h-18.4L655.4,926v73.6l18.4,18.4h92.2v55.2h18.4V1018l-18.4-18.4h-92.2
			v-64.4l46.1-46l46.1,46v64.4h18.4V926L729.2,870.8L729.2,870.8z M618.5,870.8H507.8v202.4h110.7l18.4-18.4v-73.6l-18.4-18.4h-73.8
			l-18.4,18.4h92.2v64.4l-9.2,9.2h-83V889.2h83l9.2,9.2v64.4l18.4-18.4v-55.2L618.5,870.8L618.5,870.8z M1061.3,962.8h-55.3v18.4
			h55.3v92h18.4v-92L1061.3,962.8L1061.3,962.8z M673.8,1018h-18.4v55.2h18.4V1018L673.8,1018z"/>
	</g>
	<g class="st22">
		<linearGradient id="SVGID_7_" gradientUnits="userSpaceOnUse" x1="637.1691" y1="1082.1858" x2="637.1691" y2="604.783">
			<stop  offset="0" style="stop-color:#2E50F7"/>
			<stop  offset="1" style="stop-color:#FC2A00"/>
		</linearGradient>
		<path class="st23" d="M1052,605.5l18,18v35.7H1053v-26.9v-0.3l-0.2-0.2l-9.2-9.2l-0.2-0.2h-0.3h-73.8h-0.3l-0.2,0.2l-9.2,9.2
			l-0.2,0.2v0.3v55.2v0.3l0.2,0.2l9.2,9.2l0.2,0.2h0.3h82.7l18,18v73l-18,18h-91.6l-18-18v-35.7h16.9v26.9v0.3l0.2,0.2l9.2,9.2
			l0.2,0.2h0.3h73.8h0.3l0.2-0.2l9.2-9.2l0.2-0.2v-0.3v-55.2v-0.3l-0.2-0.2l-9.2-9.2l-0.2-0.2h-0.3h-82.7l-18-18v-73l18-18H1052
			 M904.4,605.5l18,18v73l-18,18h-64.3h-1.8l1.3,1.3l73.8,73.6l0.2,0.2h0.3h8.5v16.9H905l-91.5-91.3l17.7-17.7h64.3h0.3l0.2-0.2
			l9.2-9.2l0.2-0.2v-0.3v-55.2v-0.3l-0.2-0.2l-9.2-9.2l-0.2-0.2h-0.3h-83h-0.8v0.8v92v91.3h-16.9V605.5H904.4 M774.8,605.5v16.9
			H664.8h-0.8v0.8v92v73.6v0.8h0.8h109.9v16.9H647.1V605.5H774.8 M627.2,605.5v200.9h-16.9V632.4v-2.1l-1.3,1.7l-36.7,45.7h-17.7
			l-36.7-45.7l-1.3-1.7v2.1v174.1h-16.9V605.5h17.3l45.9,54.9l0.6,0.7l0.6-0.7l45.9-54.9H627.2 M424.7,605.5l54.9,54.8v72.5h-16.9
			v-63.7v-0.3l-0.2-0.2l-46.1-46l-0.5-0.5l-0.5,0.5l-46.1,46l-0.2,0.2v0.3v64.4v0.8h0.8h91.9l18,18v54.1h-16.9V752v-0.8h-0.8H370
			l-18-18v-73l54.9-54.8H424.7 M314,605.5l18,18v35.7h-16.9v-26.9v-0.3l-0.2-0.2l-9.2-9.2l-0.2-0.2h-0.3h-73.8H231l-0.2,0.2
			l-9.2,9.2l-0.2,0.2v0.3v147.2v0.3l0.2,0.2l9.2,9.2l0.2,0.2h0.3h73.8h0.3l0.2-0.2l9.2-9.2l0.2-0.2v-0.3v-64.4v-0.8h-0.8h-54.6
			v-16.9H314l18,18v73l-18,18h-91.6l-18-18v-165l18-18H314 M774.8,697.5v16.9H666.7l16.9-16.9H774.8 M368.9,752.7v53.7H352v-53.7
			H368.9 M1070,880.5v16.9h-73h-0.8v0.8v73.3l-18,18H960h-0.8v0.8v91.3h-16.9V880.5h16.9v91.3v0.8h0.8h18.4h0.8v-0.8v-73.3l18-18
			H1070 M922.4,880.5v200.9h-16.9v-36.1v-0.3l-0.2-0.2L813,943.7l-1.3-1.4v1.9v137.3h-16.9V880.5h16.9v36.1v0.3l0.2,0.2l92.2,101.2
			l1.3,1.4v-1.9V880.5H922.4 M719.9,880.5l54.9,54.8v72.5h-16.9v-63.7v-0.3l-0.2-0.2l-46.1-46l-0.5-0.5l-0.5,0.5l-46.1,46l-0.2,0.2
			v0.3v64.4v0.8h0.8h91.9l18,18v54.1h-16.9V1027v-0.8h-0.8h-91.9l-18-18v-73l54.9-54.8H719.9 M609.2,880.5l18,18v54.6L610.2,970
			v-62.6v-0.3l-0.2-0.2l-9.2-9.2l-0.2-0.2h-0.3h-83h-0.8v0.8v92v73.6v0.8h0.8h83h0.3l0.2-0.2l9.2-9.2l0.2-0.2v-0.3v-64.4v-0.8h-0.8
			h-90.4l16.9-16.9h73.2l18,18v73l-18,18H499.6V880.5H609.2 M1052,972.5l18,18v90.9H1053v-91.3v-0.8h-0.8h-54.6v-16.9H1052
			 M664.1,1027.7v53.7h-16.9v-53.7H664.1 M1052.3,604.8H960l-18.4,18.4v73.6l18.4,18.4h83l9.2,9.2v55.2l-9.2,9.2h-73.8l-9.2-9.2V752
			h-18.4v36.8l18.4,18.4h92.2l18.4-18.4v-73.6l-18.4-18.4h-83l-9.2-9.2v-55.2l9.2-9.2h73.8l9.2,9.2V660h18.4v-36.8L1052.3,604.8
			L1052.3,604.8z M904.7,604.8H794v202.4h18.4v-92v-92h83l9.2,9.2v55.2l-9.2,9.2h-64.6l-18.4,18.4l92.2,92h18.4v-18.4h-9.2
			l-73.8-73.6h64.6l18.4-18.4v-73.6L904.7,604.8L904.7,604.8z M775.5,604.8H646.4v202.4h129.1v-18.4H664.8v-73.6v-92h110.7V604.8
			L775.5,604.8z M627.9,604.8h-18.4L563.4,660l-46.1-55.2h-18.4v202.4h18.4V632.4l36.9,46h18.4l36.9-46v174.8h18.4V604.8
			L627.9,604.8z M425,604.8h-18.4L351.2,660v73.6l18.4,18.4h92.2v55.2h18.4V752l-18.4-18.4h-92.2v-64.4l46.1-46l46.1,46v64.4h18.4
			V660L425,604.8L425,604.8z M314.3,604.8h-92.2l-18.4,18.4v165.6l18.4,18.4h92.2l18.4-18.4v-73.6l-18.4-18.4H259v18.4h55.3v64.4
			l-9.2,9.2h-73.8l-9.2-9.2V632.4l9.2-9.2h73.8l9.2,9.2V660h18.4v-36.8L314.3,604.8L314.3,604.8z M775.5,696.8h-92.2l-18.4,18.4
			h110.7V696.8L775.5,696.8z M369.7,752h-18.4v55.2h18.4V752L369.7,752z M1070.7,879.8h-73.8l-18.4,18.4v73.6H960v-92h-18.4v202.4
			H960v-92h18.4l18.4-18.4v-73.6h73.8V879.8L1070.7,879.8z M923.1,879.8h-18.4v138l-92.2-101.2v-36.8H794v202.4h18.4v-138
			l92.2,101.2v36.8h18.4V879.8L923.1,879.8z M720.2,879.8h-18.4L646.4,935v73.6l18.4,18.4h92.2v55.2h18.4V1027l-18.4-18.4h-92.2
			v-64.4l46.1-46l46.1,46v64.4h18.4V935L720.2,879.8L720.2,879.8z M609.5,879.8H498.8v202.4h110.7l18.4-18.4v-73.6l-18.4-18.4h-73.8
			l-18.4,18.4h92.2v64.4l-9.2,9.2h-83V898.2h83l9.2,9.2v64.4l18.4-18.4v-55.2L609.5,879.8L609.5,879.8z M1052.3,971.8h-55.3v18.4
			h55.3v92h18.4v-92L1052.3,971.8L1052.3,971.8z M664.8,1027h-18.4v55.2h18.4V1027L664.8,1027z"/>
	</g>
	<g class="st24">
		<linearGradient id="SVGID_8_" gradientUnits="userSpaceOnUse" x1="655.1691" y1="1064.1858" x2="655.1691" y2="586.783">
			<stop  offset="0" style="stop-color:#2E50F7"/>
			<stop  offset="1" style="stop-color:#FC2A00"/>
		</linearGradient>
		<path class="st25" d="M1070,587.5l18,18v35.7H1071v-26.9v-0.3l-0.2-0.2l-9.2-9.2l-0.2-0.2h-0.3h-73.8h-0.3l-0.2,0.2l-9.2,9.2
			l-0.2,0.2v0.3v55.2v0.3l0.2,0.2l9.2,9.2l0.2,0.2h0.3h82.7l18,18v73l-18,18h-91.6l-18-18v-35.7h16.9v26.9v0.3l0.2,0.2l9.2,9.2
			l0.2,0.2h0.3h73.8h0.3l0.2-0.2l9.2-9.2l0.2-0.2v-0.3v-55.2v-0.3l-0.2-0.2l-9.2-9.2l-0.2-0.2h-0.3h-82.7l-18-18v-73l18-18H1070
			 M922.4,587.5l18,18v73l-18,18h-64.3h-1.8l1.3,1.3l73.8,73.6l0.2,0.2h0.3h8.5v16.9H923l-91.5-91.3l17.7-17.7h64.3h0.3l0.2-0.2
			l9.2-9.2l0.2-0.2v-0.3v-55.2v-0.3l-0.2-0.2l-9.2-9.2l-0.2-0.2h-0.3h-83h-0.8v0.8v92v91.3h-16.9V587.5H922.4 M792.8,587.5v16.9
			H682.8h-0.8v0.8v92v73.6v0.8h0.8h109.9v16.9H665.1V587.5H792.8 M645.2,587.5v200.9h-16.9V614.4v-2.1l-1.3,1.7l-36.7,45.7h-17.7
			l-36.7-45.7l-1.3-1.7v2.1v174.1h-16.9V587.5h17.3l45.9,54.9l0.6,0.7l0.6-0.7l45.9-54.9H645.2 M442.7,587.5l54.9,54.8v72.5h-16.9
			v-63.7v-0.3l-0.2-0.2l-46.1-46l-0.5-0.5l-0.5,0.5l-46.1,46l-0.2,0.2v0.3v64.4v0.8h0.8h91.9l18,18v54.1h-16.9V734v-0.8h-0.8H388
			l-18-18v-73l54.9-54.8H442.7 M332,587.5l18,18v35.7h-16.9v-26.9v-0.3l-0.2-0.2l-9.2-9.2l-0.2-0.2h-0.3h-73.8H249l-0.2,0.2
			l-9.2,9.2l-0.2,0.2v0.3v147.2v0.3l0.2,0.2l9.2,9.2l0.2,0.2h0.3h73.8h0.3l0.2-0.2l9.2-9.2l0.2-0.2v-0.3v-64.4v-0.8h-0.8h-54.6
			v-16.9H332l18,18v73l-18,18h-91.6l-18-18v-165l18-18H332 M792.8,679.5v16.9H684.7l16.9-16.9H792.8 M386.9,734.7v53.7H370v-53.7
			H386.9 M1088,862.5v16.9h-73h-0.8v0.8v73.3l-18,18H978h-0.8v0.8v91.3h-16.9V862.5h16.9v91.3v0.8h0.8h18.4h0.8v-0.8v-73.3l18-18
			H1088 M940.4,862.5v200.9h-16.9v-36.1v-0.3l-0.2-0.2L831,925.7l-1.3-1.4v1.9v137.3h-16.9V862.5h16.9v36.1v0.3l0.2,0.2l92.2,101.2
			l1.3,1.4v-1.9V862.5H940.4 M737.9,862.5l54.9,54.8v72.5h-16.9v-63.7v-0.3l-0.2-0.2l-46.1-46l-0.5-0.5l-0.5,0.5l-46.1,46l-0.2,0.2
			v0.3v64.4v0.8h0.8h91.9l18,18v54.1h-16.9V1009v-0.8h-0.8h-91.9l-18-18v-73l54.9-54.8H737.9 M627.2,862.5l18,18v54.6L628.2,952
			v-62.6v-0.3l-0.2-0.2l-9.2-9.2l-0.2-0.2h-0.3h-83h-0.8v0.8v92v73.6v0.8h0.8h83h0.3l0.2-0.2l9.2-9.2l0.2-0.2v-0.3v-64.4v-0.8h-0.8
			h-90.4l16.9-16.9h73.2l18,18v73l-18,18H517.6V862.5H627.2 M1070,954.5l18,18v90.9H1071v-91.3v-0.8h-0.8h-54.6v-16.9H1070
			 M682.1,1009.7v53.7h-16.9v-53.7H682.1 M1070.3,586.8H978l-18.4,18.4v73.6l18.4,18.4h83l9.2,9.2v55.2l-9.2,9.2h-73.8l-9.2-9.2V734
			h-18.4v36.8l18.4,18.4h92.2l18.4-18.4v-73.6l-18.4-18.4h-83l-9.2-9.2v-55.2l9.2-9.2h73.8l9.2,9.2V642h18.4v-36.8L1070.3,586.8
			L1070.3,586.8z M922.7,586.8H812v202.4h18.4v-92v-92h83l9.2,9.2v55.2l-9.2,9.2h-64.6l-18.4,18.4l92.2,92h18.4v-18.4h-9.2
			l-73.8-73.6h64.6l18.4-18.4v-73.6L922.7,586.8L922.7,586.8z M793.5,586.8H664.4v202.4h129.1v-18.4H682.8v-73.6v-92h110.7V586.8
			L793.5,586.8z M645.9,586.8h-18.4L581.4,642l-46.1-55.2h-18.4v202.4h18.4V614.4l36.9,46h18.4l36.9-46v174.8h18.4V586.8
			L645.9,586.8z M443,586.8h-18.4L369.2,642v73.6l18.4,18.4h92.2v55.2h18.4V734l-18.4-18.4h-92.2v-64.4l46.1-46l46.1,46v64.4h18.4
			V642L443,586.8L443,586.8z M332.3,586.8h-92.2l-18.4,18.4v165.6l18.4,18.4h92.2l18.4-18.4v-73.6l-18.4-18.4H277v18.4h55.3v64.4
			l-9.2,9.2h-73.8l-9.2-9.2V614.4l9.2-9.2h73.8l9.2,9.2V642h18.4v-36.8L332.3,586.8L332.3,586.8z M793.5,678.8h-92.2l-18.4,18.4
			h110.7V678.8L793.5,678.8z M387.7,734h-18.4v55.2h18.4V734L387.7,734z M1088.7,861.8h-73.8l-18.4,18.4v73.6H978v-92h-18.4v202.4
			H978v-92h18.4l18.4-18.4v-73.6h73.8V861.8L1088.7,861.8z M941.1,861.8h-18.4v138l-92.2-101.2v-36.8H812v202.4h18.4v-138
			l92.2,101.2v36.8h18.4V861.8L941.1,861.8z M738.2,861.8h-18.4L664.4,917v73.6l18.4,18.4h92.2v55.2h18.4V1009l-18.4-18.4h-92.2
			v-64.4l46.1-46l46.1,46v64.4h18.4V917L738.2,861.8L738.2,861.8z M627.5,861.8H516.8v202.4h110.7l18.4-18.4v-73.6l-18.4-18.4h-73.8
			l-18.4,18.4h92.2v64.4l-9.2,9.2h-83V880.2h83l9.2,9.2v64.4l18.4-18.4v-55.2L627.5,861.8L627.5,861.8z M1070.3,953.8h-55.3v18.4
			h55.3v92h18.4v-92L1070.3,953.8L1070.3,953.8z M682.8,1009h-18.4v55.2h18.4V1009L682.8,1009z"/>
	</g>
	<g class="st26">
		<linearGradient id="SVGID_9_" gradientUnits="userSpaceOnUse" x1="664.1691" y1="1055.1858" x2="664.1691" y2="577.783">
			<stop  offset="0" style="stop-color:#2E50F7"/>
			<stop  offset="1" style="stop-color:#FC2A00"/>
		</linearGradient>
		<path class="st27" d="M1079,578.5l18,18v35.7H1080v-26.9v-0.3l-0.2-0.2l-9.2-9.2l-0.2-0.2h-0.3h-73.8h-0.3l-0.2,0.2l-9.2,9.2
			l-0.2,0.2v0.3v55.2v0.3l0.2,0.2l9.2,9.2l0.2,0.2h0.3h82.7l18,18v73l-18,18h-91.6l-18-18v-35.7h16.9v26.9v0.3l0.2,0.2l9.2,9.2
			l0.2,0.2h0.3h73.8h0.3l0.2-0.2l9.2-9.2l0.2-0.2v-0.3v-55.2v-0.3l-0.2-0.2l-9.2-9.2l-0.2-0.2h-0.3h-82.7l-18-18v-73l18-18H1079
			 M931.4,578.5l18,18v73l-18,18h-64.3h-1.8l1.3,1.3l73.8,73.6l0.2,0.2h0.3h8.5v16.9H932l-91.5-91.3l17.7-17.7h64.3h0.3l0.2-0.2
			l9.2-9.2l0.2-0.2v-0.3v-55.2v-0.3l-0.2-0.2l-9.2-9.2l-0.2-0.2h-0.3h-83h-0.8v0.8v92v91.3h-16.9V578.5H931.4 M801.8,578.5v16.9
			H691.8h-0.8v0.8v92v73.6v0.8h0.8h109.9v16.9H674.1V578.5H801.8 M654.2,578.5v200.9h-16.9V605.4v-2.1l-1.3,1.7l-36.7,45.7h-17.7
			l-36.7-45.7l-1.3-1.7v2.1v174.1h-16.9V578.5h17.3l45.9,54.9l0.6,0.7l0.6-0.7l45.9-54.9H654.2 M451.7,578.5l54.9,54.8v72.5h-16.9
			v-63.7v-0.3l-0.2-0.2l-46.1-46l-0.5-0.5l-0.5,0.5l-46.1,46l-0.2,0.2v0.3v64.4v0.8h0.8h91.9l18,18v54.1h-16.9V725v-0.8h-0.8H397
			l-18-18v-73l54.9-54.8H451.7 M341,578.5l18,18v35.7h-16.9v-26.9v-0.3l-0.2-0.2l-9.2-9.2l-0.2-0.2h-0.3h-73.8H258l-0.2,0.2
			l-9.2,9.2l-0.2,0.2v0.3v147.2v0.3l0.2,0.2l9.2,9.2l0.2,0.2h0.3h73.8h0.3l0.2-0.2l9.2-9.2l0.2-0.2v-0.3v-64.4v-0.8h-0.8h-54.6
			v-16.9H341l18,18v73l-18,18h-91.6l-18-18v-165l18-18H341 M801.8,670.5v16.9H693.7l16.9-16.9H801.8 M395.9,725.7v53.7H379v-53.7
			H395.9 M1097,853.5v16.9h-73h-0.8v0.8v73.3l-18,18H987h-0.8v0.8v91.3h-16.9V853.5h16.9v91.3v0.8h0.8h18.4h0.8v-0.8v-73.3l18-18
			H1097 M949.4,853.5v200.9h-16.9v-36.1v-0.3l-0.2-0.2L840,916.7l-1.3-1.4v1.9v137.3h-16.9V853.5h16.9v36.1v0.3l0.2,0.2l92.2,101.2
			l1.3,1.4v-1.9V853.5H949.4 M746.9,853.5l54.9,54.8v72.5h-16.9v-63.7v-0.3l-0.2-0.2l-46.1-46l-0.5-0.5l-0.5,0.5l-46.1,46l-0.2,0.2
			v0.3v64.4v0.8h0.8h91.9l18,18v54.1h-16.9V1000v-0.8h-0.8h-91.9l-18-18v-73l54.9-54.8H746.9 M636.2,853.5l18,18v54.6L637.2,943
			v-62.6v-0.3l-0.2-0.2l-9.2-9.2l-0.2-0.2h-0.3h-83h-0.8v0.8v92v73.6v0.8h0.8h83h0.3l0.2-0.2l9.2-9.2l0.2-0.2v-0.3v-64.4v-0.8h-0.8
			h-90.4l16.9-16.9h73.2l18,18v73l-18,18H526.6V853.5H636.2 M1079,945.5l18,18v90.9H1080v-91.3v-0.8h-0.8h-54.6v-16.9H1079
			 M691.1,1000.7v53.7h-16.9v-53.7H691.1 M1079.3,577.8H987l-18.4,18.4v73.6l18.4,18.4h83l9.2,9.2v55.2l-9.2,9.2h-73.8l-9.2-9.2V725
			h-18.4v36.8l18.4,18.4h92.2l18.4-18.4v-73.6l-18.4-18.4h-83l-9.2-9.2v-55.2l9.2-9.2h73.8l9.2,9.2V633h18.4v-36.8L1079.3,577.8
			L1079.3,577.8z M931.7,577.8H821v202.4h18.4v-92v-92h83l9.2,9.2v55.2l-9.2,9.2h-64.6l-18.4,18.4l92.2,92h18.4v-18.4h-9.2
			l-73.8-73.6h64.6l18.4-18.4v-73.6L931.7,577.8L931.7,577.8z M802.5,577.8H673.4v202.4h129.1v-18.4H691.8v-73.6v-92h110.7V577.8
			L802.5,577.8z M654.9,577.8h-18.4L590.4,633l-46.1-55.2h-18.4v202.4h18.4V605.4l36.9,46h18.4l36.9-46v174.8h18.4V577.8
			L654.9,577.8z M452,577.8h-18.4L378.2,633v73.6l18.4,18.4h92.2v55.2h18.4V725l-18.4-18.4h-92.2v-64.4l46.1-46l46.1,46v64.4h18.4
			V633L452,577.8L452,577.8z M341.3,577.8h-92.2l-18.4,18.4v165.6l18.4,18.4h92.2l18.4-18.4v-73.6l-18.4-18.4H286v18.4h55.3v64.4
			l-9.2,9.2h-73.8l-9.2-9.2V605.4l9.2-9.2h73.8l9.2,9.2V633h18.4v-36.8L341.3,577.8L341.3,577.8z M802.5,669.8h-92.2l-18.4,18.4
			h110.7V669.8L802.5,669.8z M396.7,725h-18.4v55.2h18.4V725L396.7,725z M1097.7,852.8h-73.8l-18.4,18.4v73.6H987v-92h-18.4v202.4
			H987v-92h18.4l18.4-18.4v-73.6h73.8V852.8L1097.7,852.8z M950.1,852.8h-18.4v138l-92.2-101.2v-36.8H821v202.4h18.4v-138
			l92.2,101.2v36.8h18.4V852.8L950.1,852.8z M747.2,852.8h-18.4L673.4,908v73.6l18.4,18.4h92.2v55.2h18.4V1000l-18.4-18.4h-92.2
			v-64.4l46.1-46l46.1,46v64.4h18.4V908L747.2,852.8L747.2,852.8z M636.5,852.8H525.8v202.4h110.7l18.4-18.4v-73.6l-18.4-18.4h-73.8
			l-18.4,18.4h92.2v64.4l-9.2,9.2h-83V871.2h83l9.2,9.2v64.4l18.4-18.4v-55.2L636.5,852.8L636.5,852.8z M1079.3,944.8h-55.3v18.4
			h55.3v92h18.4v-92L1079.3,944.8L1079.3,944.8z M691.8,1000h-18.4v55.2h18.4V1000L691.8,1000z"/>
	</g>
	<g class="st28">
		<linearGradient id="SVGID_10_" gradientUnits="userSpaceOnUse" x1="674.494" y1="1044.7186" x2="674.494" y2="567.3158">
			<stop  offset="0" style="stop-color:#2E50F7"/>
			<stop  offset="1" style="stop-color:#FC2A00"/>
		</linearGradient>
		<path class="st29" d="M1089.3,568.1l18,18v35.7h-16.9v-26.9v-0.3l-0.2-0.2l-9.2-9.2l-0.2-0.2h-0.3h-73.8h-0.3l-0.2,0.2l-9.2,9.2
			l-0.2,0.2v0.3v55.2v0.3l0.2,0.2l9.2,9.2l0.2,0.2h0.3h82.7l18,18v73l-18,18h-91.6l-18-18v-35.7h16.9v26.9v0.3l0.2,0.2l9.2,9.2
			l0.2,0.2h0.3h73.8h0.3l0.2-0.2l9.2-9.2l0.2-0.2v-0.3v-55.2v-0.3l-0.2-0.2l-9.2-9.2l-0.2-0.2h-0.3h-82.7l-18-18v-73l18-18H1089.3
			 M941.7,568.1l18,18v73l-18,18h-64.3h-1.8l1.3,1.3l73.8,73.6l0.2,0.2h0.3h8.5V769h-17.4l-91.5-91.3l17.7-17.7h64.3h0.3l0.2-0.2
			l9.2-9.2l0.2-0.2v-0.3v-55.2v-0.3l-0.2-0.2l-9.2-9.2l-0.2-0.2h-0.3h-83H849v0.8v92V769h-16.9V568.1H941.7 M812.1,568.1V585H702.2
			h-0.8v0.8v92v73.6v0.8h0.8h109.9V769H684.5V568.1H812.1 M664.5,568.1V769h-16.9V594.9v-2.1l-1.3,1.7l-36.7,45.7h-17.7l-36.7-45.7
			l-1.3-1.7v2.1V769h-16.9V568.1h17.3l45.9,54.9l0.6,0.7l0.6-0.7l45.9-54.9H664.5 M462,568.1l54.9,54.8v72.5H500v-63.7v-0.3
			l-0.2-0.2l-46.1-46l-0.5-0.5l-0.5,0.5l-46.1,46l-0.2,0.2v0.3v64.4v0.8h0.8h91.9l18,18V769H500v-54.5v-0.8h-0.8h-91.9l-18-18v-73
			l54.9-54.8H462 M351.3,568.1l18,18v35.7h-16.9v-26.9v-0.3l-0.2-0.2l-9.2-9.2l-0.2-0.2h-0.3h-73.8h-0.3l-0.2,0.2l-9.2,9.2l-0.2,0.2
			v0.3v147.2v0.3l0.2,0.2l9.2,9.2l0.2,0.2h0.3h73.8h0.3l0.2-0.2l9.2-9.2l0.2-0.2v-0.3v-64.4V677h-0.8H297v-16.9h54.3l18,18v73
			l-18,18h-91.6l-18-18V586l18-18H351.3 M812.1,660.1V677H704l16.9-16.9H812.1 M406.2,715.3V769h-16.9v-53.7H406.2 M1107.3,843.1
			V860h-73h-0.8v0.8V934l-18,18h-18.1h-0.8v0.8v91.3h-16.9V843.1h16.9v91.3v0.8h0.8h18.4h0.8v-0.8V861l18-18H1107.3 M959.7,843.1
			V1044h-16.9v-36.1v-0.3l-0.2-0.2l-92.2-101.2l-1.3-1.4v1.9V1044h-16.9V843.1H849v36.1v0.3l0.2,0.2l92.2,101.2l1.3,1.4v-1.9V843.1
			H959.7 M757.2,843.1l54.9,54.8v72.5h-16.9v-63.7v-0.3l-0.2-0.2l-46.1-46l-0.5-0.5l-0.5,0.5l-46.1,46l-0.2,0.2v0.3v64.4v0.8h0.8
			h91.9l18,18v54.1h-16.9v-54.5v-0.8h-0.8h-91.9l-18-18v-73l54.9-54.8H757.2 M646.5,843.1l18,18v54.6l-16.9,16.9v-62.6v-0.3
			l-0.2-0.2l-9.2-9.2l-0.2-0.2h-0.3h-83h-0.8v0.8v92v73.6v0.8h0.8h83h0.3l0.2-0.2l9.2-9.2l0.2-0.2v-0.3v-64.4V952h-0.8h-90.4
			l16.9-16.9h73.2l18,18v73l-18,18H536.9V843.1H646.5 M1089.3,935.1l18,18v90.9h-16.9v-91.3V952h-0.8H1035v-16.9H1089.3
			 M701.4,990.3v53.7h-16.9v-53.7H701.4 M1089.6,567.3h-92.2l-18.4,18.4v73.6l18.4,18.4h83l9.2,9.2v55.2l-9.2,9.2h-73.8l-9.2-9.2
			v-27.6h-18.4v36.8l18.4,18.4h92.2l18.4-18.4v-73.6l-18.4-18.4h-83l-9.2-9.2v-55.2l9.2-9.2h73.8l9.2,9.2v27.6h18.4v-36.8
			L1089.6,567.3L1089.6,567.3z M942,567.3H831.3v202.4h18.4v-92v-92h83l9.2,9.2v55.2l-9.2,9.2h-64.6l-18.4,18.4l92.2,92h18.4v-18.4
			h-9.2l-73.8-73.6H942l18.4-18.4v-73.6L942,567.3L942,567.3z M812.9,567.3H683.7v202.4h129.1v-18.4H702.2v-73.6v-92h110.7V567.3
			L812.9,567.3z M665.3,567.3h-18.4l-46.1,55.2l-46.1-55.2h-18.4v202.4h18.4V594.9l36.9,46h18.4l36.9-46v174.8h18.4V567.3
			L665.3,567.3z M462.3,567.3h-18.4l-55.3,55.2v73.6l18.4,18.4h92.2v55.2h18.4v-55.2l-18.4-18.4H407v-64.4l46.1-46l46.1,46v64.4
			h18.4v-73.6L462.3,567.3L462.3,567.3z M351.6,567.3h-92.2l-18.4,18.4v165.6l18.4,18.4h92.2l18.4-18.4v-73.6l-18.4-18.4h-55.3v18.4
			h55.3v64.4l-9.2,9.2h-73.8l-9.2-9.2V594.9l9.2-9.2h73.8l9.2,9.2v27.6h18.4v-36.8L351.6,567.3L351.6,567.3z M812.9,659.3h-92.2
			l-18.4,18.4h110.7V659.3L812.9,659.3z M407,714.5h-18.4v55.2H407V714.5L407,714.5z M1108,842.3h-73.8l-18.4,18.4v73.6h-18.4v-92
			h-18.4v202.4h18.4v-92h18.4l18.4-18.4v-73.6h73.8V842.3L1108,842.3z M960.4,842.3H942v138l-92.2-101.2v-36.8h-18.4v202.4h18.4
			v-138l92.2,101.2v36.8h18.4V842.3L960.4,842.3z M757.5,842.3h-18.4l-55.3,55.2v73.6l18.4,18.4h92.2v55.2h18.4v-55.2l-18.4-18.4
			h-92.2v-64.4l46.1-46l46.1,46v64.4h18.4v-73.6L757.5,842.3L757.5,842.3z M646.8,842.3H536.1v202.4h110.7l18.4-18.4v-73.6
			l-18.4-18.4H573l-18.4,18.4h92.2v64.4l-9.2,9.2h-83V860.7h83l9.2,9.2v64.4l18.4-18.4v-55.2L646.8,842.3L646.8,842.3z
			 M1089.6,934.3h-55.3v18.4h55.3v92h18.4v-92L1089.6,934.3L1089.6,934.3z M702.2,989.5h-18.4v55.2h18.4V989.5L702.2,989.5z"/>
	</g>
	<g class="st30">
		<linearGradient id="SVGID_11_" gradientUnits="userSpaceOnUse" x1="683.9878" y1="1035.9326" x2="683.9878" y2="558.5298">
			<stop  offset="0" style="stop-color:#2E50F7"/>
			<stop  offset="1" style="stop-color:#FC2A00"/>
		</linearGradient>
		<path class="st31" d="M1098.8,559.3l18,18V613h-16.9v-26.9v-0.3l-0.2-0.2l-9.2-9.2l-0.2-0.2h-0.3h-73.8h-0.3l-0.2,0.2l-9.2,9.2
			l-0.2,0.2v0.3v55.2v0.3l0.2,0.2l9.2,9.2l0.2,0.2h0.3h82.7l18,18v73l-18,18h-91.6l-18-18v-35.7h16.9v26.9v0.3l0.2,0.2l9.2,9.2
			l0.2,0.2h0.3h73.8h0.3l0.2-0.2l9.2-9.2l0.2-0.2v-0.3v-55.2v-0.3l-0.2-0.2l-9.2-9.2l-0.2-0.2h-0.3h-82.7l-18-18v-73l18-18H1098.8
			 M951.2,559.3l18,18v73l-18,18h-64.3h-1.8l1.3,1.3l73.8,73.6l0.2,0.2h0.3h8.5v16.9h-17.4l-91.5-91.3l17.7-17.7h64.3h0.3l0.2-0.2
			l9.2-9.2l0.2-0.2v-0.3v-55.2v-0.3l-0.2-0.2l-9.2-9.2l-0.2-0.2h-0.3h-83h-0.8v0.8v92v91.3h-16.9V559.3H951.2 M821.6,559.3v16.9
			H711.7h-0.8v0.8v92v73.6v0.8h0.8h109.9v16.9H694V559.3H821.6 M674,559.3v200.9h-16.9V586.1V584l-1.3,1.7l-36.7,45.7h-17.7
			l-36.7-45.7l-1.3-1.7v2.1v174.1h-16.9V559.3h17.3l45.9,54.9l0.6,0.7l0.6-0.7l45.9-54.9H674 M471.5,559.3l54.9,54.8v72.5h-16.9
			v-63.7v-0.3l-0.2-0.2l-46.1-46l-0.5-0.5l-0.5,0.5l-46.1,46l-0.2,0.2v0.3v64.4v0.8h0.8h91.9l18,18v54.1h-16.9v-54.5V705h-0.8h-91.9
			l-18-18v-73l54.9-54.8H471.5 M360.8,559.3l18,18V613h-16.9v-26.9v-0.3l-0.2-0.2l-9.2-9.2l-0.2-0.2h-0.3h-73.8h-0.3l-0.2,0.2
			l-9.2,9.2l-0.2,0.2v0.3v147.2v0.3l0.2,0.2l9.2,9.2l0.2,0.2h0.3h73.8h0.3l0.2-0.2l9.2-9.2l0.2-0.2v-0.3v-64.4v-0.8h-0.8h-54.6
			v-16.9h54.3l18,18v73l-18,18h-91.6l-18-18v-165l18-18H360.8 M821.6,651.3v16.9H713.5l16.9-16.9H821.6 M415.7,706.5v53.7h-16.9
			v-53.7H415.7 M1116.8,834.3v16.9h-73h-0.8v0.8v73.3l-18,18h-18.1h-0.8v0.8v91.3h-16.9V834.3h16.9v91.3v0.8h0.8h18.4h0.8v-0.8
			v-73.3l18-18H1116.8 M969.2,834.3v200.9h-16.9v-36.1v-0.3l-0.2-0.2l-92.2-101.2l-1.3-1.4v1.9v137.3h-16.9V834.3h16.9v36.1v0.3
			l0.2,0.2L950.9,972l1.3,1.4v-1.9V834.3H969.2 M766.7,834.3l54.9,54.8v72.5h-16.9v-63.7v-0.3l-0.2-0.2l-46.1-46l-0.5-0.5l-0.5,0.5
			l-46.1,46l-0.2,0.2v0.3v64.4v0.8h0.8h91.9l18,18v54.1h-16.9v-54.5V980h-0.8H712l-18-18v-73l54.9-54.8H766.7 M656,834.3l18,18v54.6
			l-16.9,16.9v-62.6v-0.3l-0.2-0.2l-9.2-9.2l-0.2-0.2h-0.3h-83h-0.8v0.8v92v73.6v0.8h0.8h83h0.3l0.2-0.2l9.2-9.2l0.2-0.2v-0.3v-64.4
			v-0.8h-0.8h-90.4l16.9-16.9H656l18,18v73l-18,18H546.4V834.3H656 M1098.8,926.3l18,18v90.9h-16.9v-91.3v-0.8h-0.8h-54.6v-16.9
			H1098.8 M710.9,981.5v53.7H694v-53.7H710.9 M1099.1,558.5h-92.2l-18.4,18.4v73.6l18.4,18.4h83l9.2,9.2v55.2l-9.2,9.2h-73.8
			l-9.2-9.2v-27.6h-18.4v36.8l18.4,18.4h92.2l18.4-18.4v-73.6l-18.4-18.4h-83l-9.2-9.2v-55.2l9.2-9.2h73.8l9.2,9.2v27.6h18.4v-36.8
			L1099.1,558.5L1099.1,558.5z M951.5,558.5H840.8v202.4h18.4v-92v-92h83l9.2,9.2v55.2l-9.2,9.2h-64.6l-18.4,18.4l92.2,92h18.4
			v-18.4h-9.2l-73.8-73.6h64.6l18.4-18.4v-73.6L951.5,558.5L951.5,558.5z M822.4,558.5H693.2v202.4h129.1v-18.4H711.7v-73.6v-92
			h110.7V558.5L822.4,558.5z M674.8,558.5h-18.4l-46.1,55.2l-46.1-55.2h-18.4v202.4h18.4V586.1l36.9,46h18.4l36.9-46v174.8h18.4
			V558.5L674.8,558.5z M471.8,558.5h-18.4L398,613.7v73.6l18.4,18.4h92.2v55.2h18.4v-55.2l-18.4-18.4h-92.2v-64.4l46.1-46l46.1,46
			v64.4h18.4v-73.6L471.8,558.5L471.8,558.5z M361.1,558.5h-92.2l-18.4,18.4v165.6l18.4,18.4h92.2l18.4-18.4v-73.6l-18.4-18.4h-55.3
			v18.4h55.3v64.4l-9.2,9.2h-73.8l-9.2-9.2V586.1l9.2-9.2h73.8l9.2,9.2v27.6h18.4v-36.8L361.1,558.5L361.1,558.5z M822.4,650.5
			h-92.2l-18.4,18.4h110.7V650.5L822.4,650.5z M416.5,705.7H398v55.2h18.4V705.7L416.5,705.7z M1117.5,833.5h-73.8l-18.4,18.4v73.6
			h-18.4v-92h-18.4v202.4h18.4v-92h18.4l18.4-18.4v-73.6h73.8V833.5L1117.5,833.5z M969.9,833.5h-18.4v138l-92.2-101.2v-36.8h-18.4
			v202.4h18.4v-138l92.2,101.2v36.8h18.4V833.5L969.9,833.5z M767,833.5h-18.4l-55.3,55.2v73.6l18.4,18.4h92.2v55.2h18.4v-55.2
			l-18.4-18.4h-92.2v-64.4l46.1-46l46.1,46v64.4h18.4v-73.6L767,833.5L767,833.5z M656.3,833.5H545.6v202.4h110.7l18.4-18.4v-73.6
			l-18.4-18.4h-73.8l-18.4,18.4h92.2v64.4l-9.2,9.2h-83V851.9h83l9.2,9.2v64.4l18.4-18.4v-55.2L656.3,833.5L656.3,833.5z
			 M1099.1,925.5h-55.3v18.4h55.3v92h18.4v-92L1099.1,925.5L1099.1,925.5z M711.7,980.7h-18.4v55.2h18.4V980.7L711.7,980.7z"/>
	</g>
	<g>
		<linearGradient id="SVGID_12_" gradientUnits="userSpaceOnUse" x1="693.2601" y1="1026.7842" x2="693.2601" y2="549.3813">
			<stop  offset="0" style="stop-color:#2E50F7"/>
			<stop  offset="1" style="stop-color:#FC2A00"/>
		</linearGradient>
		<path class="st32" d="M370.4,577l-9.2-9.2h-73.8l-9.2,9.2v147.2l9.2,9.2h73.8l9.2-9.2v-64.4h-55.3v-18.4h55.3l18.4,18.4v73.6
			l-18.4,18.4h-92.2l-18.4-18.4V567.8l18.4-18.4h92.2l18.4,18.4v36.8h-18.4V577z M518,678.2v-64.4l-46.1-46l-46.1,46v64.4H518
			l18.4,18.4v55.2H518v-55.2h-92.2l-18.4-18.4v-73.6l55.3-55.2h18.4l55.3,55.2v73.6H518z M425.8,696.6v55.2h-18.4v-55.2H425.8z
			 M665.6,751.8V577l-36.9,46h-18.4l-36.9-46v174.8h-18.4V549.4h18.4l46.1,55.2l46.1-55.2H684v202.4H665.6z M831.6,733.4v18.4H702.5
			V549.4h129.1v18.4H720.9v165.6H831.6z M720.9,659.8l18.4-18.4h92.2v18.4H720.9z M896.2,659.8l73.8,73.6h9.2v18.4h-18.4l-92.2-92
			l18.4-18.4h64.6l9.2-9.2V577l-9.2-9.2h-83v184h-18.4V549.4h110.7l18.4,18.4v73.6l-18.4,18.4H896.2z M1126.8,659.8v73.6l-18.4,18.4
			h-92.2l-18.4-18.4v-36.8h18.4v27.6l9.2,9.2h73.8l9.2-9.2V669l-9.2-9.2h-83l-18.4-18.4v-73.6l18.4-18.4h92.2l18.4,18.4v36.8h-18.4
			V577l-9.2-9.2h-73.8l-9.2,9.2v55.2l9.2,9.2h83L1126.8,659.8z M665.6,916.4V852l-9.2-9.2h-83v165.6h83l9.2-9.2v-64.4h-92.2
			l18.4-18.4H665.6l18.4,18.4v73.6l-18.4,18.4H554.9V824.4h110.7l18.4,18.4V898L665.6,916.4z M813.2,953.2v-64.4l-46.1-46l-46.1,46
			v64.4H813.2l18.4,18.4v55.2h-18.4v-55.2h-92.2l-18.4-18.4v-73.6l55.3-55.2h18.4l55.3,55.2v73.6H813.2z M720.9,971.6v55.2h-18.4
			v-55.2H720.9z M979.2,1026.8h-18.4V990l-92.2-101.2v138h-18.4V824.4h18.4v36.8l92.2,101.2v-138h18.4V1026.8z M1053,916.4
			l-18.4,18.4h-18.4v92h-18.4V824.4h18.4v92h18.4v-73.6l18.4-18.4h73.8v18.4H1053V916.4z M1053,916.4h55.3l18.4,18.4v92h-18.4v-92
			H1053V916.4z"/>
	</g>
	<g>
		<linearGradient id="SVGID_13_" gradientUnits="userSpaceOnUse" x1="693.2601" y1="1026.7842" x2="693.2601" y2="549.3813">
			<stop  offset="0" style="stop-color:#718BF0"/>
			<stop  offset="1" style="stop-color:#F76F5E"/>
		</linearGradient>
		<path class="st33" d="M1107.9,550.4l17.9,17.8v35.4h-16.4V577v-0.4l-0.3-0.3l-9.2-9.2l-0.3-0.3h-0.4h-73.8h-0.4l-0.3,0.3l-9.2,9.2
			l-0.3,0.3v0.4v55.2v0.4l0.3,0.3l9.2,9.2l0.3,0.3h0.4h82.6l17.9,17.8V733l-17.9,17.8h-91.4L998.7,733v-35.4h16.4v26.6v0.4l0.3,0.3
			l9.2,9.2l0.3,0.3h0.4h73.8h0.4l0.3-0.3l9.2-9.2l0.3-0.3v-0.4V669v-0.4l-0.3-0.3l-9.2-9.2l-0.3-0.3h-0.4h-82.6L998.7,641v-72.8
			l17.9-17.8H1107.9 M960.4,550.4l17.9,17.8V641l-17.9,17.8h-64.2h-2.4l1.7,1.7l73.8,73.6l0.3,0.3h0.4h8.2v16.4h-17l-91.2-91
			l17.4-17.4h64.2h0.4l0.3-0.3l9.2-9.2l0.3-0.3v-0.4V577v-0.4l-0.3-0.3l-9.2-9.2l-0.3-0.3h-0.4h-83h-1v1v92v91h-16.4V550.4H960.4
			 M830.6,550.4v16.4H720.9h-1v1v92v73.6v1h1h109.7v16.4H703.5V550.4H830.6 M683,550.4v200.4h-16.4V577v-2.8l-1.8,2.2L628.2,622
			h-17.5l-36.6-45.6l-1.8-2.2v2.8v173.8h-16.4V550.4h17l45.8,54.8l0.8,0.9l0.8-0.9l45.8-54.8H683 M480.7,550.4l54.8,54.6v72.2H519
			v-63.4v-0.4l-0.3-0.3l-46.1-46l-0.7-0.7l-0.7,0.7l-46.1,46l-0.3,0.3v0.4v64.4v1h1h91.8l17.9,17.8v53.8H519v-54.2v-1h-1h-91.8
			l-17.9-17.8V605l54.8-54.6H480.7 M370,550.4l17.9,17.8v35.4h-16.4V577v-0.4l-0.3-0.3l-9.2-9.2l-0.3-0.3h-0.4h-73.8H287l-0.3,0.3
			l-9.2,9.2l-0.3,0.3v0.4v147.2v0.4l0.3,0.3l9.2,9.2l0.3,0.3h0.4h73.8h0.4l0.3-0.3l9.2-9.2l0.3-0.3v-0.4v-64.4v-1h-1h-54.3v-16.4
			H370l17.9,17.8V733L370,750.8h-91.4L260.7,733V568.2l17.9-17.8H370 M830.6,642.4v16.4H723.4l16.4-16.4H830.6 M424.8,697.6v53.2
			h-16.4v-53.2H424.8 M1125.8,825.4v16.4H1053h-1v1V916l-17.9,17.8h-18h-1v1v91h-16.4V825.4h16.4v91v1h1h18.4h1v-1v-73.2l17.9-17.8
			H1125.8 M978.2,825.4v200.4h-16.4V990v-0.4l-0.3-0.3l-92.2-101.2l-1.7-1.9v2.6v137h-16.4V825.4h16.4v35.8v0.4l0.3,0.3L960,963.1
			l1.7,1.9v-2.6v-137H978.2 M775.9,825.4l54.8,54.6v72.2h-16.4v-63.4v-0.4l-0.3-0.3l-46.1-46l-0.7-0.7l-0.7,0.7l-46.1,46l-0.3,0.3
			v0.4v64.4v1h1h91.8l17.9,17.8v53.8h-16.4v-54.2v-1h-1h-91.8l-17.9-17.8V880l54.8-54.6H775.9 M665.2,825.4l17.9,17.8v54.4
			L666.6,914v-62v-0.4l-0.3-0.3l-9.2-9.2l-0.3-0.3h-0.4h-83h-1v1v92v73.6v1h1h83h0.4l0.3-0.3l9.2-9.2l0.3-0.3v-0.4v-64.4v-1h-1
			h-89.8l16.4-16.4h73l17.9,17.8v72.8l-17.9,17.8H555.9V825.4H665.2 M1107.9,917.4l17.9,17.8v90.6h-16.4v-91v-1h-1H1054v-16.4
			H1107.9 M719.9,972.6v53.2h-16.4v-53.2H719.9 M1108.4,549.4h-92.2l-18.4,18.4v73.6l18.4,18.4h83l9.2,9.2v55.2l-9.2,9.2h-73.8
			l-9.2-9.2v-27.6h-18.4v36.8l18.4,18.4h92.2l18.4-18.4v-73.6l-18.4-18.4h-83l-9.2-9.2V577l9.2-9.2h73.8l9.2,9.2v27.6h18.4v-36.8
			L1108.4,549.4L1108.4,549.4z M960.8,549.4H850.1v202.4h18.4v-92v-92h83l9.2,9.2v55.2l-9.2,9.2H887l-18.4,18.4l92.2,92h18.4v-18.4
			H970l-73.8-73.6h64.6l18.4-18.4v-73.6L960.8,549.4L960.8,549.4z M831.6,549.4H702.5v202.4h129.1v-18.4H720.9v-73.6v-92h110.7
			V549.4L831.6,549.4z M684,549.4h-18.4l-46.1,55.2l-46.1-55.2h-18.4v202.4h18.4V577l36.9,46h18.4l36.9-46v174.8H684V549.4
			L684,549.4z M481.1,549.4h-18.4l-55.3,55.2v73.6l18.4,18.4H518v55.2h18.4v-55.2L518,678.2h-92.2v-64.4l46.1-46l46.1,46v64.4h18.4
			v-73.6L481.1,549.4L481.1,549.4z M370.4,549.4h-92.2l-18.4,18.4v165.6l18.4,18.4h92.2l18.4-18.4v-73.6l-18.4-18.4h-55.3v18.4h55.3
			v64.4l-9.2,9.2h-73.8l-9.2-9.2V577l9.2-9.2h73.8l9.2,9.2v27.6h18.4v-36.8L370.4,549.4L370.4,549.4z M831.6,641.4h-92.2l-18.4,18.4
			h110.7V641.4L831.6,641.4z M425.8,696.6h-18.4v55.2h18.4V696.6L425.8,696.6z M1126.8,824.4H1053l-18.4,18.4v73.6h-18.4v-92h-18.4
			v202.4h18.4v-92h18.4l18.4-18.4v-73.6h73.8V824.4L1126.8,824.4z M979.2,824.4h-18.4v138l-92.2-101.2v-36.8h-18.4v202.4h18.4v-138
			L960.8,990v36.8h18.4V824.4L979.2,824.4z M776.3,824.4h-18.4l-55.3,55.2v73.6l18.4,18.4h92.2v55.2h18.4v-55.2l-18.4-18.4h-92.2
			v-64.4l46.1-46l46.1,46v64.4h18.4v-73.6L776.3,824.4L776.3,824.4z M665.6,824.4H554.9v202.4h110.7l18.4-18.4v-73.6l-18.4-18.4
			h-73.8l-18.4,18.4h92.2v64.4l-9.2,9.2h-83V842.8h83l9.2,9.2v64.4L684,898v-55.2L665.6,824.4L665.6,824.4z M1108.4,916.4H1053v18.4
			h55.3v92h18.4v-92L1108.4,916.4L1108.4,916.4z M720.9,971.6h-18.4v55.2h18.4V971.6L720.9,971.6z"/>
	</g>
</g>
</svg>
