<?xml version="1.0" encoding="utf-8"?>
<!-- Generator: Adobe Illustrator 24.0.1, SVG Export Plug-In . SVG Version: 6.00 Build 0)  -->
<svg version="1.1" id="Layer_1" xmlns="http://www.w3.org/2000/svg" xmlns:xlink="http://www.w3.org/1999/xlink" x="0px" y="0px"
	 viewBox="0 0 3007.8 2438" style="enable-background:new 0 0 3007.8 2438;" xml:space="preserve">
<style type="text/css">
	
		.st0{opacity:5.000000e-02;fill-rule:evenodd;clip-rule:evenodd;fill:#1B1B1B;stroke:url(#_11_1_);stroke-width:2;stroke-linejoin:round;enable-background:new    ;}
	
		.st1{opacity:8.000000e-02;fill-rule:evenodd;clip-rule:evenodd;fill:#1B1B1B;stroke:url(#_10_1_);stroke-width:2;stroke-linejoin:round;enable-background:new    ;}
	
		.st2{opacity:0.1;fill-rule:evenodd;clip-rule:evenodd;fill:#1B1B1B;stroke:url(#_9_1_);stroke-width:2;stroke-linejoin:round;enable-background:new    ;}
	
		.st3{opacity:0.2;fill-rule:evenodd;clip-rule:evenodd;fill:#1B1B1B;stroke:url(#_8_1_);stroke-width:2;stroke-linejoin:round;enable-background:new    ;}
	
		.st4{opacity:0.3;fill-rule:evenodd;clip-rule:evenodd;fill:#1B1B1B;stroke:url(#_7_1_);stroke-width:2;stroke-linejoin:round;enable-background:new    ;}
	
		.st5{opacity:0.4;fill-rule:evenodd;clip-rule:evenodd;fill:#1B1B1B;stroke:url(#_6_1_);stroke-width:2;stroke-linejoin:round;enable-background:new    ;}
	
		.st6{opacity:0.5;fill-rule:evenodd;clip-rule:evenodd;fill:#1B1B1B;stroke:url(#_5_1_);stroke-width:2;stroke-linejoin:round;enable-background:new    ;}
	
		.st7{opacity:0.6;fill-rule:evenodd;clip-rule:evenodd;fill:#1B1B1B;stroke:url(#_4_1_);stroke-width:2;stroke-linejoin:round;enable-background:new    ;}
	
		.st8{opacity:0.7;fill-rule:evenodd;clip-rule:evenodd;fill:#1B1B1B;stroke:url(#_3_1_);stroke-width:2;stroke-linejoin:round;enable-background:new    ;}
	
		.st9{opacity:0.8;fill-rule:evenodd;clip-rule:evenodd;fill:#1B1B1B;stroke:url(#_2_1_);stroke-width:2;stroke-linejoin:round;enable-background:new    ;}
	
		.st10{opacity:0.9;fill-rule:evenodd;clip-rule:evenodd;fill:#1B1B1B;stroke:url(#_1_1_);stroke-width:2;stroke-linejoin:round;enable-background:new    ;}
	.st11{fill-rule:evenodd;clip-rule:evenodd;fill:url(#Gamers_Bank-2_2_);}
	.st12{fill:none;stroke:url(#Gamers_Bank-2_3_);stroke-width:2;stroke-linejoin:round;}
	
		.st13{opacity:2.000000e-02;fill-rule:evenodd;clip-rule:evenodd;fill:#202020;stroke:#FFFFFF;stroke-width:2;stroke-linejoin:round;enable-background:new    ;}
	
		.st14{opacity:5.000000e-02;fill-rule:evenodd;clip-rule:evenodd;fill:#202020;stroke:#FFFFFF;stroke-width:2;stroke-linejoin:round;enable-background:new    ;}
	
		.st15{opacity:0.1;fill-rule:evenodd;clip-rule:evenodd;fill:#202020;stroke:#FFFFFF;stroke-width:2;stroke-linejoin:round;enable-background:new    ;}
	
		.st16{opacity:0.15;fill-rule:evenodd;clip-rule:evenodd;fill:#202020;stroke:#FFFFFF;stroke-width:2;stroke-linejoin:round;enable-background:new    ;}
	
		.st17{opacity:0.2;fill-rule:evenodd;clip-rule:evenodd;fill:#202020;stroke:#FFFFFF;stroke-width:2;stroke-linejoin:round;enable-background:new    ;}
	
		.st18{opacity:0.25;fill-rule:evenodd;clip-rule:evenodd;fill:#202020;stroke:#FFFFFF;stroke-width:2;stroke-linejoin:round;enable-background:new    ;}
	
		.st19{opacity:0.3;fill-rule:evenodd;clip-rule:evenodd;fill:#202020;stroke:#FFFFFF;stroke-width:2;stroke-linejoin:round;enable-background:new    ;}
	.st20{fill-rule:evenodd;clip-rule:evenodd;fill:#252525;stroke:#FFFFFF;stroke-width:2;stroke-linejoin:round;}
</style>
<linearGradient id="_11_1_" gradientUnits="userSpaceOnUse" x1="2934.5613" y1="-2887.0505" x2="2934.5613" y2="-1808.2405" gradientTransform="matrix(1 0 0 -1 -1004 -449.0701)">
	<stop  offset="0" style="stop-color:#2B5AF3"/>
	<stop  offset="1" style="stop-color:#F7301B"/>
</linearGradient>
<path id="_11" class="st0" d="M1249.4,1481.6v-82.2l-41.4-41.2h-206.5l-41.3,41.2v370.6l41.3,41.2h206.5l41.4-41.2v-164.7
	l-41.4-41.2H1084v41.2h124.1v144.1l-20.7,20.6h-165.1l-20.7-20.6V1420l20.7-20.6h165.1l20.7,20.6v61.6L1249.4,1481.6L1249.4,1481.6z
	 M1579.7,1481.6l-124.1-123.5h-41.4l-123.8,123.5v165l41.4,41h206.5v123.7h41.4v-123.7l-41.4-41h-206.5v-144.4l103.1-102.8
	l103.4,102.8v144.4h41.4V1481.6z M1290.5,1811.3h41.4v-123.7h-41.4V1811.3z M1910,1358.2h-41.4l-103.4,123.5l-103.1-123.5h-41.4
	v453.1h41.4v-391.3l82.4,102.9h41.4l82.7-102.9v391.3h41.4L1910,1358.2L1910,1358.2z M1992.5,1399.4h247.8v-41.2h-289.2v453.1h289.2
	v-41.2h-247.8L1992.5,1399.4L1992.5,1399.4z M2240.3,1564.1h-206.5l-41.4,41.2h247.8V1564.1z M2570.6,1564.1v-164.7l-41.3-41.2
	h-247.9v453.1h41.4v-411.9h185.8l20.7,20.6v123.5l-20.7,20.6h-144.5l-41.4,41.2l206.5,206h41.3v-41.2h-20.7l-165.1-164.7h144.5
	L2570.6,1564.1z M2673.7,1564.1l-20.7-20.6V1420l20.7-20.6h165.1l20.7,20.6v61.6h41.4v-82.2l-41.4-41.2H2653l-41.4,41.2v164.7
	l41.4,41.2h185.8l20.7,20.6v123.5l-20.7,20.6h-165.1l-20.7-20.6v-61.9h-41.4v82.5l41.4,41.2h206.5l41.4-41.2v-164.7l-41.4-41.2
	L2673.7,1564.1L2673.7,1564.1z M1910,2025.1l-41.4-41.2h-247.8V2437h247.8l41.4-41.2V2231l-41.4-41.2h-165.1l-41.4,41.2h206.5v144.1
	l-20.7,20.6h-185.8v-370.7H1848l20.7,20.6v144.1l41.4-41.2V2025.1L1910,2025.1z M2240.3,2107.3l-124.1-123.5h-41.4l-123.8,123.5v165
	l41.4,41H2199V2437h41.4v-123.7l-41.4-41h-206.5v-144.3l103.1-102.9l103.4,102.9v144.3h41.4V2107.3z M1951.1,2437h41.4v-123.7h-41.4
	V2437z M2529.3,1983.8v309l-206.5-226.8v-82.2h-41.4V2437h41.4v-309l206.5,226.6v82.5h41.3v-453.1H2529.3z M2900.9,2025.1v-41.2
	h-165.4l-41.1,41.2v164.7H2653v-206h-41.4V2437h41.4v-206h41.4l41.1-41.2v-164.7L2900.9,2025.1L2900.9,2025.1z M2859.5,2231v206
	h41.4v-206l-41.4-41.2h-124.1v41.2H2859.5z"/>
<g>
	
		<linearGradient id="_10_1_" gradientUnits="userSpaceOnUse" x1="2944.1863" y1="-2877.4202" x2="2944.1863" y2="-1798.6003" gradientTransform="matrix(1 0 0 -1 -1004 -449.0701)">
		<stop  offset="0" style="stop-color:#2B5AF3"/>
		<stop  offset="1" style="stop-color:#F7301B"/>
	</linearGradient>
	<path id="_10" class="st1" d="M1259.1,1472v-82.2l-41.4-41.2h-206.5l-41.3,41.2v370.7l41.3,41.2h206.5l41.4-41.2v-164.7l-41.4-41.2
		h-124.1v41.2h124.1v144.1l-20.7,20.6h-165.2l-20.7-20.6v-329.4l20.7-20.6H1197l20.7,20.6v61.6H1259.1z M1589.3,1472l-124-123.5
		H1424L1300.2,1472v165l41.4,41H1548v123.7h41.3V1678l-41.3-41h-206.5v-144.3l103.1-102.9l103.4,102.9V1637h41.3V1472z
		 M1300.2,1801.7h41.4V1678h-41.4V1801.7z M1919.6,1348.6h-41.4L1774.9,1472l-103.1-123.5h-41.4v453.1h41.4v-391.3l82.4,102.9h41.4
		l82.7-102.9v391.3h41.4V1348.6z M2002.1,1389.8h247.9v-41.2h-289.2v453.1h289.2v-41.2h-247.9V1389.8L2002.1,1389.8z M2249.9,1554.5
		h-206.5l-41.4,41.2h247.9V1554.5z M2580.2,1554.5v-164.7l-41.4-41.2H2291v453.1h41.4v-411.9h185.8l20.7,20.6v123.5l-20.7,20.6
		h-144.5l-41.3,41.2l206.5,206h41.4v-41.2h-20.7l-165.1-164.7h144.5L2580.2,1554.5z M2683.3,1554.5l-20.7-20.6v-123.5l20.7-20.6
		h165.1l20.7,20.6v61.6h41.4v-82.2l-41.4-41.2h-206.5l-41.4,41.2v164.7l41.4,41.2h185.8l20.7,20.6v123.5l-20.7,20.6h-165.1
		l-20.7-20.6V1678h-41.4v82.5l41.4,41.2h206.5l41.4-41.2v-164.7l-41.4-41.2L2683.3,1554.5L2683.3,1554.5z M1919.6,2015.4l-41.4-41.2
		h-247.9v453.1h247.9l41.4-41.2v-164.7l-41.4-41.2h-165.1l-41.4,41.2h206.5v144.1l-20.7,20.6h-185.8v-370.7h185.8l20.7,20.6v144.1
		l41.4-41.2V2015.4L1919.6,2015.4z M2249.9,2097.7l-124.1-123.5h-41.4l-123.8,123.5v165l41.4,41h206.5v123.7h41.4v-123.7l-41.4-41
		h-206.5v-144.3l103.1-102.9l103.4,102.9v144.3h41.4V2097.7z M1960.7,2427.3h41.4v-123.7h-41.4V2427.3z M2538.9,1974.2v309
		l-206.5-226.8v-82.2H2291v453.1h41.4v-309l206.5,226.6v82.5h41.4v-453.1H2538.9z M2910.5,2015.4v-41.2h-165.4l-41.1,41.2v164.7
		h-41.4v-206h-41.4v453.1h41.4v-206h41.4l41.1-41.2v-164.7L2910.5,2015.4L2910.5,2015.4z M2869.2,2221.4v206h41.4v-206l-41.4-41.2
		h-124.1v41.2H2869.2z"/>
	
		<linearGradient id="_9_1_" gradientUnits="userSpaceOnUse" x1="2953.8113" y1="-2867.8005" x2="2953.8113" y2="-1788.9905" gradientTransform="matrix(1 0 0 -1 -1004 -449.0701)">
		<stop  offset="0" style="stop-color:#2B5AF3"/>
		<stop  offset="1" style="stop-color:#F7301B"/>
	</linearGradient>
	<path id="_9" class="st2" d="M1268.7,1462.4v-82.2l-41.4-41.2h-206.5l-41.3,41.2v370.7l41.3,41.2h206.5l41.4-41.2v-164.7
		l-41.4-41.2h-124.1v41.2h124.1v144.1l-20.7,20.6h-165.1l-20.7-20.6v-329.4l20.7-20.6h165.1l20.7,20.6v61.6H1268.7z M1599,1462.4
		l-124.1-123.5h-41.4l-123.8,123.5v165l41.3,41h206.5v123.7h41.4v-123.7l-41.4-41h-206.5V1483l103.1-102.9l103.4,102.9v144.3h41.4
		V1462.4z M1309.8,1792.1h41.3v-123.7h-41.3V1792.1z M1929.3,1338.9h-41.4l-103.4,123.5l-103.1-123.5h-41.4v453.1h41.4v-391.3
		l82.4,102.8h41.4l82.7-102.8v391.3h41.4L1929.3,1338.9L1929.3,1338.9z M2011.7,1380.2h247.8v-41.2h-289.2v453.1h289.2v-41.2h-247.8
		L2011.7,1380.2L2011.7,1380.2z M2259.6,1544.9h-206.5l-41.4,41.2h247.8L2259.6,1544.9L2259.6,1544.9z M2589.9,1544.9v-164.7
		l-41.4-41.2h-247.9v453.1h41.4v-411.9h185.8l20.7,20.6v123.5l-20.7,20.6h-144.5l-41.4,41.2l206.5,206h41.4v-41.2h-20.7L2404,1586.1
		h144.5L2589.9,1544.9z M2693,1544.9l-20.7-20.6v-123.5l20.7-20.6h165.1l20.7,20.6v61.6h41.4v-82.2l-41.4-41.2h-206.5l-41.4,41.2
		v164.7l41.4,41.2h185.8l20.7,20.6v123.5l-20.7,20.6H2693l-20.7-20.6v-61.9h-41.4v82.5l41.4,41.2h206.5l41.4-41.2v-164.7l-41.4-41.2
		H2693z M1929.3,2005.8l-41.4-41.2h-247.8v453.1h247.8l41.4-41.2v-164.7l-41.4-41.2h-165.1l-41.4,41.2h206.5v144.1l-20.7,20.6
		h-185.8v-370.7h185.8l20.7,20.6v144.1l41.4-41.2V2005.8L1929.3,2005.8z M2259.6,2088.1l-124-123.5h-41.4l-123.8,123.5v165l41.4,41
		h206.5v123.7h41.4V2294l-41.4-41h-206.5v-144.3l103.1-102.9l103.4,102.9V2253h41.4L2259.6,2088.1L2259.6,2088.1z M1970.4,2417.7
		h41.4V2294h-41.4V2417.7z M2548.5,1964.6v309L2342,2046.8v-82.2h-41.4v453.1h41.4v-309l206.5,226.6v82.5h41.4v-453.1H2548.5z
		 M2920.1,2005.8v-41.2h-165.4l-41.1,41.2v164.7h-41.4v-206h-41.4v453.1h41.4v-206h41.4l41.1-41.2v-164.7L2920.1,2005.8
		L2920.1,2005.8z M2878.8,2211.8v206h41.4v-206l-41.4-41.2h-124.1v41.2H2878.8z"/>
	
		<linearGradient id="_8_1_" gradientUnits="userSpaceOnUse" x1="2963.4365" y1="-2858.1702" x2="2963.4365" y2="-1779.3601" gradientTransform="matrix(1 0 0 -1 -1004 -449.0701)">
		<stop  offset="0" style="stop-color:#2B5AF3"/>
		<stop  offset="1" style="stop-color:#F7301B"/>
	</linearGradient>
	<path id="_8" class="st3" d="M1278.3,1452.8v-82.2l-41.4-41.2h-206.5l-41.3,41.2v370.7l41.3,41.2H1237l41.4-41.2v-164.7l-41.4-41.2
		h-124v41.2h124v144.1l-20.7,20.6h-165.2l-20.7-20.6v-329.4l20.7-20.6h165.2l20.7,20.6v61.6H1278.3L1278.3,1452.8z M1608.6,1452.8
		l-124.1-123.5h-41.4l-123.8,123.5v165l41.4,41h206.5v123.7h41.4v-123.7l-41.4-41h-206.5v-144.3l103.1-102.9l103.4,102.9v144.3h41.4
		V1452.8z M1319.4,1782.4h41.4v-123.7h-41.4V1782.4z M1938.9,1329.3h-41.4l-103.4,123.5L1691,1329.3h-41.4v453.1h41.4v-391.3
		l82.4,102.9h41.4l82.7-102.9v391.3h41.4V1329.3z M2021.3,1370.5h247.9v-41.2H1980v453.1h289.2v-41.2h-247.9V1370.5L2021.3,1370.5z
		 M2269.2,1535.3h-206.5l-41.4,41.2h247.9V1535.3z M2599.5,1535.3v-164.7l-41.4-41.2h-247.8v453.1h41.4v-411.9h185.8l20.7,20.6
		v123.5l-20.7,20.6H2393l-41.4,41.2l206.5,206h41.4v-41.2h-20.7l-165.1-164.7h144.5L2599.5,1535.3z M2702.6,1535.3l-20.7-20.6
		v-123.5l20.7-20.6h165.1l20.7,20.6v61.6h41.4v-82.2l-41.4-41.2h-206.5l-41.4,41.2v164.7l41.4,41.2h185.8l20.7,20.6v123.5
		l-20.7,20.6h-165.1l-20.7-20.6v-61.9h-41.4v82.5l41.4,41.2h206.5l41.4-41.2v-164.7l-41.4-41.2H2702.6z M1938.9,1996.2l-41.4-41.2
		h-247.9v453.1h247.9l41.4-41.2v-164.7l-41.4-41.2h-165.1l-41.4,41.2h206.5v144.1l-20.7,20.6H1691v-370.7h185.8l20.7,20.6v144.1
		l41.4-41.2V1996.2L1938.9,1996.2z M2269.2,2078.4L2145.1,1955h-41.4L1980,2078.4v165l41.4,41h206.5v123.7h41.4v-123.7l-41.4-41
		h-206.5V2099l103.1-102.9l103.4,102.9v144.3h41.4V2078.4z M1980,2408.1h41.4v-123.7H1980V2408.1z M2558.1,1955v309l-206.5-226.8
		V1955h-41.4v453.1h41.4v-309l206.5,226.6v82.5h41.4V1955H2558.1z M2929.8,1996.2V1955h-165.4l-41.1,41.2v164.7h-41.4v-206h-41.4
		v453.1h41.4v-206h41.4l41.1-41.2v-164.7L2929.8,1996.2L2929.8,1996.2z M2888.4,2202.1v206h41.4v-206l-41.4-41.2h-124.1v41.2H2888.4
		L2888.4,2202.1z"/>
	
		<linearGradient id="_7_1_" gradientUnits="userSpaceOnUse" x1="2973.0613" y1="-2848.5505" x2="2973.0613" y2="-1769.7405" gradientTransform="matrix(1 0 0 -1 -1004 -449.0701)">
		<stop  offset="0" style="stop-color:#2B5AF3"/>
		<stop  offset="1" style="stop-color:#F7301B"/>
	</linearGradient>
	<path id="_7" class="st4" d="M1287.9,1443.1v-82.2l-41.4-41.2h-206.5l-41.3,41.2v370.7l41.3,41.2h206.5l41.4-41.2v-164.7
		l-41.4-41.2h-124.1v41.2h124.1V1711l-20.7,20.6h-165.1l-20.7-20.6v-329.4l20.7-20.6h165.1l20.7,20.6v61.6H1287.9L1287.9,1443.1z
		 M1618.2,1443.1l-124.1-123.5h-41.4L1329,1443.1v165l41.4,41h206.5v123.7h41.4v-123.7l-41.4-41h-206.5v-144.3l103.1-102.9
		l103.4,102.9v144.3h41.4V1443.1z M1329,1772.8h41.4v-123.7H1329V1772.8z M1948.5,1319.7h-41.4l-103.4,123.5l-103.1-123.5h-41.4
		v453.1h41.4v-391.3l82.4,102.9h41.4l82.7-102.9v391.3h41.4L1948.5,1319.7L1948.5,1319.7z M2031,1360.9h247.8v-41.2h-289.2v453.1
		h289.2v-41.2H2031L2031,1360.9L2031,1360.9z M2278.8,1525.6h-206.5l-41.4,41.2h247.8V1525.6z M2609.1,1525.6v-164.7l-41.4-41.2
		h-247.9v453.1h41.4v-411.9h185.8l20.7,20.6V1505l-20.7,20.6h-144.5l-41.4,41.2l206.5,206h41.4v-41.2h-20.7l-165.1-164.7h144.5
		L2609.1,1525.6z M2712.2,1525.6l-20.7-20.6v-123.5l20.7-20.6h165.1l20.7,20.6v61.6h41.4v-82.2l-41.4-41.2h-206.5l-41.4,41.2v164.7
		l41.4,41.2h185.8l20.7,20.6V1711l-20.7,20.6h-165.1l-20.7-20.6v-61.9h-41.4v82.5l41.4,41.2H2898l41.4-41.2v-164.7l-41.4-41.2
		L2712.2,1525.6L2712.2,1525.6z M1948.5,1986.6l-41.4-41.2h-247.8v453.1h247.8l41.4-41.2v-164.7l-41.4-41.2H1742l-41.4,41.2h206.5
		v144.1l-20.7,20.6h-185.8v-370.7h185.8l20.7,20.6v144.1l41.4-41.2V1986.6L1948.5,1986.6z M2278.8,2068.8l-124-123.5h-41.4
		l-123.8,123.5v165l41.4,41h206.5v123.7h41.3v-123.7l-41.3-41H2031v-144.3l103.1-102.9l103.4,102.9v144.3h41.3V2068.8z
		 M1989.6,2398.5h41.4v-123.7h-41.4V2398.5z M2567.8,1945.3v309l-206.5-226.8v-82.2h-41.4v453.1h41.4v-309l206.5,226.6v82.5h41.4
		v-453.1H2567.8z M2939.4,1986.6v-41.2H2774l-41.1,41.2v164.7h-41.4v-206h-41.4v453.1h41.4v-206h41.4l41.1-41.2v-164.7
		L2939.4,1986.6L2939.4,1986.6z M2898,2192.5v206h41.4v-206l-41.4-41.2H2774v41.2H2898z"/>
	
		<linearGradient id="_6_1_" gradientUnits="userSpaceOnUse" x1="2982.6863" y1="-2838.9202" x2="2982.6863" y2="-1760.1003" gradientTransform="matrix(1 0 0 -1 -1004 -449.0701)">
		<stop  offset="0" style="stop-color:#2B5AF3"/>
		<stop  offset="1" style="stop-color:#F7301B"/>
	</linearGradient>
	<path id="_6" class="st5" d="M1297.6,1433.5v-82.2l-41.4-41.2h-206.5l-41.3,41.2V1722l41.3,41.2h206.5l41.4-41.2v-164.7l-41.4-41.2
		h-124v41.2h124v144.1l-20.7,20.6h-165.2l-20.7-20.6v-329.4l20.7-20.6h165.2l20.7,20.6v61.6H1297.6z M1627.9,1433.5l-124.1-123.5
		h-41.4l-123.8,123.5v165l41.4,41h206.5v123.7h41.4v-123.7l-41.4-41H1380v-144.3l103.1-102.9l103.4,102.9v144.3h41.4V1433.5z
		 M1338.7,1763.2h41.4v-123.7h-41.4V1763.2z M1958.1,1310.1h-41.4l-103.4,123.5l-103.1-123.5h-41.4v453.1h41.4v-391.3l82.4,102.9
		h41.4l82.7-102.9v391.3h41.4V1310.1z M2040.6,1351.3h247.8v-41.2h-289.2v453.1h289.2V1722h-247.8V1351.3L2040.6,1351.3z
		 M2288.4,1516h-206.5l-41.3,41.2h247.8V1516z M2618.7,1516v-164.7l-41.4-41.2h-247.8v453.1h41.4v-411.9h185.8l20.7,20.6v123.5
		l-20.7,20.6h-144.5l-41.4,41.2l206.5,206h41.4V1722h-20.7l-165.1-164.7h144.5L2618.7,1516z M2721.8,1516l-20.7-20.6v-123.5
		l20.7-20.6H2887l20.7,20.6v61.6h41.4v-82.2l-41.4-41.2h-206.5l-41.4,41.2V1516l41.4,41.2H2887l20.7,20.6v123.5L2887,1722h-165.1
		l-20.7-20.6v-61.9h-41.4v82.5l41.4,41.2h206.5l41.4-41.2v-164.7l-41.4-41.2L2721.8,1516L2721.8,1516z M1958.1,1976.9l-41.4-41.2
		h-247.9v453.1h247.9l41.4-41.2v-164.7l-41.4-41.2h-165.1l-41.4,41.2h206.5V2327l-20.7,20.6h-185.8v-370.7h185.8l20.7,20.6v144.1
		l41.4-41.2V1976.9L1958.1,1976.9z M2288.4,2059.2l-124.1-123.5H2123l-123.8,123.5v165l41.3,41h206.5v123.7h41.4v-123.7l-41.4-41
		h-206.5v-144.3l103.1-102.9l103.4,102.9v144.3h41.4V2059.2z M1999.2,2388.8h41.3v-123.7h-41.3V2388.8z M2577.4,1935.7v309
		l-206.5-226.8v-82.2h-41.4v453.1h41.4v-309l206.5,226.6v82.5h41.4v-453.1H2577.4z M2949,1976.9v-41.2h-165.4l-41.1,41.2v164.7
		h-41.4v-206h-41.4v453.1h41.4v-206h41.4l41.1-41.2v-164.7L2949,1976.9L2949,1976.9z M2907.7,2182.9v206h41.4v-206l-41.4-41.2h-124
		v41.2H2907.7z"/>
	
		<linearGradient id="_5_1_" gradientUnits="userSpaceOnUse" x1="2992.3164" y1="-2829.2908" x2="2992.3164" y2="-1750.4807" gradientTransform="matrix(1 0 0 -1 -1004 -449.0701)">
		<stop  offset="0" style="stop-color:#2B5AF3"/>
		<stop  offset="1" style="stop-color:#F7301B"/>
	</linearGradient>
	<path id="_5" class="st6" d="M1307.2,1423.9v-82.2l-41.4-41.2h-206.5l-41.3,41.2v370.7l41.3,41.2h206.5l41.4-41.2v-164.7
		l-41.4-41.2h-124.1v41.2h124.1v144.1l-20.7,20.6H1080l-20.7-20.6v-329.4l20.7-20.6h165.2l20.7,20.6v61.6H1307.2z M1637.5,1423.9
		l-124.1-123.5h-41.4l-123.8,123.5v165l41.4,41h206.5v123.7h41.4v-123.7l-41.4-41h-206.5v-144.3l103.1-102.9l103.4,102.9v144.3h41.4
		L1637.5,1423.9L1637.5,1423.9z M1348.3,1753.6h41.4v-123.7h-41.4V1753.6z M1967.8,1300.4h-41.4L1823,1423.9l-103.1-123.5h-41.4
		v453.1h41.4v-391.3l82.4,102.9h41.3l82.7-102.9v391.3h41.4L1967.8,1300.4L1967.8,1300.4z M2050.2,1341.7h247.9v-41.2h-289.2v453.1
		h289.2v-41.2h-247.9V1341.7L2050.2,1341.7z M2298.1,1506.4h-206.5l-41.4,41.2h247.9L2298.1,1506.4L2298.1,1506.4z M2628.4,1506.4
		v-164.7l-41.4-41.2h-247.9v453.1h41.4v-411.9h185.8l20.7,20.6v123.5l-20.7,20.6h-144.5l-41.4,41.2l206.5,206h41.4v-41.2h-20.7
		l-165.1-164.7H2587L2628.4,1506.4z M2731.5,1506.4l-20.7-20.6v-123.5l20.7-20.6h165.1l20.7,20.6v61.6h41.4v-82.2l-41.4-41.2h-206.5
		l-41.4,41.2v164.7l41.4,41.2h185.8l20.7,20.6v123.5l-20.7,20.6h-165.1l-20.7-20.6v-61.9h-41.4v82.5l41.4,41.2h206.5l41.4-41.2
		v-164.7l-41.4-41.2H2731.5z M1967.8,1967.3l-41.4-41.2h-247.8v453.1h247.8l41.4-41.2v-164.7l-41.4-41.2h-165.1l-41.4,41.2h206.5
		v144.1l-20.7,20.6h-185.8v-370.6h185.8l20.7,20.6V2132l41.4-41.2V1967.3L1967.8,1967.3z M2298.1,2049.6L2174,1926.1h-41.4
		l-123.8,123.5v165l41.4,41h206.5v123.7h41.4v-123.7l-41.4-41h-206.5v-144.4l103.1-102.8l103.4,102.8v144.4h41.4V2049.6z
		 M2008.9,2379.2h41.4v-123.7h-41.4V2379.2z M2587,1926.1v309l-206.5-226.8v-82.2h-41.4v453.1h41.4v-309l206.5,226.6v82.5h41.4
		v-453.1L2587,1926.1L2587,1926.1z M2958.6,1967.3v-41.2h-165.4l-41.1,41.2V2132h-41.4v-205.9h-41.4v453.1h41.4v-205.9h41.4
		l41.1-41.2v-164.7H2958.6z M2917.3,2173.3v205.9h41.4v-205.9l-41.4-41.2h-124.1v41.2H2917.3z"/>
	
		<linearGradient id="_4_1_" gradientUnits="userSpaceOnUse" x1="3001.9363" y1="-2819.6702" x2="3001.9363" y2="-1740.8601" gradientTransform="matrix(1 0 0 -1 -1004 -449.0701)">
		<stop  offset="0" style="stop-color:#2B5AF3"/>
		<stop  offset="1" style="stop-color:#F7301B"/>
	</linearGradient>
	<path id="_4" class="st7" d="M1316.8,1414.3V1332l-41.4-41.2H1069l-41.3,41.2v370.7l41.3,41.2h206.5l41.4-41.2V1538l-41.4-41.2
		h-124.1v41.2h124.1v144.1l-20.7,20.6h-165.2l-20.7-20.6v-329.4l20.7-20.6h165.2l20.7,20.6v61.6H1316.8z M1647.1,1414.3
		l-124.1-123.5h-41.4l-123.8,123.5v165l41.4,41h206.5V1744h41.4v-123.7l-41.4-41h-206.5v-144.3l103.1-102.9l103.4,102.9v144.3h41.4
		V1414.3z M1357.9,1743.9h41.4v-123.7h-41.4V1743.9z M1977.4,1290.8H1936l-103.4,123.5l-103.1-123.5h-41.4v453.1h41.4v-391.3
		l82.4,102.9h41.4l82.7-102.9v391.3h41.4V1290.8z M2059.8,1332h247.8v-41.2h-289.2v453.1h289.2v-41.2h-247.8V1332L2059.8,1332z
		 M2307.7,1496.8h-206.5l-41.4,41.2h247.8V1496.8z M2638,1496.8V1332l-41.4-41.2h-247.8v453.1h41.4V1332H2576l20.7,20.6v123.5
		l-20.7,20.6h-144.5l-41.4,41.2l206.5,206h41.4v-41.2h-20.7L2452.2,1538h144.5L2638,1496.8z M2741.1,1496.8l-20.7-20.6v-123.5
		l20.7-20.6h165.1l20.7,20.6v61.6h41.3V1332l-41.3-41.2h-206.5l-41.4,41.2v164.7l41.4,41.2h185.8l20.7,20.6v123.5l-20.7,20.6h-165.1
		l-20.7-20.6v-61.9h-41.4v82.5l41.4,41.2h206.5l41.3-41.2V1538l-41.3-41.2H2741.1z M1977.4,1957.7l-41.4-41.2h-247.9v453.1H1936
		l41.4-41.2v-164.7l-41.4-41.2h-165.1l-41.4,41.2H1936v144.1l-20.7,20.6h-185.8v-370.7h185.8l20.7,20.6v144.1l41.4-41.2V1957.7
		L1977.4,1957.7z M2307.7,2039.9l-124.1-123.5h-41.4l-123.8,123.5v165l41.4,41h206.5v123.7h41.4v-123.7l-41.4-41h-206.5v-144.3
		l103.1-102.9l103.4,102.9v144.3h41.4L2307.7,2039.9L2307.7,2039.9z M2018.5,2369.6h41.4v-123.7h-41.4V2369.6z M2596.6,1916.5v309
		l-206.5-226.8v-82.2h-41.4v453.1h41.4v-309l206.5,226.6v82.5h41.4v-453.1H2596.6z M2968.3,1957.7v-41.2h-165.4l-41.1,41.2v164.7
		h-41.4v-206h-41.4v453.1h41.4v-206h41.4l41.1-41.2v-164.7L2968.3,1957.7L2968.3,1957.7z M2926.9,2163.6v206h41.3v-206l-41.3-41.2
		h-124.1v41.2H2926.9z"/>
	
		<linearGradient id="_3_1_" gradientUnits="userSpaceOnUse" x1="3011.5664" y1="-2810.0403" x2="3011.5664" y2="-1731.2302" gradientTransform="matrix(1 0 0 -1 -1004 -449.0701)">
		<stop  offset="0" style="stop-color:#2B5AF3"/>
		<stop  offset="1" style="stop-color:#F7301B"/>
	</linearGradient>
	<path id="_3" class="st8" d="M1326.4,1404.6v-82.2l-41.4-41.2h-206.5l-41.3,41.2v370.7l41.3,41.2h206.5l41.4-41.2v-164.7
		l-41.4-41.2H1161v41.2h124.1v144.1l-20.7,20.6h-165.2l-20.7-20.6V1343l20.7-20.6h165.1l20.7,20.6v61.6H1326.4L1326.4,1404.6z
		 M1656.7,1404.6l-124.1-123.5h-41.4l-123.8,123.5v165l41.4,41h206.5v123.7h41.4v-123.7l-41.4-41h-206.5v-144.3l103.1-102.9
		l103.4,102.9v144.3h41.4L1656.7,1404.6L1656.7,1404.6z M1367.5,1734.3h41.4v-123.7h-41.4V1734.3z M1987,1281.2h-41.4l-103.4,123.5
		l-103.1-123.5h-41.4v453.1h41.4V1343l82.4,102.9h41.4l82.7-102.9v391.3h41.4L1987,1281.2L1987,1281.2z M2069.5,1322.4h247.9v-41.2
		h-289.2v453.1h289.2v-41.2h-247.9L2069.5,1322.4L2069.5,1322.4z M2317.3,1487.1h-206.5l-41.4,41.2h247.9V1487.1z M2647.6,1487.1
		v-164.7l-41.4-41.2h-247.9v453.1h41.4v-411.9h185.8l20.7,20.6v123.5l-20.7,20.6h-144.5l-41.4,41.2l206.5,206h41.4v-41.2h-20.7
		l-165.1-164.7h144.5L2647.6,1487.1z M2750.7,1487.1l-20.7-20.6V1343l20.7-20.6h165.1l20.7,20.6v61.6h41.4v-82.2l-41.4-41.2h-206.5
		l-41.4,41.2v164.7l41.4,41.2h185.8l20.7,20.6v123.5l-20.7,20.6h-165.1l-20.7-20.6v-61.9h-41.4v82.5l41.4,41.2h206.5l41.4-41.2
		v-164.7l-41.4-41.2H2750.7z M1987,1948.1l-41.4-41.2h-247.8V2360h247.8l41.4-41.2V2154l-41.4-41.2h-165.1l-41.4,41.2h206.5v144.1
		l-20.7,20.6h-185.8v-370.7H1925l20.7,20.6v144.1l41.4-41.2V1948.1L1987,1948.1z M2317.3,2030.3l-124.1-123.5h-41.4l-123.8,123.5
		v165l41.4,41H2276V2360h41.4v-123.7l-41.4-41h-206.5v-144.3l103.1-102.9l103.4,102.9v144.3h41.4L2317.3,2030.3L2317.3,2030.3z
		 M2028.1,2360h41.4v-123.7h-41.4V2360z M2606.3,1906.8v309l-206.5-226.8v-82.2h-41.4V2360h41.4v-309l206.5,226.6v82.5h41.4v-453.1
		H2606.3z M2977.9,1948.1v-41.2h-165.4l-41.1,41.2v164.7h-41.3v-206h-41.4V2360h41.4V2154h41.3l41.1-41.2v-164.7H2977.9z
		 M2936.5,2154v206h41.4v-206l-41.4-41.2h-124.1v41.2H2936.5z"/>
	
		<linearGradient id="_2_1_" gradientUnits="userSpaceOnUse" x1="3021.1912" y1="-2800.4202" x2="3021.1912" y2="-1721.6003" gradientTransform="matrix(1 0 0 -1 -1004 -449.0701)">
		<stop  offset="0" style="stop-color:#2B5AF3"/>
		<stop  offset="1" style="stop-color:#F7301B"/>
	</linearGradient>
	<path id="_2" class="st9" d="M1336.1,1395v-82.2l-41.4-41.2h-206.5l-41.3,41.2v370.7l41.3,41.2h206.5l41.4-41.2v-164.7l-41.4-41.2
		h-124v41.2h124.1v144.1l-20.7,20.6h-165.1l-20.7-20.6v-329.4l20.7-20.6H1274l20.7,20.6v61.6H1336.1L1336.1,1395z M1666.4,1395
		l-124.1-123.5H1501L1377.2,1395v165l41.4,41H1625v123.7h41.4V1601l-41.4-41h-206.5v-144.3l103.1-102.9l103.4,102.9V1560h41.4V1395z
		 M1377.2,1724.7h41.4V1601h-41.4V1724.7z M1996.6,1271.6h-41.4L1851.9,1395l-103.1-123.5h-41.3v453.1h41.3v-391.3l82.4,102.9h41.4
		l82.7-102.9v391.3h41.4V1271.6z M2079.1,1312.8h247.8v-41.2h-289.2v453.1h289.2v-41.2h-247.8V1312.8L2079.1,1312.8z M2326.9,1477.5
		h-206.5l-41.4,41.2h247.8V1477.5z M2657.2,1477.5v-164.7l-41.4-41.2H2368v453.1h41.4v-411.9h185.8l20.7,20.6v123.5l-20.7,20.6
		h-144.5l-41.4,41.2l206.5,206h41.4v-41.2h-20.7l-165.1-164.7h144.5L2657.2,1477.5z M2760.4,1477.5l-20.7-20.6v-123.5l20.7-20.6
		h165.1l20.7,20.6v61.6h41.4v-82.2l-41.4-41.2h-206.5l-41.4,41.2v164.7l41.4,41.2h185.8l20.7,20.6v123.5l-20.7,20.6h-165.1
		l-20.7-20.6V1601h-41.4v82.5l41.4,41.2h206.5l41.4-41.2v-164.7l-41.4-41.2L2760.4,1477.5L2760.4,1477.5z M1996.6,1938.4l-41.4-41.2
		h-247.8v453.1h247.8l41.4-41.2v-164.7l-41.4-41.2h-165.1l-41.4,41.2h206.5v144.1l-20.7,20.6h-185.8v-370.7h185.8l20.7,20.6v144.1
		l41.4-41.2V1938.4L1996.6,1938.4z M2326.9,2020.7l-124.1-123.5h-41.4l-123.8,123.5v165l41.4,41h206.5v123.7h41.4v-123.7l-41.4-41
		h-206.5v-144.3l103.1-102.9l103.4,102.9v144.3h41.4L2326.9,2020.7L2326.9,2020.7z M2037.7,2350.3h41.4v-123.7h-41.4V2350.3z
		 M2615.9,1897.2v309l-206.5-226.8v-82.2H2368v453.1h41.4v-309l206.5,226.6v82.5h41.4v-453.1H2615.9z M2987.5,1938.4v-41.2h-165.4
		l-41.1,41.2v164.7h-41.4v-206h-41.4v453.1h41.4v-206h41.4l41.1-41.2v-164.7L2987.5,1938.4L2987.5,1938.4z M2946.2,2144.4v206h41.4
		v-206l-41.4-41.2h-124.1v41.2H2946.2z"/>
	
		<linearGradient id="_1_1_" gradientUnits="userSpaceOnUse" x1="3030.8164" y1="-2790.7903" x2="3030.8164" y2="-1711.9802" gradientTransform="matrix(1 0 0 -1 -1004 -449.0701)">
		<stop  offset="0" style="stop-color:#2B5AF3"/>
		<stop  offset="1" style="stop-color:#F7301B"/>
	</linearGradient>
	<path id="_1" class="st10" d="M1345.7,1385.4v-82.2l-41.4-41.2h-206.5l-41.3,41.2v370.7l41.3,41.2h206.5l41.4-41.2v-164.7
		l-41.4-41.2h-124.1v41.2h124.1v144.1l-20.7,20.6h-165.2l-20.7-20.6v-329.4l20.7-20.6h165.2l20.7,20.6v61.6H1345.7z M1676,1385.4
		l-124.1-123.5h-41.3l-123.8,123.5v165l41.4,41h206.5v123.7h41.4v-123.7l-41.4-41h-206.5V1406l103.1-102.9l103.4,102.9v144.3h41.4
		L1676,1385.4L1676,1385.4z M1386.8,1715.1h41.4v-123.7h-41.4V1715.1z M2006.3,1261.9h-41.4l-103.4,123.5l-103.1-123.5h-41.4v453.1
		h41.4v-391.3l82.4,102.9h41.4l82.7-102.9v391.3h41.4V1261.9z M2088.7,1303.2h247.8v-41.2h-289.2v453.1h289.2v-41.2h-247.9
		L2088.7,1303.2L2088.7,1303.2z M2336.6,1467.9h-206.5l-41.4,41.2h247.9V1467.9z M2666.9,1467.9v-164.7l-41.4-41.2h-247.9v453.1
		h41.4v-411.9h185.8l20.7,20.6v123.5l-20.7,20.6h-144.5l-41.4,41.2l206.5,206h41.4v-41.2h-20.7L2481,1509.1h144.5L2666.9,1467.9z
		 M2770,1467.9l-20.7-20.6v-123.5l20.7-20.6h165.1l20.7,20.6v61.6h41.4v-82.2l-41.4-41.2h-206.5l-41.4,41.2v164.7l41.4,41.2h185.8
		l20.7,20.6v123.5l-20.7,20.6H2770l-20.7-20.6v-61.9H2708v82.5l41.4,41.2h206.5l41.4-41.2v-164.7l-41.4-41.2H2770z M2006.3,1928.8
		l-41.4-41.2h-247.9v453.1h247.9l41.4-41.2v-164.7l-41.4-41.2h-165.1l-41.4,41.2h206.5v144.1l-20.7,20.6h-185.8v-370.7h185.8
		l20.7,20.6v144.1l41.4-41.2V1928.8z M2336.6,2011l-124.1-123.5h-41.4L2047.4,2011v165l41.4,41h206.5v123.7h41.3V2217l-41.4-41
		h-206.5v-144.3l103.1-102.9l103.4,102.9V2176h41.4L2336.6,2011L2336.6,2011z M2047.4,2340.7h41.4V2217h-41.4V2340.7z
		 M2625.5,1887.6v309L2419,1969.8v-82.2h-41.4v453.1h41.4v-309l206.5,226.6v82.5h41.4v-453.1H2625.5z M2997.1,1928.8v-41.2h-165.4
		l-41.1,41.2v164.7h-41.4v-206H2708v453.1h41.4v-206h41.4l41.1-41.2v-164.7H2997.1z M2955.8,2134.8v206h41.4v-206l-41.4-41.2h-124.1
		v41.2H2955.8z"/>
	<g>
		
			<linearGradient id="Gamers_Bank-2_2_" gradientUnits="userSpaceOnUse" x1="2036.4412" y1="2331.1001" x2="2036.4412" y2="1252.3091">
			<stop  offset="0" style="stop-color:#2E50F7"/>
			<stop  offset="1" style="stop-color:#FC2A00"/>
		</linearGradient>
		<path id="Gamers_Bank-2" class="st11" d="M1355.3,1375.8v-82.2l-41.4-41.2h-206.5l-41.3,41.2v370.7l41.3,41.2H1314l41.4-41.2
			v-164.7l-41.4-41.2h-124.1v41.2H1314v144.1l-20.7,20.6h-165.1l-20.7-20.6v-329.4l20.7-20.6h165.1l20.7,20.6v61.6H1355.3z
			 M1685.6,1375.8l-124.1-123.5h-41.4l-123.8,123.5v165l41.4,41h206.5v123.7h41.4v-123.7l-41.4-41h-206.5v-144.3l103.1-102.9
			l103.4,102.9v144.3h41.4V1375.8z M1396.4,1705.4h41.4v-123.7h-41.4V1705.4z M2015.9,1252.3h-41.4l-103.4,123.5l-103.1-123.5h-41.4
			v453.1h41.4v-391.3l82.4,102.9h41.4l82.7-102.9v391.3h41.4L2015.9,1252.3L2015.9,1252.3z M2098.3,1293.5h247.8v-41.2H2057v453.1
			h289.2v-41.2h-247.8V1293.5L2098.3,1293.5z M2346.2,1458.3h-206.5l-41.4,41.2h247.8V1458.3z M2676.5,1458.3v-164.7l-41.4-41.2
			h-247.8v453.1h41.4v-411.9h185.8l20.7,20.6v123.5l-20.7,20.6H2470l-41.4,41.2l206.5,206h41.4v-41.2h-20.7l-165.1-164.7h144.5
			L2676.5,1458.3z M2779.6,1458.3l-20.7-20.6v-123.5l20.7-20.6h165.1l20.7,20.6v61.6h41.4v-82.2l-41.4-41.2h-206.5l-41.4,41.2v164.7
			l41.4,41.2h185.8l20.7,20.6v123.5l-20.7,20.6h-165.1l-20.7-20.6v-61.9h-41.4v82.5l41.4,41.2h206.5l41.4-41.2v-164.7l-41.4-41.2
			H2779.6z M2015.9,1919.2l-41.4-41.2h-247.8v453.1h247.8l41.4-41.2v-164.7l-41.4-41.2h-165.1l-41.4,41.2h206.5v144.1l-20.7,20.6
			h-185.8v-370.7h185.8l20.7,20.6v144.1l41.4-41.2V1919.2L2015.9,1919.2z M2346.2,2001.4L2222.1,1878h-41.4L2057,2001.4v165l41.4,41
			h206.5v123.7h41.4v-123.7l-41.4-41h-206.5V2022l103.1-102.9l103.4,102.9v144.3h41.4L2346.2,2001.4L2346.2,2001.4z M2057,2331.1
			h41.4v-123.7H2057V2331.1z M2635.1,1878v309l-206.5-226.8V1878h-41.4v453.1h41.4v-309l206.5,226.6v82.5h41.4V1878H2635.1z
			 M3006.8,1919.2V1878h-165.4l-41.1,41.2v164.7h-41.4v-206h-41.4v453.1h41.4v-206h41.4l41.1-41.2v-164.7L3006.8,1919.2
			L3006.8,1919.2z M2965.4,2125.1v206h41.4v-206l-41.4-41.2h-124.1v41.2H2965.4z"/>
	</g>
	<g>
		
			<linearGradient id="Gamers_Bank-2_3_" gradientUnits="userSpaceOnUse" x1="3040.4412" y1="-2781.1702" x2="3040.4412" y2="-1702.3601" gradientTransform="matrix(1 0 0 -1 -1004 -449.0701)">
			<stop  offset="0" style="stop-color:#718EED"/>
			<stop  offset="1" style="stop-color:#F37062"/>
		</linearGradient>
		<path id="Gamers_Bank-2_1_" class="st12" d="M1355.3,1375.8v-82.2l-41.4-41.2h-206.5l-41.3,41.2v370.7l41.3,41.2H1314l41.4-41.2
			v-164.7l-41.4-41.2h-124.1v41.2H1314v144.1l-20.7,20.6h-165.1l-20.7-20.6v-329.4l20.7-20.6h165.1l20.7,20.6v61.6H1355.3z
			 M1685.6,1375.8l-124.1-123.5h-41.4l-123.8,123.5v165l41.4,41h206.5v123.7h41.4v-123.7l-41.4-41h-206.5v-144.3l103.1-102.9
			l103.4,102.9v144.3h41.4V1375.8z M1396.4,1705.4h41.4v-123.7h-41.4V1705.4z M2015.9,1252.3h-41.4l-103.4,123.5l-103.1-123.5h-41.4
			v453.1h41.4v-391.3l82.4,102.9h41.4l82.7-102.9v391.3h41.4L2015.9,1252.3L2015.9,1252.3z M2098.3,1293.5h247.8v-41.2H2057v453.1
			h289.2v-41.2h-247.8V1293.5L2098.3,1293.5z M2346.2,1458.3h-206.5l-41.4,41.2h247.8V1458.3z M2676.5,1458.3v-164.7l-41.4-41.2
			h-247.8v453.1h41.4v-411.9h185.8l20.7,20.6v123.5l-20.7,20.6H2470l-41.4,41.2l206.5,206h41.4v-41.2h-20.7l-165.1-164.7h144.5
			L2676.5,1458.3z M2779.6,1458.3l-20.7-20.6v-123.5l20.7-20.6h165.1l20.7,20.6v61.6h41.4v-82.2l-41.4-41.2h-206.5l-41.4,41.2v164.7
			l41.4,41.2h185.8l20.7,20.6v123.5l-20.7,20.6h-165.1l-20.7-20.6v-61.9h-41.4v82.5l41.4,41.2h206.5l41.4-41.2v-164.7l-41.4-41.2
			H2779.6z M2015.9,1919.2l-41.4-41.2h-247.8v453.1h247.8l41.4-41.2v-164.7l-41.4-41.2h-165.1l-41.4,41.2h206.5v144.1l-20.7,20.6
			h-185.8v-370.7h185.8l20.7,20.6v144.1l41.4-41.2V1919.2L2015.9,1919.2z M2346.2,2001.4L2222.1,1878h-41.4L2057,2001.4v165l41.4,41
			h206.5v123.7h41.4v-123.7l-41.4-41h-206.5V2022l103.1-102.9l103.4,102.9v144.3h41.4L2346.2,2001.4L2346.2,2001.4z M2057,2331.1
			h41.4v-123.7H2057V2331.1z M2635.1,1878v309l-206.5-226.8V1878h-41.4v453.1h41.4v-309l206.5,226.6v82.5h41.4V1878H2635.1z
			 M3006.8,1919.2V1878h-165.4l-41.1,41.2v164.7h-41.4v-206h-41.4v453.1h41.4v-206h41.4l41.1-41.2v-164.7L3006.8,1919.2
			L3006.8,1919.2z M2965.4,2125.1v206h41.4v-206l-41.4-41.2h-124.1v41.2H2965.4z"/>
	</g>
</g>
<g id="WELCOME">
	<path id="_11-2" class="st13" d="M290.2,560V106.9h-41.4v391.3l-82.7-102.9h-41.3L42.3,498.2V106.9H1V560h41.3l103.1-123.7
		L248.8,560H290.2z M372.6,148.1h247.9v-41.2H331.3V560h289.2v-41.2H372.6L372.6,148.1L372.6,148.1z M620.5,312.8H414l-41.4,41.2
		h247.9V312.8z M702.9,518.8V106.9h-41.3V560h289.2v-41.2H702.9z M1239.7,415.9v82.2l-20.7,20.6h-165.1l-20.7-20.6V168.7l20.7-20.6
		H1219l20.7,20.6V251h41.3V148.1l-41.3-41.2h-206.5l-41.3,41.2v370.7l41.3,41.2h206.5l41.3-41.2V415.9H1239.7L1239.7,415.9z
		 M1570,106.9h-206.5l-41.3,41.2v370.7l41.3,41.2H1570l41.3-41.2V148.1L1570,106.9z M1549.3,148.1l20.7,20.6v329.4l-20.7,20.6
		h-165.2l-20.7-20.6V168.7l20.7-20.6L1549.3,148.1L1549.3,148.1z M1941.7,106.9h-41.3l-103.4,123.5l-103.1-123.5h-41.3V560h41.3
		V168.7l82.4,102.9h41.3l82.7-102.9V560h41.3V106.9L1941.7,106.9z M2024.1,148.1h247.8v-41.2h-289.2V560h289.2v-41.2h-247.8
		L2024.1,148.1L2024.1,148.1z M2271.9,312.8h-206.5l-41.3,41.2h247.8V312.8z M1,732.5v41.2h123.8v-41.2H1z M166.1,732.5l-41.3,41.2
		v411.9h41.3V773.8h124.1v-41.2H166.1L166.1,732.5z M579.1,732.5H372.6l-41.4,41.2v370.7l41.4,41.2h206.5l41.3-41.2V773.8
		L579.1,732.5z M558.5,773.8l20.7,20.6v329.4l-20.7,20.6H393.3l-20.7-20.6V794.4l20.7-20.6H558.5L558.5,773.8z M991.9,732.5v41.2
		h123.8v-41.2H991.9z M1157,732.5l-41.3,41.2v411.9h41.3V773.8h124.1v-41.2H1157z M1363.5,732.5h-41.3v206l41.3,41.2H1570v206h41.3
		v-206l-41.3-41.2h-206.5V732.5z M1611.4,732.5H1570v206h41.3V732.5z M1322.2,1185.7h41.3v-206h-41.3V1185.7z M1693.8,773.8h247.8
		v-41.2h-289.2v453.1h289.2v-41.2h-247.8L1693.8,773.8L1693.8,773.8z M1941.7,938.5h-206.5l-41.3,41.2h247.8L1941.7,938.5
		L1941.7,938.5z"/>
	<path id="_10-2" class="st14" d="M299.8,550.4V97.3h-41.4v391.3l-82.7-102.9h-41.4L52,488.5V97.3H10.6v453.1H52l103.1-123.7
		l103.4,123.7H299.8L299.8,550.4z M382.3,138.5h247.8V97.3H340.9v453.1h289.2v-41.2H382.3V138.5L382.3,138.5z M630.1,303.2H423.6
		l-41.4,41.2h247.8V303.2z M712.6,509.2V97.3h-41.3v453.1h289.2v-41.2L712.6,509.2L712.6,509.2z M1249.4,406.3v82.2l-20.7,20.6
		h-165.2l-20.7-20.6V159.1l20.7-20.6h165.2l20.7,20.6v82.2h41.3V138.5l-41.3-41.2h-206.5l-41.3,41.2v370.7l41.3,41.2h206.5
		l41.3-41.2V406.3H1249.4z M1579.6,97.3h-206.5l-41.3,41.2v370.7l41.3,41.2h206.5l41.3-41.2V138.5L1579.6,97.3z M1559,138.5
		l20.7,20.6v329.4l-20.7,20.6h-165.1l-20.7-20.6V159.1l20.7-20.6H1559z M1951.3,97.3h-41.3l-103.4,123.5L1703.4,97.3h-41.3v453.1
		h41.3V159.1l82.4,102.9h41.3l82.7-102.9v391.3h41.3L1951.3,97.3L1951.3,97.3z M2033.7,138.5h247.8V97.3h-289.2v453.1h289.2v-41.2
		h-247.8L2033.7,138.5L2033.7,138.5z M2281.6,303.2h-206.5l-41.3,41.2h247.8V303.2z M10.6,722.9v41.2h123.8v-41.2H10.6z
		 M175.8,722.9l-41.3,41.2v411.9h41.3V764.2h124.1v-41.2H175.8z M588.8,722.9H382.3l-41.4,41.2v370.7l41.4,41.2h206.5l41.3-41.2
		V764.2L588.8,722.9z M568.1,764.2l20.7,20.6v329.4l-20.7,20.6H402.9l-20.7-20.6V784.8l20.7-20.6H568.1L568.1,764.2z M1001.5,722.9
		v41.2h123.8v-41.2H1001.5z M1166.7,722.9l-41.3,41.2v411.9h41.3V764.2h124v-41.2H1166.7z M1373.1,722.9h-41.3v206l41.3,41.2h206.5
		v206h41.3v-206l-41.3-41.2h-206.5V722.9z M1621,722.9h-41.3v206h41.3V722.9z M1331.8,1176.1h41.3v-206h-41.3V1176.1z M1703.4,764.2
		h247.8v-41.2h-289.2v453.1h289.2v-41.2h-247.8V764.2z M1951.3,928.9h-206.5l-41.3,41.2h247.8V928.9z"/>
	<path id="_9-2" class="st15" d="M309.4,540.8V87.6h-41.3v391.3l-82.7-102.9h-41.3L61.6,478.9V87.6H20.3v453.1h41.3l103.1-123.7
		l103.4,123.7H309.4z M391.9,128.9h247.8V87.6H350.5v453.1h289.2v-41.2H391.9V128.9z M639.7,293.6H433.2l-41.3,41.2h247.8V293.6z
		 M722.2,499.5V87.6h-41.3v453.1H970v-41.2H722.2L722.2,499.5z M1259,396.7v82.2l-20.7,20.6h-165.2l-20.7-20.6V149.5l20.7-20.6
		h165.2l20.7,20.6v82.2h41.4V128.9L1259,87.6h-206.5l-41.3,41.2v370.7l41.3,41.2H1259l41.4-41.2V396.7L1259,396.7L1259,396.7z
		 M1589.3,87.6h-206.5l-41.4,41.2v370.7l41.4,41.2h206.5l41.4-41.2V128.9L1589.3,87.6z M1568.6,128.9l20.7,20.6v329.4l-20.7,20.6
		h-165.1l-20.7-20.6V149.5l20.7-20.6H1568.6z M1960.9,87.6h-41.4l-103.4,123.5L1713.1,87.6h-41.4v453.1h41.4V149.5l82.4,102.9h41.4
		l82.7-102.9v391.3h41.4L1960.9,87.6L1960.9,87.6z M2043.4,128.9h247.9V87.6H2002v453.1h289.2v-41.2h-247.9V128.9L2043.4,128.9z
		 M2291.2,293.6h-206.5l-41.4,41.2h247.9V293.6z M20.3,713.3v41.2h123.8v-41.2H20.3L20.3,713.3z M185.4,713.3l-41.3,41.2v411.9h41.3
		V754.5h124v-41.2H185.4z M598.4,713.3H391.9l-41.3,41.2v370.7l41.3,41.2h206.5l41.3-41.2V754.5L598.4,713.3z M577.7,754.5
		l20.7,20.6v329.4l-20.7,20.6H412.6l-20.7-20.6V775.1l20.7-20.6H577.7z M1011.1,713.3v41.2h123.8v-41.2H1011.1z M1176.3,713.3
		l-41.3,41.2v411.9h41.3V754.5h124.1v-41.2H1176.3z M1382.8,713.3h-41.4v205.9l41.4,41.2h206.5v205.9h41.4V960.5l-41.4-41.2h-206.5
		V713.3z M1630.6,713.3h-41.4v205.9h41.4V713.3z M1341.4,1166.4h41.4V960.5h-41.4V1166.4z M1713.1,754.5h247.8v-41.2h-289.2v453.1
		h289.2v-41.2h-247.8L1713.1,754.5L1713.1,754.5z M1960.9,919.2h-206.5l-41.4,41.2h247.8V919.2z"/>
	<path id="_8-2" class="st15" d="M319.1,531.1V78h-41.3v391.3L195,366.4h-41.3L71.2,469.3V78H29.9v453.1h41.3l103.1-123.7
		l103.4,123.7L319.1,531.1L319.1,531.1z M401.5,119.2h247.8V78H360.2v453.1h289.2v-41.2H401.5L401.5,119.2L401.5,119.2z
		 M649.4,283.9H442.9l-41.3,41.2h247.8V283.9z M731.8,489.9V78h-41.3v453.1h289.2v-41.2L731.8,489.9L731.8,489.9z M1268.6,387.1
		v82.2l-20.7,20.6h-165.1l-20.7-20.6V139.9l20.7-20.6h165.1l20.7,20.6v82.2h41.4V119.2L1268.6,78h-206.5l-41.3,41.2v370.6l41.3,41.2
		h206.5l41.4-41.2V387.1L1268.6,387.1L1268.6,387.1z M1598.9,78h-206.5l-41.4,41.2v370.6l41.4,41.2h206.5l41.4-41.2V119.2L1598.9,78
		z M1578.2,119.2l20.7,20.6v329.4l-20.7,20.6h-165.1l-20.7-20.6V139.9l20.7-20.6H1578.2z M1970.5,78h-41.4l-103.4,123.5L1722.7,78
		h-41.4v453.1h41.4V139.9l82.4,102.8h41.4l82.7-102.8v391.3h41.4V78L1970.5,78z M2053,119.2h247.8V78h-289.2v453.1h289.2v-41.2H2053
		V119.2z M2300.8,283.9h-206.5l-41.4,41.2h247.8V283.9z M29.9,703.7v41.2h123.8v-41.2H29.9z M195,703.7l-41.3,41.2v411.9H195V744.9
		h124.1v-41.2H195z M608,703.7H401.5l-41.3,41.2v370.7l41.3,41.2H608l41.3-41.2V744.9L608,703.7z M587.3,744.9l20.7,20.6v329.4
		l-20.7,20.6H422.2l-20.7-20.6V765.5l20.7-20.6H587.3z M1020.8,703.7v41.2h123.8v-41.2H1020.8z M1185.9,703.7l-41.3,41.2v411.9h41.3
		V744.9H1310v-41.2H1185.9z M1392.4,703.7H1351v205.9l41.4,41.2h206.5v205.9h41.4V950.8l-41.4-41.2h-206.5V703.7z M1640.2,703.7
		h-41.4v205.9h41.4V703.7z M1351,1156.8h41.4V950.8H1351V1156.8z M1722.7,744.9h247.9v-41.2h-289.2v453.1h289.2v-41.2h-247.9V744.9z
		 M1970.5,909.6H1764l-41.4,41.2h247.9V909.6z"/>
	<path id="_7-2" class="st15" d="M328.7,521.5V68.4h-41.3v391.3l-82.7-102.9h-41.3L80.9,459.7V68.4H39.5v453.1h41.3L184,397.8
		l103.4,123.7H328.7L328.7,521.5z M411.1,109.6H659V68.4H369.8v453.1H659v-41.2H411.1L411.1,109.6L411.1,109.6z M659,274.3H452.5
		l-41.3,41.2H659V274.3z M741.4,480.3V68.4h-41.3v453.1h289.2v-41.2H741.4L741.4,480.3z M1278.2,377.4v82.2l-20.7,20.6h-165.2
		l-20.7-20.6V130.2l20.7-20.6h165.2l20.7,20.6v82.2h41.4V109.6l-41.4-41.2h-206.5l-41.3,41.2v370.7l41.3,41.2h206.5l41.4-41.2V377.4
		L1278.2,377.4L1278.2,377.4z M1608.5,68.4H1402l-41.4,41.2v370.7l41.4,41.2h206.5l41.4-41.2V109.6L1608.5,68.4z M1587.8,109.6
		l20.7,20.6v329.4l-20.7,20.6h-165.1l-20.7-20.6V130.2l20.7-20.6H1587.8z M1980.2,68.4h-41.3l-103.4,123.5L1732.3,68.4H1691v453.1
		h41.4V130.2l82.4,102.9h41.4l82.7-102.9v391.3h41.3V68.4z M2062.6,109.6h247.9V68.4h-289.2v453.1h289.2v-41.2h-247.9V109.6z
		 M2310.5,274.3H2104l-41.4,41.2h247.9V274.3z M39.5,694v41.2h123.8V694H39.5L39.5,694z M204.7,694l-41.3,41.2v411.9h41.3V735.3
		h124.1V694H204.7z M617.6,694H411.1l-41.3,41.2v370.7l41.3,41.2h206.5l41.3-41.2V735.3L617.6,694z M597,735.3l20.7,20.6v329.4
		l-20.7,20.6H431.8l-20.7-20.6V755.9l20.7-20.6H597z M1030.4,694v41.2h123.8V694H1030.4z M1195.5,694l-41.3,41.2v411.9h41.3V735.3
		h124.1V694H1195.5z M1402,694h-41.4V900l41.4,41.2h206.5v205.9h41.4V941.2l-41.4-41.2H1402V694L1402,694z M1649.9,694h-41.4V900
		h41.4V694z M1360.7,1147.2h41.4V941.2h-41.4V1147.2z M1732.3,735.3h247.8V694H1691v453.1h289.2v-41.2h-247.8L1732.3,735.3
		L1732.3,735.3z M1980.2,900h-206.5l-41.4,41.2h247.8L1980.2,900L1980.2,900z"/>
	<path id="_6-2" class="st15" d="M338.3,511.9V58.7H297V450l-82.7-102.9h-41.3L90.5,450V58.7H49.1v453.1h41.3l103.1-123.7L297,511.9
		L338.3,511.9L338.3,511.9z M420.8,100h247.8V58.7H379.4v453.1h289.2v-41.2H420.8L420.8,100L420.8,100z M668.6,264.7H462.1
		l-41.3,41.2h247.8V264.7z M751.1,470.6V58.7h-41.3v453.1h289.2v-41.2L751.1,470.6L751.1,470.6z M1287.9,367.8V450l-20.7,20.6H1102
		l-20.7-20.6V120.6L1102,100h165.1l20.7,20.6v82.2h41.4V100l-41.4-41.2h-206.5L1040,100v370.7l41.3,41.2h206.5l41.4-41.2V367.8
		L1287.9,367.8L1287.9,367.8z M1618.1,58.7h-206.5l-41.4,41.2v370.7l41.4,41.2h206.5l41.4-41.2V100L1618.1,58.7z M1597.5,100
		l20.7,20.6V450l-20.7,20.6h-165.1l-20.7-20.6V120.6l20.7-20.6H1597.5z M1989.8,58.7h-41.4l-103.4,123.5L1741.9,58.7h-41.3v453.1
		h41.3V120.6l82.4,102.9h41.4l82.7-102.9v391.3h41.4L1989.8,58.7L1989.8,58.7z M2072.2,100h247.8V58.7h-289.2v453.1h289.2v-41.2
		h-247.8V100z M2320.1,264.7h-206.5l-41.4,41.2h247.8V264.7z M49.1,684.4v41.2h123.8v-41.2H49.1z M214.3,684.4l-41.3,41.2v411.9
		h41.3V725.6h124.1v-41.2H214.3z M627.3,684.4H420.8l-41.3,41.2v370.7l41.3,41.2h206.5l41.3-41.2V725.6L627.3,684.4z M606.6,725.6
		l20.7,20.6v329.4l-20.7,20.6H441.4l-20.7-20.6V746.3l20.7-20.6H606.6z M1040,684.4v41.2h123.8v-41.2H1040z M1205.2,684.4
		l-41.4,41.2v411.9h41.4V725.6h124.1v-41.2H1205.2z M1411.6,684.4h-41.4v205.9l41.4,41.2h206.5v205.9h41.4V931.6l-41.4-41.2h-206.5
		V684.4z M1659.5,684.4h-41.4v205.9h41.4V684.4z M1370.3,1137.5h41.4V931.6h-41.4V1137.5z M1741.9,725.6h247.9v-41.2h-289.2v453.1
		h289.2v-41.2h-247.9V725.6z M1989.8,890.4h-206.5l-41.4,41.2h247.9V890.4z"/>
	<path id="_5-2" class="st15" d="M348,502.3V49.1h-41.3v391.3l-82.7-102.9h-41.3l-82.4,102.9V49.1H58.8v453.1h41.3l103.1-123.7
		l103.4,123.7H348L348,502.3z M430.4,90.4h247.8V49.1H389v453.1h289.2V461H430.4L430.4,90.4L430.4,90.4z M678.2,255.1H471.7
		l-41.3,41.2h247.8V255.1z M760.7,461V49.1h-41.3v453.1h289.2V461H760.7L760.7,461z M1297.5,358.2v82.2l-20.7,20.6h-165.2
		l-20.7-20.6V111l20.7-20.6h165.2l20.7,20.6v82.2h41.4V90.4l-41.4-41.2H1091l-41.3,41.2V461l41.3,41.2h206.5l41.4-41.2V358.2
		L1297.5,358.2L1297.5,358.2z M1627.8,49.1h-206.5l-41.4,41.2V461l41.4,41.2h206.5l41.4-41.2V90.4L1627.8,49.1z M1607.1,90.4
		l20.7,20.6v329.4l-20.7,20.6h-165.1l-20.7-20.6V111l20.7-20.6H1607.1z M1999.4,49.1h-41.4l-103.4,123.5L1751.6,49.1h-41.4v453.1
		h41.4V111l82.4,102.9h41.4l82.7-102.9v391.3h41.4L1999.4,49.1L1999.4,49.1z M2081.9,90.4h247.9V49.1h-289.2v453.1h289.2V461h-247.9
		V90.4L2081.9,90.4z M2329.7,255.1h-206.5l-41.4,41.2h247.9V255.1z M58.8,674.8V716h123.8v-41.2H58.8L58.8,674.8z M223.9,674.8
		L182.6,716v411.9h41.3V716H348v-41.2L223.9,674.8L223.9,674.8z M636.9,674.8H430.4L389,716v370.7l41.3,41.2h206.5l41.3-41.2V716
		L636.9,674.8z M616.2,716l20.7,20.6v329.4l-20.7,20.6H451.1l-20.7-20.6V736.6l20.7-20.6H616.2z M1049.6,674.8V716h123.8v-41.2
		H1049.6L1049.6,674.8z M1214.8,674.8l-41.4,41.2v411.9h41.4V716h124.1v-41.2L1214.8,674.8L1214.8,674.8z M1421.3,674.8h-41.4v205.9
		l41.4,41.2h206.5v206h41.4V922l-41.4-41.2h-206.5V674.8L1421.3,674.8z M1669.1,674.8h-41.4v205.9h41.4V674.8z M1379.9,1127.9h41.4
		V922h-41.4V1127.9z M1751.6,716h247.9v-41.2h-289.2v453.1h289.2v-41.2h-247.9V716z M1999.4,880.7h-206.5l-41.4,41.2h247.9V880.7z"
		/>
	<path id="_4-2" class="st16" d="M357.6,492.6V39.5h-41.4v391.3l-82.7-102.9h-41.4l-82.4,102.9V39.5H68.4v453.1h41.3l103.1-123.7
		l103.4,123.7H357.6L357.6,492.6z M440,80.7h247.8V39.5H398.7v453.1h289.2v-41.2H440C440,451.4,440,80.7,440,80.7z M687.9,245.4
		H481.4L440,286.7h247.8V245.4L687.9,245.4z M770.3,451.4V39.5H729v453.1h289.2v-41.2H770.3z M1307.1,348.6v82.2l-20.7,20.6h-165.1
		l-20.7-20.6V101.4l20.7-20.6h165.1l20.7,20.6v82.2h41.3V80.7l-41.3-41.2h-206.5l-41.3,41.2v370.7l41.3,41.2h206.5l41.3-41.2V348.6
		H1307.1z M1637.4,39.5h-206.5l-41.3,41.2v370.7l41.3,41.2h206.5l41.3-41.2V80.7L1637.4,39.5z M1616.7,80.7l20.7,20.6v329.4
		l-20.7,20.6h-165.1l-20.7-20.6V101.4l20.7-20.6L1616.7,80.7L1616.7,80.7z M2009,39.5h-41.3L1864.3,163L1761.2,39.5h-41.3v453.1
		h41.3V101.4l82.4,102.8h41.3l82.7-102.8v391.3h41.3V39.5L2009,39.5z M2091.5,80.7h247.8V39.5h-289.2v453.1h289.2v-41.2h-247.8V80.7
		L2091.5,80.7z M2339.3,245.5h-206.5l-41.4,41.2h247.8V245.5L2339.3,245.5z M68.4,665.2v41.2h123.8v-41.2H68.4z M233.5,665.2
		l-41.3,41.2v411.9h41.3V706.4h124.1v-41.2C357.6,665.2,233.5,665.2,233.5,665.2z M646.5,665.2H440l-41.4,41.2v370.7l41.4,41.2
		h206.5l41.3-41.2V706.4L646.5,665.2z M625.8,706.4l20.7,20.6v329.4l-20.7,20.6H460.7l-20.7-20.6V727l20.7-20.6H625.8z
		 M1059.3,665.2v41.2h123.8v-41.2H1059.3z M1224.4,665.2l-41.3,41.2v411.9h41.3V706.4h124.1v-41.2H1224.4z M1430.9,665.2h-41.3
		v205.9l41.3,41.2h206.5v205.9h41.3V912.4l-41.3-41.2h-206.5V665.2z M1678.7,665.2h-41.3v205.9h41.3V665.2z M1389.5,1118.3h41.3
		v-206h-41.3V1118.3z M1761.2,706.4H2009v-41.2h-289.2v453.1H2009v-41.2h-247.8V706.4z M2009,871.1h-206.5l-41.3,41.2H2009V871.1
		L2009,871.1z"/>
	<path id="_3-2" class="st17" d="M367.2,483V29.9h-41.4v391.3l-82.7-102.9h-41.4l-82.4,102.9V29.9H78V483h41.3l103.1-123.7
		L325.9,483H367.2L367.2,483z M449.6,71.1h247.9V29.9H408.3V483h289.2v-41.2H449.6L449.6,71.1L449.6,71.1z M697.5,235.8H491
		l-41.4,41.2h247.9V235.8z M779.9,441.8V29.9h-41.3V483h289.2v-41.2H779.9L779.9,441.8z M1316.7,338.9v82.2l-20.7,20.6h-165.2
		l-20.7-20.6V91.7l20.7-20.6h165.2l20.7,20.6V174h41.3V71.1l-41.3-41.2h-206.5l-41.3,41.2v370.7l41.3,41.2h206.5l41.3-41.2V338.9
		H1316.7L1316.7,338.9z M1647,29.9h-206.5l-41.3,41.2v370.7l41.3,41.2H1647l41.3-41.2V71.1L1647,29.9z M1626.3,71.1l20.7,20.6v329.4
		l-20.7,20.6h-165.2l-20.7-20.6V91.7l20.7-20.6L1626.3,71.1L1626.3,71.1z M2018.7,29.9h-41.3l-103.4,123.5L1770.8,29.9h-41.3V483
		h41.3V91.7l82.4,102.8h41.3l82.7-102.8V483h41.3L2018.7,29.9L2018.7,29.9z M2101.1,71.1H2349V29.9h-289.2V483H2349v-41.2h-247.9
		V71.1L2101.1,71.1z M2349,235.8h-206.5l-41.4,41.2H2349V235.8L2349,235.8z M78,655.5v41.2h123.8v-41.2H78z M243.2,655.5l-41.4,41.2
		v411.9h41.4V696.8h124.1v-41.2H243.2z M656.1,655.5H449.6l-41.4,41.2v370.7l41.4,41.2h206.5l41.3-41.2V696.8L656.1,655.5z
		 M635.5,696.8l20.7,20.6v329.4l-20.7,20.6H470.3l-20.7-20.6V717.4l20.7-20.6H635.5L635.5,696.8z M1068.9,655.5v41.2h123.8v-41.2
		H1068.9L1068.9,655.5z M1234,655.5l-41.3,41.2v411.9h41.3V696.8h124.1v-41.2H1234z M1440.5,655.5h-41.3v206l41.3,41.2H1647v206
		h41.3v-206l-41.3-41.2h-206.5V655.5z M1688.4,655.5H1647v206h41.3V655.5z M1399.2,1108.7h41.3v-206h-41.3V1108.7z M1770.8,696.8
		h247.8v-41.2h-289.2v453.1h289.2v-41.2h-247.8V696.8z M2018.7,861.5h-206.5l-41.3,41.2h247.8V861.5z"/>
	<path id="_2-2" class="st18" d="M376.8,473.4V20.2h-41.4v391.3l-82.7-102.9h-41.4L129,411.5V20.2H87.6v453.1H129l103.1-123.7
		l103.4,123.7H376.8z M459.3,61.5h247.8V20.2H417.9v453.1h289.2v-41.2H459.3L459.3,61.5L459.3,61.5z M707.1,226.2H500.6l-41.4,41.2
		h247.8L707.1,226.2L707.1,226.2z M789.6,432.2V20.2h-41.3v453.1h289.2v-41.2H789.6z M1326.4,329.3v82.2l-20.7,20.6h-165.1
		l-20.7-20.6V82.1l20.7-20.6h165.1l20.7,20.6v82.2h41.3V61.5l-41.3-41.2h-206.5l-41.3,41.2v370.7l41.3,41.2h206.5l41.3-41.2V329.3
		H1326.4z M1656.6,20.3h-206.5l-41.3,41.2v370.7l41.3,41.2h206.5l41.3-41.2V61.5L1656.6,20.3z M1636,61.5l20.7,20.6v329.4
		l-20.7,20.6h-165.2l-20.7-20.6V82.1l20.7-20.6L1636,61.5L1636,61.5z M2028.3,20.3h-41.3l-103.4,123.5L1780.4,20.2h-41.3v453.1h41.3
		V82.1l82.4,102.8h41.3l82.7-102.8v391.3h41.3V20.3L2028.3,20.3z M2110.7,61.5h247.8V20.2h-289.2v453.1h289.2v-41.2h-247.8V61.5
		L2110.7,61.5z M2358.6,226.2h-206.5l-41.4,41.2h247.8V226.2L2358.6,226.2z M87.6,645.9v41.2h123.8v-41.2H87.6z M252.8,645.9
		l-41.4,41.2V1099h41.4V687.1h124.1v-41.2H252.8L252.8,645.9z M665.8,645.9H459.3l-41.4,41.2v370.7l41.4,41.2h206.5l41.3-41.2V687.1
		L665.8,645.9z M645.1,687.1l20.7,20.6v329.4l-20.7,20.6H479.9l-20.7-20.6V707.8l20.7-20.6H645.1L645.1,687.1z M1078.5,645.9v41.2
		h123.8v-41.2H1078.5L1078.5,645.9z M1243.7,645.9l-41.3,41.2V1099h41.3V687.1h124.1v-41.2H1243.7z M1450.1,645.9h-41.3v206
		l41.3,41.2h206.5v206h41.3v-206l-41.3-41.2h-206.5V645.9z M1698,645.9h-41.3v206h41.3V645.9z M1408.8,1099h41.3v-206h-41.3V1099z
		 M1780.4,687.1h247.8v-41.2h-289.2V1099h289.2v-41.2h-247.8V687.1z M2028.3,851.9h-206.5l-41.3,41.2h247.8V851.9z"/>
	<path id="_1-2" class="st19" d="M386.5,463.8V10.6h-41.4v391.3l-82.7-102.9h-41.4l-82.5,102.9V10.6H97.3v453.1h41.3l103.1-123.7
		l103.4,123.7H386.5z M468.9,51.9h247.9V10.6H427.5v453.1h289.2v-41.2H468.9L468.9,51.9L468.9,51.9z M716.7,216.6H510.2l-41.4,41.2
		h247.9V216.6z M799.2,422.5V10.6h-41.3v453.1H1047v-41.2H799.2L799.2,422.5z M1336,319.7v82.2l-20.7,20.6h-165.2l-20.7-20.6V72.5
		l20.7-20.6h165.2l20.7,20.6v82.2h41.3V51.9L1336,10.6h-206.5l-41.3,41.2v370.7l41.3,41.2H1336l41.3-41.2V319.7H1336z M1666.3,10.6
		h-206.5l-41.3,41.2v370.7l41.3,41.2h206.5l41.3-41.2V51.9L1666.3,10.6z M1645.6,51.9l20.7,20.6v329.4l-20.7,20.6h-165.2l-20.7-20.6
		V72.5l20.7-20.6L1645.6,51.9L1645.6,51.9z M2037.9,10.6h-41.4l-103.4,123.5L1790.1,10.6h-41.3v453.1h41.3V72.5l82.4,102.8h41.3
		l82.7-102.8v391.3h41.3L2037.9,10.6L2037.9,10.6z M2120.4,51.9h247.9V10.6H2079v453.1h289.2v-41.2h-247.9V51.9L2120.4,51.9z
		 M2368.2,216.6h-206.5l-41.4,41.2h247.9V216.6L2368.2,216.6z M97.3,636.3v41.2h123.8v-41.2H97.3z M262.4,636.3l-41.4,41.2v411.9
		h41.4V677.5h124.1v-41.2H262.4z M675.4,636.3H468.9l-41.4,41.2v370.7l41.4,41.2h206.5l41.3-41.2V677.5L675.4,636.3z M654.7,677.5
		l20.7,20.6v329.4l-20.7,20.6H489.6l-20.7-20.6V698.1l20.7-20.6H654.7L654.7,677.5z M1088.1,636.3v41.2h123.8v-41.2H1088.1
		L1088.1,636.3z M1253.3,636.3l-41.3,41.2v411.9h41.3V677.5h124.1v-41.2H1253.3z M1459.8,636.3h-41.3v206l41.3,41.2h206.5v206h41.3
		v-206l-41.3-41.2h-206.5V636.3z M1707.6,636.3h-41.3v206h41.3V636.3z M1418.4,1089.4h41.3v-206h-41.3V1089.4z M1790.1,677.5h247.8
		v-41.2h-289.2v453.1h289.2v-41.2h-247.8L1790.1,677.5L1790.1,677.5z M2037.9,842.2h-206.5l-41.3,41.2h247.8V842.2z"/>
	<path id="Welcome_to_the" class="st20" d="M396.1,454.1V1h-41.4v391.3L272,289.4h-41.4l-82.4,102.9V1h-41.4v453.1h41.4l103.1-123.7
		l103.4,123.7H396.1z M478.5,42.2h247.8V1H437.2v453.1h289.2v-41.2H478.5L478.5,42.2L478.5,42.2z M726.4,206.9H519.9l-41.4,41.2
		h247.8V206.9z M808.8,412.9V1h-41.3v453.1h289.2v-41.2H808.8z M1345.6,310.1v82.2l-20.7,20.6h-165.1l-20.7-20.6V62.9l20.7-20.6
		h165.1l20.7,20.6v82.2h41.3V42.2L1345.6,1h-206.5l-41.3,41.2v370.7l41.3,41.2h206.5l41.3-41.2V310.1H1345.6z M1675.9,1h-206.5
		l-41.3,41.2v370.7l41.3,41.2h206.5l41.3-41.2V42.2L1675.9,1z M1655.2,42.2l20.7,20.6v329.4l-20.7,20.6h-165.2l-20.7-20.6V62.9
		l20.7-20.6C1490.1,42.2,1655.2,42.2,1655.2,42.2z M2047.5,1h-41.3l-103.4,123.5L1799.7,1h-41.3v453.1h41.3V62.9l82.4,102.8h41.3
		l82.7-102.8v391.3h41.3V1z M2130,42.2h247.8V1h-289.2v453.1h289.2v-41.2H2130V42.2L2130,42.2z M2377.8,206.9h-206.5l-41.4,41.2
		h247.8V206.9z M106.9,626.7v41.2h123.8v-41.2H106.9z M272,626.7l-41.4,41.2v411.9H272V667.9h124.1v-41.2H272L272,626.7z M685,626.7
		H478.5l-41.4,41.2v370.7l41.4,41.2H685l41.3-41.2V667.9L685,626.7z M664.3,667.9l20.7,20.6v329.4l-20.7,20.6H499.2l-20.7-20.6
		V688.5l20.7-20.6H664.3L664.3,667.9z M1097.8,626.7v41.2h123.8v-41.2H1097.8L1097.8,626.7z M1262.9,626.7l-41.3,41.2v411.9h41.3
		V667.9H1387v-41.2H1262.9z M1469.4,626.7h-41.3v206l41.3,41.2h206.5v206h41.3v-206l-41.3-41.2h-206.5V626.7z M1717.2,626.7h-41.3
		v206h41.3V626.7z M1428.1,1079.8h41.3v-206h-41.3V1079.8z M1799.7,667.9h247.8v-41.2h-289.2v453.1h289.2v-41.2h-247.8V667.9z
		 M2047.5,832.6H1841l-41.3,41.2h247.8V832.6z"/>
</g>
</svg>
