<svg xmlns="http://www.w3.org/2000/svg" viewBox="0 0 649.4 500.5"><linearGradient id="a" gradientUnits="userSpaceOnUse" x1="90" y1="205.249" x2="649.411" y2="205.249"><stop offset="0" stop-color="#fc2a00"/><stop offset="1" stop-color="#2e50f7"/></linearGradient><path d="M127.7 354.2l18.6 18.6h148.9l18.6-18.6V149.4L127.7 316.9H90.5V37.7L127.7.5h186.1L351 37.7v18.6l-37.2 37.2V56.3l-18.6-18.6H146.3l-18.6 18.6V261L313.9 93.6h37.2v279.2L313.9 410H127.7l-37.2-37.2v-18.6l37.2-37.2v37.2zm297.8 18.6h223.4V410H388.3v-93.1L611.7 93.6V56.3l-18.6-18.6H444.2l-18.6 18.6v74.5h-37.2V37.7L425.6.5h186.1l37.2 37.2v74.5L425.5 335.5v37.3z" opacity=".2" fill="#101010" stroke="url(#a)" stroke-miterlimit="10"/><linearGradient id="b" gradientUnits="userSpaceOnUse" x1="80" y1="215.249" x2="639.411" y2="215.249"><stop offset="0" stop-color="#fc2a00"/><stop offset="1" stop-color="#2e50f7"/></linearGradient><path d="M117.7 364.2l18.6 18.6h148.9l18.6-18.6V159.4L117.7 326.9H80.5V47.7l37.2-37.2h186.1L341 47.7v18.6l-37.2 37.2V66.3l-18.6-18.6H136.3l-18.6 18.6V271l186.1-167.5H341v279.2L303.9 420H117.7l-37.2-37.2v-18.6l37.2-37.2v37.2zm297.8 18.6h223.4V420H378.3v-93.1l223.4-223.4V66.3l-18.6-18.6H434.2l-18.6 18.6v74.5h-37.2V47.7l37.2-37.2h186.1l37.2 37.2v74.5L415.5 345.5v37.3z" opacity=".2" fill="#101010" stroke="url(#b)" stroke-miterlimit="10"/><linearGradient id="c" gradientUnits="userSpaceOnUse" x1="70" y1="225.249" x2="629.411" y2="225.249"><stop offset="0" stop-color="#fc2a00"/><stop offset="1" stop-color="#2e50f7"/></linearGradient><path d="M107.7 374.2l18.6 18.6h148.9l18.6-18.6V169.4L107.7 336.9H70.5V57.7l37.2-37.2h186.1L331 57.7v18.6l-37.2 37.2V76.3l-18.6-18.6H126.3l-18.6 18.6V281l186.1-167.5H331v279.2L293.9 430H107.7l-37.2-37.2v-18.6l37.2-37.2v37.2zm297.8 18.6h223.4V430H368.3v-93.1l223.4-223.4V76.3l-18.6-18.6H424.2l-18.6 18.6v74.5h-37.2V57.7l37.2-37.2h186.1l37.2 37.2v74.5L405.5 355.5v37.3z" opacity=".3" fill="#101010" stroke="url(#c)" stroke-miterlimit="10"/><linearGradient id="d" gradientUnits="userSpaceOnUse" x1="60" y1="235.249" x2="619.411" y2="235.249"><stop offset="0" stop-color="#fc2a00"/><stop offset="1" stop-color="#2e50f7"/></linearGradient><path d="M97.7 384.2l18.6 18.6h148.9l18.6-18.6V179.4L97.7 346.9H60.5V67.7l37.2-37.2h186.1L321 67.7v18.6l-37.2 37.2V86.3l-18.6-18.6H116.3L97.7 86.3V291l186.1-167.5H321v279.2L283.9 440H97.7l-37.2-37.2v-18.6L97.7 347v37.2zm297.8 18.6h223.4V440H358.3v-93.1l223.4-223.4V86.3l-18.6-18.6H414.2l-18.6 18.6v74.5h-37.2V67.7l37.2-37.2h186.1l37.2 37.2v74.5L395.5 365.5v37.3z" opacity=".4" fill="#101010" stroke="url(#d)" stroke-miterlimit="10"/><linearGradient id="e" gradientUnits="userSpaceOnUse" x1="50" y1="245.249" x2="609.411" y2="245.249"><stop offset="0" stop-color="#fc2a00"/><stop offset="1" stop-color="#2e50f7"/></linearGradient><path d="M87.7 394.2l18.6 18.6h148.9l18.6-18.6V189.4L87.7 356.9H50.5V77.7l37.2-37.2h186.1L311 77.7v18.6l-37.2 37.2V96.3l-18.6-18.6H106.3L87.7 96.3V301l186.1-167.5H311v279.2L273.9 450H87.7l-37.2-37.2v-18.6L87.7 357v37.2zm297.8 18.6h223.4V450H348.3v-93.1l223.4-223.4V96.3l-18.6-18.6H404.2l-18.6 18.6v74.5h-37.2V77.7l37.2-37.2h186.1l37.2 37.2v74.5L385.5 375.5v37.3z" opacity=".5" fill="#101010" stroke="url(#e)" stroke-miterlimit="10"/><linearGradient id="f" gradientUnits="userSpaceOnUse" x1="40" y1="255.249" x2="599.411" y2="255.249"><stop offset="0" stop-color="#fc2a00"/><stop offset="1" stop-color="#2e50f7"/></linearGradient><path d="M77.7 404.2l18.6 18.6h148.9l18.6-18.6V199.4L77.7 366.9H40.5V87.7l37.2-37.2h186.1L301 87.7v18.6l-37.2 37.2v-37.2l-18.6-18.6H96.3l-18.6 18.6V311l186.1-167.5H301v279.2L263.9 460H77.7l-37.2-37.2v-18.6L77.7 367v37.2zm297.8 18.6h223.4V460H338.3v-93.1l223.4-223.4v-37.2l-18.6-18.6H394.2l-18.6 18.6v74.5h-37.2V87.7l37.2-37.2h186.1l37.2 37.2v74.5L375.5 385.5v37.3z" opacity=".6" fill="#101010" stroke="url(#f)" stroke-miterlimit="10"/><linearGradient id="g" gradientUnits="userSpaceOnUse" x1="30" y1="265.249" x2="589.411" y2="265.249"><stop offset="0" stop-color="#fc2a00"/><stop offset="1" stop-color="#2e50f7"/></linearGradient><path d="M67.7 414.2l18.6 18.6h148.9l18.6-18.6V209.4L67.7 376.9H30.5V97.7l37.2-37.2h186.1L291 97.7v18.6l-37.2 37.2v-37.2l-18.6-18.6H86.3l-18.6 18.6V321l186.1-167.5H291v279.2L253.9 470H67.7l-37.2-37.2v-18.6L67.7 377v37.2zm297.8 18.6h223.4V470H328.3v-93.1l223.4-223.4v-37.2l-18.6-18.6H384.2l-18.6 18.6v74.5h-37.2V97.7l37.2-37.2h186.1l37.2 37.2v74.5L365.5 395.5v37.3z" opacity=".7" fill="#101010" stroke="url(#g)" stroke-miterlimit="10"/><linearGradient id="h" gradientUnits="userSpaceOnUse" x1="20" y1="275.249" x2="579.411" y2="275.249"><stop offset="0" stop-color="#fc2a00"/><stop offset="1" stop-color="#2e50f7"/></linearGradient><path d="M57.7 424.2l18.6 18.6h148.9l18.6-18.6V219.4L57.7 386.9H20.5V107.7l37.2-37.2h186.1l37.2 37.2v18.6l-37.2 37.2v-37.2l-18.6-18.6H76.3l-18.6 18.6V331l186.1-167.5H281v279.2L243.9 480H57.7l-37.2-37.2v-18.6L57.7 387v37.2zm297.8 18.6h223.4V480H318.3v-93.1l223.4-223.4v-37.2l-18.6-18.6H374.2l-18.6 18.6v74.5h-37.2v-93.1l37.2-37.2h186.1l37.2 37.2v74.5L355.5 405.5v37.3z" opacity=".8" fill="#101010" stroke="url(#h)" stroke-miterlimit="10"/><linearGradient id="i" gradientUnits="userSpaceOnUse" x1="10" y1="285.249" x2="569.411" y2="285.249"><stop offset="0" stop-color="#fc2a00"/><stop offset="1" stop-color="#2e50f7"/></linearGradient><path d="M47.7 434.2l18.6 18.6h148.9l18.6-18.6V229.4L47.7 396.9H10.5V117.7l37.2-37.2h186.1l37.2 37.2v18.6l-37.2 37.2v-37.2l-18.6-18.6H66.3l-18.6 18.6V341l186.1-167.5H271v279.2L233.9 490H47.7l-37.2-37.2v-18.6L47.7 397v37.2zm297.8 18.6h223.4V490H308.3v-93.1l223.4-223.4v-37.2l-18.6-18.6H364.2l-18.6 18.6v74.5h-37.2v-93.1l37.2-37.2h186.1l37.2 37.2v74.5L345.5 415.5v37.3z" opacity=".9" fill="#101010" stroke="url(#i)" stroke-miterlimit="10"/><linearGradient id="j" gradientUnits="userSpaceOnUse" x1="0" y1="295.249" x2="559.411" y2="295.249"><stop offset="0" stop-color="#fc2a00"/><stop offset="1" stop-color="#2e50f7"/></linearGradient><path d="M37.7 444.2l18.6 18.6h148.9l18.6-18.6V239.4L37.7 406.9H.5V127.7l37.2-37.2h186.1l37.2 37.2v18.6l-37.2 37.2v-37.2l-18.6-18.6H56.3l-18.6 18.6V351l186.1-167.5H261v279.2L223.9 500H37.7L.5 462.8v-18.6L37.7 407v37.2zm297.8 18.6h223.4V500H298.3v-93.1l223.4-223.4v-37.2l-18.6-18.6H354.2l-18.6 18.6v74.5h-37.2v-93.1l37.2-37.2h186.1l37.2 37.2v74.5L335.5 425.5v37.3z" fill="#101010" stroke="url(#j)" stroke-miterlimit="10"/></svg>